<svg preserveAspectRatio="none" width="100%" height="100%" overflow="visible" style="display: block;" viewBox="0 0 42.8084 41.7343" fill="none" xmlns="http://www.w3.org/2000/svg">
<g id="Group">
<path id="Vector" d="M19.5851 15.6582C18.2606 14.9224 17.3187 13.4507 17.1127 11.773C16.7889 9.06514 18.7315 6.5633 21.4394 6.23953C22.4402 6.1218 22.9994 6.23953 24.2062 6.68104C25.5012 7.21084 26.7374 8.18214 27.797 9.50664L32.6241 5.592C30.8875 3.41393 28.7389 1.79509 26.4725 0.882653H26.3842C24.5005 0.176251 22.9405 -0.17695 20.6742 0.0879512C14.552 0.823787 10.1959 6.41614 10.9317 12.5383C11.02 13.1858 11.1672 13.8039 11.3438 14.3926C11.5204 14.3926 11.6675 14.3337 11.8441 14.3043C14.4931 13.9805 17.1716 14.4515 19.5557 15.6582H19.5851Z" fill="var(--fill-0, #E1690D)"/>
<path id="Vector_2" d="M36.4508 27.0176C37.8047 22.9558 37.9224 18.3347 36.7451 13.8903L30.7407 15.4797C31.4471 18.1287 31.5354 20.866 31.0056 23.3384L19.9386 15.8623L19.6148 15.6563H19.5854C17.2013 14.4495 14.5229 13.9786 11.8739 14.3023C11.6973 14.3023 11.5207 14.3612 11.3735 14.3906C4.25061 15.5385 -0.782508 22.1316 0.100494 29.3428C0.630296 33.6106 3.191 37.4076 6.92905 39.4973C9.84295 40.9984 12.9923 41.7343 16.1123 41.7343C22.7937 41.7343 29.3867 38.4377 33.5663 32.6099L39.3352 36.4951L42.8084 31.3443L36.4508 27.047V27.0176ZM9.78409 33.9638C7.84148 32.8159 6.54641 30.8145 6.28151 28.5775C5.78114 24.604 8.63618 20.9543 12.6097 20.4833C13.9931 20.3067 15.3764 20.5422 16.6421 21.1309L28.4449 29.1073C24.0593 35.0823 16.1711 37.2898 9.81352 33.9638H9.78409Z" fill="var(--fill-0, #0F83C6)"/>
</g>
</svg>
