<svg width="195" height="40" viewBox="0 0 195 40" fill="none" xmlns="http://www.w3.org/2000/svg">
<g clip-path="url(#clip0_939_30)">
<path d="M185.943 27.4665H169.938L166.776 34.8624H160.65L175.047 2.85109H180.89L195.343 34.8624H189.133L185.943 27.4665ZM183.967 22.8087L177.926 8.80733L171.942 22.8087H183.967Z" fill="#101010"/>
<path d="M134.82 2.85109H140.777V29.8377H157.516V34.8624H134.849V2.85109H134.82Z" fill="#101010"/>
<path d="M104.672 2.85109H110.628V29.8377H127.368V34.8624H104.7V2.85109H104.672Z" fill="#101010"/>
<path d="M87.3398 2.85109H93.2961V34.8624H87.3398V2.85109Z" fill="#101010"/>
<path d="M81.1862 2.85109L67.2412 34.8624H61.3979L47.3965 2.85109H53.8326L64.4748 27.5512L75.2299 2.85109H81.1862Z" fill="#101010"/>
<path d="M18.7715 15.0176C17.5012 14.3119 16.5979 12.9005 16.4003 11.2915C16.0898 8.69443 17.9529 6.29499 20.5499 5.98448C21.5097 5.87156 22.046 5.98448 23.2034 6.40791C24.4454 6.91602 25.631 7.84757 26.6473 9.11786L31.2768 5.36344C29.6113 3.27452 27.5506 1.72195 25.377 0.846861H25.2923C23.4857 0.169373 21.9896 -0.169371 19.8159 0.0846869C13.9444 0.790403 9.76655 6.15385 10.4723 12.0254C10.557 12.6464 10.6981 13.2392 10.8675 13.8038C11.0368 13.8038 11.178 13.7474 11.3474 13.7191C13.8879 13.4086 16.4567 13.8603 18.7433 15.0176H18.7715Z" fill="#E1690D"/>
<path d="M34.947 25.9139C36.2456 22.0184 36.3585 17.5865 35.2293 13.3239L29.4707 14.8483C30.1482 17.3889 30.2329 20.0141 29.7247 22.3853L19.1108 15.2152L18.8003 15.0176H18.772C16.4855 13.8603 13.9167 13.4086 11.3761 13.7191C11.2068 13.7191 11.0374 13.7756 10.8962 13.8038C4.0649 14.9047 -0.762197 21.228 0.0846622 28.144C0.592778 32.2371 3.04867 35.8786 6.63371 37.8829C9.42835 39.3225 12.4488 40.0282 15.441 40.0282C21.849 40.0282 28.1722 36.8666 32.1806 31.2774L37.7135 35.0035L41.0444 30.0635L34.947 25.9421V25.9139ZM9.37189 32.5759C7.5088 31.475 6.26674 29.5554 6.01268 27.41C5.53279 23.5992 8.27097 20.0988 12.0818 19.6471C13.4086 19.4778 14.7353 19.7036 15.9492 20.2682L27.2689 27.9181C23.0628 33.6486 15.4975 35.7657 9.40012 32.5759H9.37189Z" fill="#0F83C6"/>
</g>
<defs>
<clipPath id="clip0_939_30">
<rect width="195" height="40" fill="white"/>
</clipPath>
</defs>
</svg>
