<svg preserveAspectRatio="none" width="100%" height="100%" overflow="visible" style="display: block;" viewBox="0 0 63.1633 61.5651" fill="none" xmlns="http://www.w3.org/2000/svg">
<g id="logo mark">
<path id="Vector" d="M28.8974 23.0974C26.9431 22.012 25.5534 19.8412 25.2494 17.3664C24.7717 13.372 27.638 9.68152 31.6334 9.20393C33.11 9.03027 33.9351 9.20394 35.7157 9.85519C37.6266 10.6367 39.4506 12.0695 41.014 14.0232L48.1363 8.24876C45.574 5.03588 42.4037 2.64794 39.0597 1.302H38.9294C36.15 0.259989 33.8483 -0.261018 30.5043 0.129737C21.4711 1.21517 15.0436 9.46444 16.1294 18.4952C16.2596 19.4504 16.4768 20.3622 16.7374 21.2305C16.9979 21.2305 17.2151 21.1437 17.4756 21.1003C21.3842 20.6227 25.3362 21.3173 28.854 23.0974H28.8974Z" fill="var(--fill-0, #E1690D)"/>
<path id="Vector_2" d="M53.7827 39.8564C55.7805 33.8648 55.9542 27.0483 54.217 20.4923L45.3576 22.8368C46.3999 26.7444 46.5301 30.7822 45.7484 34.4292L29.4192 23.4012L28.9415 23.0973H28.8981C25.3804 21.3172 21.4284 20.6225 17.5198 21.1001C17.2592 21.1001 16.9986 21.187 16.7815 21.2304C6.27174 22.9236 -1.15456 32.6491 0.148296 43.2863C0.930013 49.5818 4.70831 55.1826 10.2238 58.2653C14.5232 60.4795 19.1701 61.565 23.7735 61.565C33.6318 61.565 43.3598 56.7022 49.5267 48.1056L58.0387 53.8367L63.1633 46.2387L53.7827 39.8998V39.8564ZM14.4363 50.1028C11.57 48.4095 9.65918 45.4572 9.26832 42.1575C8.53004 36.2961 12.7426 30.9124 18.6055 30.2177C20.6466 29.9572 22.6878 30.3046 24.5552 31.1729L41.9701 42.939C35.4993 51.7527 23.8604 55.009 14.4798 50.1028H14.4363Z" fill="var(--fill-0, #0F83C6)"/>
</g>
</svg>
