<svg preserveAspectRatio="none" width="100%" height="100%" overflow="visible" style="display: block;" viewBox="0 0 147.638 33.2009" fill="none" xmlns="http://www.w3.org/2000/svg">
<g id="Group">
<path id="Vector" d="M16.8065 17.0991C16.8065 17.0991 16.8065 18.041 16.7771 18.4531C16.3944 27.2242 16.0118 30.5796 15.0405 31.6981C14.3929 32.5222 13.6571 32.7283 12.5975 32.846C11.6556 32.9932 9.97794 32.9932 8.24137 32.9049C8.1825 31.9924 7.85874 30.7857 7.2995 29.9615C8.94777 30.1381 10.5372 30.1381 11.1553 30.1381C11.7439 30.1381 12.0971 30.1087 12.3326 29.7555C12.9507 29.108 13.3039 26.5473 13.5982 20.0719H8.56514C7.741 25.1639 6.09273 29.9321 2.29582 33.1109C1.79545 32.3162 0.824152 31.286 1.61822e-05 30.7562C4.8271 26.871 5.62179 19.8953 5.94556 13.626H2.20752V1.67603H16.571V13.626H9.21267C9.1538 14.7739 9.0655 15.9218 8.91834 17.0697H16.8065V17.0991ZM5.23916 10.6827H13.3039V4.64881H5.23916V10.6827ZM22.9875 24.222H19.7498V4.35447H22.9875V24.222ZM31.6998 0.734165V28.8136C31.6998 30.9034 31.1994 31.8747 29.9338 32.4928C28.6093 32.9932 26.4312 33.1109 23.1641 33.0815C22.9875 32.169 22.4871 30.6385 21.9868 29.6672C24.4297 29.7849 26.6961 29.7261 27.432 29.7261C28.1089 29.6966 28.3738 29.4612 28.3738 28.8136V0.734165H31.7292H31.6998Z" fill="var(--fill-0, #101010)"/>
<path id="Vector_2" d="M45.7992 10.1237H49.1251V33.0229H45.7992V25.3408C43.68 26.6359 41.5313 27.9309 39.6476 29.0494L38.1465 25.8412C40.0891 24.9287 42.9441 23.3982 45.7992 21.8971V10.1237ZM41.6785 11.772C43.3562 13.7146 45.1222 16.4225 45.7697 18.2474L42.7381 19.4836C42.12 17.6881 40.4717 14.9508 38.8529 12.9199L41.6785 11.772ZM50.3025 5.82646V9.0347H46.9471V5.82646H39.0884V2.79482H46.9471V0.0280762H50.3025V2.79482H59.368V0.0280762H62.7528V2.79482H70.6998V5.82646H62.7528V9.0347H59.368V5.82646H50.3025ZM62.5173 19.5719V28.6668H70.7881V31.8456H51.3915V28.6668H59.1619V19.5719H50.5674V16.3931H59.1619V10.1237H62.5173V16.3931H71.1708V19.5719H62.5173Z" fill="var(--fill-0, #101010)"/>
<path id="Vector_3" d="M88.6542 18.4534C87.418 18.8949 86.1818 19.307 84.9456 19.719V29.2849C84.9456 31.0215 84.5923 31.9045 83.5033 32.4637C82.5026 32.9346 80.9426 33.0524 78.4702 32.9935C78.3525 32.1694 77.9698 30.786 77.5283 29.9324C79.0294 29.9913 80.5011 29.9913 80.972 29.9619C81.443 29.9619 81.6196 29.8147 81.6196 29.2849V20.8375C80.0596 21.3379 78.5585 21.8382 77.234 22.2503L76.2627 18.8066C77.7049 18.4828 79.5887 17.9825 81.6196 17.3938V9.97657H76.7336V6.88606H81.6196V0.0280762H84.9456V6.85663H88.713V9.94714H84.9456V16.4519L88.301 15.51L88.6542 18.424V18.4534ZM107.492 16.1282C106.196 20.4843 104.018 23.8691 101.222 26.5476C103.695 28.1664 106.667 29.3438 110.082 30.0502C109.375 30.8154 108.345 32.1694 107.874 33.0818C104.195 32.1694 101.075 30.7271 98.4555 28.7845C95.571 30.7566 92.2156 32.1988 88.5953 33.1407C88.2421 32.2282 87.4474 30.8449 86.8293 30.0796C90.1553 29.4026 93.2458 28.1958 95.8948 26.5181C93.9227 24.4578 92.3039 22.0148 91.0677 19.1598L93.4224 18.4534H90.0375V15.3923H104.695L105.313 15.2451L107.521 16.1576L107.492 16.1282ZM95.2178 5.06119C95.2178 8.3283 94.2759 12.3607 90.2436 14.9508C89.8609 14.2738 88.6247 13.0082 88.0066 12.5373C91.5386 10.3298 92.0684 7.41586 92.0684 4.97289V1.38201H104.224V9.62337C104.224 10.4769 104.313 10.5947 104.843 10.5947H106.403C107.021 10.5947 107.168 10.0943 107.227 6.62116C107.874 7.15096 109.14 7.6219 109.993 7.85736C109.728 12.2135 108.963 13.3614 106.756 13.3614H104.313C101.723 13.3614 100.987 12.5667 100.987 9.6528V4.47252H95.1884V5.06119H95.2178ZM94.2171 18.424C95.2472 20.7198 96.7483 22.7507 98.5732 24.4872C100.486 22.839 102.046 20.8081 103.106 18.424H94.2171Z" fill="var(--fill-0, #101010)"/>
<path id="Vector_4" d="M125.328 9.94851C122.208 10.9787 118.853 11.9794 116.174 12.8035L114.85 9.86021C117.469 9.33041 121.296 8.30024 125.004 7.32893L125.328 9.94851ZM128.654 28.727C125.74 30.493 121.237 32.2296 117.646 33.2009C117.057 32.5534 115.88 31.2877 115.115 30.7285C118.823 30.0221 123.12 28.7565 125.593 27.3437L128.654 28.7565V28.727ZM124.062 5.91613C122.385 5.00369 119.059 3.70862 116.527 2.97279L117.999 0.706416C120.442 1.32452 123.797 2.50185 125.534 3.38486L124.062 5.94556V5.91613ZM130.861 4.94483C130.008 6.03386 128.978 7.0346 127.8 7.9176C127.182 7.32893 126.064 6.62253 125.269 6.29876C127.918 4.50333 129.684 2.08979 130.597 1.36494e-05L133.628 0.470948C133.304 1.14792 132.951 1.82489 132.51 2.53129H144.077L144.577 2.41355L146.814 3.00222C145.872 4.88596 144.548 6.97573 143.312 8.21194L140.692 7.3878C141.31 6.74026 141.928 5.82783 142.488 4.94483H137.513C138.308 7.53497 140.339 9.83077 147.638 10.8021C147.02 11.4496 146.226 12.7152 145.961 13.5394C144.96 13.3628 144.018 13.1567 143.194 12.9213V27.2259H119.706V12.7447H126.947C126.623 12.0383 125.976 11.067 125.475 10.5372C131.274 9.59531 133.334 7.88817 134.158 4.91539H130.891L130.861 4.94483ZM139.839 14.8933H122.944V16.8948H139.839V14.8933ZM139.839 18.9257H122.944V20.986H139.839V18.9257ZM139.839 23.0169H122.944V25.1067H139.839V23.0169ZM142.605 12.7741C139.015 11.6556 137.131 9.97794 136.012 8.06477C134.629 10.2723 132.274 11.7734 127.977 12.7741H142.576H142.605ZM136.513 27.3731C140.368 28.6682 144.695 30.3164 147.285 31.5526L143.43 33.142C141.31 31.9941 137.513 30.3753 133.775 29.0802L136.513 27.4025V27.3731Z" fill="var(--fill-0, #101010)"/>
</g>
</svg>
