<svg preserveAspectRatio="none" width="100%" height="100%" overflow="visible" style="display: block;" viewBox="0 0 145.3 34.5793" fill="none" xmlns="http://www.w3.org/2000/svg">
<g id="Group">
<path id="Vector" d="M14.2132 33.6253L11.0137 30.6104C18.0588 28.0262 21.3506 24.7651 21.3506 14.7975V13.29H11.4136V18.9199C11.4136 20.4581 11.5367 22.0579 11.5982 22.5809H7.41424C7.44501 22.0579 7.59883 20.5196 7.59883 18.9199V13.29H3.90709C2.15351 13.29 0.584526 13.3515 0 13.4438V9.35214C0.492232 9.47519 2.18428 9.65978 3.90709 9.65978H7.59883V5.32199C7.59883 4.36829 7.50654 3.29153 7.38348 2.30706H11.629C11.5674 2.7993 11.4136 3.93758 11.4136 5.32199V9.65978H21.3506V5.29122C21.3506 3.78376 21.2275 2.55318 21.166 2.03018H25.4115C25.3192 2.58395 25.1961 3.78376 25.1961 5.29122V9.65978H28.734C30.5799 9.65978 31.7797 9.53672 32.4873 9.44443V13.4438C31.872 13.3823 30.5799 13.3208 28.7648 13.3208H25.1961V14.6129C25.1961 24.3344 23.0118 29.6875 14.2132 33.6561V33.6253Z" fill="var(--fill-0, #222222)"/>
<path id="Vector_2" d="M55.8991 4.30619V7.53646H63.498C65.0054 7.53646 65.7438 7.35187 66.3283 7.16729L68.9125 8.7978C68.6356 9.44386 68.3895 10.6437 68.2665 11.3513C67.7127 14.6123 66.636 18.8886 64.6363 22.3649C61.7444 27.5949 56.3298 31.4712 49.5309 33.3171L46.4544 29.7484C47.9004 29.5331 49.6232 29.0408 50.9768 28.5178C54.4532 27.3488 58.2065 24.7953 60.4523 21.442C62.4212 18.4271 63.498 14.3354 63.9287 11.0436H43.901V17.2273C43.901 17.9656 43.9317 19.0731 44.0548 19.7192H39.9631C40.0554 18.9193 40.117 17.8426 40.117 17.0119V10.4283C40.117 9.59768 40.0862 8.24404 39.9631 7.38264C41.1322 7.5057 42.2397 7.56722 43.6241 7.56722H51.8382V4.33695C51.8382 3.38325 51.8075 2.58338 51.5614 1.19897H56.1145C55.9607 2.55261 55.8991 3.38325 55.8991 4.33695V4.30619Z" fill="var(--fill-0, #222222)"/>
<path id="Vector_3" d="M89.5252 2.15471H94.2629C94.1091 3.13917 93.986 5.07733 93.986 6.21562V10.8611H103.308C104.784 10.8611 106.261 10.7995 106.938 10.6765V14.7374C106.261 14.6759 104.6 14.6143 103.277 14.6143H93.986C93.8322 22.5516 91.248 28.7045 83.403 33.3191L79.7113 30.5811C86.9409 27.2278 89.7097 21.7517 89.8943 14.6143H79.4652C77.9577 14.6143 76.5118 14.6451 75.5888 14.7681V10.6457C76.481 10.7688 77.9577 10.8611 79.3729 10.8611H89.8636V6.21562C89.8636 5.0158 89.7097 3.13917 89.4636 2.15471H89.5252Z" fill="var(--fill-0, #222222)"/>
<path id="Vector_4" d="M123.735 8.86018C122.873 10.7368 121.796 12.5827 120.627 14.367V34.5793H117.305V18.7356C116.105 20.1815 114.813 21.4429 113.551 22.4888C113.152 21.7505 112.044 20.0277 111.429 19.3201C114.997 16.5821 118.474 12.2443 120.504 7.81418L123.735 8.86018ZM117.089 9.90617H113.613V3.04568H127.457V0H131.056V3.04568H145.085V9.41394H141.516V6.27596H117.059V9.8754L117.089 9.90617ZM136.194 13.2903C135.825 14.4593 135.456 15.6284 135.056 16.7051H143.855V34.5485H140.409V33.2257H128.626V34.5793H125.304V16.7051H131.518C131.795 15.6284 132.072 14.3978 132.287 13.2903H123.735V10.1523H145.3V13.2903H136.194ZM140.409 19.72H128.626V23.2887H140.409V19.72ZM140.409 30.2723V26.2114H128.626V30.2723H140.409Z" fill="var(--fill-0, #222222)"/>
</g>
</svg>
