<svg width="238" height="155" viewBox="0 0 238 155" fill="none" xmlns="http://www.w3.org/2000/svg">
<mask id="mask0_881_5478" style="mask-type:alpha" maskUnits="userSpaceOnUse" x="0" y="0" width="238" height="153">
<rect width="238" height="152.32" fill="#D9D9D9"/>
</mask>
<g mask="url(#mask0_881_5478)">
</g>
<g clip-path="url(#clip0_881_5478)">
<path d="M32.0796 57.4336C35.0055 63.7617 26.6245 70.5352 21.8392 73.1477C17.3897 75.5767 12.5741 77.6296 9.10522 81.3238C5.6328 85.0215 3.85908 90.0683 3.35894 95.1115C2.8588 100.155 3.53935 105.239 4.43782 110.227C6.36158 120.896 9.29456 131.383 13.1832 141.505C14.9051 145.989 13.2618 150.761 13.1582 155.332C20.1227 154.917 27.3997 156.033 34.4625 156.106C46.9321 156.236 59.3982 155.748 71.8589 155.259C74.1399 155.17 76.5191 155.054 78.5072 153.937C80.5381 152.796 81.8885 150.763 83.0353 148.741C85.0287 145.223 86.6488 141.497 87.8634 137.642C88.4136 135.896 88.8834 134.099 88.903 132.269C88.9334 129.425 87.8777 126.693 86.8399 124.045C83.3443 115.124 79.8469 106.203 76.3512 97.2838C73.8845 90.9896 72.4001 83.3749 66.4198 79.3671C63.928 77.6973 60.7843 77.3017 61.3255 73.759C61.5291 72.4313 61.9596 71.0966 62.2704 69.7886C62.5401 68.657 62.7027 67.2188 61.7417 66.5577C60.6003 65.7736 59.1142 66.8731 58.2568 67.9602C57.1547 69.3573 54.7361 75.4359 53.3036 74.356C51.3387 72.8751 53.6162 69.4019 55.0326 68.5625C56.9421 67.4309 58.7926 66.7359 60.2305 64.8452C61.7095 62.8992 62.09 60.3562 62.3008 57.9237C62.8099 52.0215 65.5999 36.3537 57.0189 34.4006C50.4135 32.8983 43.2846 35.9047 39.1209 41.094C37.3562 43.2948 36.129 45.7451 34.1838 47.8212C31.2526 50.9487 30.1077 53.1727 32.0779 57.4336H32.0796Z" fill="white"/>
<path d="M46.5416 36.1466C40.5738 37.3103 40.1683 45.2101 37.7408 49.5904C37.3282 50.3353 36.7227 51.1657 35.8689 51.1283C35.0972 51.0945 34.5381 50.3478 33.7861 50.1714C32.7162 49.9201 31.6998 50.8788 30.6031 50.8361C28.9883 50.7719 28.3078 48.8063 27.1842 47.648C26.5001 46.9423 25.557 46.4896 25.0068 45.6752C24.2316 44.533 24.4317 43.0182 24.6603 41.6585C25.5499 36.3925 26.6127 30.7737 30.3673 26.9673C33.6361 23.6509 38.3803 22.3143 42.9334 21.3217C47.8884 20.2418 53.9044 19.7428 57.2107 23.5796C58.4521 25.0213 59.1666 26.9602 60.7599 28.0044C61.7691 28.6656 63.0749 28.9204 63.8376 29.8542C64.3681 30.5046 64.5342 31.3743 64.6307 32.2083C64.9986 35.416 64.6932 38.3974 63.266 41.2593C63.8537 40.0832 58.1556 36.5191 57.1517 36.4032C55.6227 36.2268 54.4063 37.0519 52.9541 37.0769C50.8428 37.1143 48.9012 35.7599 46.7577 36.111C46.6845 36.1235 46.613 36.1359 46.5416 36.1502V36.1466Z" fill="#C6CED3"/>
<path d="M61.8914 42.4022C62.3844 48.9102 63.7312 56.0634 60.5356 62.1259C59.2477 64.5709 57.1596 66.9624 54.3731 67.6645C51.6384 68.3524 49.0698 66.6149 46.7495 65.3906C43.7505 63.81 40.7782 61.962 38.8633 59.0839C38.1667 58.0379 36.4644 59.018 37.1664 60.073C39.0313 62.8762 41.791 64.9451 44.724 66.5383C46.1244 67.2992 47.5301 68.094 48.9859 68.748C50.3845 69.3771 51.8796 69.8582 53.4336 69.7745C56.7845 69.5927 59.6014 67.1994 61.3948 64.5263C63.2221 61.8034 64.1134 58.5975 64.4171 55.3612C64.8226 51.0362 64.1849 46.7094 63.858 42.404C63.8187 41.8765 63.4347 41.4238 62.8756 41.4238C62.3754 41.4238 61.8521 41.8729 61.8931 42.404L61.8914 42.4022Z" fill="#101841"/>
<path d="M60.9733 48.9642C62.2379 48.9642 62.2397 47.0039 60.9733 47.0039C59.7068 47.0039 59.7068 48.9642 60.9733 48.9642Z" fill="#101841"/>
<path d="M50.7369 50.3665C52.0016 50.3665 52.0034 48.4062 50.7369 48.4062C49.4705 48.4062 49.4705 50.3665 50.7369 50.3665Z" fill="#101841"/>
<path d="M56.7454 46.6821C55.9987 47.4555 55.8416 48.5229 56.1059 49.5387C56.3381 50.4315 56.874 51.1479 57.5099 51.7966C58.0011 52.2991 58.5834 52.7963 58.7085 53.3416C58.7299 53.4325 58.7227 53.2667 58.7156 53.4325C58.7031 53.6909 58.7674 53.3291 58.6888 53.5929C58.6299 53.7907 58.5334 53.9653 58.4262 54.14C58.1458 54.5962 57.7975 55.006 57.5063 55.4551C56.8168 56.5172 58.5173 57.5009 59.2032 56.4441C59.757 55.5905 60.5018 54.8207 60.6483 53.7711C60.7787 52.8337 60.3446 52.0318 59.7659 51.3297C59.523 51.0338 59.2479 50.7648 58.98 50.4921C58.8496 50.3602 58.7192 50.2284 58.5959 50.0911C58.537 50.027 58.478 49.961 58.4244 49.8933C58.3619 49.8149 58.4548 49.9486 58.3709 49.8167C58.1654 49.5013 57.9957 49.136 57.9529 48.7795C57.9154 48.4802 57.9547 48.2574 58.1386 48.0685C59.0157 47.1597 57.6278 45.7714 56.749 46.6821H56.7454Z" fill="#101841"/>
<path d="M34.607 49.0496C33.1852 49.0318 31.6097 49.3294 30.6058 50.4235C29.7663 51.3377 29.4573 52.5852 29.5377 53.8023C29.7056 56.331 31.056 58.9738 32.9119 60.6917C34.5659 62.2225 37.2256 63.2971 39.2869 61.8857C39.7245 61.5863 39.921 61.025 39.6388 60.5456C39.3851 60.1143 38.735 59.8934 38.2938 60.1945C37.5793 60.6846 36.7397 60.6668 35.9484 60.3585C35.5716 60.2123 35.2161 59.9949 34.8803 59.7686C34.7892 59.7062 34.7017 59.6421 34.6123 59.5779C34.4962 59.4942 34.7928 59.7365 34.6213 59.5851C34.532 59.5066 34.4409 59.4336 34.3516 59.3552C34.1658 59.1877 33.9907 59.0095 33.8228 58.8241C33.7442 58.7368 33.6674 58.6477 33.5906 58.5586C33.5478 58.5069 33.5067 58.4552 33.4638 58.4053C33.3316 58.245 33.5549 58.5319 33.4191 58.3483C33.0941 57.9099 32.7975 57.4519 32.535 56.9726C32.4046 56.7356 32.2831 56.4932 32.1706 56.2473C32.1474 56.1956 32.1241 56.1439 32.1009 56.0922C31.9902 55.8428 32.1456 56.2063 32.0848 56.0513C32.0277 55.9069 31.9705 55.7626 31.9187 55.6164C31.7419 55.1157 31.6097 54.6042 31.524 54.0785C31.499 53.9217 31.5418 54.3209 31.524 54.0696C31.5204 54.0179 31.5132 53.968 31.5097 53.9164C31.499 53.7916 31.4918 53.6651 31.49 53.5403C31.4882 53.4174 31.49 53.2962 31.4954 53.1732C31.499 53.0913 31.5543 52.7331 31.5043 53.0075C31.5436 52.7919 31.5936 52.5834 31.6597 52.3749C31.6758 52.3214 31.699 52.2697 31.7187 52.2181C31.6294 52.4462 31.674 52.3125 31.7008 52.2697C31.7705 52.1575 31.8294 52.0381 31.8991 51.9258C31.9223 51.8884 31.9509 51.8527 31.9759 51.8171C31.8258 52.0256 31.9491 51.8527 31.9937 51.81C32.092 51.7137 32.1884 51.6193 32.2938 51.5302C32.1081 51.687 32.376 51.4821 32.4492 51.4393C32.5028 51.4072 32.5582 51.3787 32.6136 51.3502C32.6386 51.3377 32.8672 51.2344 32.7422 51.286C32.5993 51.3449 32.8493 51.2486 32.8511 51.2486C32.9315 51.2219 33.0119 51.1969 33.0923 51.1738C33.2512 51.1292 33.412 51.0972 33.5746 51.0669C33.6174 51.0579 33.8193 51.0348 33.6478 51.0544C33.7478 51.0419 33.8496 51.0348 33.9514 51.0276C34.1694 51.0134 34.3891 51.0116 34.607 51.0134C35.8716 51.0294 35.8716 49.0692 34.607 49.0531V49.0496Z" fill="#101841"/>
<path d="M55.8456 86.1492C56.8227 85.5522 57.8301 84.9391 58.9697 84.7217C60.0361 84.5168 60.9221 84.9677 61.7884 85.5397C63.4924 86.6642 65.309 87.8635 66.429 89.6117C67.1078 90.672 68.81 89.6901 68.1259 88.6226C66.7737 86.5127 64.6195 85.0015 62.5279 83.6846C61.3186 82.9236 60.0272 82.5619 58.6018 82.806C57.2478 83.0377 56.0117 83.7523 54.8543 84.458C53.7772 85.1156 54.7632 86.8121 55.8456 86.1509V86.1492Z" fill="#101841"/>
<path d="M59.9528 89.9684C62.0981 90.4977 63.9415 92.0784 64.6971 94.1687C64.8775 94.6659 65.3651 95.0009 65.9063 94.853C66.3886 94.7212 66.7727 94.1473 66.5922 93.6466C65.6063 90.9165 63.3145 88.778 60.4762 88.0777C59.2491 87.7747 58.7257 89.6655 59.9546 89.9684H59.9528Z" fill="#101841"/>
<path d="M59.5999 94.2479C61.2396 95.5435 62.3667 97.297 62.8311 99.3339C63.1116 100.564 65.0068 100.043 64.7263 98.8136C64.1958 96.488 62.8651 94.346 60.9895 92.8633C60.5733 92.5354 60.0053 92.4588 59.5999 92.8633C59.2587 93.2037 59.1819 93.9183 59.5999 94.2497V94.2479Z" fill="#101841"/>
<path d="M59.2715 99.8965C59.4376 100.084 59.4215 100.326 59.3751 100.565C59.3019 100.944 59.1393 101.294 58.9535 101.627C58.5159 102.411 58.0122 103.174 57.4656 103.885C56.3939 105.28 55.0739 106.449 53.4466 107.151C52.959 107.362 52.85 108.074 53.0947 108.493C53.3895 108.996 53.9503 109.056 54.4398 108.844C56.5064 107.951 58.114 106.333 59.4144 104.537C60.6058 102.89 62.3295 100.401 60.6612 98.5101C60.3111 98.1127 59.6305 98.1519 59.2715 98.5101C58.8767 98.9039 58.9196 99.4974 59.2715 99.8965Z" fill="#101841"/>
<path d="M48.2425 88.6563C46.3688 93.63 44.5218 98.6233 43.1035 103.75C42.8749 104.575 43.8073 105.288 44.5468 104.857C45.0702 104.554 45.3095 104.092 45.3613 103.506C45.4078 102.979 44.8773 102.526 44.3789 102.526C43.8091 102.526 43.4429 102.977 43.3965 103.506C43.4501 103.392 43.5019 103.278 43.5555 103.166C44.036 103.535 44.5182 103.904 44.9987 104.272C46.417 99.1454 48.264 94.1521 50.1377 89.1784C50.3253 88.683 49.9305 88.1039 49.4518 87.972C48.8998 87.8205 48.4301 88.1591 48.2425 88.6563Z" fill="#101841"/>
<path d="M63.4963 100.69C63.1391 101.173 62.7836 101.657 62.4264 102.14C62.1209 102.556 62.3442 103.252 62.7783 103.482C63.2909 103.753 63.7964 103.573 64.1233 103.131C64.4805 102.648 64.836 102.163 65.1932 101.681C65.4987 101.265 65.2754 100.569 64.8414 100.339C64.3287 100.068 63.8232 100.248 63.4963 100.69Z" fill="#101841"/>
<path d="M58.4833 32.7894C57.7277 30.5369 55.4449 28.917 53.0371 29.1255C52.5084 29.1718 52.0547 29.5425 52.0547 30.1056C52.0547 30.601 52.5048 31.1321 53.0371 31.0857C54.5322 30.9556 56.0898 31.8235 56.5899 33.3097C56.7578 33.8123 57.2669 34.1402 57.7992 33.994C58.2904 33.8586 58.6548 33.2919 58.4851 32.7876L58.4833 32.7894Z" fill="#101841"/>
<path d="M55.054 35.0519C54.3199 35.6561 53.2267 35.665 52.33 35.5456C51.0422 35.3763 49.8257 34.8577 48.5504 34.6278C47.1482 34.3748 45.8139 34.4657 44.501 35.0323C43.3275 35.5384 42.3218 36.3332 41.3251 37.1156C40.9071 37.4435 40.9821 38.1581 41.3251 38.502C41.7377 38.9137 42.295 38.8299 42.7148 38.502C43.6133 37.7963 44.5707 37.0389 45.6674 36.6701C46.8999 36.2531 48.111 36.4918 49.3327 36.8251C51.7138 37.4755 54.3377 38.1705 56.4437 36.4384C56.8528 36.1016 56.7938 35.4012 56.4437 35.0519C56.0382 34.6474 55.4649 34.7134 55.054 35.0519Z" fill="#101841"/>
<path d="M40.4921 40.7097C39.7115 42.3421 39.0792 44.0368 38.6237 45.7886C38.3058 47.0111 40.2009 47.5314 40.5189 46.3089C40.9315 44.7229 41.4817 43.1797 42.189 41.6988C42.4176 41.2212 42.3212 40.6402 41.8371 40.3569C41.4084 40.1074 40.7225 40.2286 40.4939 40.708L40.4921 40.7097Z" fill="#101841"/>
<path d="M38.1084 47.4247C37.5189 48.4743 36.8419 49.4633 36.0596 50.3775C35.7148 50.7803 35.663 51.3683 36.0596 51.764C36.4132 52.1168 37.1027 52.1685 37.4493 51.764C38.3406 50.7232 39.1354 49.6077 39.8053 48.4137C40.4233 47.3124 38.7264 46.3216 38.1084 47.4247Z" fill="#101841"/>
<path d="M58.6337 24.5903C55.3631 21.0886 50.3617 19.2263 45.5906 19.8376C44.1724 20.0193 42.7113 20.4399 41.7431 21.559C41.3966 21.96 41.3484 22.5516 41.7431 22.9455C42.0968 23.2983 42.7845 23.3482 43.1328 22.9455C43.9741 21.9725 45.3388 21.7782 46.5588 21.7069C47.8645 21.6303 49.1667 21.7408 50.4385 22.0437C53.0446 22.6657 55.4167 24.02 57.244 25.9767C58.1085 26.9016 59.4946 25.5134 58.6337 24.5903Z" fill="#101841"/>
<path d="M63.0937 32.3419C63.6563 32.7179 63.726 33.6107 63.6849 34.3627C63.626 35.432 63.2723 36.6313 62.8668 37.6863C62.6757 38.1799 63.0776 38.7608 63.5527 38.8927C64.1065 39.0442 64.5709 38.7038 64.762 38.2084C65.6373 35.9363 66.5375 32.292 64.085 30.6525C63.6438 30.3585 62.9972 30.567 62.7418 31.0036C62.4596 31.4847 62.6525 32.0496 63.0937 32.3437V32.3419Z" fill="#101841"/>
<path d="M59.5602 36.85C60.146 37.8479 60.8695 38.7657 61.709 39.5641C62.6235 40.4355 64.015 39.0508 63.0987 38.1776C62.3735 37.4862 61.7644 36.7235 61.2571 35.8592C60.6176 34.7721 58.9189 35.7558 59.5602 36.8482V36.85Z" fill="#101841"/>
<path d="M29.0369 27.6269C27.8294 28.9278 26.9363 30.455 26.3933 32.1444C26.0075 33.3491 27.9027 33.8641 28.2885 32.6648C28.7261 31.3033 29.4531 30.0612 30.4266 29.0133C31.284 28.0885 29.8979 26.6985 29.0369 27.6269Z" fill="#101841"/>
<path d="M24.4308 37.3375C24.5076 38.74 24.6898 41.1957 22.9053 41.6697C21.6853 41.994 22.2016 43.8848 23.4269 43.5605C24.5737 43.2557 25.4668 42.3808 25.9383 41.3097C26.4921 40.0516 26.4689 38.683 26.3956 37.3375C26.367 36.8083 25.9651 36.3574 25.4132 36.3574C24.9041 36.3574 24.4022 36.8065 24.4308 37.3375Z" fill="#101841"/>
<path d="M26.3093 45.81C26.3594 46.8418 26.4397 47.8808 26.9042 48.8217C27.3203 49.6682 28.0723 50.3364 28.9851 50.5913C30.2051 50.9317 30.7249 49.0409 29.5067 48.7005C28.3528 48.3798 28.3206 46.7795 28.2724 45.8083C28.2474 45.279 27.8383 44.8281 27.29 44.8281C26.7773 44.8281 26.2825 45.2772 26.3076 45.8083L26.3093 45.81Z" fill="#101841"/>
<path d="M37.9447 21.3601C36.0227 21.1622 34.0811 21.5882 32.3913 22.5148C31.2821 23.1225 32.2734 24.8154 33.3827 24.2078C34.7884 23.4379 36.3549 23.1581 37.9447 23.3221C38.4734 23.3773 38.9271 22.832 38.9271 22.342C38.9271 21.7664 38.4752 21.4171 37.9447 21.3618V21.3601Z" fill="#101841"/>
<path d="M19.6044 44.7547C19.658 44.7619 19.7116 44.769 19.7652 44.7779C19.8956 44.8189 20.026 44.8242 20.1564 44.7957C20.2868 44.7904 20.4082 44.7512 20.5208 44.6799C20.6351 44.6175 20.728 44.5338 20.7959 44.4269C20.8834 44.3324 20.9405 44.2219 20.9709 44.0936L21.0066 43.8334C21.0066 43.657 20.962 43.4913 20.8727 43.338C20.8209 43.2721 20.7709 43.2061 20.7191 43.1402C20.5958 43.019 20.4511 42.9353 20.285 42.8889C20.2314 42.8818 20.1778 42.8747 20.1242 42.8658C19.9938 42.8248 19.8635 42.8194 19.7331 42.848C19.6027 42.8533 19.4812 42.8925 19.3687 42.9638C19.2543 43.0262 19.1615 43.1099 19.0936 43.2168C19.0061 43.3113 18.9489 43.4218 18.9185 43.5501C18.906 43.6374 18.8953 43.7229 18.8828 43.8103C18.8828 43.9867 18.9275 44.1524 19.0168 44.3057C19.0686 44.3716 19.1186 44.4375 19.1704 44.5035C19.2936 44.6247 19.4383 44.7084 19.6044 44.7547Z" fill="#101841"/>
<path d="M31.4295 59.8475C31.1687 60.7902 30.9079 61.7347 30.6471 62.6774C30.3113 63.8945 32.2065 64.4149 32.5423 63.1978L33.3247 60.3679C33.6605 59.1507 31.7653 58.6304 31.4295 59.8475Z" fill="#101841"/>
<path d="M30.1108 63.7722C34.5495 66.5843 38.9883 69.3964 43.4253 72.2084C44.4952 72.8874 45.483 71.1909 44.4166 70.5155C39.9779 67.7034 35.5391 64.8913 31.1021 62.0793C30.0322 61.4003 29.0444 63.0968 30.1108 63.7722Z" fill="#101841"/>
<path d="M29.8261 62.8945C29.0455 64.9064 28.1792 66.8809 27.2325 68.8216C27.0003 69.2974 27.1021 69.8819 27.5844 70.1634C28.0166 70.4147 28.6954 70.29 28.9276 69.8124C29.9475 67.7203 30.8782 65.5854 31.7195 63.4166C31.9106 62.923 31.5087 62.3402 31.0336 62.2102C30.478 62.0587 30.0172 62.3991 29.8243 62.8945H29.8261Z" fill="#101841"/>
<path d="M27.502 69.9922C32.298 72.8755 36.7046 76.3488 40.629 80.3334C41.5167 81.2351 42.9064 79.8487 42.0187 78.947C37.9836 74.85 33.4269 71.2646 28.4952 68.2992C27.4091 67.647 26.4214 69.3399 27.5038 69.9922H27.502Z" fill="#101841"/>
<path d="M43.6008 71.3506C42.6112 74.1591 41.6199 76.9694 40.6303 79.7779C40.4535 80.2769 40.8304 80.8507 41.3162 80.9844C41.8592 81.1323 42.3487 80.8008 42.5255 80.3001C43.5151 77.4916 44.5064 74.6813 45.496 71.8728C45.6728 71.3738 45.2959 70.8 44.8101 70.6663C44.2671 70.5184 43.7776 70.8499 43.6008 71.3506Z" fill="#101841"/>
<path d="M27.3547 69.4643C21.244 73.1157 15.1351 76.7654 9.02447 80.4168C7.94024 81.0637 8.92802 82.7602 10.0158 82.1098C16.1265 78.4583 22.2354 74.8087 28.3461 71.1573C29.4303 70.5104 28.4425 68.8139 27.3547 69.4643Z" fill="#101841"/>
<path d="M43.3282 104.599C45.8825 107.351 49.3371 109.254 53.0381 109.917C53.5597 110.01 54.0974 109.776 54.2474 109.233C54.3778 108.759 54.0866 108.121 53.5615 108.026C50.1623 107.417 47.0668 105.742 44.7179 103.213C43.8569 102.284 42.4708 103.674 43.3282 104.599Z" fill="#101841"/>
<path d="M11.2999 84.8245C12.3734 85.5873 13.329 86.4997 14.1739 87.5065C14.5151 87.9128 15.2117 87.8576 15.5636 87.5065C15.9673 87.1038 15.9048 86.5282 15.5636 86.1201C14.6062 84.9814 13.5041 83.9941 12.2912 83.1316C11.859 82.8233 11.1981 83.055 10.9462 83.4827C10.6568 83.9745 10.8658 84.5145 11.2981 84.8245H11.2999Z" fill="#101841"/>
<path d="M52.8281 60.4816C54.4661 60.3426 56.1023 60.2054 57.7402 60.0664C58.269 60.0219 58.7227 59.6476 58.7227 59.0863C58.7227 58.5909 58.2725 58.0616 57.7402 58.1061C56.1023 58.2451 54.4661 58.3824 52.8281 58.5214C52.2994 58.5659 51.8457 58.9401 51.8457 59.5015C51.8457 59.9969 52.2958 60.5262 52.8281 60.4816Z" fill="#101841"/>
<path d="M51.4836 59.6805C51.5514 60.8513 51.8855 61.9847 52.6696 62.8829C53.368 63.683 54.4987 64.1963 55.5669 64.1C57.8014 63.9004 58.6481 61.7245 59.0161 59.816C59.1161 59.2974 58.8696 58.7592 58.3302 58.6095C57.8497 58.4777 57.2227 58.7717 57.1209 59.2938C57.0048 59.8997 56.8619 60.5912 56.6118 61.1133C56.3671 61.6248 56.0831 62.0293 55.5579 62.1326C54.2218 62.3982 53.5109 60.7872 53.4466 59.6805C53.4163 59.1513 53.0161 58.7004 52.4642 58.7004C51.9551 58.7004 51.4514 59.1495 51.4818 59.6805H51.4836Z" fill="#101841"/>
<path d="M51.7475 85.9428C54.2786 82.0151 55.5325 77.4763 57.3205 73.2011C57.7438 72.1907 58.2065 71.1945 58.7227 70.2287C58.9835 69.7422 59.2568 69.261 59.5497 68.7923C59.7909 68.4038 60.0463 67.969 60.4232 67.6892C60.6715 67.5057 60.893 67.4718 61.0555 67.5805C61.3752 67.7908 61.5181 68.2221 61.5092 68.5981C61.4949 69.1576 61.3074 69.6869 61.1127 70.2073C60.8787 70.831 60.6322 71.4511 60.3928 72.0731C59.2996 74.8994 58.2065 77.7257 57.1133 80.5521C56.9222 81.0457 57.3241 81.6267 57.7992 81.7585C58.3547 81.91 58.8156 81.5696 59.0085 81.0742C60.0695 78.3299 61.1305 75.5873 62.1915 72.8429C62.6953 71.5385 63.3972 70.1788 63.4705 68.7602C63.5366 67.4861 62.8489 66.1513 61.6074 65.6987C60.2696 65.2122 59.0853 66.089 58.3208 67.1083C57.5866 68.0884 57.0133 69.2182 56.4792 70.316C55.3628 72.6184 54.5018 75.0295 53.5998 77.4192C52.6174 80.0246 51.5635 82.6068 50.0506 84.9555C49.3647 86.0194 51.0651 87.0031 51.7475 85.9446V85.9428Z" fill="#101841"/>
<path d="M44.2804 72.612C45.379 74.1392 46.4775 75.6682 47.576 77.1954C47.885 77.6249 48.4316 77.8316 48.9193 77.5465C49.3444 77.2988 49.5819 76.6377 49.2711 76.2046C48.1726 74.6774 47.0741 73.1484 45.9756 71.6212C45.6665 71.1917 45.12 70.985 44.6323 71.2701C44.2072 71.5178 43.9696 72.179 44.2804 72.612Z" fill="#101841"/>
<path d="M49.5174 77.5792C50.6749 76.0894 51.7574 74.5497 52.7434 72.9423C53.4061 71.8641 51.7074 70.8769 51.0464 71.9532C50.1498 73.4163 49.1816 74.8384 48.1278 76.1927C47.8027 76.6115 47.7187 77.1711 48.1278 77.5792C48.4671 77.9177 49.1906 77.9997 49.5174 77.5792Z" fill="#101841"/>
<path d="M51.7766 72.5567C52.0195 73.7934 52.2607 75.0284 52.5036 76.2651C52.6054 76.7855 53.2288 77.0831 53.7129 76.9494C54.2577 76.7998 54.5006 76.2651 54.3988 75.743C54.1558 74.5063 53.9147 73.2713 53.6718 72.0346C53.57 71.5142 52.9466 71.2166 52.4625 71.3502C51.9177 71.4999 51.6748 72.0346 51.7766 72.5567Z" fill="#101841"/>
<path d="M52.1186 68.993C51.7185 69.9303 51.3166 70.8695 50.9165 71.8068C50.7093 72.2933 50.77 72.8565 51.2684 73.1469C51.681 73.3875 52.4027 73.2842 52.6134 72.7959L53.8156 69.982C54.0228 69.4955 53.962 68.9324 53.4637 68.6401C53.051 68.3996 52.3294 68.5029 52.1186 68.9912V68.993Z" fill="#101841"/>
<path d="M62.66 77.9229C65.0107 78.6554 67.3239 79.7406 69.0118 81.5797C70.698 83.4188 71.4983 85.9208 72.4074 88.1911C74.6545 93.8046 76.8944 99.4198 79.1129 105.044C81.3136 110.625 83.4928 116.216 85.6309 121.822C86.1685 123.23 86.7008 124.639 87.2331 126.049C87.719 127.336 88.2477 128.61 88.6317 129.932C88.9872 131.155 89.2051 132.422 89.0533 133.696C88.8943 135.029 88.2888 136.301 87.6957 137.49C86.4293 140.027 85.0075 142.508 83.5928 144.965C82.1692 147.437 80.6705 149.868 79.0111 152.19C78.6414 152.707 78.2681 153.22 77.8715 153.717C77.5411 154.131 77.466 154.699 77.8715 155.104C78.2127 155.444 78.929 155.521 79.2612 155.104C82.9087 150.52 85.6987 145.306 88.4942 140.182C89.8785 137.645 91.3021 134.952 91.0217 131.973C90.7502 129.096 89.4498 126.379 88.437 123.704C86.2382 117.901 83.9929 112.117 81.7226 106.343C79.4559 100.58 77.1624 94.8257 74.8617 89.075C74.3133 87.7028 73.7775 86.3253 73.2077 84.962C72.7057 83.7609 72.1681 82.5687 71.4268 81.4942C69.8531 79.2149 67.5489 77.7127 65.0107 76.6826C64.4105 76.4385 63.7978 76.2264 63.1798 76.034C61.9705 75.6562 61.4525 77.5487 62.6582 77.9247L62.66 77.9229Z" fill="#101841"/>
<path d="M70.4269 103.792C69.5285 110.355 68.8568 116.945 68.3246 123.546C67.7976 130.1 67.3993 136.663 67.0188 143.227C66.8027 146.948 66.5937 150.67 66.3686 154.391C66.3365 154.92 66.8438 155.371 67.3511 155.371C67.9102 155.371 68.3013 154.922 68.3335 154.391C68.7282 147.837 69.0783 141.281 69.4945 134.728C69.9089 128.206 70.3876 121.685 71.0432 115.181C71.4094 111.551 71.8273 107.926 72.3221 104.312C72.3936 103.788 72.1953 103.259 71.6362 103.106C71.1772 102.981 70.5002 103.262 70.4269 103.79V103.792Z" fill="#101841"/>
<path d="M41.9999 104.275C41.0782 105.836 40.1565 107.399 39.2366 108.96C38.5936 110.049 40.2923 111.038 40.9336 109.949C41.8552 108.388 42.7769 106.825 43.6968 105.264C44.3399 104.175 42.6412 103.186 41.9999 104.275Z" fill="#101841"/>
<path d="M39.6375 109.805C42.1472 112.677 45.9215 114.344 49.735 114.312C50.9979 114.301 51.0015 112.341 49.735 112.351C46.402 112.378 43.2135 110.92 41.0254 108.418C40.6771 108.019 39.993 108.062 39.6357 108.418C39.2392 108.814 39.2856 109.404 39.6357 109.805H39.6375Z" fill="#101841"/>
<path d="M52.9312 109.247C52.2881 110.434 51.6451 111.622 51.0003 112.809C50.3983 113.919 52.0952 114.91 52.6972 113.798C53.3402 112.611 53.9833 111.423 54.6281 110.236C55.23 109.126 53.5331 108.135 52.9312 109.247Z" fill="#101841"/>
<path d="M37.2842 109.477C35.0371 111.598 32.79 113.719 30.543 115.839C28.4745 117.792 26.2685 119.683 24.6949 122.078C24 123.137 25.7005 124.121 26.3918 123.067C27.8958 120.777 30.0821 118.97 32.0595 117.105C34.2637 115.025 36.4679 112.945 38.6721 110.864C39.592 109.996 38.2023 108.611 37.2824 109.477H37.2842Z" fill="#101841"/>
<path d="M47.7414 119.523C46.7787 123.226 45.4086 126.799 43.7314 130.237C42.9061 131.928 41.9969 133.573 41.0931 135.225C40.3143 136.647 39.5605 138.085 38.7174 139.47C37.0634 142.187 34.936 144.659 32.0887 146.181C29.3397 147.651 26.0156 148.066 22.9683 147.458C19.8263 146.831 17.0219 145.19 15.1625 142.558C13.1673 139.733 12.1295 136.392 11.0345 133.152C8.39805 125.347 5.94735 117.431 4.65234 109.278C4.04323 105.441 3.72886 101.553 3.9307 97.668C4.12719 93.8901 4.84168 90.1549 6.07417 86.5765C6.39748 85.6392 6.75472 84.7161 7.14055 83.8036C7.3281 83.3599 6.97443 82.8093 6.57253 82.6471C6.16705 82.4849 5.5383 82.5936 5.34539 83.0481C3.74672 86.8296 2.68392 90.7626 2.20521 94.8399C1.739 98.8014 1.84618 102.811 2.33203 106.767C3.37697 115.273 5.77051 123.534 8.46235 131.65C9.63412 135.18 10.6969 138.864 12.5546 142.112C13.4084 143.604 14.4641 145.021 15.768 146.15C17.1095 147.311 18.6706 148.168 20.3372 148.767C23.6024 149.939 27.3267 149.993 30.624 148.918C33.9696 147.827 36.7365 145.552 38.846 142.781C39.8535 141.457 40.7019 140.02 41.5057 138.568C42.3738 137.001 43.2402 135.431 44.085 133.853C45.9552 130.349 47.5932 126.71 48.8042 122.927C49.1097 121.975 49.3848 121.015 49.6366 120.047C49.9546 118.825 48.0594 118.304 47.7414 119.527V119.523Z" fill="#101841"/>
<path d="M50.2115 117.638C51.4762 117.638 51.478 115.678 50.2115 115.678C48.9451 115.678 48.9451 117.638 50.2115 117.638Z" fill="#101841"/>
<path d="M23.7018 126.454C24.9664 126.454 24.9682 124.494 23.7018 124.494C22.4353 124.494 22.4353 126.454 23.7018 126.454Z" fill="#101841"/>
<path d="M12.422 143.353C12.2452 147.001 12.0684 150.651 11.8915 154.299C11.8665 154.828 12.3613 155.279 12.874 155.279C13.4277 155.279 13.8314 154.83 13.8564 154.299C14.0332 150.651 14.2101 147.001 14.3869 143.353C14.4119 142.824 13.9171 142.373 13.4045 142.373C12.8507 142.373 12.4471 142.822 12.422 143.353Z" fill="#101841"/>
<path d="M169.581 105.974C169.961 107.018 170.404 108.04 170.906 109.032C171.078 109.372 171.314 109.749 171.692 109.797C172.183 109.857 172.526 109.337 172.73 108.886C174.377 105.245 175.292 101.316 176.804 97.6181C178.317 93.9203 180.584 90.3152 184.089 88.3835C185.889 87.3891 187.918 86.8937 189.924 86.4375C196.344 84.978 202.949 83.8179 209.491 84.5699C216.032 85.3202 222.576 88.2124 226.461 93.5158C229.412 97.5432 230.234 102.296 231.404 107.004C232.427 111.128 233.303 115.285 234.099 119.459C234.817 123.224 235.805 127.163 236.018 130.992C236.261 135.389 234.703 140.271 230.834 142.389C228.903 143.447 226.401 143.864 225.283 145.76C224.718 146.717 224.64 147.872 224.573 148.979C224.459 150.91 224.345 152.842 224.232 154.774C224.209 155.159 224.17 155.585 223.888 155.848C223.605 156.116 223.175 156.13 222.785 156.13C208.519 156.107 194.25 155.937 179.987 155.622C179.893 149.363 179.798 143.107 179.703 136.848C177.051 138.128 174.865 140.193 172.344 141.718C169.824 143.244 166.644 144.21 163.947 143.025C161.227 141.831 159.817 138.858 158.803 136.073C156.79 130.536 155.432 124.76 154.762 118.908C154.503 116.65 153.519 112.628 154.309 110.461C154.943 108.722 159.182 109.298 160.902 108.982C161.668 108.841 169.826 106.646 169.581 105.976V105.974Z" fill="#FFE556"/>
<path d="M191.214 43.5185C192.755 43.2227 194.35 43.6878 195.767 44.365C202.097 47.3909 205.589 54.1823 208.318 60.6351C208.879 61.961 209.433 63.3171 209.553 64.7516C209.681 66.2913 208.945 67.9041 208.536 69.3743C208.049 71.1225 207.559 72.8903 207.481 74.7044C207.327 78.2008 209.253 82.745 212.48 84.4219C204.537 88.7844 196.279 92.573 187.791 95.7522C188.593 93.0809 190.108 90.6823 191.112 88.0787C192.114 85.4751 192.559 82.426 191.221 79.9793C189.434 76.7128 185.008 75.4226 183.576 71.985C182.745 69.9891 183.104 67.79 182.688 65.7157C182.365 64.1083 180.469 62.5579 181.209 60.922C181.58 60.1023 182.309 59.5124 183.002 58.9368C184.038 58.0779 185.08 57.1387 185.587 55.8949C185.926 55.0644 186.001 54.152 186.075 53.2574C186.38 49.467 186.48 44.4256 191.215 43.5167L191.214 43.5185Z" fill="white"/>
<path d="M187.672 41.2826C188.169 40.1492 189.14 39.2831 190.2 38.6452C192.629 37.1803 195.535 36.7758 198.352 36.4283C201.451 36.0469 204.602 35.703 207.681 36.2091C210.763 36.7152 213.812 38.1854 215.564 40.7622C216.077 41.516 216.479 42.3607 217.147 42.9827C217.683 43.4816 218.356 43.8024 218.956 44.2194C221.771 46.1672 222.709 50.1501 221.653 53.4023C221.45 54.0314 221.187 54.7442 221.512 55.3198C221.702 55.6548 222.052 55.8615 222.327 56.1306C223.038 56.8274 223.204 57.9234 223.068 58.9089C222.932 59.8943 222.541 60.8228 222.287 61.7833C222.221 62.031 222.168 62.3054 222.278 62.5353C222.443 62.8739 222.873 62.963 223.239 63.0521C224.656 63.3961 225.917 64.337 226.648 65.5969C227.21 66.5663 227.555 67.9777 226.867 68.9614C226.001 70.1999 224.158 71.0571 222.938 71.9624C221.162 73.2811 219.203 73.985 216.986 73.3755C215.15 72.8694 213.581 71.5988 212.508 70.0288C211.533 70.8896 210.556 71.7521 209.58 72.6128C209.171 72.9728 208.744 73.3435 208.219 73.4914C207.694 73.6375 207.044 73.4878 206.787 73.0067C206.601 72.6592 206.662 72.235 206.756 71.8537C207.165 70.2106 208.119 68.7369 208.48 67.0831C208.843 65.4294 208.342 63.3515 206.751 62.7652C206.442 62.6512 206.11 62.6013 205.808 62.4658C205.459 62.309 205.174 62.0453 204.895 61.7851C201.333 58.4669 197.854 55.0596 194.46 51.5704C192.236 49.284 186.066 44.9429 187.669 41.2826H187.672Z" fill="#D3C2B0"/>
<path d="M166.693 98.3067C166.846 96.3785 167.425 94.8086 166.766 92.9588C166.117 91.1393 165.146 89.4517 164.519 87.6233C163.576 84.8718 162.633 82.1221 161.689 79.3706C161.484 78.7719 161.018 78.0341 160.419 78.2462C160.096 78.3602 159.934 78.7149 159.817 79.0374C159.207 80.7197 158.828 82.4839 158.694 84.2677C158.599 85.5276 158.549 86.9675 157.578 87.7766C157.045 88.2203 156.334 88.3754 155.65 88.4912C150.876 89.3056 145.903 88.9331 141.305 87.4148C139.728 86.8945 138.063 86.2333 136.459 86.6664C136.597 87.8194 137.123 88.9242 137.934 89.7564C137.195 90.5209 137.315 91.9323 138.174 92.5614C138.476 92.7824 138.844 92.9124 139.112 93.1726C139.755 93.7963 139.581 94.8406 139.712 95.7263C139.987 97.5921 141.766 98.9091 143.582 99.4258C145.401 99.9426 147.33 99.8714 149.197 100.165C151.904 100.591 154.427 101.771 156.906 102.936C157.392 103.165 157.895 103.407 158.228 103.828C158.565 104.257 158.681 104.813 158.787 105.349L159.266 107.785C159.307 107.996 159.357 108.222 159.516 108.368C159.667 108.507 159.887 108.541 160.093 108.562C162.545 108.826 165.074 108.333 167.248 107.167C167.466 107.051 167.689 106.916 167.805 106.698C167.984 106.36 167.841 105.95 167.707 105.592C166.846 103.275 166.498 100.77 166.693 98.3067Z" fill="white"/>
<path d="M189.093 117.641C187.823 116.975 186.378 116.725 184.957 116.535C182.699 116.23 180.425 116.045 178.146 115.979C177.776 115.968 177.351 115.986 177.12 116.275C176.77 116.717 177.167 117.344 177.547 117.761C178.292 118.573 179.037 119.388 179.782 120.2C173.423 120.73 166.866 121.316 161.227 124.292C161.77 125.235 163.022 125.461 164.111 125.463C165.201 125.465 166.382 125.368 167.284 125.978C167.814 126.338 168.168 126.896 168.577 127.387C170.69 129.925 174.227 130.663 177.481 131.244C180.48 131.778 183.517 132.317 186.553 132.081C187.92 129.268 189.24 126.43 190.512 123.572C191.06 122.341 191.86 121.28 191.403 119.965C191.055 118.962 189.996 118.117 189.092 117.643L189.093 117.641Z" fill="white"/>
<path d="M187.027 44.56C185.749 46.0837 185.253 47.8604 185.21 49.8242C185.174 51.494 185.403 53.2047 184.89 54.8121C184.349 56.5086 182.868 57.781 181.443 58.754C180.677 59.278 179.889 59.9373 179.694 60.8943C179.507 61.8102 179.85 62.6674 180.41 63.3785C180.864 63.9523 181.438 64.4049 181.956 64.9164C182.511 65.4635 182.754 65.9838 182.908 66.8481C183.079 67.814 183.015 68.8155 183.052 69.7921C183.084 70.6207 183.206 71.4565 183.451 72.2513C184.503 75.671 187.482 77.9717 190.99 78.4564C195.567 79.0872 199.948 76.7777 202.933 73.4381C203.773 72.499 202.386 71.1072 201.543 72.0517C199.191 74.6838 195.922 76.6922 192.285 76.6084C189.288 76.5389 186.489 74.8887 185.478 72.1194C184.889 70.5067 185.099 68.9242 184.924 67.2099C184.83 66.2868 184.663 65.287 184.149 64.4922C183.758 63.8881 183.224 63.4105 182.699 62.9276C182.457 62.7066 182.218 62.4821 182.002 62.2362C181.859 62.074 181.677 61.78 181.641 61.6374C181.625 61.575 181.605 61.5091 181.597 61.4449C181.618 61.6 181.604 61.4253 181.605 61.4022C181.623 61.256 181.627 61.2311 181.711 61.1028C181.866 60.864 182.136 60.6573 182.388 60.4844C183.926 59.4223 185.487 58.1499 186.337 56.4427C187.214 54.6838 187.209 52.7699 187.18 50.8524C187.153 49.1007 187.236 47.3614 188.42 45.9482C188.759 45.5419 188.818 44.9592 188.42 44.5618C188.07 44.2125 187.373 44.1537 187.03 44.5618L187.027 44.56Z" fill="#101841"/>
<path d="M203.245 73.1312C205.644 72.7053 207.671 71.0515 208.952 69.0325C210.279 66.9368 210.913 63.7629 208.723 61.9827C207.628 61.0934 206.228 60.803 204.931 61.4267C204.454 61.6566 204.325 62.3373 204.579 62.7686C204.865 63.2551 205.444 63.3513 205.924 63.1196C206.228 62.9735 206.556 62.9949 206.948 63.1553C207.258 63.2818 207.623 63.574 207.832 63.8734C208.468 64.7787 208.228 66.0903 207.785 67.0776C206.857 69.1483 204.994 70.8395 202.723 71.2422C202.2 71.3349 201.905 71.9711 202.037 72.4487C202.189 72.9993 202.721 73.2256 203.247 73.133L203.245 73.1312Z" fill="#101841"/>
<path d="M189.182 58.7942C190.447 58.7942 190.449 56.834 189.182 56.834C187.916 56.834 187.916 58.7942 189.182 58.7942Z" fill="#101841"/>
<path d="M205.898 70.95C206.168 69.8914 205.529 68.8148 204.47 68.5452C203.411 68.2757 202.333 68.9153 202.062 69.9739C201.792 71.0325 202.431 72.1091 203.49 72.3787C204.549 72.6482 205.627 72.0085 205.898 70.95Z" fill="#EF5407"/>
<path d="M204.961 70.7168C204.69 71.3209 204.193 71.6203 203.604 71.3904C203.061 71.1783 202.855 70.5831 203.048 70.0895C203.264 69.5388 203.863 69.3392 204.35 69.5299C204.981 69.7776 205.072 70.3907 204.861 70.9502C204.675 71.4456 205.068 72.0248 205.547 72.1567C206.097 72.3081 206.569 71.9696 206.756 71.4724C207.328 69.9487 206.492 68.254 204.992 67.6855C203.521 67.1277 201.844 67.9047 201.249 69.3339C200.651 70.7685 201.301 72.4917 202.73 73.1386C204.186 73.7979 205.994 73.1903 206.658 71.7058C206.874 71.2229 206.799 70.6526 206.306 70.3639C205.886 70.1198 205.179 70.2303 204.961 70.715V70.7168Z" fill="#101841"/>
<path d="M190.406 79.4502C191.515 81.3784 191.636 83.6755 190.829 85.7373C190.636 86.2309 191.041 86.8137 191.515 86.9438C192.072 87.097 192.529 86.7549 192.724 86.2595C193.714 83.7325 193.449 80.8082 192.103 78.463C191.474 77.3688 189.775 78.3543 190.406 79.452V79.4502Z" fill="#101841"/>
<path d="M188.518 45.7892C192.232 50.1267 196.106 54.3252 200.137 58.3687C201.295 59.5306 202.465 60.6783 203.647 61.8134C204.558 62.6884 205.95 61.3038 205.037 60.427C200.92 56.4708 196.951 52.3597 193.144 48.1041C192.051 46.8816 190.972 45.6467 189.908 44.4028C189.563 44.0001 188.873 44.0499 188.518 44.4028C188.118 44.802 188.173 45.3847 188.518 45.7892Z" fill="#101841"/>
<path d="M217.655 41.4616C216.055 37.705 212.014 35.7145 208.188 34.9981C203.324 34.0857 198.069 34.6844 193.456 36.4273C191.085 37.3237 188.761 38.6174 187.436 40.8575C186.793 41.9463 188.49 42.9336 189.133 41.8465C190.11 40.1928 191.848 39.1645 193.593 38.466C195.728 37.6124 198.003 37.0243 200.288 36.7534C204.225 36.2865 208.554 36.4594 212.104 38.3911C213.82 39.3249 215.189 40.6401 215.96 42.4506C216.167 42.9371 216.887 43.0458 217.305 42.8017C217.811 42.5059 217.866 41.9499 217.657 41.4598L217.655 41.4616Z" fill="#101841"/>
<path d="M217.984 45.4107C219.313 45.7546 220.449 46.6724 221.01 47.9323C221.603 49.267 221.428 50.8406 220.674 52.0684C220.013 53.1483 221.712 54.1338 222.371 53.0575C223.478 51.2522 223.618 48.9926 222.76 47.0609C221.985 45.3145 220.351 43.9957 218.507 43.5181C217.282 43.2009 216.76 45.0917 217.986 45.4089L217.984 45.4107Z" fill="#101841"/>
<path d="M220.97 56.7183C222.41 57.023 222.86 58.6928 221.715 59.6747C221.313 60.0204 221.359 60.7065 221.715 61.0612C222.113 61.4586 222.701 61.4069 223.104 61.0612C224.133 60.1773 224.594 58.6821 224.223 57.3741C223.864 56.1124 222.777 55.0984 221.493 54.8276C220.975 54.7171 220.43 54.9808 220.284 55.5119C220.15 56.0001 220.448 56.6078 220.97 56.7183Z" fill="#101841"/>
<path d="M211.833 69.0797C210.893 70.4358 209.529 71.5193 207.985 72.111C207.49 72.3017 207.149 72.7703 207.299 73.3174C207.43 73.7897 208.01 74.1924 208.509 74.0017C210.563 73.2123 212.278 71.8775 213.531 70.0687C213.833 69.6339 213.612 68.9799 213.18 68.7286C212.692 68.4435 212.138 68.6431 211.835 69.0797H211.833Z" fill="#101841"/>
<path d="M186.115 71.8687C187.833 71.1185 189.271 69.7605 190.148 68.1068C190.511 67.4243 190.054 66.6812 189.3 66.6313C187.987 66.5457 186.674 66.4584 185.361 66.3729C184.831 66.3372 184.379 66.8487 184.379 67.353C184.379 67.9125 184.829 68.2975 185.361 68.3331C186.674 68.4186 187.987 68.506 189.3 68.5915C189.018 68.0997 188.734 67.6078 188.451 67.116C187.714 68.5078 186.567 69.5431 185.124 70.174C184.638 70.386 184.525 71.0953 184.772 71.5159C185.065 72.0166 185.627 72.0808 186.117 71.8669L186.115 71.8687Z" fill="#101841"/>
<path d="M221.722 64.4206C223.042 63.7613 224.801 63.9715 225.864 65.023C226.853 66.0013 227.202 67.655 226.551 68.8829C225.883 70.1464 224.34 70.8841 223.008 70.5117C222.711 70.4279 222.425 70.2943 222.191 70.0929C222.056 69.9771 221.948 69.8559 221.868 69.6973C221.877 69.7133 221.795 69.5333 221.818 69.5939C221.816 69.5868 221.759 69.3124 221.768 69.4104C221.741 69.152 221.791 68.9381 221.947 68.7261C221.913 68.7724 222.077 68.6138 222.038 68.6352C221.997 68.6566 222.22 68.5746 222.12 68.5942C222.116 68.5942 222.436 68.612 222.32 68.5942C223.074 68.7243 223.19 69.6385 222.893 70.3246C222.491 71.2548 221.548 71.85 220.741 72.3935C220.301 72.6893 220.109 73.256 220.389 73.7336C220.644 74.1684 221.291 74.3823 221.734 74.0847C222.909 73.2952 224.11 72.4381 224.685 71.0962C225.215 69.8559 225.144 68.2984 224.061 67.3628C223.056 66.4932 221.507 66.3292 220.541 67.3681C219.676 68.3001 219.56 69.7989 220.273 70.852C221.797 73.1046 225.022 72.9335 226.973 71.3884C228.965 69.8113 229.336 66.9743 228.132 64.8002C226.689 62.1984 223.311 61.4428 220.73 62.7295C220.255 62.9665 220.123 63.6347 220.378 64.0696C220.66 64.5507 221.246 64.6594 221.723 64.4206H221.722Z" fill="#101841"/>
<path d="M213.666 71.308C213.615 72.4682 214.404 73.5107 215.435 73.9811C216.71 74.5656 218.095 74.2948 219.4 73.9651C220.626 73.655 220.106 71.7642 218.879 72.0743C218.111 72.2686 217.21 72.5466 216.426 72.2775C215.937 72.11 215.613 71.7357 215.631 71.3063C215.688 70.0446 213.724 70.0481 213.666 71.3063V71.308Z" fill="#101841"/>
<path d="M220.87 77.4837C222.134 77.4837 222.136 75.5234 220.87 75.5234C219.603 75.5234 219.603 77.4837 220.87 77.4837Z" fill="#101841"/>
<path d="M205.82 72.7858C205.246 75.867 205.859 79.0943 207.627 81.6997C207.924 82.1381 208.492 82.3305 208.972 82.0507C209.408 81.7977 209.624 81.1508 209.324 80.7106C207.86 78.5543 207.236 75.8813 207.715 73.3062C207.811 72.7858 207.57 72.2495 207.029 72.0998C206.55 71.9679 205.918 72.2619 205.82 72.7841V72.7858Z" fill="#101841"/>
<path d="M190.139 87.6656C188.646 90.3636 187.392 93.1917 186.386 96.1054C186.166 96.7434 186.738 97.3101 187.333 97.3457C188.974 97.4455 190.53 96.8467 191.959 96.0965C193.452 95.3124 194.896 94.4213 196.357 93.5767C199.416 91.8053 202.478 90.0357 205.538 88.2644C206.631 87.6317 205.643 85.937 204.546 86.5714C201.588 88.2822 198.632 89.993 195.674 91.7055C194.247 92.5324 192.829 93.3824 191.386 94.179C190.128 94.8722 188.803 95.4763 187.334 95.3854C187.651 95.7989 187.967 96.2123 188.281 96.6257C189.233 93.8689 190.425 91.2083 191.836 88.6546C192.447 87.5498 190.751 86.5589 190.139 87.6656Z" fill="#101841"/>
<path d="M165.36 88.9995C165.135 87.3939 164.758 85.8364 164.274 84.2896C164.037 83.534 163.794 82.7784 163.571 82.0192C163.329 81.1959 163.137 80.3619 162.788 79.5743C162.469 78.8561 161.976 78.2235 161.307 77.7994C160.822 77.4911 160.345 77.377 159.811 77.6514C159.466 77.8279 159.135 78.0774 158.866 78.3554C157.83 79.4281 157.576 80.9785 157.637 82.4131C157.694 83.7282 158.008 85.0897 157.646 86.2873C157.499 86.7702 157.228 87.1961 156.749 87.4759C156.042 87.8875 155.143 87.8947 154.348 87.941C150.472 88.162 146.575 87.7539 142.836 86.7043C141.902 86.4423 140.987 86.1287 140.078 85.7936C139.23 85.4818 138.226 85.1592 137.327 85.4497C136.356 85.7633 135.586 86.674 135.518 87.7004C135.448 88.7501 136.236 89.6714 137.149 90.0919C137.631 90.3129 138.206 90.2274 138.492 89.7409C138.74 89.3185 138.624 88.6235 138.14 88.399C137.938 88.3063 137.72 88.2012 137.581 88.0194C137.529 87.9517 137.47 87.7503 137.465 87.8465C137.472 87.7022 137.569 87.5685 137.685 87.4616C137.831 87.328 137.895 87.3102 138.035 87.303C138.442 87.2799 138.896 87.4527 139.303 87.5935C139.864 87.7895 140.414 88.0087 140.98 88.1923C143.583 89.0387 146.287 89.5644 149.013 89.8122C150.344 89.9333 151.68 89.9814 153.016 89.9547C154.277 89.9298 155.674 89.9512 156.883 89.5484C157.962 89.1884 158.851 88.456 159.314 87.4082C159.723 86.4815 159.828 85.4622 159.782 84.4571C159.736 83.4253 159.53 82.4149 159.621 81.3759C159.698 80.4849 160.045 79.7222 160.916 79.2927H159.925C160.666 79.6153 160.986 80.2069 161.224 80.9465C161.538 81.923 161.786 82.9192 162.095 83.8975C162.679 85.7526 163.199 87.5917 163.471 89.5235C163.544 90.0474 164.215 90.3361 164.68 90.2078C165.246 90.0527 165.441 89.5288 165.366 89.0013L165.36 88.9995Z" fill="#101841"/>
<path d="M153.349 100.214C151.543 99.94 149.748 99.6014 147.967 99.1915C146.408 98.8333 144.82 98.4644 143.337 97.8496C142.649 97.5645 141.964 97.2027 141.371 96.7501C141.142 96.5755 140.895 96.3723 140.713 96.1478C140.702 96.1353 140.619 95.9874 140.602 95.9589C140.636 96.0212 140.581 95.8805 140.585 95.8769C140.599 95.8644 140.547 96.0872 140.545 96.0925C140.443 96.2957 140.118 96.2618 140.456 96.326C140.642 96.3616 140.826 96.4204 141.008 96.465C141.474 96.5808 141.942 96.6895 142.412 96.7911C143.3 96.9818 144.193 97.1475 145.089 97.2883C147.149 97.6108 149.225 97.8122 151.309 97.8817C152.574 97.9245 152.572 95.9642 151.309 95.9215C149.26 95.8537 147.215 95.6666 145.191 95.3316C144.184 95.1641 143.184 94.9663 142.189 94.7346C141.24 94.5136 140.093 94.0218 139.222 94.6954C138.45 95.2924 138.521 96.3616 139.002 97.1208C139.456 97.8372 140.24 98.3914 140.951 98.8298C142.471 99.7653 144.23 100.286 145.95 100.722C148.217 101.298 150.512 101.754 152.824 102.107C153.347 102.187 153.879 101.975 154.033 101.423C154.162 100.959 153.874 100.298 153.347 100.216L153.349 100.214Z" fill="#101841"/>
<path d="M140.304 93.9623C140.141 93.9392 140.325 94.0425 140.404 94.1316C140.47 94.2065 140.404 94.317 140.434 94.1691C140.421 94.2261 140.429 94.2653 140.4 94.3187C140.361 94.3936 140.239 94.3865 140.355 94.3597C140.227 94.39 140.847 94.1904 140.545 94.2795C140.705 94.2314 140.872 94.2314 141.039 94.2314C142.054 94.235 143.088 94.4185 144.094 94.5379C146.218 94.7892 148.336 95.0797 150.451 95.404C150.974 95.4842 151.507 95.2721 151.66 94.7197C151.789 94.2546 151.501 93.5952 150.974 93.5133C148.108 93.0713 145.232 92.6917 142.347 92.3781C141.209 92.2551 139.743 92.0662 138.907 93.0517C138.126 93.9712 138.457 95.6588 139.782 95.8513C140.307 95.9279 140.838 95.7212 140.991 95.167C141.118 94.7054 140.834 94.039 140.305 93.9606L140.304 93.9623Z" fill="#101841"/>
<path d="M139.774 91.9109C139.246 91.8093 138.622 91.7184 138.179 91.3834C137.988 91.2391 137.988 91.1927 137.945 91.0466C137.977 91.1571 137.986 90.9147 137.945 91.0395C137.91 91.1517 138.022 90.9824 137.952 91.0163C138.285 90.8541 138.999 91.0056 139.421 91.0591C140.174 91.1553 140.926 91.2551 141.678 91.3602C144.711 91.7844 147.732 92.278 150.742 92.8376C151.263 92.9338 151.801 92.6932 151.951 92.1532C152.083 91.6757 151.789 91.0448 151.265 90.9468C148.398 90.414 145.522 89.9399 142.636 89.5301C141.884 89.4231 141.132 89.3216 140.378 89.2218C139.694 89.1309 138.985 88.9848 138.292 88.999C136.886 89.0275 135.743 90.0451 136.039 91.5135C136.338 92.9926 137.947 93.5504 139.249 93.7999C139.769 93.8997 140.308 93.6537 140.458 93.1156C140.591 92.6362 140.296 92.0107 139.773 91.9091L139.774 91.9109Z" fill="#101841"/>
<path d="M158.741 97.8739C160.195 97.5282 161.69 97.8151 162.94 98.6188C164.007 99.3032 164.993 97.6084 163.932 96.9259C162.242 95.8406 160.166 95.5199 158.217 95.9832C156.988 96.2755 157.508 98.1662 158.739 97.8739H158.741Z" fill="#101841"/>
<path d="M154.858 103.841C156.055 104.092 157.272 104.252 158.493 104.318C159.024 104.347 159.476 103.848 159.476 103.338C159.476 102.784 159.026 102.387 158.493 102.358C157.443 102.303 156.411 102.167 155.382 101.95C154.864 101.841 154.319 102.103 154.173 102.634C154.039 103.121 154.337 103.73 154.858 103.841Z" fill="#101841"/>
<path d="M165.236 91.1737C165.821 92.0665 166.2 93.0823 166.261 94.1533C166.332 95.3776 165.936 96.5306 165.793 97.7334C165.498 100.218 166.525 102.588 166.602 105.049C166.641 106.307 168.606 106.312 168.567 105.049C168.488 102.534 167.343 100.018 167.799 97.4964C168.027 96.2276 168.336 95.0087 168.185 93.7096C168.036 92.4497 167.627 91.2468 166.931 90.1829C166.241 89.1315 164.539 90.1116 165.234 91.1719L165.236 91.1737Z" fill="#101841"/>
<path d="M157.048 103.687C157.204 104.897 157.359 106.109 157.515 107.319C157.583 107.845 157.918 108.299 158.497 108.299C158.976 108.299 159.547 107.848 159.48 107.319C159.324 106.109 159.169 104.897 159.013 103.687C158.945 103.161 158.61 102.707 158.031 102.707C157.552 102.707 156.981 103.158 157.048 103.687Z" fill="#101841"/>
<path d="M154.196 109.237C155.198 110.055 156.409 110.268 157.679 110.209C159.061 110.145 160.453 109.941 161.81 109.674C164.531 109.139 167.164 108.222 169.65 106.997C170.125 106.762 170.257 106.09 170.002 105.656C169.718 105.173 169.136 105.069 168.659 105.304C166.47 106.383 164.154 107.177 161.767 107.685C160.606 107.933 159.433 108.111 158.248 108.209C157.427 108.277 156.282 108.418 155.587 107.851C155.176 107.516 154.599 107.45 154.197 107.851C153.851 108.197 153.785 108.901 154.197 109.237H154.196Z" fill="#101841"/>
<path d="M191.202 118.549C189.107 115.536 184.866 115.598 181.589 115.275C180.621 115.181 179.636 115.022 178.663 115.005C177.757 114.989 176.823 115.254 176.334 116.074C175.851 116.881 176.044 117.997 176.532 118.758C176.97 119.438 177.629 119.964 178.347 120.328C179.224 120.771 180.154 120.98 181.106 121.197C181.942 121.388 182.878 121.577 183.554 122.14C183.961 122.479 184.545 122.537 184.943 122.14C185.293 121.791 185.352 121.096 184.943 120.753C183.704 119.72 182.194 119.458 180.671 119.089C180.042 118.936 179.451 118.738 178.902 118.389C178.472 118.114 178.136 117.777 178.04 117.332C178.031 117.289 178.002 117.195 178.027 117.086C178.054 116.974 178.079 117.013 178.027 117.059C178.161 116.938 178.466 116.961 178.724 116.97C179.561 116.997 180.404 117.122 181.239 117.204C182.811 117.357 184.413 117.441 185.96 117.74C187.276 117.995 188.732 118.428 189.505 119.54C189.807 119.975 190.366 120.174 190.85 119.891C191.281 119.64 191.506 118.987 191.202 118.551V118.549Z" fill="#101841"/>
<path d="M181.953 119.77C176.66 119.964 171.312 120.175 166.136 121.394C164.827 121.702 163.533 122.078 162.269 122.534C161.706 122.737 161.001 122.903 160.55 123.304C159.916 123.865 160.013 124.719 160.475 125.357C161.922 127.353 165.061 126.766 167.15 126.576C169.953 126.321 173.043 125.986 175.599 127.431C176.701 128.055 177.693 126.362 176.591 125.738C174.12 124.341 171.227 124.279 168.469 124.5C167.017 124.616 165.559 124.815 164.1 124.815C163.578 124.815 163.171 124.787 162.69 124.628C162.379 124.526 162.07 124.368 162.013 124.051V124.571C161.817 124.751 161.776 124.817 161.886 124.769C161.987 124.73 162.087 124.69 162.188 124.651C162.39 124.575 162.592 124.498 162.794 124.425C163.199 124.279 163.607 124.14 164.017 124.01C164.837 123.749 165.668 123.521 166.506 123.32C168.154 122.924 169.83 122.63 171.512 122.422C174.978 121.992 178.47 121.857 181.957 121.729C183.218 121.682 183.223 119.722 181.957 119.768L181.953 119.77Z" fill="#101841"/>
<path d="M166.581 126.427C169.068 128.239 171.938 129.517 174.943 130.187C176.175 130.463 176.7 128.572 175.464 128.296C172.606 127.658 169.939 126.457 167.573 124.732C167.144 124.42 166.478 124.659 166.229 125.083C165.938 125.58 166.153 126.111 166.581 126.425V126.427Z" fill="#101841"/>
<path d="M167.354 128.199C168.49 129.147 169.642 130.113 170.953 130.815C172.403 131.59 173.909 131.854 175.527 132.043C178.919 132.438 182.326 132.707 185.737 132.855C187.002 132.911 186.999 130.95 185.737 130.895C182.503 130.754 179.271 130.507 176.054 130.143C174.679 129.988 173.325 129.835 172.078 129.193C170.856 128.564 169.794 127.691 168.745 126.814C168.338 126.474 167.754 126.417 167.355 126.814C167.005 127.163 166.946 127.858 167.355 128.201L167.354 128.199Z" fill="#101841"/>
<path d="M190.904 84.8932C189.688 85.8537 187.987 86.0444 186.528 86.399C185.689 86.6022 184.863 86.857 184.085 87.2366C183.252 87.6411 182.52 88.2399 181.875 88.8993C179.324 91.5064 177.695 94.8495 176.472 98.2425C175.77 100.189 175.198 102.177 174.635 104.164C174.291 105.38 176.186 105.9 176.531 104.685C177.483 101.329 178.444 97.9325 180.067 94.8264C180.859 93.3116 181.8 91.8699 182.959 90.6082C183.533 89.9845 184.144 89.4125 184.901 89.0169C185.573 88.6658 186.317 88.4662 187.052 88.288C188.913 87.8354 190.754 87.4932 192.296 86.2779C192.712 85.95 192.641 85.2354 192.296 84.8914C191.885 84.4816 191.324 84.5617 190.906 84.8914L190.904 84.8932Z" fill="#101841"/>
<path d="M180.895 97.9854C179.966 100.634 178.313 102.939 177.143 105.475C175.943 108.075 175.179 111.012 176.007 113.84C176.361 115.049 178.258 114.534 177.903 113.32C177.165 110.805 177.988 108.17 179.112 105.899C180.334 103.428 181.873 101.124 182.79 98.5075C182.965 98.0086 182.59 97.4347 182.104 97.3011C181.563 97.1532 181.071 97.4846 180.895 97.9854Z" fill="#101841"/>
<path d="M191.244 119.956C190.16 122.31 189.076 124.664 187.993 127.016C187.452 128.192 186.909 129.37 186.368 130.547C185.93 131.498 185.168 132.97 186.448 133.663C187.559 134.266 188.552 132.573 187.44 131.97C187.477 131.99 187.709 132.379 187.69 132.38C187.693 132.38 187.724 132.27 187.752 132.2C187.831 132.004 187.936 131.812 188.025 131.618C188.259 131.11 188.493 130.602 188.727 130.092C189.195 129.076 189.663 128.059 190.131 127.043C191.067 125.01 192.003 122.978 192.939 120.945C193.161 120.464 193.077 119.89 192.588 119.603C192.164 119.355 191.466 119.471 191.244 119.954V119.956Z" fill="#101841"/>
<path d="M236.292 135.755C237.508 131.924 237.022 127.681 236.469 123.778C235.856 119.448 235.082 115.124 234.087 110.867C233.534 108.499 232.921 106.143 232.289 103.794C231.671 101.501 231.099 99.1786 230.351 96.9226C229.676 94.8857 228.768 92.9646 227.384 91.3091C226.221 89.9191 224.76 88.7821 223.217 87.8412C219.757 85.7313 215.823 84.5836 212.187 82.8693C211.708 82.643 211.127 82.7357 210.842 83.2204C210.591 83.6463 210.713 84.3341 211.193 84.5605C214.368 86.0574 217.735 87.1177 220.844 88.7519C222.366 89.552 223.818 90.4858 225.055 91.6851C226.385 92.9771 227.366 94.54 228.036 96.2668C228.847 98.3571 229.37 100.562 229.96 102.721C230.594 105.04 231.213 107.362 231.787 109.696C232.832 113.963 233.627 118.27 234.318 122.604C234.661 124.758 234.947 126.927 235.031 129.11C235.109 131.168 235.023 133.257 234.397 135.233C234.014 136.438 235.909 136.955 236.292 135.753V135.755Z" fill="#101841"/>
<path d="M235.844 136.98C236.008 136.578 236.158 136.168 236.294 135.754C236.453 135.266 236.108 134.662 235.608 134.548C235.068 134.425 234.57 134.71 234.398 135.232C234.263 135.647 234.113 136.056 233.948 136.458C233.754 136.934 234.159 137.556 234.634 137.665C235.204 137.795 235.635 137.49 235.844 136.98Z" fill="#101841"/>
<path d="M186.886 135.217C189.391 137.114 192.107 138.713 194.921 140.108C197.834 141.554 200.828 142.876 203.907 143.927C209.732 145.916 216.111 147.112 222.271 146.386C225.69 145.984 228.95 144.961 231.665 142.787C232.08 142.455 232.012 141.746 231.665 141.4C231.256 140.992 230.692 141.067 230.276 141.4C228.123 143.125 225.419 143.982 222.72 144.367C219.808 144.783 216.811 144.688 213.901 144.309C207.864 143.519 202.109 141.413 196.653 138.777C193.576 137.291 190.604 135.589 187.878 133.524C187.454 133.203 186.779 133.458 186.533 133.875C186.238 134.377 186.461 134.894 186.885 135.215L186.886 135.217Z" fill="#101841"/>
<path d="M233.995 141.714C235.259 141.714 235.261 139.754 233.995 139.754C232.728 139.754 232.728 141.714 233.995 141.714Z" fill="#101841"/>
<path d="M194.265 121.85C199.644 124.017 205.026 126.186 210.531 128.012C212.09 128.529 213.66 129.019 215.241 129.473C216.458 129.824 216.977 127.934 215.763 127.583C210.188 125.977 204.754 123.935 199.367 121.796C197.838 121.189 196.312 120.576 194.787 119.961C194.294 119.763 193.708 120.176 193.578 120.645C193.424 121.205 193.771 121.652 194.264 121.852L194.265 121.85Z" fill="#101841"/>
<path d="M219.631 131.586H219.88C220.016 131.591 220.141 131.563 220.258 131.502C220.38 131.463 220.485 131.395 220.575 131.299C220.671 131.21 220.739 131.105 220.778 130.984C220.839 130.866 220.868 130.741 220.862 130.606C220.85 130.518 220.839 130.433 220.826 130.346C220.78 130.18 220.696 130.036 220.575 129.913C220.382 129.736 220.146 129.626 219.88 129.626H219.631C219.496 129.62 219.371 129.649 219.253 129.709C219.131 129.749 219.026 129.816 218.937 129.913C218.84 130.002 218.772 130.107 218.733 130.228C218.672 130.346 218.644 130.47 218.649 130.606C218.662 130.693 218.672 130.779 218.685 130.866C218.731 131.032 218.815 131.176 218.937 131.299C219.13 131.475 219.365 131.586 219.631 131.586Z" fill="#101841"/>
<path d="M215.879 102.443C215.945 105.873 216.477 109.291 217.47 112.577C217.835 113.782 219.732 113.268 219.366 112.057C218.421 108.931 217.908 105.709 217.846 102.444C217.822 101.184 215.857 101.181 215.881 102.444L215.879 102.443Z" fill="#101841"/>
<path d="M169.948 106.14C170.354 109.599 170.759 113.06 171.165 116.519C171.225 117.045 171.572 117.499 172.147 117.499C172.631 117.499 173.192 117.048 173.129 116.519C172.724 113.06 172.318 109.599 171.913 106.14C171.852 105.615 171.506 105.16 170.931 105.16C170.447 105.16 169.886 105.611 169.948 106.14Z" fill="#101841"/>
<path d="M154.012 113.058C155.277 113.058 155.279 111.098 154.012 111.098C152.746 111.098 152.746 113.058 154.012 113.058Z" fill="#101841"/>
<path d="M153.354 118.497C154.304 124.812 155.224 131.244 157.421 137.272C158.343 139.801 159.629 142.314 161.917 143.868C164.32 145.5 167.514 145.568 170.198 144.65C173.358 143.57 175.868 141.246 178.056 138.808C178.897 137.871 177.511 136.479 176.666 137.422C174.878 139.416 172.919 141.321 170.454 142.453C168.253 143.463 165.454 143.684 163.307 142.426C161.283 141.239 160.149 139.003 159.363 136.878C158.325 134.075 157.598 131.153 156.989 128.232C156.282 124.835 155.766 121.403 155.249 117.974C155.171 117.45 154.508 117.162 154.04 117.29C153.477 117.443 153.276 117.971 153.354 118.497Z" fill="#101841"/>
<path d="M179.003 135.794C179.153 141.723 179.069 147.657 178.751 153.579C178.723 154.108 179.223 154.559 179.734 154.559C180.289 154.559 180.687 154.11 180.716 153.579C181.034 147.657 181.118 141.723 180.968 135.794C180.936 134.534 178.971 134.53 179.003 135.794Z" fill="#101841"/>
<path d="M223.377 147.158C223.156 149.76 223.058 152.37 223.084 154.981C223.097 156.241 225.062 156.245 225.049 154.981C225.022 152.37 225.121 149.76 225.342 147.158C225.387 146.63 224.858 146.178 224.36 146.178C223.79 146.178 223.422 146.629 223.377 147.158Z" fill="#101841"/>
<path d="M90.6901 45.2083C86.2674 45.178 82.6557 41.5747 82.6253 37.1623C82.62 36.3515 81.8108 36.0325 81.1463 36.3159C78.1598 37.5936 75.1714 38.8695 72.1848 40.1473C71.7597 40.329 71.3346 40.5108 70.9077 40.6926C71.356 41.1399 71.8044 41.5872 72.2527 42.0345C73.8961 39.8639 75.5394 37.6934 77.1845 35.5229C78.3438 33.9903 79.5048 32.4595 80.6641 30.9269C81.2589 30.1411 81.9501 29.373 82.4735 28.539C82.6539 28.2521 82.6253 27.9278 82.6253 27.607V20.4538C82.6253 17.6079 82.6093 14.7602 82.6253 11.9142C82.6396 9.4069 83.8328 6.94411 85.853 5.46679C87.3356 4.3833 89.0129 3.86829 90.8241 3.86651C92.5818 3.86472 94.3394 3.86651 96.097 3.86651H135.605C136.869 3.86651 136.871 1.90625 135.605 1.90625H92.0959C91.6726 1.90625 91.2474 1.90625 90.8241 1.90625C89.3755 1.90625 87.9751 2.18781 86.6461 2.76163C82.904 4.37617 80.6623 8.14165 80.6623 12.1495V28.0222C80.7069 27.8565 80.7516 27.6925 80.7962 27.5268C79.6441 29.0469 78.492 30.5688 77.3417 32.0888C75.5037 34.5142 73.6674 36.9414 71.8294 39.3667C71.4061 39.9263 70.9809 40.4859 70.5576 41.0454C70.2986 41.3858 70.429 41.9525 70.7112 42.2341C71.0452 42.5673 71.4954 42.562 71.9026 42.3873C74.8892 41.1096 77.8775 39.8336 80.8641 38.5559L82.1413 38.0106C81.6483 37.729 81.1553 37.4457 80.6623 37.1641C80.6801 39.8051 81.7233 42.3677 83.6006 44.2389C85.4779 46.1118 88.0447 47.1525 90.6919 47.1703C91.9566 47.1792 91.9584 45.219 90.6919 45.2101L90.6901 45.2083Z" fill="#0F83C6"/>
<path d="M146.144 3.86458C148.655 3.8824 151.126 5.06747 152.603 7.08475C153.701 8.58345 154.207 10.2675 154.207 12.0977V31.1246C154.207 33.1365 154.218 35.1503 154.207 37.164C154.193 39.6268 153.046 42.0005 151.12 43.5045C149.647 44.6575 147.88 45.2064 146.046 45.2099C144.397 45.2117 142.75 45.2099 141.101 45.2099H103.014C101.749 45.2099 101.747 47.1702 103.014 47.1702H145.744C147.024 47.1702 148.3 47.0312 149.511 46.5892C152.267 45.5842 154.425 43.4653 155.504 40.7477C156.44 38.3882 156.172 35.6457 156.172 33.1526V12.6964C156.172 11.4472 156.113 10.2105 155.741 9.00224C154.909 6.29174 152.901 3.96438 150.295 2.80783C148.982 2.22153 147.585 1.91502 146.144 1.90433C144.879 1.89542 144.877 3.85567 146.144 3.86458Z" fill="#0F83C6"/>
<path d="M156.044 70.3949C158.53 70.3771 160.942 69.4006 162.705 67.6417C164.468 65.8828 165.447 63.477 165.464 60.9964C165.05 61.3118 164.636 61.6273 164.221 61.9409C166.851 62.7909 169.48 63.6392 172.109 64.4892C172.481 64.6086 172.854 64.7298 173.226 64.8492C173.636 64.9811 174.122 64.7619 174.335 64.3983C174.572 63.992 174.455 63.5572 174.181 63.2097C171.552 59.8719 168.924 56.5324 166.295 53.1946C165.922 52.7206 165.548 52.2465 165.175 51.7725C165.272 52.0042 165.366 52.2341 165.463 52.4657V38.6192C165.463 37.8547 165.486 37.0866 165.389 36.3275C165.113 34.1284 164.093 32.0595 162.451 30.5519C160.801 29.0353 158.661 28.1479 156.419 28.0481C156.098 28.0338 155.772 28.0392 155.451 28.0392H117.929C116.722 28.0392 115.513 28.0213 114.305 28.0392C114.252 28.0392 114.198 28.0392 114.144 28.0392C112.88 28.0392 112.878 29.9994 114.144 29.9994H155.054C155.385 29.9994 155.715 29.9976 156.046 29.9994C158.391 30.0137 160.713 31.1399 162.069 33.0467C163.087 34.4795 163.501 36.0317 163.501 37.7603V51.5034C163.501 51.8117 163.487 52.1236 163.501 52.4301C163.521 52.8471 163.755 53.1126 163.994 53.4174C164.777 54.41 165.557 55.4026 166.34 56.3952C168.36 58.9613 170.38 61.5257 172.399 64.0918C172.531 64.2593 172.663 64.4269 172.795 64.5944C173.113 64.0491 173.433 63.502 173.751 62.9567C171.121 62.1066 168.492 61.2584 165.863 60.4083C165.491 60.2872 165.118 60.1678 164.746 60.0484C164.13 59.8488 163.507 60.3816 163.503 60.9928C163.473 65.0737 160.136 68.4008 156.048 68.4311C154.783 68.44 154.781 70.4003 156.048 70.3914L156.044 70.3949Z" fill="#E1690D"/>
<path d="M104.141 28.041C101.454 28.0606 98.8247 29.2225 97.1082 31.3075C95.6631 33.0646 94.904 35.2298 94.8986 37.5019C94.8932 39.7491 94.8986 41.9945 94.8986 44.2416V55.2654C94.8986 57.2364 94.8575 59.2109 94.9004 61.1818C94.9593 63.8763 96.2025 66.5191 98.3067 68.2245C100.032 69.6234 102.138 70.3825 104.366 70.3932C105.852 70.3986 107.34 70.3932 108.826 70.3932H145.326C146.59 70.3932 146.592 68.433 145.326 68.433H105.1C104.55 68.433 103.996 68.4454 103.447 68.3884C101.17 68.155 99.0426 66.7293 97.8798 64.7477C97.135 63.4789 96.8617 62.1138 96.8617 60.6472V38.5676C96.8617 37.7942 96.8295 36.9334 96.9492 36.2278C97.3493 33.8844 98.7229 31.8885 100.825 30.7925C101.833 30.2668 102.987 30.012 104.139 30.0031C105.403 29.9941 105.405 28.0339 104.139 28.0428L104.141 28.041Z" fill="#E1690D"/>
</g>
<defs>
<clipPath id="clip0_881_5478">
<rect width="235.144" height="154.224" fill="white" transform="translate(1.9043 1.9043)"/>
</clipPath>
</defs>
</svg>
