<svg width="153" height="138" viewBox="0 0 153 138" fill="none" xmlns="http://www.w3.org/2000/svg">
<g clip-path="url(#clip0_886_6063)">
<path d="M67.2396 52.7448C61.1518 47.3843 59.7385 37.4256 58.8946 29.8923C58.0632 22.4813 62.1996 15.1786 69.4027 12.8019C76.0709 10.6025 84.0599 13.4592 87.8215 19.3892C89.5673 22.1409 90.5069 25.4777 92.9085 27.6803C93.6065 28.3203 94.4159 28.849 95.0089 29.5895C96.2904 31.1881 96.3234 33.4487 96.005 35.4725C95.5579 38.3167 94.1665 41.4166 91.4701 42.7532C89.6662 43.6474 89.4513 43.1015 90.0081 45.2695C90.5305 47.3011 91.274 49.008 92.7579 50.5454C93.903 51.7314 99.1453 52.0953 99.7508 53.3676C100.408 54.7497 96.921 57.3429 96.2873 58.4866C95.3901 60.1008 94.3391 61.6226 93.2944 63.1427C83.4027 77.5411 72.9478 93.7419 64.0914 108.801C61.4639 98.0294 62.8647 85.3332 63.2145 74.2513C63.2961 71.6644 63.3902 69.0147 64.3675 66.6176C65.762 63.1945 68.7863 60.6923 70.5055 57.4198C70.689 57.0715 70.86 56.7013 70.8647 56.3091C70.8788 55.28 69.8341 54.6132 68.9698 54.0547C68.3549 53.6578 67.7792 53.2186 67.2412 52.7448H67.2396Z" fill="white"/>
<path d="M59.5839 12.1496C61.929 7.13259 67.0662 3.98247 72.2928 2.15169C74.7132 1.30455 77.2716 0.670755 79.8222 0.926468C81.4771 1.09276 83.0771 1.63085 84.583 2.33367C89.5241 4.63822 93.5696 8.80492 95.7264 13.8125C97.8833 18.8201 98.1343 24.6214 96.4151 29.7969C95.1021 29.4988 93.7563 29.1992 92.4214 29.378C91.0865 29.5568 89.7469 30.3161 89.2606 31.5727C86.5939 29.4361 85.0645 26.231 83.0787 23.4496C80.7101 20.13 77.496 17.2732 73.6058 16.0512C69.7156 14.8291 65.1117 15.4738 62.1627 18.2914C60.3682 20.0061 59.929 22.0926 59.0208 24.2198C56.18 23.3523 58.6992 14.04 59.5823 12.1511L59.5839 12.1496Z" fill="#838382"/>
<path d="M75.0661 74.0674C74.6222 79.0718 77.019 84.1626 75.7971 89.0352C75.2402 91.2551 73.9743 93.2192 72.7273 95.1378C71.0144 97.7749 70.15 100.437 69.0206 103.259C68.6834 104.1 63.9948 110.113 64.0058 110.135C63.3375 108.755 63.2418 107.178 63.1571 105.647C63.005 102.888 62.8544 100.128 62.7022 97.3686C62.6756 96.8917 62.6505 96.407 62.765 95.9426C62.8858 95.4531 63.1571 95.0154 63.4238 94.5887C66.7963 89.1827 68.2348 83.8661 70.3257 77.9078C70.71 76.8144 71.1461 75.7303 71.3406 74.5867C71.9571 70.9628 68.5861 62.7376 74.3179 61.4073C81.6967 59.6942 75.0645 71.8256 75.0645 74.0674H75.0661Z" fill="#0F83C6"/>
<path d="M48.9169 137.473C52.4416 137.293 55.9569 137.023 59.4894 136.966C59.7624 136.962 60.0369 136.96 60.3098 136.957C62.9325 136.628 65.5396 136.452 68.2062 136.93C68.2831 136.945 68.3615 136.957 68.4384 136.97C74.1074 137.04 79.7748 137.196 85.4438 137.192C89.8108 137.189 94.181 137.089 98.5386 136.777C102.808 136.471 107.073 136.072 111.34 135.729C112.457 135.639 113.574 135.548 114.691 135.457C116.843 134.998 118.982 134.467 121.116 133.791C124.724 132.648 128.408 131.153 130.874 128.28C134.308 124.28 134.645 118.541 134.556 113.27C134.405 104.485 133.535 95.7356 132.564 87.01C131.845 80.5638 132.975 73.1592 127.768 68.0779C124.085 64.4838 118.71 63.4342 113.927 61.5376C110.993 60.3735 107.08 59.8433 104.524 57.9921C102.73 56.6932 102.27 53.165 99.9739 55.1056C97.3575 57.316 94.4853 62.4836 92.6736 65.4125C88.3536 72.3936 84.5497 78.1228 79.9505 84.9219C74.7082 92.6702 69.6901 101.306 64.0949 108.804C63.3168 94.1825 63.4204 79.5159 64.4039 64.9073C53.9632 69.5996 48.4903 80.9388 43.855 91.4057C42.2675 85.835 40.6817 80.2658 39.0942 74.695C38.9578 74.2134 38.8009 73.702 38.4119 73.3866C37.9695 73.0274 37.3484 73.018 36.7805 73.0321C32.0511 73.1466 27.3327 73.6753 22.6943 74.6087C22.3335 80.3787 23.2716 86.144 24.2065 91.8497C25.7829 101.47 27.3578 111.089 28.9343 120.708C29.3547 123.273 29.786 125.874 30.8731 128.235C33.0754 133.019 38.0684 136.391 43.3295 136.646C45.1617 136.736 47.044 137.153 48.9232 137.473H48.9169Z" fill="#93D2E9"/>
<path d="M29.9645 50.3751C27.9928 48.458 25.3685 46.8845 22.7332 47.5183C22.9967 49.2911 23.2587 51.0638 23.5222 52.8381C20.3081 52.3157 17.6164 50.2229 14.8148 48.5663C12.0117 46.9096 8.56543 45.6311 5.55682 46.8767C2.59841 48.1019 1.00155 51.5831 1.29645 54.7708C1.59135 57.9586 3.45801 60.8217 5.76388 63.0431C8.06975 65.2645 10.8195 66.9572 13.4344 68.8036C15.8423 70.5026 18.1779 72.3585 20.8681 73.5618C24.2752 75.0851 32.3394 73.9493 36.6673 72.608C38.6374 71.9977 37.53 67.7149 37.3214 65.8245C36.7033 60.2381 34.2673 54.8352 30.363 50.7767C30.2343 50.6418 30.101 50.5084 29.9661 50.3767L29.9645 50.3751Z" fill="white"/>
<path d="M122.672 90.1437C123.348 89.2903 124.048 88.4243 124.972 87.8454C126.357 86.9779 128.068 86.8649 129.699 86.7739C136.921 86.3755 144.142 85.977 151.364 85.5801C143.069 94.4422 135.405 103.894 128.451 113.842C124.145 120.002 119.585 126.767 112.451 129.136C105.331 131.5 97.4549 128.822 90.084 130.215C95.8847 123.073 101.995 116.228 108.17 109.413C113.519 103.51 117.709 96.4031 122.674 90.1452L122.672 90.1437Z" fill="#0F83C6"/>
<path d="M112.391 111.485C112.027 110.871 111.749 110.189 111.587 109.419C111.399 108.521 111.373 107.579 111.016 106.733C110.66 105.887 109.834 105.134 108.925 105.26C108.309 105.345 107.807 105.804 107.208 105.972C106.604 106.141 105.961 106 105.333 106.022C103.176 106.098 101.595 108.01 100.351 109.775C98.9224 111.803 97.5373 113.861 96.1977 115.95C95.0291 117.769 93.8542 119.765 93.9687 121.925C94.1255 124.89 96.6353 127.154 99.1357 128.754C101.153 130.044 103.293 131.139 105.518 132.02C107.197 132.685 108.982 133.234 110.78 133.073C113.972 132.784 116.525 130.348 118.541 127.857C119.904 126.172 123.151 122.871 122.96 120.524C122.742 117.854 119.059 116.955 117.175 115.742C115.332 114.555 113.474 113.323 112.387 111.486L112.391 111.485Z" fill="white"/>
<path d="M57.1675 27.5167C57.5424 30.7218 57.8687 33.9331 58.4208 37.1146C59.0499 40.7369 59.9393 44.3577 61.5142 47.6945C62.9118 50.6548 65.0467 53.4943 68.1275 54.8278C69.7871 55.5463 71.5894 55.8302 73.3933 55.6984C75.6584 55.5337 77.7556 54.6834 79.6819 53.5068C81.8325 52.1922 83.7854 50.5261 85.5125 48.6938C87.1328 46.9744 88.634 45.0652 89.7352 42.9677C89.983 42.4955 90.1995 42.0108 90.4034 41.5182C90.6215 40.9942 90.1681 40.362 89.6693 40.2255C89.0654 40.0592 88.5948 40.4326 88.3768 40.9597C88.474 40.7244 88.3344 41.0554 88.314 41.1009C88.2654 41.2075 88.2168 41.3142 88.165 41.4209C88.0599 41.6405 87.9485 41.857 87.8324 42.0719C87.5862 42.53 87.3179 42.9771 87.0356 43.4133C86.7328 43.8808 86.4144 44.3373 86.0819 44.7844C85.8246 45.1295 85.4827 45.5578 85.1187 45.9876C84.3438 46.9007 83.5172 47.7698 82.6435 48.5871C82.1964 49.006 81.7368 49.4123 81.2646 49.8029C80.7799 50.2045 80.4772 50.4383 79.9517 50.8117C79.0309 51.4674 78.0647 52.0636 77.0466 52.5562C76.5117 52.815 76.3266 52.8966 75.7321 53.1005C75.26 53.2621 74.7784 53.3955 74.289 53.488C74.1855 53.5068 74.0819 53.5241 73.9784 53.5414C73.7761 53.5759 73.9549 53.5445 73.9941 53.5398C73.9361 53.5461 73.878 53.5539 73.82 53.5586C73.5941 53.5821 73.3666 53.601 73.1392 53.6135C72.7078 53.6355 72.2733 53.6355 71.8419 53.6088C71.6349 53.5963 71.431 53.5727 71.2239 53.5523C71.0278 53.5335 71.4357 53.5884 71.1643 53.5429C71.0529 53.5241 70.9431 53.5068 70.8318 53.4849C70.449 53.4111 70.071 53.3154 69.7008 53.1946C69.5314 53.1397 69.3635 53.0801 69.1973 53.0142C69.0922 52.9735 68.9651 52.9138 69.1533 52.9986C69.0576 52.9546 68.9604 52.9138 68.8647 52.8683C68.5275 52.7083 68.1996 52.5295 67.8843 52.3303C67.7369 52.2377 67.591 52.1404 67.4482 52.04C67.3714 51.9867 67.2977 51.9302 67.2224 51.8753C67.1753 51.8424 67.0702 51.7514 67.2679 51.9114C67.2224 51.8753 67.1769 51.8392 67.1314 51.8016C66.8475 51.5725 66.5761 51.3278 66.3173 51.0721C66.0443 50.8038 65.7855 50.5214 65.5392 50.2281C65.4765 50.1543 65.4153 50.079 65.3541 50.0037C65.3228 49.9661 65.1675 49.7653 65.2553 49.8798C65.3494 50.0037 65.1596 49.7512 65.1377 49.7214C65.0718 49.6319 65.0075 49.5425 64.9432 49.4515C64.4836 48.7989 64.0757 48.1118 63.7071 47.4027C63.5141 47.0309 63.3306 46.6528 63.1581 46.2716C63.0765 46.0896 62.9965 45.9076 62.9181 45.7225C63.0247 45.972 62.8898 45.6519 62.8694 45.6017C62.824 45.4888 62.7785 45.3774 62.7345 45.2644C62.4193 44.4612 62.1416 43.6439 61.8891 42.8171C61.373 41.1213 60.973 39.3925 60.642 37.6527C60.4804 36.8055 60.3361 35.9552 60.2044 35.1034C60.14 34.683 60.0773 34.261 60.0177 33.8405C59.991 33.6476 59.9644 33.453 59.9377 33.2585C59.9173 33.1079 59.9628 33.4577 59.944 33.3071C59.9377 33.2554 59.9299 33.2052 59.9236 33.155C59.9079 33.0404 59.8938 32.9275 59.8797 32.813C59.693 31.3634 59.5346 29.9091 59.3714 28.4564C59.3369 28.1411 59.3008 27.8274 59.2632 27.512C59.1973 26.9488 58.8271 26.4609 58.2122 26.4609C57.6946 26.4609 57.0954 26.9441 57.1612 27.512L57.1675 27.5167Z" fill="#101841"/>
<path d="M91.3888 30.9371C91.5739 30.8979 91.7605 30.865 91.9472 30.8352C91.737 30.8681 91.9864 30.832 92.0633 30.8242C92.1621 30.8148 92.2594 30.8069 92.3582 30.8022C92.5166 30.7944 92.6766 30.7912 92.8366 30.7959C92.9119 30.7975 92.9872 30.8022 93.0625 30.8069C93.1817 30.8148 93.3809 30.8571 93.1425 30.8085C93.428 30.8665 93.6962 30.9309 93.9723 31.0234C94.148 31.083 93.7903 30.923 93.9472 31.014C93.999 31.0438 94.0554 31.0673 94.1072 31.0956C94.217 31.1552 94.319 31.2446 94.4303 31.298C94.4554 31.3105 94.2547 31.1426 94.4209 31.2932C94.4633 31.3309 94.5072 31.3685 94.548 31.4078C94.6358 31.4925 94.708 31.5992 94.799 31.6792C94.8429 31.7184 94.6641 31.4815 94.7739 31.6478C94.8115 31.7027 94.8492 31.7576 94.8852 31.8141C94.9527 31.9208 95.0123 32.0306 95.0688 32.142C95.0939 32.1937 95.1143 32.2502 95.1441 32.302C95.1739 32.3553 95.0625 32.0776 95.1284 32.2706C95.1739 32.4055 95.2225 32.5373 95.2601 32.6738C95.2931 32.7946 95.3229 32.9154 95.348 33.0377C95.3605 33.1005 95.3731 33.1617 95.3825 33.2244C95.3903 33.2668 95.3935 33.3091 95.4029 33.3515C95.4311 33.4864 95.3825 33.1272 95.3919 33.2652C95.4311 33.8472 95.4578 34.4151 95.4045 34.9987C95.3966 35.0819 95.3872 35.1634 95.3794 35.2466C95.3574 35.4647 95.3919 35.1854 95.3794 35.2513C95.3527 35.405 95.3323 35.5603 95.3041 35.7141C95.2476 36.0247 95.177 36.3338 95.097 36.6397C95.0154 36.9456 94.9245 37.2499 94.8209 37.5496C94.7739 37.6876 94.7237 37.8241 94.6719 37.959C94.6468 38.0265 94.6201 38.0939 94.5935 38.1614C94.5762 38.2053 94.5558 38.2492 94.5386 38.2947C94.5605 38.2383 94.617 38.1175 94.5605 38.2414C94.319 38.7732 94.0601 39.2941 93.7449 39.7867C93.6586 39.9216 93.5692 40.0534 93.475 40.1836C93.4484 40.2196 93.3041 40.4126 93.4092 40.2761C93.5143 40.1396 93.3684 40.3248 93.3402 40.3593C93.0343 40.7295 92.6892 41.0746 92.3174 41.379C91.5504 42.0096 90.3488 42.5415 89.3715 42.1132C88.8523 41.8857 88.2437 41.961 87.9331 42.4897C87.6727 42.9352 87.7872 43.6976 88.3096 43.9283C90.8037 45.0248 93.3794 43.6804 94.9574 41.6818C95.8594 40.5397 96.4962 39.2156 96.937 37.8335C97.7213 35.3752 98.1009 31.8313 95.9911 29.886C94.5794 28.5824 92.6139 28.54 90.8272 28.9103C90.2719 29.0263 89.9504 29.6805 90.0931 30.2029C90.2515 30.7803 90.8288 31.0532 91.3857 30.9371H91.3888Z" fill="#101841"/>
<path d="M80.8651 22.1114C82.0212 23.6771 83.0236 25.3463 83.8596 27.1033C84.1043 27.6163 84.8369 27.7496 85.2981 27.4798C85.822 27.1739 85.9208 26.5558 85.6745 26.0412C84.8384 24.2842 83.8361 22.615 82.68 21.0493C82.3428 20.5928 81.7687 20.3638 81.2416 20.6728C80.7914 20.9364 80.5247 21.6518 80.8651 22.1114Z" fill="#101841"/>
<path d="M85.1036 29.2572C86.0385 30.3663 87.0785 31.3766 88.2142 32.2802C88.6581 32.6332 89.2667 32.7132 89.7012 32.2802C90.0667 31.9147 90.1483 31.1491 89.7012 30.793C88.5655 29.8894 87.5255 28.8806 86.5891 27.7699C86.2236 27.3354 85.4801 27.3919 85.102 27.7699C84.6722 28.1998 84.735 28.821 85.102 29.2572H85.1036Z" fill="#101841"/>
<path d="M68.4128 30.906C68.6324 31.1225 68.6795 31.1727 68.8018 31.361C68.8787 31.4787 68.9493 31.601 69.012 31.7265C69.0152 31.7344 69.1375 32.0262 69.0748 31.8583C69.1595 32.0858 69.2269 32.3211 69.2724 32.5596C69.2865 32.6286 69.2975 32.6976 69.3085 32.7666C69.2928 32.6615 69.2928 32.6725 69.3085 32.8011C69.3132 32.9063 69.3226 33.0129 69.3257 33.118C69.3399 33.7016 69.3022 33.9369 69.1814 34.4374C69.0591 34.9378 68.9022 35.3583 68.7312 35.7018C68.1963 36.7749 67.1344 37.7475 67.7885 39.0339C68.0254 39.4999 68.4206 39.8074 68.8316 40.1117C68.9022 40.1635 68.9728 40.2168 69.045 40.267C69.2097 40.3831 68.9524 40.1666 69.1422 40.3454C69.2144 40.4129 69.2865 40.4804 69.354 40.5525C69.1595 40.347 69.4308 40.7863 69.332 40.5102C69.525 41.0436 70.0457 41.4028 70.6246 41.2444C71.1391 41.1032 71.5532 40.4882 71.3587 39.9517C71.1375 39.3399 70.7548 38.9429 70.2465 38.5586C70.1759 38.5053 70.1053 38.4535 70.0332 38.4017C69.9955 38.375 69.7053 38.1413 69.8967 38.3045C69.812 38.2323 69.7336 38.157 69.6536 38.0817C69.4936 37.9326 69.7948 38.2072 69.6348 38.044C69.685 38.1805 69.6928 38.1931 69.6583 38.0801C69.685 38.1382 69.6834 38.1931 69.6583 38.2464C69.6269 38.1821 69.7038 38.1256 69.7399 38.0629C69.8873 37.8024 70.0834 37.5718 70.2402 37.3161C70.5289 36.847 70.7579 36.3419 70.9508 35.8273C71.7571 33.6828 71.594 31.099 69.8999 29.4235C68.9367 28.4713 67.4497 29.9569 68.4128 30.9108V30.906Z" fill="#101841"/>
<path d="M78.2567 33.608C79.6088 33.608 79.612 31.5059 78.2567 31.5059C76.9014 31.5059 76.9014 33.608 78.2567 33.608Z" fill="#101841"/>
<path d="M65.7333 33.8932C67.0854 33.8932 67.0885 31.791 65.7333 31.791C64.378 31.791 64.378 33.8932 65.7333 33.8932Z" fill="#101841"/>
<path d="M69.9456 45.8752C72.126 45.4532 74.3079 45.0296 76.4883 44.6076C77.0452 44.4993 77.3652 43.831 77.2224 43.3149C77.0624 42.7313 76.4883 42.4725 75.9299 42.5807C73.7495 43.0027 71.5675 43.4263 69.3872 43.8483C68.8303 43.9565 68.5103 44.6248 68.653 45.141C68.813 45.7246 69.3872 45.9834 69.9456 45.8752Z" fill="#101841"/>
<path d="M68.4558 45.4885C68.9954 47.8652 71.557 49.4418 73.9209 48.9257C76.3287 48.4001 77.8095 45.7756 77.3185 43.4365C77.2025 42.8811 76.5483 42.558 76.026 42.7023C75.4503 42.8608 75.1758 43.4381 75.2919 43.995C75.295 44.0122 75.3327 44.326 75.3201 44.133C75.328 44.2382 75.3327 44.3433 75.3311 44.4484C75.3311 44.5535 75.3248 44.6586 75.3123 44.7621C75.3311 44.6099 75.3044 44.7825 75.2903 44.8453C75.2495 45.0335 75.1946 45.2218 75.1225 45.4006C75.1884 45.2359 75.0691 45.5042 75.0534 45.534C75.0048 45.6281 74.9515 45.7191 74.895 45.8085C74.895 45.8085 74.7115 46.0752 74.8135 45.9403C74.7491 46.0234 74.677 46.1034 74.6048 46.1787C74.5436 46.2431 74.4809 46.3042 74.4166 46.3639C74.3774 46.3999 74.3382 46.4345 74.2974 46.469C74.3585 46.425 74.3601 46.4235 74.3021 46.4658C74.1452 46.5803 73.9789 46.6745 73.8064 46.7623C73.5538 46.891 73.9413 46.7388 73.6684 46.8141C73.5664 46.8423 73.4644 46.8706 73.3625 46.8972C73.1554 46.9537 73.4566 46.9098 73.2244 46.9208C73.1366 46.9255 73.0503 46.9302 72.9625 46.9302C72.8574 46.9302 72.7523 46.9239 72.6488 46.9129C72.5405 46.902 72.746 46.9443 72.5656 46.8941C72.3617 46.8376 72.1578 46.7937 71.9617 46.7106C72.1248 46.7796 71.8315 46.6384 71.8299 46.6368C71.7358 46.5866 71.6448 46.5333 71.557 46.4752C71.0221 46.1285 70.6425 45.6077 70.4872 44.9284C70.3617 44.3746 69.7233 44.0483 69.1947 44.1942C68.6252 44.3511 68.3351 44.9316 68.4605 45.4869L68.4558 45.4885Z" fill="#101841"/>
<path d="M69.4794 55.643C70.7782 57.138 71.3633 59.1053 71.208 61.082C71.1625 61.6483 71.7225 62.1331 72.259 62.1331C72.8645 62.1331 73.2645 61.6499 73.31 61.082C73.5092 58.5578 72.6167 56.0571 70.9665 54.1573C70.5947 53.7291 69.8622 53.7761 69.4794 54.1573C69.0543 54.5825 69.1061 55.2147 69.4794 55.6445V55.643Z" fill="#101841"/>
<path d="M90.1662 46.015C86.8078 49.8695 83.214 53.5185 79.4054 56.9275C78.3278 57.8923 77.2313 58.8382 76.1208 59.7654C75.6266 60.178 75.7537 61.1412 76.3341 61.4158C77.0808 61.7687 77.5247 62.0856 78.0674 62.6379C78.6211 63.201 78.9584 63.6827 79.3788 64.4137C80.1835 65.8162 80.6509 67.1779 81.167 68.7499C81.3897 69.4291 82.3937 69.87 82.9239 69.2142L94.4736 54.9178C94.8297 54.477 94.905 53.8621 94.4736 53.4306C94.105 53.062 93.3458 52.9867 92.9865 53.4306C89.1372 58.1966 85.2862 62.961 81.4368 67.727C82.0219 67.8823 82.6086 68.0361 83.1937 68.1914C82.1223 64.9236 80.7247 61.1742 77.396 59.6007C77.4666 60.1513 77.5372 60.702 77.6094 61.251C81.5341 57.9754 85.258 54.4598 88.7481 50.7245C89.7364 49.6671 90.7042 48.5925 91.6548 47.5006C92.0281 47.0723 92.0752 46.4354 91.6548 46.0134C91.2736 45.6322 90.5426 45.5836 90.1677 46.0134L90.1662 46.015Z" fill="#101841"/>
<path d="M90.3333 47.5035C90.9404 49.0189 91.5459 50.5343 92.1529 52.0514C92.3631 52.5785 92.8541 52.9487 93.4455 52.7856C93.9459 52.6475 94.3913 52.0231 94.1796 51.4929C93.5725 49.9774 92.967 48.462 92.36 46.945C92.1498 46.4179 91.6588 46.0476 91.0674 46.2108C90.567 46.3488 90.1216 46.9732 90.3333 47.5035Z" fill="#101841"/>
<path d="M71.9835 62.7315C73.6038 62.7064 75.2195 62.5903 76.8258 62.3817C77.3889 62.3079 77.8768 61.9503 77.8768 61.3306C77.8768 60.8192 77.3921 60.2058 76.8258 60.2795C75.2195 60.4881 73.6038 60.6042 71.9835 60.6293C70.6329 60.6497 70.6282 62.7519 71.9835 62.7315Z" fill="#101841"/>
<path d="M76.9571 62.4313C76.074 66.358 74.9587 70.2282 73.616 74.0215C73.4262 74.5564 73.8309 75.1714 74.3501 75.3142C74.9305 75.4742 75.4528 75.1165 75.6426 74.58C76.9854 70.7866 78.1007 66.9164 78.9838 62.9898C79.1077 62.436 78.816 61.8524 78.2497 61.6971C77.7211 61.5512 77.0826 61.8744 76.9571 62.4313Z" fill="#101841"/>
<path d="M70.0002 62.8304C69.9108 66.5531 70.0975 70.2774 70.5602 73.9719C70.6371 74.59 70.9838 74.9493 71.6112 75.023C72.5853 75.1375 73.561 75.2505 74.5351 75.365C75.0998 75.4309 75.5861 74.8348 75.5861 74.3139C75.5861 73.6911 75.1014 73.3287 74.5351 73.2628C73.561 73.1483 72.5853 73.0354 71.6112 72.9208C71.961 73.2707 72.3124 73.6221 72.6622 73.9719C72.1994 70.2774 72.0128 66.5531 72.1022 62.8304C72.1163 62.2625 71.6096 61.7793 71.0512 61.7793C70.4928 61.7793 70.0144 62.2609 70.0002 62.8304Z" fill="#101841"/>
<path d="M69.906 57.6598C69.4872 58.0034 69.0245 58.2983 68.5476 58.5572C68.3107 58.6858 68.0629 58.8113 67.8182 58.9149C67.5343 59.0341 67.197 59.0969 66.9304 59.2537C66.5131 59.4985 66.4253 59.9581 66.2888 60.3817C66.19 60.6907 66.0896 60.9982 65.9892 61.3057C65.7868 61.9207 65.5766 62.5341 65.3617 63.1459C64.5147 65.5524 63.5735 67.926 62.5367 70.2572C62.1523 71.1216 62.7798 71.9672 63.7241 71.8009C65.5374 71.4824 67.1876 70.6839 68.6323 69.5575C69.0809 69.2077 68.9994 68.4374 68.6323 68.0703C68.19 67.6279 67.5955 67.7205 67.1453 68.0703C65.9892 68.9708 64.6088 69.5199 63.1641 69.7725C63.5594 70.287 63.9547 70.8016 64.3515 71.3161C65.928 67.7707 67.3115 64.1421 68.4739 60.4397C68.2292 60.6845 67.9845 60.9292 67.7398 61.1739C69.0888 60.7237 70.2935 60.0444 71.3915 59.1455C71.8307 58.7862 71.7648 58.0317 71.3915 57.6583C70.957 57.2237 70.3452 57.2975 69.9045 57.6583L69.906 57.6598Z" fill="#101841"/>
<path d="M94.7162 53.2043C96.3272 53.8052 97.9915 54.1738 99.6982 54.3652C100.263 54.428 100.749 53.8365 100.749 53.3141C100.749 52.6929 100.264 52.3258 99.6982 52.2631C98.186 52.0936 96.699 51.7093 95.2747 51.1774C94.7429 50.9782 94.1233 51.3986 93.9821 51.9116C93.8206 52.4999 94.1829 53.0051 94.7162 53.2043Z" fill="#101841"/>
<path d="M70.2598 74.8332C68.3194 80.2408 66.3791 85.6484 64.4387 91.056C64.2473 91.591 64.6552 92.2075 65.1728 92.3487C65.7563 92.5087 66.274 92.151 66.4653 91.6145C68.4057 86.2069 70.3461 80.7993 72.2865 75.3917C72.4779 74.8567 72.07 74.2402 71.5524 74.099C70.9688 73.939 70.4512 74.2967 70.2598 74.8332Z" fill="#101841"/>
<path d="M73.7313 76.1546C74.238 80.6664 74.478 85.2034 74.4513 89.7434C74.4435 91.0957 76.5455 91.0973 76.5533 89.7434C76.58 85.2034 76.3384 80.6664 75.8333 76.1546C75.7706 75.5898 75.3957 75.1035 74.7823 75.1035C74.2631 75.1035 73.667 75.5867 73.7313 76.1546Z" fill="#101841"/>
<path d="M98.6262 54.7007C94.005 61.0386 89.5408 67.4895 85.2427 74.0486C80.9432 80.6077 76.8083 87.275 72.8428 94.0412C70.6154 97.8408 68.4428 101.672 66.3221 105.531C66.0491 106.028 66.1997 106.678 66.6985 106.97C67.1801 107.25 67.8624 107.092 68.1369 106.593C71.9126 99.7186 75.8577 92.9383 79.9722 86.26C84.0851 79.5817 88.3659 73.0069 92.8082 66.5435C95.3023 62.9133 97.8482 59.3192 100.443 55.7612C100.777 55.3015 100.521 54.5893 100.066 54.3226C99.5344 54.012 98.9635 54.2395 98.6278 54.6991L98.6262 54.7007Z" fill="#101841"/>
<path d="M63.8596 63.7246C61.4079 65.7531 58.9561 67.7799 56.5044 69.8084C56.0667 70.1708 56.1295 70.9207 56.5044 71.2956C56.9373 71.7286 57.5522 71.658 57.9914 71.2956C60.4432 69.2672 62.8949 67.2403 65.3467 65.2118C65.7843 64.8494 65.7216 64.0996 65.3467 63.7246C64.9137 63.2916 64.2988 63.3622 63.8596 63.7246Z" fill="#101841"/>
<path d="M56.4794 72.1112C56.1908 73.7757 55.8472 75.4292 55.4488 77.0717C55.3155 77.6223 55.6245 78.2106 56.1829 78.3644C56.7194 78.5118 57.3421 78.184 57.4755 77.6302C57.8739 75.9877 58.2174 74.3342 58.506 72.6697C58.6033 72.1112 58.357 71.537 57.7719 71.377C57.2653 71.2374 56.5766 71.548 56.4794 72.1112Z" fill="#101841"/>
<path d="M59.2864 78.5277C57.5076 80.2926 55.7288 82.0559 53.95 83.8208C52.9884 84.7746 54.4739 86.2618 55.437 85.308C57.2158 83.5431 58.9946 81.7798 60.7734 80.0149C61.735 79.0611 60.2495 77.5739 59.2864 78.5277Z" fill="#101841"/>
<path d="M54.1902 85.1981C55.4765 91.3368 56.7643 97.4754 58.0506 103.614C58.4145 105.354 58.78 107.092 59.1439 108.832C59.26 109.387 59.9141 109.71 60.4365 109.566C61.0122 109.408 61.2867 108.83 61.1706 108.273C59.8843 102.135 58.5965 95.9961 57.3102 89.8574C56.9463 88.1176 56.5808 86.3794 56.2169 84.6396C56.1008 84.0843 55.4467 83.7611 54.9244 83.9054C54.3487 84.0639 54.0742 84.6412 54.1902 85.1981Z" fill="#101841"/>
<path d="M61.5261 81.6464C61.0398 86.4924 61.1308 91.3682 61.3724 96.2252C61.6124 101.048 61.9339 105.865 62.2226 110.685C62.3873 113.435 62.552 116.183 62.7167 118.933C62.7512 119.5 63.1747 119.984 63.7676 119.984C64.3104 119.984 64.8531 119.503 64.8186 118.933L63.9418 104.303C63.6531 99.4914 63.3065 94.6783 63.2767 89.8559C63.2594 87.1152 63.3535 84.373 63.628 81.6448C63.6845 81.0785 63.1041 80.5938 62.5771 80.5938C61.9622 80.5938 61.5826 81.0769 61.5261 81.6448V81.6464Z" fill="#101841"/>
<path d="M69.471 17.1259C70.2585 16.1328 71.2749 15.35 72.3541 14.9107C73.6122 14.3977 74.7494 14.255 76.0937 14.4213C76.6584 14.4919 77.1447 13.8879 77.1447 13.3702C77.1447 12.7442 76.66 12.3897 76.0937 12.3191C73.0804 11.9441 69.8726 13.2604 67.9855 15.6402C67.6326 16.0842 67.551 16.6929 67.9855 17.1274C68.351 17.4929 69.1165 17.5745 69.4726 17.1274L69.471 17.1259Z" fill="#101841"/>
<path d="M57.4714 22.3543C57.2784 23.1089 57.211 23.8854 57.3129 24.6588C57.3866 25.222 57.7427 25.7099 58.3639 25.7099C58.8737 25.7099 59.4902 25.2252 59.4149 24.6588C59.3364 24.0643 59.349 23.4932 59.498 22.9144C59.6376 22.3653 59.3176 21.7738 58.7639 21.6217C58.2227 21.4726 57.6125 21.8037 57.4714 22.3559V22.3543Z" fill="#101841"/>
<path d="M68.5202 4.62937C70.5578 3.10764 73.0065 2.36717 75.4629 2.17108C78.0511 1.964 80.6535 2.15696 83.1084 2.87076C84.4244 3.25354 85.6684 3.84027 86.666 4.76114C87.0832 5.1455 87.7405 5.17374 88.153 4.76114C88.5436 4.37052 88.5719 3.66142 88.153 3.27393C85.9648 1.25177 83.0503 0.523848 80.1672 0.183421C77.3625 -0.147593 74.437 -0.0754286 71.7139 0.72936C70.1939 1.17803 68.732 1.86359 67.4598 2.81428C67.0049 3.15314 66.7728 3.72418 67.0834 4.25286C67.3453 4.69996 68.0637 4.97136 68.5218 4.62937H68.5202Z" fill="#101841"/>
<path d="M93.1179 9.97337H93.3014C93.4457 9.97807 93.5806 9.94827 93.7061 9.88238C93.8363 9.84002 93.9492 9.76785 94.0449 9.66431C94.1469 9.56862 94.2206 9.45567 94.263 9.32546C94.3288 9.19995 94.3586 9.06504 94.3539 8.92071C94.3414 8.82815 94.3288 8.73402 94.3163 8.64147C94.2661 8.46262 94.1767 8.30888 94.0465 8.1771C93.9759 8.1222 93.9053 8.06729 93.8332 8.01238C93.67 7.91669 93.4928 7.86962 93.303 7.86962H93.1194C92.9751 7.86492 92.8402 7.89472 92.7147 7.96061C92.5845 8.00297 92.4716 8.07513 92.3759 8.17867C92.2739 8.27437 92.2002 8.38732 92.1579 8.51753C92.092 8.64303 92.0622 8.77795 92.0669 8.92228C92.0794 9.01484 92.092 9.10896 92.1045 9.20152C92.1547 9.38036 92.2441 9.53411 92.3743 9.66588C92.4449 9.72079 92.5155 9.7757 92.5877 9.83061C92.7508 9.9263 92.9281 9.97337 93.1179 9.97337Z" fill="#101841"/>
<path d="M95.1937 15.531C96.4329 17.9219 96.8863 20.5935 96.5976 23.2605C96.5365 23.8252 97.1247 24.3116 97.6486 24.3116C98.2682 24.3116 98.6384 23.8268 98.6996 23.2605C99.0259 20.2374 98.4047 17.1642 97.0086 14.4705C96.7467 13.967 96.0424 13.8179 95.5702 14.094C95.0588 14.3937 94.9302 15.0259 95.1937 15.5326V15.531Z" fill="#101841"/>
<path d="M96.2773 27.0402V27.7729C96.2773 28.3219 96.7605 28.849 97.3283 28.8239C97.8977 28.7988 98.3793 28.3627 98.3793 27.7729V27.0402C98.3793 26.4912 97.8962 25.964 97.3283 25.9891C96.7589 26.0142 96.2773 26.4504 96.2773 27.0402Z" fill="#101841"/>
<path d="M58.9571 19.4475C58.9116 19.2295 58.8708 19.0099 58.8379 18.7887C58.8598 18.933 58.8237 18.6663 58.819 18.6255C58.8049 18.4969 58.7939 18.3667 58.7845 18.238C58.7516 17.7752 58.75 17.3109 58.7751 16.8481C58.7877 16.6253 58.808 16.4041 58.8316 16.1829C58.8504 15.9994 58.8237 16.2033 58.852 16.0213C58.8724 15.8927 58.8928 15.764 58.9163 15.637C59.001 15.1804 59.1124 14.7286 59.2488 14.2847C59.7618 12.6155 60.7029 11.0153 61.9406 9.75871C62.1225 9.5736 62.3108 9.39475 62.5053 9.22376C62.6025 9.13747 62.7014 9.05276 62.8017 8.97118C62.8441 8.9351 62.888 8.90059 62.9319 8.86607C63.0747 8.75155 62.8363 8.93667 62.9837 8.82528C63.4151 8.50055 63.87 8.21189 64.3437 7.95461C64.8425 7.68321 65.001 6.99608 64.7202 6.51603C64.4253 6.01245 63.7821 5.86655 63.2818 6.13952C59.5218 8.18365 57.0998 12.1841 56.7045 16.4057C56.5916 17.6105 56.681 18.8247 56.9288 20.0092C57.0449 20.5645 57.699 20.8877 58.2214 20.7434C58.7986 20.5849 59.0716 20.0076 58.9555 19.4507L58.9571 19.4475Z" fill="#101841"/>
<path d="M64.8702 17.2123C65.3816 15.3109 66.8702 13.7154 68.7118 13.1083C69.2514 12.931 69.6012 12.382 69.4459 11.8156C69.3016 11.2885 68.6945 10.9026 68.1534 11.0814C65.5855 11.927 63.5479 14.0323 62.8436 16.6538C62.6961 17.2013 63.0287 17.7958 63.5777 17.9465C64.1236 18.0971 64.7228 17.7629 64.8702 17.2123Z" fill="#101841"/>
<path d="M23.7937 76.1861C28.3788 74.9969 33.0501 74.1608 37.7654 73.7089C37.4281 73.4517 37.0893 73.1944 36.752 72.9371C37.323 74.7851 37.7779 76.6692 38.236 78.5471C38.8916 81.2423 39.5128 83.9453 40.1214 86.6499C41.4297 92.4575 42.6814 98.2777 43.9128 104.103C44.374 106.282 44.8304 108.462 45.2838 110.643C45.3998 111.198 46.054 111.52 46.5763 111.377C47.1536 111.219 47.4265 110.641 47.3104 110.084C46.3536 105.471 45.3779 100.862 44.3849 96.2571C43.1301 90.4401 41.8595 84.623 40.4697 78.8373C39.9505 76.6755 39.4375 74.5043 38.7818 72.3786C38.6563 71.9707 38.2313 71.5628 37.7685 71.6068C32.8666 72.0774 28.0054 72.923 23.2384 74.1592C22.6894 74.3019 22.3553 74.9106 22.5043 75.4519C22.6564 76.0072 23.2462 76.3288 23.7968 76.1861H23.7937Z" fill="#101841"/>
<path d="M20.9882 78.6002C21.8369 84.3906 22.6839 90.1825 23.5325 95.9729C24.3765 101.738 25.2204 107.504 26.0643 113.267C26.4878 116.163 26.9129 119.058 27.3364 121.954C27.7208 124.573 28.0282 127.231 29.1278 129.669C30.1427 131.92 31.9513 133.68 34.0219 134.978C36.116 136.289 38.5458 137.287 40.9756 137.75C43.6046 138.249 46.2979 138.051 48.6681 136.733C50.7528 135.574 52.3779 133.746 53.7316 131.812C54.061 131.341 54.3716 130.861 54.6743 130.373C54.9724 129.89 54.7779 129.217 54.2979 128.935C53.7959 128.641 53.1591 128.828 52.8595 129.311C52.2979 130.22 51.6783 131.14 51.0383 131.917C50.6869 132.344 50.3167 132.755 49.9246 133.144C49.7379 133.329 49.545 133.509 49.3489 133.685C49.1952 133.821 48.905 134.063 48.814 134.132C47.9528 134.788 47.0461 135.28 46.072 135.572C44.8877 135.927 43.6705 135.983 42.4375 135.858C40.1097 135.622 37.8399 134.727 35.8399 133.608C33.9309 132.543 32.2698 131.153 31.2423 129.216C30.0941 127.047 29.818 124.492 29.4666 122.093C29.0572 119.301 28.6494 116.51 28.24 113.717C27.4227 108.134 26.6055 102.549 25.7867 96.966L23.3224 80.136C23.2204 79.4379 23.1184 78.7398 23.0165 78.0417C22.9349 77.48 22.2228 77.171 21.7239 77.3075C21.1216 77.4738 20.9067 78.037 20.9898 78.6002H20.9882Z" fill="#101841"/>
<path d="M47.5751 116.93C48.9272 116.93 48.9303 114.828 47.5751 114.828C46.2198 114.828 46.2198 116.93 47.5751 116.93Z" fill="#101841"/>
<path d="M103.216 58.0251C108.513 60.4034 113.828 62.7173 119.29 64.6956C121.845 65.6212 124.374 66.3177 126.59 67.8833C126.993 68.1673 127.453 68.5689 127.861 69.016C128.254 69.4506 128.571 69.9181 128.868 70.5252C129.52 71.8649 129.713 73.4055 129.958 74.8582C130.516 78.1668 131.152 81.4769 131.21 84.8388C131.219 85.4067 131.685 85.8899 132.261 85.8899C132.836 85.8899 133.321 85.4083 133.312 84.8388C133.257 81.6918 132.706 78.5637 132.182 75.4684C131.922 73.9326 131.734 72.3575 131.25 70.8703C130.783 69.4333 130.016 68.1281 128.913 67.0864C126.891 65.1756 124.198 64.2155 121.625 63.3025C118.808 62.3032 116.008 61.2584 113.243 60.1241C111.851 59.5531 110.567 59.0009 109.146 58.3781C107.519 57.6643 105.897 56.9363 104.277 56.2084C103.759 55.9763 103.147 56.0594 102.838 56.5849C102.575 57.0336 102.695 57.7898 103.215 58.0235L103.216 58.0251Z" fill="#101841"/>
<path d="M55.2842 71.1469C53.0081 72.1698 51.063 73.8233 49.6089 75.8454C47.9289 78.1798 47.187 81.0569 46.2803 83.7474C45.7266 85.3899 45.1713 87.0325 44.6176 88.675C44.4356 89.2131 44.8262 89.8233 45.3517 89.9677C45.9258 90.1261 46.4623 89.7731 46.6442 89.2335C47.5823 86.452 48.4983 83.6627 49.4615 80.8906C50.263 78.583 51.3611 76.6173 53.1618 75.003C54.0748 74.1856 55.1665 73.4922 56.3446 72.9636C56.8622 72.7314 56.9861 71.9784 56.721 71.525C56.4089 70.9916 55.8034 70.9147 55.2826 71.1485L55.2842 71.1469Z" fill="#101841"/>
<path d="M18.0475 62.6101C22.1463 62.7435 26.3141 64.1648 29.4733 66.7925C29.9094 67.1549 30.5321 67.2192 30.9603 66.7925C31.3337 66.4191 31.3995 65.6708 30.9603 65.3053C27.3352 62.2901 22.747 60.6601 18.049 60.5064C17.4812 60.4875 16.998 61.0021 16.998 61.5575C16.998 62.1426 17.4796 62.5897 18.049 62.6085L18.0475 62.6101Z" fill="#101841"/>
<path d="M14.2975 59.4185C13.5038 59.1597 12.7085 58.9008 11.9242 58.609C11.2214 58.3486 10.7807 58.1682 10.0999 57.8168C8.64107 57.0653 7.61519 56.1382 6.43245 55.0149C5.07246 53.7223 3.03169 52.6131 1.17915 53.6234C0.18778 54.1647 -0.234179 55.2455 0.24425 56.2841C0.586209 57.0261 1.08817 57.7242 1.55248 58.3957C5.21677 63.6935 10.4873 67.388 15.9446 70.651C17.5116 71.5876 19.0943 72.4991 20.6692 73.4215C21.339 73.8137 22.0214 74.1934 22.6724 74.6169C22.7445 74.664 22.8135 74.7142 22.8857 74.7613C23.0818 74.8915 22.6865 74.573 22.8951 74.7722C23.0033 74.8774 23.1116 74.9809 23.2167 75.0907C24.1579 76.0665 25.6433 74.5793 24.7037 73.6035C24.1422 73.0215 23.463 72.6246 22.7712 72.2167C21.4081 71.4119 20.0355 70.6181 18.6693 69.818C16.0685 68.2932 13.4803 66.7369 11.0426 64.9595C8.7697 63.3028 6.53598 61.3152 4.68344 59.075C4.22541 58.5196 3.86305 58.0427 3.43953 57.4356C3.22463 57.1281 3.016 56.8159 2.81522 56.5006C2.58777 56.146 2.39953 55.746 2.15012 55.4071C2.06699 55.2926 2.12816 55.2001 2.12346 55.4291C2.12346 55.4871 2.07326 55.5279 2.07326 55.575C2.07483 55.4997 2.15326 55.4746 2.24267 55.4385C2.35875 55.3899 2.36032 55.3789 2.54541 55.3507C2.62855 55.3381 2.89835 55.3365 3.04894 55.3601C3.68894 55.462 4.3258 55.9201 4.84815 56.4064C5.52893 57.0402 6.17363 57.6929 6.91088 58.2639C7.55245 58.7596 8.22538 59.2036 8.94224 59.5801C10.4654 60.3786 12.1109 60.912 13.7406 61.4438C14.2803 61.6195 14.8889 61.2383 15.0332 60.7096C15.1901 60.1402 14.8403 59.5942 14.2991 59.417L14.2975 59.4185Z" fill="#101841"/>
<path d="M2.25859 51.7888C2.19742 51.6178 2.16291 51.4264 2.09546 51.2601C2.07036 51.2005 2.14095 51.0327 2.05467 51.235C2.0782 51.1848 2.10644 51.1362 2.13938 51.0907C2.05938 51.1927 2.05938 51.2005 2.13938 51.1127C2.03428 51.1848 2.03271 51.188 2.13154 51.1205C2.18173 51.0891 2.2335 51.0609 2.28683 51.0342C2.08134 51.1425 2.41859 51.006 2.47036 50.9903C2.59271 50.9683 2.59428 50.9652 2.47349 50.9825C2.53781 50.9762 2.60212 50.9715 2.66643 50.9699C2.71506 50.9699 3.10094 51.006 2.86879 50.9668C2.99428 50.9872 3.11506 51.0217 3.23584 51.0609C3.01624 50.9887 3.43192 51.1676 3.48212 51.199C3.62329 51.2852 3.66408 51.3135 3.75976 51.3935C3.9778 51.5739 4.17701 51.7778 4.37466 51.9818C4.87976 52.5042 5.38015 52.9999 5.96838 53.4329C7.11347 54.2769 8.44052 54.8276 9.73463 55.397C11.2531 56.0653 12.7715 56.7289 14.2915 57.391C14.8123 57.6169 15.4193 57.5447 15.7299 57.0145C15.9903 56.5689 15.8758 55.8034 15.3534 55.5759C14.0232 54.997 12.6946 54.415 11.366 53.8314C10.166 53.3043 8.93464 52.8085 7.80837 52.134C7.30955 51.8359 6.8719 51.5159 6.45779 51.108C6.05152 50.7095 5.68446 50.2718 5.24995 49.9047C4.29466 49.0968 3.16682 48.6779 1.91507 48.9619C1.27977 49.1062 0.688405 49.4796 0.329191 50.0286C-0.133551 50.7346 -0.0347285 51.5927 0.238211 52.3473C0.431152 52.8807 0.953502 53.2399 1.53075 53.0815C2.04526 52.9403 2.45938 52.3253 2.26487 51.7888H2.25859Z" fill="#101841"/>
<path d="M5.24996 49.1147C5.77858 49.1868 6.29466 49.3139 6.79505 49.4959C7.14485 49.6229 7.59818 49.8394 8.06249 50.103C8.95974 50.6113 9.79268 51.22 10.6319 51.8161C12.4389 53.1025 14.2993 54.2399 16.555 54.4626C17.1213 54.5176 17.606 53.9402 17.606 53.4116C17.606 52.7966 17.1228 52.417 16.555 52.3605C16.4828 52.3542 16.4107 52.3464 16.3385 52.3369C16.4405 52.3495 16.4264 52.3464 16.2993 52.3275C16.1613 52.2993 16.0217 52.2742 15.8836 52.2428C15.6452 52.1863 15.4115 52.1173 15.1793 52.0373C15.0805 52.0028 14.9832 51.9651 14.886 51.9291C14.7699 51.882 14.7574 51.8773 14.8483 51.9165C14.784 51.8883 14.7213 51.86 14.6585 51.8318C14.4374 51.7298 14.2193 51.62 14.0044 51.5039C13.1025 51.0129 12.2664 50.412 11.4303 49.8159C9.7268 48.6017 7.92916 47.378 5.80682 47.0893C5.24525 47.0125 4.67898 47.2243 4.51428 47.8235C4.37938 48.313 4.68212 49.0393 5.24839 49.1162L5.24996 49.1147Z" fill="#101841"/>
<path d="M3.95339 49.484C3.99104 49.3679 3.9879 49.3663 3.94555 49.484C4.00202 49.3961 4.00673 49.3836 3.9628 49.4432C3.81222 49.5295 4.15888 49.2738 4.02869 49.3773C3.94712 49.4416 4.20751 49.2785 4.24359 49.2597C4.08202 49.3397 4.32045 49.2361 4.36594 49.222C4.46633 49.1922 4.56672 49.1718 4.66868 49.1483C4.89613 49.0965 4.59182 49.1357 4.80672 49.1326C5.05143 49.1279 5.28672 49.1247 5.52985 49.1514C6.09456 49.2157 6.58083 48.6227 6.58083 48.1003C6.58083 47.4791 6.09613 47.1136 5.52985 47.0492C4.10398 46.8877 2.38164 47.421 1.9283 48.9255C1.76517 49.4683 2.12438 50.0707 2.66242 50.2182C3.22242 50.3719 3.79026 50.0299 3.95496 49.484H3.95339Z" fill="#101841"/>
<path d="M7.01301 47.3438C6.92047 47.085 6.98948 47.4992 6.98948 47.5384C6.98948 47.5023 6.94399 47.6858 6.93301 47.6701C6.91576 47.645 7.12439 47.5556 7.04752 47.5807C7.35654 47.4819 7.64674 47.4584 7.97301 47.4756C8.62555 47.5101 9.29222 47.7627 9.88829 48.0341C11.1463 48.6051 12.3557 49.2829 13.5479 49.9794C15.9698 51.396 18.3369 52.9272 20.9078 54.0692C22.3667 54.7171 23.8678 55.2537 25.4412 55.5408C25.9996 55.6427 26.5737 55.3886 26.7337 54.8066C26.8733 54.2967 26.5612 53.6159 25.9996 53.5139C23.0129 52.9695 20.3777 51.5686 17.7769 50.0453C16.4561 49.2719 15.1541 48.4671 13.8255 47.7109C12.453 46.9297 11.0161 46.1092 9.49928 45.6448C8.55967 45.3578 7.43811 45.2213 6.49066 45.5539C5.54792 45.8849 4.59891 46.8167 4.98793 47.9039C5.1793 48.4389 5.70479 48.7965 6.28047 48.6381C6.79654 48.4953 7.20595 47.8819 7.01458 47.3454L7.01301 47.3438Z" fill="#101841"/>
<path d="M32.8719 52.4865C31.366 51.3428 29.8617 50.1992 28.3558 49.0571C27.1057 48.108 25.8664 46.9392 24.3355 46.4686C23.3723 46.1721 22.221 46.2615 21.5167 47.0553C20.8547 47.8021 20.7669 48.8924 21.0743 49.8148C21.4931 51.0683 22.4531 52.0582 23.6029 52.681C24.1017 52.9508 24.748 52.8049 25.0413 52.3045C25.3221 51.826 25.1653 51.1373 24.6649 50.8659C24.4421 50.7451 24.2272 50.6118 24.0233 50.4627C24.1786 50.5757 23.9747 50.4204 23.9261 50.3764C23.8304 50.2917 23.7394 50.2039 23.6516 50.1129C23.5763 50.0344 23.5072 49.9513 23.4366 49.8697C23.57 50.0266 23.4445 49.876 23.3927 49.8007C23.2767 49.6281 23.1825 49.4477 23.0947 49.2595C23.1794 49.4399 23.1292 49.3395 23.0931 49.2249C23.0665 49.1418 23.0461 49.0587 23.0257 48.9755C22.9614 48.7135 22.9849 48.9598 23.0178 48.9818C22.9833 48.9598 23.0084 48.7323 23.0068 48.69C23.0068 48.6633 23.0163 48.6319 23.0116 48.6053C22.9912 48.4829 22.9519 48.839 22.9943 48.7214C23.0131 48.668 23.0241 48.5974 23.0351 48.541C23.0837 48.3072 22.9378 48.6555 23.0225 48.5551C23.0508 48.5221 23.1825 48.279 23.0727 48.4547C22.9614 48.6335 23.1261 48.4296 23.1418 48.4013C23.1919 48.3151 23.0398 48.519 23.0257 48.4908C23.0194 48.4782 23.1041 48.4515 23.1104 48.4374C23.1104 48.4406 23.1919 48.3872 23.2014 48.3904C23.297 48.4217 22.9284 48.4625 23.0978 48.439C23.1292 48.4343 23.1747 48.4186 23.2029 48.4092C23.2767 48.3872 23.377 48.428 23.2343 48.3998C23.0618 48.3653 23.2798 48.4045 23.341 48.406C23.4665 48.4076 23.6186 48.4547 23.4021 48.4029C23.6123 48.4547 23.8163 48.5049 24.0217 48.5786C24.2068 48.6445 24.0625 48.5974 24.0265 48.5786C24.0861 48.6068 24.1457 48.6335 24.2037 48.6633C24.3292 48.7261 24.4531 48.7951 24.5739 48.8657C24.8547 49.0304 25.1198 49.2171 25.3802 49.4132C26.0437 49.9105 26.6994 50.4157 27.3598 50.9161C28.8437 52.0441 30.3292 53.172 31.8131 54.3C32.2648 54.6435 32.9895 54.3706 33.2515 53.9235C33.5668 53.3838 33.3284 52.83 32.875 52.4849L32.8719 52.4865Z" fill="#101841"/>
<path d="M31.643 54.2527C33.4815 56.0176 34.8713 58.3927 35.1426 60.9624C35.2885 62.3461 35.1348 63.7282 35.0328 65.1087C34.923 66.5975 34.945 68.0769 35.3073 69.5327C35.4438 70.0834 36.0634 70.4144 36.5999 70.2669C37.1599 70.1132 37.472 69.5264 37.334 68.9742C36.7928 66.803 37.2791 64.6036 37.3058 62.401C37.334 60.0635 36.6956 57.7715 35.5081 55.7603C34.8603 54.6606 34.0493 53.6487 33.1285 52.7671C32.1528 51.8305 30.6642 53.3146 31.6415 54.2543L31.643 54.2527Z" fill="#101841"/>
<path d="M121.304 116.903C118.701 114.981 116.097 113.059 113.493 111.139C112.85 110.664 112.189 110.174 111.356 110.135C110.517 110.094 109.775 110.593 109.372 111.312C108.578 112.728 109.003 114.361 109.704 115.715C110.081 116.443 110.552 117.119 110.999 117.807C111.508 118.591 112.02 119.375 112.53 120.16C112.839 120.635 113.461 120.833 113.968 120.536C114.44 120.26 114.657 119.576 114.344 119.098C113.587 117.934 112.815 116.777 112.073 115.604C111.77 115.127 111.458 114.625 111.264 114.096C111.166 113.833 111.075 113.554 111.041 113.274C111.027 113.164 111.035 112.83 111.069 112.706C111.119 112.524 111.204 112.32 111.254 112.266C111.325 112.187 111.279 112.226 111.254 112.248C111.526 112.013 111.331 112.218 111.328 112.218C111.204 112.198 111.363 112.25 111.383 112.259C111.929 112.488 112.45 112.968 112.937 113.329C114.072 114.165 115.206 115.003 116.34 115.839C117.642 116.799 118.944 117.761 120.246 118.721C120.702 119.058 121.419 118.796 121.684 118.345C121.996 117.81 121.766 117.245 121.308 116.906L121.304 116.903Z" fill="#101841"/>
<path d="M107.288 123.108C106.618 121.712 105.961 120.311 105.314 118.905C104.98 118.179 104.649 117.451 104.321 116.722C104.097 116.224 103.769 115.63 103.906 115.143C104.08 114.524 104.522 113.918 104.839 113.353C105.208 112.696 105.582 112.042 105.962 111.392C106.709 110.112 107.444 108.809 108.274 107.58C108.444 107.328 108.531 107.216 108.771 106.984C108.853 106.904 108.88 106.879 109.057 106.78C109.157 106.725 109.088 106.757 109.062 106.768C109.054 106.771 109.36 106.664 109.24 106.705C109.112 106.749 109.391 106.722 109.258 106.7C109.137 106.68 109.413 106.741 109.411 106.741C109.219 106.68 109.628 106.888 109.466 106.761C109.515 106.801 109.564 106.849 109.604 106.895C109.498 106.772 109.59 106.907 109.598 106.907C109.559 106.909 109.55 106.743 109.581 106.901C109.56 106.794 109.542 106.705 109.597 106.6C109.336 107.103 109.466 107.74 109.973 108.038C110.444 108.314 111.149 108.167 111.411 107.662C112.307 105.927 110.373 104.239 108.668 104.689C107.004 105.128 106.157 106.975 105.341 108.322C104.392 109.891 103.473 111.477 102.585 113.082C102.122 113.92 101.677 114.746 101.797 115.736C101.913 116.686 102.403 117.558 102.792 118.417C103.664 120.344 104.558 122.261 105.473 124.169C105.717 124.68 106.45 124.815 106.911 124.545C107.435 124.239 107.534 123.621 107.288 123.107V123.108Z" fill="#101841"/>
<path d="M104.185 123.047C102.582 121.331 101.884 118.967 101.848 116.673C101.826 115.325 102.001 113.993 102.293 112.679C102.569 111.44 102.878 110.086 103.418 108.955C103.705 108.352 104.019 107.858 104.53 107.441C104.916 107.127 105.46 106.921 105.929 106.917C107.281 106.904 107.284 104.802 105.929 104.815C104.386 104.829 103.06 105.701 102.174 106.923C101.294 108.136 100.888 109.675 100.513 111.105C99.7284 114.095 99.377 117.311 100.295 120.316C100.775 121.886 101.576 123.332 102.698 124.534C103.085 124.95 103.793 124.926 104.185 124.534C104.599 124.12 104.574 123.464 104.185 123.047Z" fill="#101841"/>
<path d="M98.0054 123.607C97.712 119.134 98.9685 114.726 101.549 111.038C101.875 110.572 101.634 109.869 101.172 109.599C100.648 109.293 100.06 109.51 99.734 109.976C96.9763 113.918 95.5881 118.803 95.9034 123.607C95.9411 124.173 96.3599 124.658 96.9544 124.658C97.494 124.658 98.043 124.176 98.0054 123.607Z" fill="#101841"/>
<path d="M94.4236 118.123C94.0566 119.67 93.8025 121.245 93.6597 122.828C93.5923 123.579 93.5342 124.326 93.6503 125.076C93.7617 125.796 94.0989 126.436 94.5852 126.974C95.4589 127.937 96.7374 128.417 97.9013 128.921C99.2958 129.523 100.698 130.118 102.133 130.617C103.78 131.188 105.46 131.599 107.192 131.808C107.757 131.875 108.243 131.276 108.243 130.756C108.243 130.132 107.758 129.774 107.192 129.705C104.595 129.392 102.089 128.438 99.6958 127.421C98.6134 126.962 97.4573 126.547 96.4879 125.873C96.2323 125.694 95.9028 125.327 95.7962 125.044C95.5938 124.506 95.6801 123.863 95.724 123.276C95.8401 121.726 96.0911 120.195 96.4503 118.683C96.5821 118.131 96.2777 117.544 95.7162 117.39C95.1829 117.244 94.5554 117.569 94.4236 118.125V118.123Z" fill="#101841"/>
<path d="M114.822 132.728C116.044 131.696 117.266 130.665 118.488 129.633C119.554 128.733 120.638 127.841 121.594 126.822C123.584 124.698 124.798 122.045 125.002 119.133C125.041 118.567 124.491 118.082 123.951 118.082C123.349 118.082 122.939 118.565 122.9 119.133C122.728 121.59 121.575 123.852 119.823 125.633C118.866 126.604 117.807 127.468 116.765 128.347C115.622 129.311 114.478 130.276 113.336 131.241C112.902 131.608 112.958 132.35 113.336 132.728C113.766 133.158 114.387 133.095 114.823 132.728H114.822Z" fill="#101841"/>
<path d="M100.794 128.975C97.4609 129.189 94.1276 129.404 90.7943 129.617C90.3268 129.647 89.8594 129.677 89.3904 129.706C89.6382 130.304 89.8861 130.903 90.1339 131.501C91.3998 130.001 92.6641 128.502 93.93 127.002C94.1104 126.788 94.2907 126.574 94.4711 126.36C94.8366 125.927 94.8962 125.3 94.4711 124.873C94.0962 124.498 93.3527 124.437 92.9841 124.873C91.7182 126.373 90.4539 127.872 89.188 129.372C89.0076 129.586 88.8272 129.801 88.6469 130.014C88.3708 130.342 88.2484 130.751 88.4288 131.162C88.5872 131.525 88.97 131.835 89.3888 131.809C92.7221 131.595 96.0554 131.38 99.3888 131.167C99.8562 131.137 100.324 131.107 100.793 131.078C101.359 131.041 101.844 130.621 101.844 130.026C101.844 129.485 101.362 128.939 100.793 128.975H100.794Z" fill="#101841"/>
<path d="M113.727 103.536C115.226 101.696 116.726 99.8574 118.225 98.0172C120.594 95.1118 122.963 92.2064 125.331 89.2995C125.876 88.6312 126.42 87.9644 126.964 87.2961C126.716 87.3981 126.469 87.5016 126.221 87.6036C129.135 87.4765 132.05 87.3495 134.964 87.2224C139.573 87.0216 144.181 86.8208 148.79 86.62C149.844 86.5745 150.9 86.5274 151.954 86.4819C151.706 85.8842 151.458 85.2849 151.21 84.6872C150.36 85.7085 149.51 86.7314 148.658 87.7526C146.616 90.2078 144.572 92.6614 142.53 95.1165C140.048 98.0972 137.568 101.078 135.087 104.059C132.95 106.627 130.812 109.195 128.676 111.761C127.637 113.009 126.588 114.249 125.559 115.506C125.545 115.523 125.529 115.541 125.515 115.559C125.153 115.996 125.088 116.618 125.515 117.047C125.888 117.42 126.636 117.484 127.002 117.047C127.852 116.025 128.702 115.002 129.554 113.981C131.596 111.526 133.64 109.072 135.683 106.617C138.164 103.637 140.644 100.656 143.126 97.6752C145.262 95.1071 147.4 92.539 149.537 89.9725C150.575 88.7253 151.628 87.486 152.654 86.2278C152.668 86.2105 152.683 86.1933 152.697 86.1744C152.972 85.845 153.097 85.4403 152.916 85.0261C152.754 84.659 152.377 84.3609 151.956 84.3798C149.48 84.488 147.005 84.5962 144.53 84.7029C140.174 84.8927 135.818 85.0826 131.46 85.2724C130.011 85.3351 128.56 85.3995 127.11 85.4622C126.826 85.4748 126.542 85.4795 126.258 85.4999C125.755 85.536 125.542 85.7305 125.273 86.0599C123.069 88.7629 120.865 91.4675 118.662 94.1706C116.558 96.7512 114.455 99.3319 112.351 101.911C112.315 101.956 112.277 102 112.241 102.046C111.884 102.485 111.811 103.102 112.241 103.533C112.611 103.903 113.367 103.975 113.728 103.533L113.727 103.536Z" fill="#101841"/>
<path d="M100.167 55.9752C101.499 57.2726 102.74 58.6688 103.94 60.0885C105.165 61.5381 106.208 62.8041 107.226 64.4043C107.531 64.8828 108.161 65.0757 108.665 64.7808C109.142 64.5015 109.347 63.8238 109.041 63.3422C107.996 61.7013 106.756 60.178 105.504 58.6923C104.28 57.2412 103.016 55.8136 101.654 54.488C100.685 53.5436 99.1965 55.0276 100.167 55.9752Z" fill="#101841"/>
<path d="M105.134 64.5464C103.84 66.6109 102.363 68.5421 100.708 70.3305C100.322 70.7462 100.295 71.4051 100.708 71.8177C101.098 72.2083 101.807 72.235 102.195 71.8177C103.969 69.9022 105.564 67.8204 106.951 65.6084C107.252 65.1268 107.053 64.4507 106.574 64.1699C106.071 63.8749 105.439 64.0648 105.136 64.5464H105.134Z" fill="#101841"/>
<path d="M90.544 76.5989C93.1621 77.89 95.6264 79.4824 97.8538 81.3696C98.2867 81.7367 98.9157 81.7947 99.3408 81.3696C99.7173 80.9931 99.7753 80.2511 99.3408 79.8824C96.9754 77.8775 94.3871 76.155 91.606 74.7823C91.0977 74.5313 90.4687 74.6458 90.1676 75.1588C89.8962 75.6231 90.0342 76.3448 90.544 76.5974V76.5989Z" fill="#101841"/>
<path d="M97.6469 82.6451C94.2022 86.484 90.6885 90.2585 87.1042 93.9655C83.5372 97.6553 79.9011 101.278 76.1976 104.831C74.0941 106.85 71.9702 108.845 69.8259 110.819C69.4086 111.203 69.4369 111.916 69.8259 112.306C70.2416 112.722 70.8925 112.692 71.3129 112.306C75.1074 108.814 78.8376 105.253 82.5003 101.621C86.1442 98.0083 89.7207 94.3263 93.2281 90.5785C95.2203 88.4497 97.1889 86.3004 99.1355 84.1308C99.5151 83.7088 99.5528 83.0609 99.1355 82.6436C98.7497 82.2576 98.0297 82.22 97.6485 82.6436L97.6469 82.6451Z" fill="#101841"/>
<path d="M68.2743 117.54C69.6264 117.54 69.6296 115.438 68.2743 115.438C66.919 115.438 66.919 117.54 68.2743 117.54Z" fill="#101841"/>
<path d="M98.8853 73.9455V73.7055C98.89 73.5612 98.8602 73.4262 98.7943 73.3007C98.7519 73.1705 98.6798 73.0576 98.5762 72.9619C98.4805 72.8599 98.3676 72.7862 98.2374 72.7438C98.1119 72.6779 97.977 72.6481 97.8327 72.6528C97.7402 72.6654 97.646 72.6779 97.5535 72.6905C97.3747 72.7407 97.2209 72.8301 97.0892 72.9603C97.0343 73.0309 96.9794 73.1015 96.9245 73.1737C96.8288 73.3384 96.7817 73.5141 96.7817 73.7039V73.9439C96.777 74.0883 96.8068 74.2232 96.8727 74.3487C96.9151 74.4789 96.9872 74.5918 97.0908 74.6875C97.1864 74.7895 97.2994 74.8632 97.4296 74.9056C97.5551 74.9715 97.69 75.0013 97.8343 74.9966C97.9268 74.984 98.0209 74.9715 98.1135 74.9589C98.2907 74.9087 98.446 74.8193 98.5778 74.6891C98.6327 74.6185 98.6876 74.5479 98.7425 74.4758C98.8382 74.311 98.8853 74.1353 98.8853 73.9455Z" fill="#101841"/>
</g>
<defs>
<clipPath id="clip0_886_6063">
<rect width="153" height="138" fill="white"/>
</clipPath>
</defs>
</svg>
