<svg preserveAspectRatio="none" width="100%" height="100%" overflow="visible" style="display: block;" viewBox="0 0 150.102 136.605" fill="none" xmlns="http://www.w3.org/2000/svg">
<g id="Group">
<g id="Group_2">
<path id="Vector" d="M65.977 51.8761C59.8892 46.5156 58.4758 36.5569 57.6319 29.0236C56.8005 21.6127 60.937 14.31 68.1401 11.9332C74.8083 9.7338 82.7973 12.5906 86.5588 18.5206C88.3047 21.2722 89.2443 24.6091 91.6459 26.8116C92.3439 27.4517 93.1533 27.9804 93.7462 28.7208C95.0278 30.3194 95.0608 32.5801 94.7423 34.6038C94.2953 37.448 92.9039 40.5479 90.2074 41.8845C88.4035 42.7787 88.1886 42.2328 88.7455 44.4009C89.2678 46.4325 90.0114 48.1393 91.4953 49.6767C92.6404 50.8627 97.8827 51.2267 98.4882 52.499C99.1454 53.8811 95.6584 56.4743 95.0247 57.6179C94.1274 59.2322 93.0764 60.7539 92.0317 62.2741C82.14 76.6724 71.6852 92.8733 62.8288 107.932C60.2013 97.1608 61.6021 84.4646 61.9519 73.3827C62.0335 70.7957 62.1276 68.1461 63.1048 65.7489C64.4993 62.3258 67.5236 59.8236 69.2428 56.5511C69.4264 56.2029 69.5973 55.8326 69.6021 55.4404C69.6162 54.4113 68.5715 53.7446 67.7072 53.1861C67.0923 52.7892 66.5166 52.3499 65.9785 51.8761H65.977Z" fill="var(--fill-0, white)"/>
<path id="Vector_2" d="M58.3222 11.2804C60.6673 6.26345 65.8045 3.11333 71.0312 1.28255C73.4516 0.435405 76.01 -0.198385 78.5606 0.057327C80.2154 0.223618 81.8154 0.761713 83.3213 1.46453C88.2625 3.76908 92.3079 7.93578 94.4648 12.9434C96.6216 17.9509 96.8726 23.7523 95.1534 28.9277C93.8405 28.6297 92.4946 28.33 91.1597 28.5089C89.8248 28.6877 88.4852 29.447 87.9989 30.7036C85.3323 28.5669 83.8029 25.3619 81.817 22.5804C79.4484 19.2609 76.2343 16.4041 72.3441 15.182C68.4539 13.9599 63.85 14.6047 60.901 17.4222C59.1065 19.1369 58.6673 21.2234 57.7591 23.3507C54.9183 22.4832 57.4375 13.1708 58.3207 11.282L58.3222 11.2804Z" fill="var(--fill-0, #838382)"/>
<path id="Vector_3" d="M73.8044 73.1973C73.3605 78.2017 75.7574 83.2925 74.5354 88.1651C73.9786 90.3849 72.7127 92.3491 71.4656 94.2677C69.7527 96.9048 68.8884 99.5671 67.759 102.389C67.4217 103.23 62.7331 109.243 62.7441 109.265C62.0759 107.885 61.9802 106.308 61.8955 104.777C61.7433 102.018 61.5927 99.258 61.4406 96.4985C61.4139 96.0216 61.3888 95.5368 61.5033 95.0725C61.6241 94.583 61.8955 94.1453 62.1621 93.7186C65.5347 88.3126 66.9731 82.9959 69.0641 77.0377C69.4484 75.9442 69.8845 74.8602 70.079 73.7166C70.6954 70.0927 67.3245 61.8675 73.0562 60.5372C80.435 58.8241 73.8029 70.9555 73.8029 73.1973H73.8044Z" fill="var(--fill-0, #0F83C6)"/>
</g>
<path id="Vector_4" d="M47.6553 136.605C51.18 136.425 54.6953 136.155 58.2278 136.098C58.5008 136.094 58.7753 136.092 59.0482 136.089C61.671 135.759 64.278 135.584 66.9447 136.062C67.0215 136.076 67.0999 136.089 67.1768 136.101C72.8458 136.172 78.5132 136.327 84.1822 136.324C88.5493 136.321 92.9194 136.221 97.277 135.908C101.547 135.603 105.812 135.204 110.079 134.86C111.195 134.771 112.312 134.68 113.429 134.589C115.581 134.129 117.721 133.599 119.854 132.923C123.462 131.779 127.147 130.284 129.613 127.412C133.046 123.411 133.384 117.673 133.294 112.402C133.144 103.617 132.273 94.8674 131.302 86.1418C130.584 79.6956 131.713 72.2909 126.507 67.2096C122.824 63.6156 117.448 62.566 112.665 60.6694C109.732 59.5053 105.818 58.9751 103.263 57.1239C101.468 55.8249 101.009 52.2967 98.7123 54.2373C96.0959 56.4478 93.2237 61.6153 91.412 64.5443C87.092 71.5254 83.2881 77.2546 78.6889 84.0537C73.4466 91.802 68.4286 100.438 62.8333 107.935C62.0553 93.3143 62.1588 78.6477 63.1423 64.0391C52.7016 68.7314 47.2287 80.0706 42.5934 90.5375C41.006 84.9668 39.4201 79.3976 37.8326 73.8268C37.6962 73.3452 37.5393 72.8337 37.1503 72.5184C36.7079 72.1592 36.0868 72.1498 35.5189 72.1639C30.7895 72.2784 26.0711 72.8071 21.4327 73.7405C21.0719 79.5105 22.01 85.2758 22.9449 90.9815C24.5213 100.601 26.0962 110.221 27.6727 119.839C28.0931 122.404 28.5245 125.005 29.6115 127.366C31.8139 132.151 36.8068 135.523 42.0679 135.778C43.9001 135.868 45.7824 136.285 47.6616 136.605H47.6553Z" fill="var(--fill-0, #93D2E9)"/>
<path id="Vector_5" d="M28.7028 49.5057C26.7311 47.5887 24.1068 46.0152 21.4715 46.649C21.735 48.4217 21.997 50.1944 22.2605 51.9687C19.0464 51.4463 16.3547 49.3536 13.5531 47.6969C10.75 46.0403 7.30372 44.7617 4.2951 46.0073C1.33669 47.2326 -0.260167 50.7137 0.0347337 53.9015C0.329634 57.0893 2.19629 59.9523 4.50216 62.1737C6.80803 64.3951 9.55782 66.0878 12.1727 67.9343C14.5805 69.6333 16.9162 71.4892 19.6064 72.6924C23.0134 74.2157 31.0777 73.0799 35.4055 71.7386C37.3757 71.1283 36.2683 66.8455 36.0596 64.9552C35.4416 59.3687 33.0055 53.9658 29.1013 49.9074C28.9726 49.7724 28.8393 49.6391 28.7044 49.5073L28.7028 49.5057Z" fill="var(--fill-0, white)"/>
<path id="Vector_6" d="M121.41 89.2743C122.086 88.4209 122.786 87.5549 123.71 86.976C125.095 86.1085 126.806 85.9955 128.438 85.9045C135.66 85.5061 142.88 85.1076 150.102 84.7107C141.807 93.5728 134.143 103.025 127.189 112.972C122.883 119.133 118.323 125.898 111.189 128.267C104.069 130.631 96.1933 127.953 88.8223 129.346C94.6231 122.203 100.733 115.359 106.909 108.544C112.258 102.64 116.447 95.5338 121.412 89.2759L121.41 89.2743Z" fill="var(--fill-0, #0F83C6)"/>
<path id="Vector_7" d="M111.128 110.616C110.764 110.003 110.486 109.321 110.325 108.55C110.137 107.653 110.11 106.71 109.754 105.865C109.398 105.019 108.571 104.266 107.663 104.391C107.046 104.476 106.544 104.936 105.945 105.104C105.341 105.273 104.698 105.132 104.071 105.154C101.914 105.229 100.333 107.142 99.0888 108.906C97.6597 110.935 96.2747 112.993 94.9351 115.081C93.7664 116.901 92.5915 118.896 92.706 121.057C92.8629 124.022 95.3727 126.285 97.8731 127.886C99.8903 129.175 102.03 130.27 104.256 131.152C105.934 131.817 107.719 132.366 109.517 132.204C112.709 131.916 115.263 129.479 117.278 126.988C118.642 125.303 121.889 122.003 121.697 119.656C121.479 116.986 117.796 116.087 115.912 114.874C114.069 113.687 112.212 112.455 111.125 110.618L111.128 110.616Z" fill="var(--fill-0, white)"/>
</g>
</svg>
