<svg preserveAspectRatio="none" width="100%" height="100%" overflow="visible" style="display: block;" viewBox="0 0 148.399 34.748" fill="none" xmlns="http://www.w3.org/2000/svg">
<g id="logo type">
<path id="Vector" d="M126.183 27.0566C122.077 28.4967 117.726 29.9369 114.356 31.04L113.528 27.4856C114.877 27.1179 116.531 26.6582 118.339 26.1067V16.577H114.294V13.3596H118.339V5.88299H113.896V2.66558H125.846V5.88299H121.679V13.3596H125.264V16.577H121.679V25.0648C122.966 24.6665 124.314 24.2375 125.601 23.7779L126.214 27.0872L126.183 27.0566ZM148.368 30.3353V33.522H124.376V30.3353H135.284V25.8615H127.133V22.7054H135.284V18.8445H127.47V1.93018H146.714V18.8445H138.869V22.7054H147.204V25.8615H138.869V30.3353H148.399H148.368ZM130.657 8.94718H135.56V4.90244H130.657V8.94718ZM130.657 15.8723H135.56V11.7662H130.657V15.8723ZM143.343 4.90244H138.532V8.94718H143.343V4.90244ZM143.343 11.7662H138.532V15.8723H143.343V11.7662Z" fill="var(--fill-0, #101010)"/>
<path id="Vector_2" d="M107.492 5.79133H100.199C100.904 6.77187 101.608 7.78306 102.007 8.61039L98.7281 9.59093C98.3604 8.57975 97.3492 7.07829 96.3687 5.79133H93.7028C93.1513 6.55738 92.5385 7.2315 91.895 7.84434H91.9563V10.5715H106.419V17.7417H103.018V13.2986H77.9529V17.7417H74.6742V10.5715H88.6163V7.84434H88.8001C88.3405 7.62985 87.9422 7.38471 87.6051 7.2315C88.2179 6.80251 88.8001 6.2816 89.3823 5.76069H83.7136C84.2651 6.77187 84.8167 7.78306 85.0618 8.5491L81.9363 9.49901C81.6299 8.51846 80.8945 7.04765 80.1591 5.79133H78.9947C78.0142 7.26214 76.9111 8.57975 75.8692 9.59093C75.1951 9.03938 73.8469 8.12012 73.0195 7.69113C75.2258 5.82197 77.3094 2.91099 78.4738 0.0306419L81.7525 0.888616C81.4461 1.56274 81.109 2.2675 80.7413 2.94163H89.8726V5.30106C91.3434 3.76896 92.5385 1.93044 93.2739 0L96.6445 0.827333C96.3381 1.5321 95.9703 2.2675 95.6026 2.94163H107.461V5.79133H107.492ZM83.5604 25.3409H103.386V34.6867H99.8925V33.5836H83.5604V34.748H80.251V15.2903H100.812V23.1347H83.5604V25.3103V25.3409ZM83.5604 17.8949V20.5607H97.3186V17.8949H83.5604ZM83.5604 27.9455V30.9177H99.8925V27.9455H83.5604Z" fill="var(--fill-0, #101010)"/>
<path id="Vector_3" d="M48.3531 13.5747C51.4173 11.7056 54.5121 10.2041 56.4425 9.13166C57.6989 8.42689 58.6181 7.84469 59.4761 7.13993L61.3452 10.6025C60.3647 11.2153 59.3229 11.7362 58.1278 12.3797C55.6458 13.6054 51.7543 15.4439 48.1692 17.7727C44.8599 19.9483 42.7762 22.2771 42.7762 25.0348C42.7762 28.0071 45.5953 29.723 51.1721 29.723C55.1556 29.723 60.1809 29.1715 63.3063 28.4054V32.6647C60.2728 33.1856 56.1055 33.6146 51.3253 33.6146C44.0632 33.6146 38.7315 31.5003 38.7315 25.4945C38.7315 21.511 41.2748 18.4468 45.105 15.689C43.3891 12.5329 41.4586 8.33497 39.7427 4.32087L43.4504 2.72749C44.9212 6.77223 46.7597 10.6025 48.3224 13.5747H48.3531ZM64.9304 7.44635L62.479 8.54946C61.713 7.01736 60.4873 4.74986 59.4761 3.27904L61.9275 2.26786C62.8774 3.64675 64.2256 5.97553 64.9304 7.44635ZM69.2815 5.79168L66.8302 6.89479C66.0335 5.27077 64.8078 3.09519 63.766 1.7163L66.2173 0.705119C67.1979 2.08401 68.6074 4.47408 69.2815 5.82233V5.79168Z" fill="var(--fill-0, #101010)"/>
<path id="Vector_4" d="M8.61043 6.98655C9.25392 8.18159 9.92804 9.52984 10.6328 10.97C15.1372 8.97828 19.9786 7.04784 23.9008 7.04784C29.355 7.04784 32.695 10.2652 32.695 14.4938C32.695 19.2433 29.5389 22.522 23.7476 22.522C21.6333 22.522 19.4577 22.0011 18.0482 21.4802L18.1707 17.7112C19.7028 18.416 21.6026 18.9982 23.4411 18.9982C26.9956 18.9982 28.8648 17.0371 28.8648 14.3406C28.8648 12.2263 27.1488 10.4185 23.8395 10.4185C20.714 10.4185 16.3322 12.1038 12.1036 14.0342C12.5632 14.9841 12.9616 15.9034 13.3906 16.8226C15.321 21.2657 17.8949 28.6504 19.1819 32.8484L15.1065 33.8902C13.9421 29.2939 12.1036 23.1349 10.02 18.416C9.62162 17.4661 9.19263 16.5468 8.79429 15.5969C5.97523 16.9758 3.46259 18.2934 1.80792 19.0595L4.82146e-05 15.2599C1.28701 14.9228 2.72718 14.4325 3.37066 14.1261C4.62698 13.6359 5.91394 13.0843 7.35412 12.4408C6.67999 11.0619 6.03651 9.77497 5.45431 8.73315C4.96404 7.90581 4.10607 6.61885 3.46259 5.79152L7.29283 4.25942C7.59925 4.9029 8.30402 6.28179 8.67172 6.95591L8.61043 6.98655ZM12.9616 2.94182L15.7194 0.980732C17.0063 1.99192 19.8254 4.41263 21.1736 5.79152L18.4159 7.90581C17.037 6.46564 14.555 4.10621 12.9616 2.94182Z" fill="var(--fill-0, #101010)"/>
</g>
</svg>
