<svg preserveAspectRatio="none" width="100%" height="100%" overflow="visible" style="display: block;" viewBox="0 0 44.7444 43.6218" fill="none" xmlns="http://www.w3.org/2000/svg">
<g id="Group">
<path id="Vector" d="M20.4713 16.3663C19.0869 15.5972 18.1024 14.059 17.8871 12.3054C17.5487 9.4751 19.5791 6.86012 22.4094 6.52171C23.4554 6.39865 24.04 6.52171 25.3013 6.98318C26.6549 7.53694 27.9471 8.55217 29.0546 9.93657L34.1 5.84489C32.2848 3.56832 30.039 1.87627 27.6702 0.92257H27.5779C25.609 0.184222 23.9784 -0.184952 21.6096 0.0919287C15.2106 0.861041 10.6574 6.7063 11.4265 13.1053C11.5188 13.7821 11.6726 14.4282 11.8572 15.0435C12.0418 15.0435 12.1956 14.9819 12.3802 14.9512C15.149 14.6128 17.9486 15.105 20.4405 16.3663H20.4713Z" fill="var(--fill-0, #E1690D)"/>
<path id="Vector_2" d="M38.0992 28.2395C39.5144 23.994 39.6374 19.1639 38.4068 14.5185L32.1309 16.1798C32.8692 18.9486 32.9615 21.8097 32.4078 24.3939L20.8403 16.5797L20.5019 16.3644H20.4711C17.9792 15.103 15.1796 14.6108 12.4108 14.9492C12.2263 14.9492 12.0417 15.0107 11.8878 15.0415C4.44283 16.2413 -0.817896 23.1326 0.105039 30.6699C0.6588 35.1307 3.33531 39.0993 7.2424 41.2836C10.2881 42.8526 13.5799 43.6217 16.8409 43.6217C23.8245 43.6217 30.7157 40.1761 35.0843 34.0847L41.1141 38.1456L44.7443 32.7619L38.0992 28.2702V28.2395ZM10.2266 35.4999C8.1961 34.3001 6.84246 32.2081 6.56558 29.87C6.04259 25.7168 9.02674 21.902 13.18 21.4098C14.6259 21.2252 16.0718 21.4713 17.3947 22.0866L29.7313 30.4238C25.1473 36.6689 16.9025 38.9763 10.2573 35.4999H10.2266Z" fill="var(--fill-0, #0F83C6)"/>
</g>
</svg>
