<svg preserveAspectRatio="none" width="100%" height="100%" overflow="visible" style="display: block;" viewBox="0 0 110.96 24.0086" fill="none" xmlns="http://www.w3.org/2000/svg">
<g id="logo type">
<path id="Vector" d="M103.91 18.4617H91.9058L89.5346 24.0086H84.9404L95.7379 0.00012207H100.12L110.96 24.0086H106.302L103.91 18.4617ZM102.428 14.9684L97.8973 4.46731L93.409 14.9684H102.428Z" fill="var(--fill-0, #101010)"/>
<path id="Vector_2" d="M65.5682 0.00012207H70.0354V20.2401H82.5901V24.0086H65.5894V0.00012207H65.5682Z" fill="var(--fill-0, #101010)"/>
<path id="Vector_3" d="M42.9572 0.00012207H47.4243V20.2401H59.979V24.0086H42.9783V0.00012207H42.9572Z" fill="var(--fill-0, #101010)"/>
<path id="Vector_4" d="M29.9576 0.00012207H34.4248V24.0086H29.9576V0.00012207Z" fill="var(--fill-0, #101010)"/>
<path id="Vector_5" d="M25.3423 0L14.8836 24.0085H10.5011L0 0H4.8271L12.8087 18.5251L20.8751 0H25.3423Z" fill="var(--fill-0, #101010)"/>
</g>
</svg>
