<svg preserveAspectRatio="none" width="100%" height="100%" overflow="visible" style="display: block;" viewBox="0 0 129.167 30" fill="none" xmlns="http://www.w3.org/2000/svg">
<g id="_&#227;&#131;&#172;&#227;&#130;&#164;&#227;&#131;&#164;&#227;&#131;&#188;_1" clip-path="url(#clip0_748_4605)">
<g id="Group">
<path id="Vector" d="M48.0721 14.3013V16.3162C47.0905 15.4911 46.0771 15.0785 45.0346 15.0785C43.8779 15.0785 42.9043 15.4991 42.1138 16.3295C41.318 17.1573 40.9227 18.1714 40.9227 19.3639C40.9227 20.5563 41.318 21.5438 42.1138 22.353C42.9097 23.1674 43.8832 23.5747 45.0372 23.5747C45.6341 23.5747 46.1408 23.4789 46.5626 23.2846C46.7908 23.1887 47.0322 23.0557 47.2815 22.8906C47.5309 22.7256 47.7962 22.5286 48.0721 22.2917V24.3439C47.1011 24.8949 46.0798 25.1717 45.0187 25.1717C43.4137 25.1717 42.0422 24.6101 40.9068 23.4842C39.7793 22.3503 39.2143 20.9822 39.2143 19.3798C39.2143 17.9479 39.6865 16.6649 40.6362 15.5417C41.7955 14.1709 43.3023 13.4815 45.1513 13.4815C46.162 13.4815 47.1303 13.7504 48.0747 14.3013H48.0721Z" fill="var(--fill-0, white)"/>
<path id="Vector_2" d="M49.6479 19.2762C49.6479 17.6898 50.2289 16.3297 51.3882 15.1958C52.5448 14.0539 53.9296 13.487 55.5505 13.487C57.1714 13.487 58.5243 14.0619 59.6703 15.2038C60.819 16.3536 61.3867 17.7377 61.3867 19.3454C61.3867 20.953 60.8137 22.3398 59.6544 23.4683C58.5004 24.6022 57.1051 25.1692 55.4629 25.1692C54.0092 25.1692 52.7067 24.6634 51.558 23.6573C50.2873 22.5394 49.6479 21.0808 49.6479 19.2762ZM51.359 19.3028C51.359 20.5458 51.7755 21.5732 52.6111 22.3744C53.4441 23.1809 54.3965 23.5775 55.4868 23.5775C56.6647 23.5775 57.6568 23.1702 58.466 22.3531C59.2724 21.5253 59.6783 20.5165 59.6783 19.3347C59.6783 18.1529 59.2751 17.1255 58.4766 16.311C57.686 15.4939 56.6992 15.0813 55.524 15.0813C54.3488 15.0813 53.3725 15.4939 52.566 16.311C51.7596 17.1202 51.359 18.121 51.359 19.3028Z" fill="var(--fill-0, white)"/>
<path id="Vector_3" d="M71.8229 14.3013V16.3162C70.836 15.4911 69.8174 15.0785 68.7854 15.0785C67.6155 15.0785 66.6499 15.4991 65.862 16.3295C65.0688 17.1573 64.6682 18.1714 64.6682 19.3639C64.6682 20.5563 65.0688 21.5438 65.862 22.353C66.6525 23.1674 67.6367 23.5747 68.7881 23.5747C69.3796 23.5747 69.8863 23.4789 70.3081 23.2846C70.531 23.1887 70.775 23.0557 71.0244 22.8906C71.2738 22.7256 71.5443 22.5286 71.8229 22.2917V24.3439C70.8387 24.8949 69.8333 25.1717 68.7615 25.1717C67.1513 25.1717 65.7877 24.6101 64.6602 23.4842C63.5222 22.3503 62.9624 20.9822 62.9624 19.3798C62.9624 17.9479 63.4293 16.6649 64.3817 15.5417C65.5383 14.1709 67.0504 13.4815 68.8862 13.4815C69.9022 13.4815 70.8679 13.7504 71.8203 14.3013H71.8229Z" fill="var(--fill-0, white)"/>
<path id="Vector_4" d="M73.4014 19.2762C73.4014 17.6898 73.9691 16.3297 75.139 15.1958C76.2903 14.0539 77.6804 13.487 79.296 13.487C80.9116 13.487 82.2698 14.0619 83.4158 15.2038C84.5619 16.3536 85.1455 17.7377 85.1455 19.3454C85.1455 20.953 84.5619 22.3398 83.4132 23.4683C82.2433 24.6022 80.8479 25.1692 79.2058 25.1692C77.752 25.1692 76.4495 24.6634 75.3008 23.6573C74.0301 22.5394 73.404 21.0808 73.404 19.2762H73.4014ZM75.1072 19.3028C75.1072 20.5458 75.5157 21.5732 76.3513 22.3744C77.1843 23.1809 78.1447 23.5775 79.2297 23.5775C80.4075 23.5775 81.3997 23.1702 82.2088 22.3531C83.0153 21.5253 83.4211 20.5165 83.4211 19.3347C83.4211 18.1529 83.0179 17.1255 82.2353 16.311C81.4342 15.4939 80.4447 15.0813 79.2695 15.0813C78.0943 15.0813 77.126 15.4939 76.3195 16.311C75.513 17.1202 75.1125 18.121 75.1125 19.3028H75.1072Z" fill="var(--fill-0, white)"/>
<path id="Vector_5" d="M92.4329 13.6993L95.5341 21.5087L98.6909 13.6993H100.537L95.5022 25.8127L90.5786 13.6993H92.4356H92.4329Z" fill="var(--fill-0, white)"/>
<path id="Vector_6" d="M103.622 13.6993V24.9636H101.94V13.6993H103.622Z" fill="var(--fill-0, white)"/>
<path id="Vector_7" d="M108.021 13.6993V23.3666H111.321V24.9636H106.323V13.6993H108.021Z" fill="var(--fill-0, white)"/>
<path id="Vector_8" d="M114.624 13.6993V23.3666H117.93V24.9636H112.932V13.6993H114.624Z" fill="var(--fill-0, white)"/>
<path id="Vector_9" d="M126.132 22.225H121.322L120.075 24.9639H118.248L123.8 12.9889L129.164 24.9639H127.31L126.132 22.225ZM125.442 20.6307L123.776 16.7978L122.028 20.6307H125.439H125.442Z" fill="var(--fill-0, white)"/>
</g>
<path id="Vector_10" d="M29.728 29.5186L15.8802 0.191981C15.8086 0.0242937 15.6043 -0.0449104 15.4345 0.0322788C15.2648 0.11213 15.1958 0.311757 15.278 0.479444L28.8897 29.3243H22.7749V22.0658C22.7749 18.0387 19.756 14.7062 15.8776 14.2058L17.2066 9.55051C17.2279 9.44937 17.2093 9.34024 17.1536 9.25506C17.0873 9.16989 16.9865 9.12198 16.883 9.12198H6.09391C5.94269 9.12198 5.8074 9.22046 5.77026 9.36686L0.0162549 29.5691C0.0162549 29.5691 0.0162549 29.5958 0.0162549 29.6117C0.0162549 29.6304 0.00299072 29.6463 0.00299072 29.665C0.00299072 29.6809 0.0136021 29.6836 0.0136021 29.6996C0.0136021 29.7182 0.0189077 29.7368 0.0215606 29.7528C0.0321719 29.7847 0.0401304 29.806 0.0560475 29.8353C0.064006 29.8433 0.0666588 29.8539 0.0693117 29.8673C0.0746173 29.8673 0.0852287 29.8699 0.0852287 29.8832C0.106451 29.9045 0.135633 29.9205 0.162161 29.9391C0.172772 29.9524 0.186037 29.9578 0.196648 29.9684C0.239093 29.987 0.289497 29.9977 0.339901 29.9977H29.423C29.5397 29.9977 29.6458 29.9365 29.7095 29.8353C29.7652 29.7448 29.7784 29.6224 29.728 29.5133V29.5186ZM6.34858 9.79539H16.4426L15.1984 14.1499C15.0923 14.1473 14.9783 14.134 14.8721 14.134C10.5135 14.134 6.96669 17.6953 6.96669 22.0658V29.3243H0.782925L6.34858 9.79539ZM7.63255 29.3243V22.0658C7.63255 18.0653 10.877 14.8074 14.8721 14.8074C14.9226 14.8074 14.9597 14.8127 15.0101 14.8154L10.877 29.3243H7.63255ZM11.5747 29.3243L15.6919 14.8606C19.2944 15.2732 22.1091 18.3474 22.1091 22.0685V29.3269H11.5747V29.3243Z" fill="var(--fill-0, white)"/>
</g>
<defs>
<clipPath id="clip0_748_4605">
<rect width="129.167" height="30" fill="white"/>
</clipPath>
</defs>
</svg>
