<svg preserveAspectRatio="none" width="100%" height="100%" overflow="visible" style="display: block;" viewBox="0 0 227.61 49.2351" fill="none" xmlns="http://www.w3.org/2000/svg">
<g id="logo type">
<path id="Vector" d="M213.149 37.8598H188.525L183.661 49.2351H174.237L196.385 0H205.375L227.61 49.2351H218.056L213.149 37.8598ZM210.109 30.696L200.815 9.16103L191.608 30.696H210.109Z" fill="var(--fill-0, #101010)"/>
<path id="Vector_2" d="M134.499 0H143.662V41.5069H169.415V49.2351H134.542V0H134.499Z" fill="var(--fill-0, #101010)"/>
<path id="Vector_3" d="M88.1171 0H97.2806V41.5069H123.034V49.2351H88.1605V0H88.1171Z" fill="var(--fill-0, #101010)"/>
<path id="Vector_4" d="M61.4514 0H70.6148V49.2351H61.4514V0Z" fill="var(--fill-0, #101010)"/>
<path id="Vector_5" d="M51.9841 1.28584e-05L30.5304 49.2351H21.5406L0 1.28584e-05H9.90174L26.2744 37.9901L42.8207 1.28584e-05H51.9841Z" fill="var(--fill-0, #101010)"/>
</g>
</svg>
