<svg preserveAspectRatio="none" width="100%" height="100%" overflow="visible" style="display: block;" viewBox="0 0 43.3726 42.2865" fill="none" xmlns="http://www.w3.org/2000/svg">
<g id="logo mark">
<path id="Vector" d="M19.8429 15.8646C18.5009 15.1191 17.5467 13.628 17.3379 11.9282C17.0099 9.18462 18.9781 6.64981 21.7217 6.32177C22.7356 6.20249 23.3022 6.32177 24.5249 6.76909C25.837 7.30588 27.0895 8.28998 28.1631 9.63194L33.0538 5.6657C31.2943 3.45892 29.1173 1.81875 26.8211 0.894287H26.7316C24.8231 0.178575 23.2425 -0.179282 20.9463 0.0891104C14.7435 0.834644 10.3299 6.5007 11.0754 12.7035C11.1649 13.3596 11.314 13.9859 11.4929 14.5823C11.6719 14.5823 11.821 14.5226 11.9999 14.4928C14.6838 14.1648 17.3976 14.6419 19.8131 15.8646H19.8429Z" fill="var(--fill-0, #E1690D)"/>
<path id="Vector_2" d="M36.9312 27.3758C38.303 23.2605 38.4223 18.5785 37.2294 14.0755L31.1459 15.6858C31.8616 18.3698 31.951 21.1431 31.4142 23.6481L20.2014 16.0735L19.8734 15.8648H19.8436C17.428 14.6421 14.7143 14.1649 12.0304 14.493C11.8514 14.493 11.6725 14.5526 11.5234 14.5824C4.30663 15.7455 -0.792822 22.4255 0.101819 29.7317C0.638603 34.0558 3.23306 37.9027 7.02037 40.0201C9.97269 41.5409 13.1636 42.2865 16.3246 42.2865C23.0941 42.2865 29.7741 38.9465 34.0087 33.0419L39.8537 36.9783L43.3726 31.7595L36.9312 27.4056V27.3758ZM9.91305 34.4136C7.94484 33.2506 6.6327 31.2228 6.3643 28.9563C5.85734 24.9305 8.75001 21.2326 12.7759 20.7555C14.1775 20.5765 15.5791 20.8151 16.8614 21.4115L28.8198 29.4931C24.3764 35.5469 16.3843 37.7835 9.94287 34.4136H9.91305Z" fill="var(--fill-0, #0F83C6)"/>
</g>
</svg>
