<svg preserveAspectRatio="none" width="100%" height="100%" overflow="visible" style="display: block;" viewBox="0 0 26.6265 25.9601" fill="none" xmlns="http://www.w3.org/2000/svg">
<g id="logo mark">
<path id="Vector" d="M12.1821 9.73929C11.3583 9.2816 10.7724 8.36624 10.6443 7.32272C10.4429 5.63844 11.6512 4.08232 13.3355 3.88094C13.9579 3.80771 14.3057 3.88094 15.0563 4.15555C15.8619 4.48508 16.6308 5.08922 17.2898 5.91305L20.2922 3.47818C19.2121 2.12343 17.8757 1.11653 16.466 0.549003H16.4111C15.2394 0.109627 14.2691 -0.110061 12.8595 0.0547049C9.05154 0.512388 6.34206 3.99078 6.79974 7.79871C6.85466 8.20147 6.9462 8.58592 7.05604 8.95207C7.16589 8.95207 7.25742 8.91546 7.36727 8.89715C9.01493 8.69577 10.6809 8.98869 12.1638 9.73929H12.1821Z" fill="var(--fill-0, #E1690D)"/>
<path id="Vector_2" d="M22.6721 16.8063C23.5143 14.2799 23.5875 11.4057 22.8552 8.64126L19.1205 9.62985C19.5599 11.2775 19.6148 12.9801 19.2853 14.5179L12.4017 9.86785L12.2003 9.7397H12.182C10.6991 8.9891 9.03316 8.69618 7.3855 8.89756C7.27566 8.89756 7.16581 8.93417 7.07428 8.95248C2.6439 9.66647 -0.486653 13.7673 0.0625669 18.2526C0.392099 20.9072 1.98484 23.2688 4.30987 24.5686C6.1223 25.5023 8.08118 25.96 10.0218 25.96C14.1775 25.96 18.2784 23.9096 20.878 20.2847L24.4662 22.7013L26.6265 19.4975L22.6721 16.8246V16.8063ZM6.08568 21.1269C4.8774 20.4129 4.07187 19.168 3.90711 17.7766C3.59588 15.3051 5.3717 13.035 7.84319 12.7421C8.70363 12.6323 9.56408 12.7787 10.3513 13.1449L17.6925 18.1062C14.9647 21.8225 10.0584 23.1956 6.10399 21.1269H6.08568Z" fill="var(--fill-0, #0F83C6)"/>
</g>
</svg>
