<svg preserveAspectRatio="none" width="100%" height="100%" overflow="visible" style="display: block;" viewBox="0 0 148.399 34.7481" fill="none" xmlns="http://www.w3.org/2000/svg">
<g id="logo type">
<path id="Vector" d="M126.184 27.0568C122.078 28.4969 117.727 29.9371 114.356 31.0402L113.529 27.4857C114.877 27.118 116.532 26.6584 118.339 26.1069V16.5772H114.295V13.3598H118.339V5.88316H113.896V2.66576H125.847V5.88316H121.679V13.3598H125.264V16.5772H121.679V25.065C122.966 24.6667 124.315 24.2377 125.602 23.7781L126.214 27.0874L126.184 27.0568ZM148.368 30.3354V33.5222H124.376V30.3354H135.284V25.8617H127.134V22.7056H135.284V18.8447H127.471V1.93035H146.714V18.8447H138.869V22.7056H147.204V25.8617H138.869V30.3354H148.399H148.368ZM130.657 8.94736H135.56V4.90262H130.657V8.94736ZM130.657 15.8724H135.56V11.7664H130.657V15.8724ZM143.343 4.90262H138.532V8.94736H143.343V4.90262ZM143.343 11.7664H138.532V15.8724H143.343V11.7664Z" fill="var(--fill-0, #101010)"/>
<path id="Vector_2" d="M107.492 5.79133H100.199C100.904 6.77187 101.609 7.78306 102.007 8.61039L98.7285 9.59093C98.3608 8.57975 97.3496 7.07829 96.369 5.79133H93.7032C93.1516 6.55738 92.5388 7.2315 91.8953 7.84434H91.9566V10.5715H106.42V17.7417H103.018V13.2986H77.9532V17.7417H74.6745V10.5715H88.6166V7.84434H88.8005C88.3408 7.62985 87.9425 7.38471 87.6054 7.2315C88.2183 6.80251 88.8005 6.2816 89.3827 5.76069H83.7139C84.2655 6.77187 84.817 7.78306 85.0622 8.5491L81.9367 9.49901C81.6303 8.51846 80.8948 7.04765 80.1594 5.79133H78.995C78.0145 7.26214 76.9114 8.57975 75.8696 9.59093C75.1954 9.03938 73.8472 8.12012 73.0199 7.69113C75.2261 5.82197 77.3097 2.91099 78.4741 0.0306419L81.7528 0.888616C81.4464 1.56274 81.1093 2.2675 80.7416 2.94163H89.8729V5.30106C91.3438 3.76896 92.5388 1.93044 93.2742 0L96.6448 0.827333C96.3384 1.5321 95.9707 2.2675 95.603 2.94163H107.461V5.79133H107.492ZM83.5607 25.3409H103.386V34.6867H99.8929V33.5836H83.5607V34.748H80.2514V15.2903H100.812V23.1347H83.5607V25.3103V25.3409ZM83.5607 17.8949V20.5607H97.3189V17.8949H83.5607ZM83.5607 27.9455V30.9177H99.8929V27.9455H83.5607Z" fill="var(--fill-0, #101010)"/>
<path id="Vector_3" d="M48.3531 13.5748C51.4173 11.7057 54.5121 10.2042 56.4425 9.13173C57.6989 8.42697 58.6181 7.84477 59.4761 7.14001L61.3452 10.6025C60.3647 11.2154 59.3229 11.7363 58.1278 12.3798C55.6458 13.6055 51.7543 15.444 48.1692 17.7728C44.8599 19.9483 42.7762 22.2771 42.7762 25.0349C42.7762 28.0072 45.5953 29.7231 51.1721 29.7231C55.1556 29.7231 60.1809 29.1716 63.3063 28.4055V32.6648C60.2728 33.1857 56.1055 33.6147 51.3253 33.6147C44.0632 33.6147 38.7315 31.5004 38.7315 25.4945C38.7315 21.5111 41.2748 18.4469 45.105 15.6891C43.3891 12.533 41.4586 8.33504 39.7427 4.32095L43.4504 2.72757C44.9212 6.7723 46.7597 10.6025 48.3224 13.5748H48.3531ZM64.9304 7.44643L62.479 8.54954C61.713 7.01744 60.4873 4.74994 59.4761 3.27912L61.9275 2.26794C62.8774 3.64683 64.2256 5.97561 64.9304 7.44643ZM69.2815 5.79176L66.8302 6.89487C66.0335 5.27085 64.8078 3.09527 63.766 1.71638L66.2173 0.705198C67.1979 2.08409 68.6074 4.47416 69.2815 5.8224V5.79176Z" fill="var(--fill-0, #101010)"/>
<path id="Vector_4" d="M8.61043 6.98663C9.25392 8.18167 9.92804 9.52992 10.6328 10.9701C15.1372 8.97836 19.9786 7.04792 23.9008 7.04792C29.355 7.04792 32.695 10.2653 32.695 14.4939C32.695 19.2434 29.5389 22.5221 23.7476 22.5221C21.6333 22.5221 19.4577 22.0012 18.0482 21.4803L18.1707 17.7113C19.7028 18.4161 21.6026 18.9983 23.4411 18.9983C26.9956 18.9983 28.8648 17.0372 28.8648 14.3407C28.8648 12.2264 27.1488 10.4185 23.8395 10.4185C20.714 10.4185 16.3322 12.1038 12.1036 14.0343C12.5632 14.9842 12.9616 15.9034 13.3906 16.8227C15.321 21.2658 17.8949 28.6505 19.1819 32.8484L15.1065 33.8903C13.9421 29.294 12.1036 23.1349 10.02 18.4161C9.62162 17.4662 9.19263 16.5469 8.79429 15.597C5.97523 16.9759 3.46259 18.2935 1.80792 19.0596L4.82146e-05 15.26C1.28701 14.9229 2.72718 14.4326 3.37066 14.1262C4.62698 13.6359 5.91394 13.0844 7.35412 12.4409C6.67999 11.062 6.03651 9.77505 5.45431 8.73322C4.96404 7.90589 4.10607 6.61893 3.46259 5.7916L7.29283 4.2595C7.59925 4.90298 8.30402 6.28187 8.67172 6.95599L8.61043 6.98663ZM12.9616 2.9419L15.7194 0.980811C17.0063 1.992 19.8254 4.41271 21.1736 5.7916L18.4159 7.90589C17.037 6.46572 14.555 4.10629 12.9616 2.9419Z" fill="var(--fill-0, #101010)"/>
</g>
</svg>
