<svg preserveAspectRatio="none" width="100%" height="100%" overflow="visible" style="display: block;" viewBox="0 0 42.8084 41.7345" fill="none" xmlns="http://www.w3.org/2000/svg">
<g id="Group">
<path id="Vector" d="M19.5854 15.6582C18.2609 14.9224 17.319 13.4507 17.113 11.773C16.7892 9.06514 18.7318 6.5633 21.4397 6.23953C22.4404 6.1218 22.9996 6.23953 24.2064 6.68104C25.5015 7.21084 26.7377 8.18214 27.7973 9.50664L32.6244 5.592C30.8878 3.41393 28.7391 1.79509 26.4728 0.882653H26.3845C24.5007 0.176251 22.9408 -0.17695 20.6744 0.0879512C14.5522 0.823787 10.1961 6.41614 10.9319 12.5383C11.0202 13.1858 11.1674 13.8039 11.344 14.3926C11.5206 14.3926 11.6678 14.3337 11.8444 14.3043C14.4934 13.9805 17.1718 14.4515 19.5559 15.6582H19.5854Z" fill="var(--fill-0, #E1690D)"/>
<path id="Vector_2" d="M36.4508 27.0176C37.8047 22.9558 37.9224 18.3348 36.7451 13.8903L30.7407 15.4797C31.4471 18.1287 31.5354 20.8661 31.0056 23.3385L19.9386 15.8624L19.6148 15.6563H19.5854C17.2013 14.4496 14.5229 13.9786 11.8739 14.3024C11.6973 14.3024 11.5207 14.3613 11.3735 14.3907C4.25061 15.5386 -0.782508 22.1317 0.100494 29.3429C0.630296 33.6107 3.191 37.4076 6.92905 39.4974C9.84295 40.9985 12.9923 41.7343 16.1123 41.7343C22.7937 41.7343 29.3867 38.4378 33.5663 32.61L39.3352 36.4952L42.8084 31.3443L36.4508 27.0471V27.0176ZM9.78409 33.9639C7.84148 32.816 6.54641 30.8145 6.28151 28.5776C5.78114 24.6041 8.63618 20.9544 12.6097 20.4834C13.9931 20.3068 15.3764 20.5423 16.6421 21.131L28.4449 29.1074C24.0593 35.0824 16.1711 37.2899 9.81352 33.9639H9.78409Z" fill="var(--fill-0, #0F83C6)"/>
</g>
</svg>
