<svg preserveAspectRatio="none" width="100%" height="100%" overflow="visible" style="display: block;" viewBox="0 0 12 12" fill="none" xmlns="http://www.w3.org/2000/svg">
<g id="Group">
<g id="Vector">
</g>
<path id="Vector_2" fill-rule="evenodd" clip-rule="evenodd" d="M4.50003 0.999756C4.23481 0.999756 3.98046 1.10511 3.79292 1.29265C3.60539 1.48019 3.50003 1.73454 3.50003 1.99976V2.99976H4.50003V1.99976H10V7.49976H9.00003V8.49976H10C10.2652 8.49976 10.5196 8.3944 10.7071 8.20686C10.8947 8.01933 11 7.76497 11 7.49976V1.99976C11 1.73454 10.8947 1.48019 10.7071 1.29265C10.5196 1.10511 10.2652 0.999756 10 0.999756H4.50003ZM2.00003 3.49976C1.73481 3.49976 1.48046 3.60511 1.29292 3.79265C1.10539 3.98019 1.00003 4.23454 1.00003 4.49976V9.99976C1.00003 10.265 1.10539 10.5193 1.29292 10.7069C1.48046 10.8944 1.73481 10.9998 2.00003 10.9998H7.50003C7.76525 10.9998 8.0196 10.8944 8.20714 10.7069C8.39467 10.5193 8.50003 10.265 8.50003 9.99976V4.49976C8.50003 4.23454 8.39467 3.98019 8.20714 3.79265C8.0196 3.60511 7.76525 3.49976 7.50003 3.49976H2.00003ZM2.00003 4.49976H7.50003V9.99976H2.00003V4.49976Z" fill="var(--fill-0, #222222)"/>
</g>
</svg>
