<svg preserveAspectRatio="none" width="100%" height="100%" overflow="visible" style="display: block;" viewBox="0 0 26.3002 32.9952" fill="none" xmlns="http://www.w3.org/2000/svg">
<g id="Group">
<path id="Vector" d="M26.2681 32.5735L16.4407 11.6833C16.3765 11.5358 16.1966 11.4712 16.0476 11.541C15.8986 11.6109 15.8369 11.7894 15.9089 11.9368L25.5308 32.3976H20.1276V25.9611C20.1276 22.3884 17.4607 19.434 14.0333 18.9916L15.21 14.8628C15.228 14.7748 15.2126 14.6765 15.1638 14.6015C15.1047 14.5264 15.0148 14.4825 14.9248 14.4825H5.38517C5.25157 14.4825 5.13082 14.5704 5.09999 14.6972L0.0128463 32.6175C0.0128463 32.6175 0.0128463 32.6407 0.0128463 32.6537C0.0128463 32.6692 0 32.6847 0 32.7002C0 32.7132 0.010277 32.7158 0.010277 32.7313C0.010277 32.7468 0.0154156 32.7623 0.0179848 32.7804C0.0256926 32.8089 0.0334004 32.8296 0.048816 32.8529C0.0565238 32.8606 0.0565238 32.871 0.0616623 32.8813C0.0668008 32.8813 0.0745086 32.8839 0.0770779 32.8943C0.0950627 32.9124 0.120755 32.9279 0.143879 32.9434C0.151586 32.9564 0.164433 32.9589 0.17471 32.9693C0.21068 32.9848 0.256926 32.9952 0.300604 32.9952H26.0009C26.1037 32.9952 26.1962 32.9408 26.2553 32.8529C26.3067 32.7727 26.317 32.664 26.2707 32.5683L26.2681 32.5735ZM6.15338 25.9636V32.4001H0.691132L5.6087 15.0826H14.5266L13.427 18.9451C13.3345 18.9425 13.2317 18.9295 13.1392 18.9295C9.28788 18.9295 6.15338 22.0883 6.15338 25.9636ZM9.60904 32.4001H6.74431V25.9636C6.74431 22.4143 9.61161 19.5271 13.1418 19.5271C13.1855 19.5271 13.2189 19.5323 13.2651 19.5323L9.61161 32.3976L9.60904 32.4001ZM19.5367 32.4001H10.2282L13.8663 19.5737C17.0496 19.9385 19.5367 22.6652 19.5367 25.9636V32.4001Z" fill="var(--fill-0, white)"/>
<path id="Vector_2" d="M4.69403 10.7394C5.1565 12.2295 6.53876 13.3161 8.17025 13.3161C8.34496 13.3161 8.4837 13.1738 8.4837 13.0005C8.4837 12.8271 8.34239 12.6849 8.17025 12.6849C8.13171 12.6849 8.09317 12.6797 8.05463 12.6797C6.91131 12.6357 5.93242 11.9501 5.45967 10.9697C5.35177 10.7446 5.26698 10.5066 5.21816 10.2556C5.17963 10.0616 5.15907 9.85725 5.15907 9.65287C5.15907 8.78622 5.52648 7.97131 6.16365 7.39699C6.19191 7.37112 6.21761 7.34267 6.24844 7.3168C6.38204 7.20555 6.40002 7.00635 6.28955 6.87183C6.17907 6.7373 5.98124 6.71919 5.84763 6.83044C5.01005 7.52893 4.5296 8.55856 4.5296 9.65287C4.5296 9.76153 4.53731 9.87018 4.54502 9.97625C3.49419 9.41487 2.78507 8.38006 2.78507 7.19779C2.78507 6.2406 3.25268 5.33773 4.06713 4.72202C4.20587 4.61595 4.23414 4.41934 4.1288 4.27964C4.02346 4.13994 3.82819 4.11148 3.68945 4.21755C2.7157 4.95485 2.15817 6.0414 2.15817 7.20038C2.15817 8.78622 3.20386 10.1496 4.69403 10.7446V10.7394Z" fill="var(--fill-0, white)"/>
<path id="Vector_3" d="M10.9785 13.3157H10.9836C11.8109 13.3028 12.5842 13.0803 13.2523 12.7078C14.4701 12.0274 15.3282 10.8374 15.5081 9.4533C16.6385 9.40156 17.7048 9.08335 18.6117 8.54525C19.9041 7.77691 20.8701 6.56877 21.2221 5.07606C21.6255 3.36346 21.1604 1.55513 19.9426 0.111576C19.8296 -0.0203619 19.6317 -0.038471 19.5007 0.0753577C19.3671 0.189187 19.3517 0.388387 19.4647 0.520325C20.5515 1.80866 20.9703 3.4152 20.6106 4.9286C20.3126 6.18589 19.5238 7.21294 18.4576 7.89591C17.8153 8.30725 17.0753 8.59182 16.2788 8.73152C16.0399 8.77291 15.7958 8.80396 15.5466 8.81689C15.3385 8.82724 15.1304 8.82983 14.9197 8.82207C14.5009 8.80396 14.0744 8.74963 13.6479 8.64615C13.5965 8.63321 13.5451 8.63839 13.4963 8.65391C13.3884 8.68237 13.2959 8.76515 13.2677 8.88157C13.2266 9.05231 13.3319 9.22305 13.5015 9.26186C13.9614 9.3731 14.4213 9.4326 14.8735 9.4533C14.691 10.6175 13.946 11.6135 12.9003 12.18C12.3299 12.4879 11.6747 12.6715 10.9707 12.6819C10.796 12.6845 10.6599 12.8294 10.6624 13.0027C10.665 13.176 10.8037 13.3131 10.9759 13.3131L10.9785 13.3157Z" fill="var(--fill-0, white)"/>
</g>
</svg>
