<svg preserveAspectRatio="none" width="100%" height="100%" overflow="visible" style="display: block;" viewBox="0 0 122.626 38.9474" fill="none" xmlns="http://www.w3.org/2000/svg">
<g id="_&#227;&#131;&#172;&#227;&#130;&#164;&#227;&#131;&#164;&#227;&#131;&#188;_1" clip-path="url(#clip0_748_4546)">
<path id="Vector" fill-rule="evenodd" clip-rule="evenodd" d="M13.8385 0.0300312C16.174 -0.150281 18.621 0.490828 20.5644 1.69863C21.2542 2.12795 22.2759 2.92933 22.814 3.54182C23.2204 4.00548 23.5696 4.43193 23.9274 5.36784C23.3235 6.00036 22.087 7.30547 22.0527 7.29689C21.3772 5.16749 17.4819 2.36836 14.3995 3.60479C11.337 4.83549 9.31066 9.24025 10.3095 12.3857C10.7646 13.8139 11.8522 14.9387 13.1859 15.5884C14.0016 15.9862 14.8975 16.1951 15.8047 16.2552C16.9668 16.3297 17.9256 16.1436 17.9227 16.178C17.834 16.8964 17.6479 18.4905 17.6279 18.8741C12.3273 20.0132 7.60485 16.115 6.15091 12.7349C5.46114 11.135 5.34094 8.48466 5.96487 6.70157C6.60598 4.86697 7.59054 3.10392 9.11031 1.85032C10.4612 0.736968 12.1212 0.16455 13.8385 0.0300312Z" fill="var(--fill-0, #E1690D)"/>
<path id="Vector_2" fill-rule="evenodd" clip-rule="evenodd" d="M38.0575 11.6665C37.6053 12.6997 36.9327 14.3426 36.4776 15.3758C35.8337 14.7747 35.1897 14.1737 34.5457 13.5755C33.4581 12.5623 32.3162 11.5177 30.9366 11.0025C30.7935 10.951 30.6504 10.9023 30.5044 10.8623C28.9246 10.4215 26.9411 10.9567 26.2914 12.4622C25.7305 13.7616 26.3172 15.2642 27.0442 16.4805C28.9675 19.7033 31.9613 22.4623 32.6224 26.1601C32.983 28.1779 32.5652 30.3216 31.509 32.079C29.4197 35.5535 25.5015 37.4225 21.6577 36.6068C18.3921 35.9142 14.5225 32.7458 13.7841 29.6061C13.7669 29.566 13.7612 29.5546 13.7526 29.5374C13.7354 29.5374 13.6954 29.566 13.6782 29.5804C13.5952 29.6347 12.9026 30.2558 12.7824 30.3531C12.4103 30.6536 12.1126 30.9227 11.6862 31.1373C10.9306 31.5209 10.1206 31.7441 9.27916 31.8242C7.04959 32.0389 5.03754 31.2032 3.29453 29.8723C2.02089 28.902 0.976229 27.6284 0.383776 25.9741C-0.952822 22.2477 1.50285 18.8189 3.07987 16.8469C3.51204 16.306 3.96425 15.808 4.57388 15.2727C5.30085 15.8251 7.31004 17.0902 7.29001 17.1073C6.66321 17.634 6.17665 18.0747 6.17665 18.0747C4.74847 19.3197 3.21725 21.2774 3.90988 23.2923C4.49374 24.9867 6.22531 26.4578 7.85384 27.0932C9.06164 27.5626 10.4183 27.5883 11.5431 26.8843C12.8596 26.06 13.6066 24.4887 14.1047 22.8544C14.159 22.5797 14.2363 22.2791 14.3479 21.6667L16.961 23.361C16.6805 23.7903 16.5804 24.5431 16.5346 24.7749C16.3113 25.914 16.5145 27.2392 16.8551 28.0835C17.6823 30.1356 19.5169 31.6697 21.6062 32.4596C24.0647 33.3898 26.0482 32.3995 26.8925 30.6708C27.2417 29.9553 27.4077 29.0938 27.2531 28.301C27.1043 27.5368 26.5347 26.7469 26.1369 26.0771C24.3223 23.009 21.3572 20.436 20.5987 16.8269C20.1093 14.5028 20.719 11.9699 22.2101 10.121C23.7041 8.27207 26.051 7.1444 28.4266 7.13581C31.8582 7.1215 34.8834 9.2509 37.6368 11.3002L38.0604 11.6665H38.0575Z" fill="var(--fill-0, #0F83C6)"/>
<path id="Vector_3" fill-rule="evenodd" clip-rule="evenodd" d="M51.6495 21.766C51.6495 21.766 51.6638 22.9652 51.661 23.5691C51.661 23.5891 51.6552 23.6149 51.6295 23.6263C51.4348 23.7065 50.9168 23.841 50.7966 23.8753C50.4303 23.9784 50.061 24.0671 49.689 24.1386C48.9563 24.2789 48.2121 24.3533 47.4651 24.3333C46.3632 24.3046 45.2584 24.0642 44.271 23.5691C42.6253 22.7419 41.6036 20.9617 41.3775 19.1729C41.2773 18.3801 41.3431 17.6045 41.449 16.8203C41.552 16.0475 41.781 15.2862 42.1674 14.6079C43.1548 12.862 45.1526 12.0434 47.073 11.8946C47.0988 11.8946 47.1274 11.8917 47.1532 11.8889C47.9145 11.8345 48.6787 11.8402 49.44 11.9118C49.8321 11.9461 50.2242 12.0005 50.6134 12.0692C50.6134 12.0692 51.4177 12.2352 51.6066 12.3897C51.5951 12.9478 51.5722 13.4172 51.5522 14.2587H51.5264C51.2517 14.1614 50.9741 14.0641 50.6993 13.9639C50.0639 13.7378 49.3427 13.6204 48.6729 13.5489C47.717 13.4459 46.6437 13.4916 45.8251 14.0526C45.2441 14.4533 44.8177 15.0429 44.5315 15.6783C43.9047 17.0635 43.8446 18.7636 44.3912 20.1861C44.5458 20.5839 44.7519 20.9646 45.0123 21.3023C45.5847 22.0407 46.5521 22.3899 47.4451 22.5244C48.5642 22.6933 49.6117 22.4958 50.6649 22.1065C50.9197 22.0121 51.6495 21.766 51.6495 21.766Z" fill="var(--fill-0, #E1690D)"/>
<path id="Vector_4" fill-rule="evenodd" clip-rule="evenodd" d="M118.173 11.8557C119.149 11.767 120.191 11.8672 121.107 12.0761C121.23 12.1047 121.35 12.1391 121.47 12.182C121.528 12.202 121.739 12.2593 121.751 12.3337C121.782 12.6371 121.782 13.759 121.739 14.0996C121.719 14.257 121.393 14.0681 121.316 14.0395C121.204 13.9994 121.096 13.9593 120.984 13.9221C120.732 13.8363 120.477 13.7619 120.22 13.696C119.687 13.5644 119.129 13.4728 118.58 13.5186C118.188 13.5501 117.781 13.6646 117.492 13.9422C117.014 14.403 116.914 15.1013 117.349 15.6222C117.624 15.9542 118.004 16.1717 118.382 16.3692C119.85 17.1391 121.694 17.9062 122.375 19.5462C122.77 20.4992 122.718 21.6612 122.114 22.5141C121.594 23.2468 120.769 23.7076 119.931 23.9738C119.144 24.2228 118.308 24.3201 117.484 24.2915C116.593 24.26 115.666 24.2085 114.653 23.8908C114.662 23.2154 114.67 22.537 114.679 21.8616C114.687 21.8616 114.699 21.8587 114.704 21.8616C114.842 21.9331 115.019 21.9646 115.165 22.0219C115.348 22.0963 115.543 22.1507 115.732 22.2136C116.127 22.3424 116.525 22.4626 116.928 22.5571C117.647 22.7231 118.385 22.766 119.063 22.434C119.619 22.1621 120.045 21.6212 119.999 20.9801C119.951 20.2731 119.401 19.9211 118.866 19.5662C117.203 18.4614 115.028 17.8861 114.65 15.482C114.567 14.9668 114.659 14.3486 114.836 13.9078C115.254 12.8746 116.21 12.2364 117.277 11.9931C117.567 11.9273 117.864 11.8815 118.17 11.8528L118.173 11.8557Z" fill="var(--fill-0, #0F83C6)"/>
<path id="Vector_5" fill-rule="evenodd" clip-rule="evenodd" d="M100.657 12.205C100.726 12.3367 100.723 12.5656 100.723 12.7202C100.723 14.1083 100.17 14.5433 99.5951 15.3505C98.4474 17.0305 94.9213 21.836 94.8698 22.3168C94.8956 22.334 94.9242 22.3511 94.9499 22.3712L100.663 22.3969C100.663 22.6545 100.663 23.4559 100.608 23.9997H91.8789C91.8789 23.4645 91.8789 22.8778 91.8789 22.3454C93.267 20.3248 97.7748 14.0625 97.5917 13.7763C96.3381 13.7849 95.6912 13.7849 92.2538 13.7763V12.2021H100.654L100.657 12.205Z" fill="var(--fill-0, #E1690D)"/>
<path id="Vector_6" fill-rule="evenodd" clip-rule="evenodd" d="M63.158 13.209C62.4568 12.6279 61.6039 12.2587 60.7166 12.0727C59.9954 11.921 59.2284 11.8609 58.467 11.9153C57.222 12.004 56.0028 12.3933 55.0497 13.1889C54.1138 13.9703 53.4784 15.118 53.1779 16.2886C53.0147 16.9239 52.9461 17.5794 52.9604 18.2348C53.0033 20.0637 53.7389 21.8496 55.1556 23.0402C56.518 24.1879 58.3268 24.5715 60.0641 24.2681C60.9914 24.1049 61.913 23.8187 62.7001 23.2921C64.3801 22.1702 65.1529 20.0064 65.1557 18.0516C65.1557 16.2886 64.5461 14.3624 63.1551 13.209H63.158ZM62.2822 19.8089C61.8787 21.3058 60.8397 22.5308 59.2198 22.714C56.3033 23.0431 55.3531 19.0562 55.7709 16.8724C56.0457 15.4299 56.7841 13.9703 58.3239 13.6011C58.5386 13.5495 58.7561 13.5238 58.9736 13.5209C59.9324 13.5123 60.8855 13.9674 61.4894 14.7173C62.6085 16.1111 62.7316 18.1375 62.2822 19.8061V19.8089Z" fill="var(--fill-0, #E1690D)"/>
<path id="Vector_7" fill-rule="evenodd" clip-rule="evenodd" d="M88.6763 13.209C87.9751 12.6279 87.1222 12.2587 86.235 12.0727C85.5137 11.921 84.7467 11.8609 83.9854 11.9153C82.7403 12.004 81.5211 12.3933 80.568 13.1889C79.6321 13.9703 78.9967 15.118 78.6962 16.2886C78.5331 16.9239 78.4644 17.5794 78.4787 18.2348C78.5216 20.0522 79.2715 21.8696 80.6825 23.0488C82.7575 24.7861 86.0089 24.7661 88.2184 23.2921C89.8984 22.1702 90.6712 20.0064 90.6741 18.0516C90.6741 16.2886 90.0644 14.3624 88.6735 13.209H88.6763ZM87.8005 19.8089C87.397 21.3058 86.358 22.5308 84.7381 22.714C81.8216 23.0431 80.8714 19.0562 81.2893 16.8724C81.564 15.4299 82.3024 13.9703 83.8422 13.6011C84.0569 13.5495 84.2744 13.5238 84.4919 13.5209C85.4507 13.5123 86.4038 13.9674 87.0077 14.7173C88.1268 16.1111 88.2499 18.1375 87.8005 19.8061V19.8089Z" fill="var(--fill-0, #E1690D)"/>
<path id="Vector_8" fill-rule="evenodd" clip-rule="evenodd" d="M113.565 23.9276C113.554 23.8932 113.539 23.8617 113.528 23.8302C113.502 23.7673 109.1 12.4963 108.966 12.1758C108.193 12.1672 107.443 12.1758 106.642 12.1758C106.63 12.1987 106.619 12.1958 106.607 12.2187C106.542 12.3561 102.031 23.627 101.954 23.8073C101.936 23.8474 101.925 23.8875 101.936 23.9304C101.936 23.9419 101.962 23.9991 101.974 23.9991C102.526 24.0077 103.076 23.9991 103.628 24.0077L104.99 20.8766H109.821C110.222 21.8812 110.666 22.9974 111.066 24.0048L113.505 24.0277C113.551 23.9962 113.588 23.9877 113.568 23.9304L113.565 23.9276ZM109.152 19.248C107.987 19.2566 106.822 19.2652 105.654 19.2738C105.574 19.1936 105.637 19.125 105.671 19.0334C105.706 18.9418 107.028 15.4815 107.334 14.683C107.44 14.8519 109.12 19.0391 109.137 19.0792C109.146 19.0992 109.16 19.1221 109.166 19.1393C109.169 19.1507 109.172 19.2452 109.149 19.2452L109.152 19.248Z" fill="var(--fill-0, #E1690D)"/>
<g id="Group">
<path id="Vector_9" fill-rule="evenodd" clip-rule="evenodd" d="M59.2827 34.9662H60.8397V32.0354H64.2799C64.2799 32.0354 64.569 34.8145 62.7516 35.9078C62.7516 35.9078 61.8271 36.6033 60.6852 36.8952V38.4236C60.6852 38.4236 64.8037 37.8053 65.5135 34.4882C65.5135 34.4882 65.9314 32.914 65.7911 30.5528H59.3428L59.2799 34.9662H59.2827Z" fill="var(--fill-0, #949494)"/>
<path id="Vector_10" fill-rule="evenodd" clip-rule="evenodd" d="M70.591 30.0203C70.591 30.0203 70.3448 31.8721 68.8823 33.1457V34.9574C68.8823 34.9574 68.9653 35.0605 69.0884 34.9374C69.0884 34.9374 70.8972 33.5378 71.2264 32.5704H73.7622C73.7622 32.5704 74.0083 34.073 72.729 35.3467C72.729 35.3467 71.3494 36.8693 69.5807 37.2814V38.784C69.5807 38.784 72.7318 38.2717 74.5378 35.4297C74.5378 35.4297 75.5052 33.95 75.4365 31.1508H71.7587C71.7587 31.1508 72.0249 30.5756 72.0879 30.0203H70.5853H70.591Z" fill="var(--fill-0, #949494)"/>
<path id="Vector_11" fill-rule="evenodd" clip-rule="evenodd" d="M78.4905 36.6644L79.5409 35.7686C79.5409 35.7686 80.7802 37.0823 81.4241 38.084L80.3451 38.9484L78.4933 36.6644H78.4905Z" fill="var(--fill-0, #949494)"/>
<path id="Vector_12" fill-rule="evenodd" clip-rule="evenodd" d="M89.3577 30.0005L90.617 30.4527L90.1591 31.5432H91.4814V29.8145H92.7979V31.6347H95.7087V32.8082H92.7979V34.4425H95.308V35.553H92.7979V37.4963H96.2038V38.6984H88.1184V37.4963H91.4814V35.6131H89.3835V34.4396H91.4814V32.8654H89.6239L89.0429 34.0675L87.9639 33.5724C87.9639 33.5724 89.2146 31.0223 89.3577 29.9919V30.0005Z" fill="var(--fill-0, #949494)"/>
<path id="Vector_13" fill-rule="evenodd" clip-rule="evenodd" d="M99.0517 30.9879V32.3674C99.0517 32.3674 100.841 32.3045 101.519 32.3274L101.785 33.4379L98.7827 33.4579V34.7115H102.114L102.483 35.9651C102.483 35.9651 103.233 35.9393 103.923 35.9021L103.531 34.6686H105.526V33.352H103.099L102.833 32.2415L104.885 32.2215L104.827 30.8648L102.544 30.8849L102.38 30.1035L101.001 30.1236L101.187 30.9679L99.0489 30.9879H99.0517Z" fill="var(--fill-0, #949494)"/>
<path id="Vector_14" fill-rule="evenodd" clip-rule="evenodd" d="M103.96 37.3364C103.642 37.3908 103.321 37.385 102.989 37.4137C102.554 37.4509 102.114 37.4165 101.69 37.3135C101.332 37.2276 101.015 37.0759 100.863 36.7153C100.743 36.4291 100.771 36.0799 100.952 35.8281C101.017 35.7365 101.218 35.3701 101.349 35.3701H99.7925C98.8766 36.2001 99.1056 37.6569 100.167 38.2294C101.069 38.7159 102.194 38.7588 103.196 38.7359C103.742 38.7216 104.292 38.6873 104.833 38.6014C104.847 37.78 104.853 37.219 104.853 37.219C104.552 37.282 104.257 37.2877 103.96 37.3364Z" fill="var(--fill-0, #949494)"/>
<path id="Vector_15" fill-rule="evenodd" clip-rule="evenodd" d="M112.048 35.57C111.456 35.2924 110.777 35.2809 110.211 35.5814C109.945 35.7217 109.696 35.9049 109.572 36.1853C109.452 36.4544 109.435 36.7635 109.478 37.0526C109.512 37.2844 109.59 37.5162 109.724 37.7137C110.38 38.6868 111.705 38.9129 112.775 38.6067C113.972 38.2632 114.922 37.1871 115.031 35.9306C115.031 35.9049 115.033 35.8791 115.036 35.8533C115.065 35.341 114.959 34.823 114.744 34.3565C114.384 33.578 113.768 33.2231 112.704 33.1515L112.54 33.183C112.54 33.183 113.974 31.9952 114.152 31.9867V30.4755H109.278V31.9781H111.845L108.556 34.4051C108.556 34.4051 108.597 35.8133 108.594 36.1624C108.594 36.1624 109.587 35.0634 110.8 34.6312C111.725 34.3021 113.665 34.0101 113.851 35.4355C113.9 35.8161 113.76 36.5059 113.27 36.6461C113.27 36.6461 113.007 36.0193 112.051 35.5729L112.048 35.57ZM112.017 37.3101C111.885 37.4962 111.567 37.4304 111.384 37.3874C111.19 37.3416 110.998 37.2415 110.883 37.0755C110.677 36.7807 110.815 36.3256 111.215 36.3513C111.221 36.3513 111.227 36.3513 111.23 36.3513C111.573 36.38 112.317 36.8923 112.02 37.3101H112.017Z" fill="var(--fill-0, #949494)"/>
<path id="Vector_16" fill-rule="evenodd" clip-rule="evenodd" d="M51.4609 30.0203C51.4609 30.0203 51.2147 31.8721 49.7522 33.1457V34.9574C49.7522 34.9574 49.8352 35.0605 49.9583 34.9374C49.9583 34.9374 51.77 33.5378 52.0991 32.5704H54.6349C54.6349 32.5704 54.8811 34.073 53.6017 35.3467C53.6017 35.3467 52.2222 36.8693 50.4534 37.2814V38.784C50.4534 38.784 53.6046 38.2717 55.4106 35.4297C55.4106 35.4297 56.378 33.95 56.3093 31.1508H52.6315C52.6315 31.1508 52.8976 30.5756 52.9606 30.0203H51.458H51.4609Z" fill="var(--fill-0, #949494)"/>
<path id="Vector_17" fill-rule="evenodd" clip-rule="evenodd" d="M40.1498 34.9662H41.7067V32.0354H45.147C45.147 32.0354 45.436 34.8145 43.6186 35.9078C43.6186 35.9078 42.6942 36.6033 41.5522 36.8952V38.4236C41.5522 38.4236 45.6707 37.8053 46.3805 34.4882C46.3805 34.4882 46.7984 32.914 46.6582 30.5528H40.2099L40.1469 34.9662H40.1498Z" fill="var(--fill-0, #949494)"/>
</g>
<path id="Vector_18" fill-rule="evenodd" clip-rule="evenodd" d="M77.1365 21.766C77.1365 21.766 77.1508 22.9652 77.1479 23.5691C77.1479 23.5891 77.1422 23.6149 77.1164 23.6263C76.9218 23.7065 76.4038 23.841 76.2835 23.8753C75.9172 23.9784 75.548 24.0671 75.1759 24.1386C74.4432 24.2789 73.6991 24.3533 72.9521 24.3333C71.8502 24.3046 70.7454 24.0642 69.758 23.5691C68.1123 22.7419 67.0905 20.9617 66.8644 19.1729C66.7642 18.3801 66.8301 17.6045 66.9359 16.8203C67.039 16.0475 67.268 15.2862 67.6543 14.6079C68.6418 12.862 70.6395 12.0434 72.56 11.8946C72.5857 11.8946 72.6143 11.8917 72.6401 11.8889C73.4014 11.8345 74.1656 11.8402 74.9269 11.9118C75.319 11.9461 75.7111 12.0005 76.1004 12.0692C76.1004 12.0692 76.9046 12.2352 77.0935 12.3897C77.0821 12.9478 77.0592 13.4172 77.0391 14.2587H77.0134C76.7386 14.1614 76.461 14.0641 76.1862 13.9639C75.5509 13.7378 74.8296 13.6204 74.1599 13.5489C73.2039 13.4459 72.1307 13.4916 71.3121 14.0526C70.7311 14.4533 70.3046 15.0429 70.0184 15.6783C69.3916 17.0635 69.3315 18.7636 69.8782 20.1861C70.0327 20.5839 70.2388 20.9646 70.4993 21.3023C71.0717 22.0407 72.0391 22.3899 72.932 22.5244C74.0511 22.6933 75.0986 22.4958 76.1519 22.1065C76.4066 22.0121 77.1365 21.766 77.1365 21.766Z" fill="var(--fill-0, #0F83C6)"/>
</g>
<defs>
<clipPath id="clip0_748_4546">
<rect width="122.626" height="38.9474" fill="white"/>
</clipPath>
</defs>
</svg>
