<svg preserveAspectRatio="none" width="100%" height="100%" overflow="visible" style="display: block;" viewBox="0 0 63.1633 61.5652" fill="none" xmlns="http://www.w3.org/2000/svg">
<g id="logo mark">
<path id="Vector" d="M28.8977 23.0974C26.9434 22.012 25.5537 19.8412 25.2496 17.3664C24.7719 13.372 27.6382 9.68152 31.6337 9.20393C33.1102 9.03027 33.9354 9.20394 35.716 9.85519C37.6268 10.6367 39.4508 12.0695 41.0143 14.0232L48.1366 8.24876C45.5743 5.03588 42.404 2.64794 39.06 1.302H38.9297C36.1503 0.259989 33.8485 -0.261018 30.5045 0.129737C21.4714 1.21517 15.0439 9.46444 16.1296 18.4952C16.2599 19.4504 16.4771 20.3622 16.7376 21.2305C16.9982 21.2305 17.2153 21.1437 17.4759 21.1003C21.3845 20.6227 25.3365 21.3173 28.8542 23.0974H28.8977Z" fill="var(--fill-0, #E1690D)"/>
<path id="Vector_2" d="M53.7827 39.8565C55.7805 33.8649 55.9542 27.0484 54.217 20.4924L45.3576 22.8369C46.3999 26.7445 46.5301 30.7823 45.7484 34.4293L29.4192 23.4013L28.9415 23.0974H28.8981C25.3804 21.3173 21.4284 20.6226 17.5198 21.1002C17.2592 21.1002 16.9986 21.1871 16.7815 21.2305C6.27174 22.9237 -1.15456 32.6492 0.148296 43.2864C0.930013 49.5819 4.70831 55.1827 10.2238 58.2654C14.5232 60.4796 19.1701 61.5651 23.7735 61.5651C33.6318 61.5651 43.3598 56.7023 49.5267 48.1057L58.0387 53.8368L63.1633 46.2388L53.7827 39.8999V39.8565ZM14.4363 50.1029C11.57 48.4096 9.65918 45.4573 9.26832 42.1576C8.53004 36.2962 12.7426 30.9125 18.6055 30.2178C20.6466 29.9573 22.6878 30.3047 24.5552 31.173L41.9701 42.9391C35.4993 51.7528 23.8604 55.0091 14.4798 50.1029H14.4363Z" fill="var(--fill-0, #0F83C6)"/>
</g>
</svg>
