<svg preserveAspectRatio="none" width="100%" height="100%" overflow="visible" style="display: block;" viewBox="0 0 85.7142 135.582" fill="none" xmlns="http://www.w3.org/2000/svg">
<g id="Group">
<path id="Vector" d="M28.8902 36.8883C31.816 43.2164 23.4351 49.9899 18.6498 52.6024C14.2003 55.0313 9.38462 57.0843 5.91577 60.7785C2.44335 64.4762 0.669629 69.523 0.169486 74.5662C-0.330657 79.6094 0.349895 84.6936 1.24837 89.6815C3.17213 100.351 6.10511 110.838 9.99372 120.96C11.7156 125.444 10.0723 130.216 9.96872 134.787C16.9332 134.372 24.2103 135.487 31.273 135.56C43.7427 135.691 56.2087 135.202 68.6694 134.714C70.9504 134.625 73.3297 134.509 75.3178 133.392C77.3487 132.251 78.6991 130.218 79.8458 128.195C81.8393 124.677 83.4594 120.951 84.674 117.097C85.2242 115.35 85.6939 113.554 85.7136 111.724C85.7439 108.88 84.6883 106.148 83.6505 103.5C80.1548 94.5786 76.6574 85.6577 73.1618 76.7385C70.695 70.4443 69.2106 62.8296 63.2304 58.8218C60.7386 57.152 57.5948 56.7564 58.1361 53.2137C58.3397 51.886 58.7702 50.5513 59.081 49.2432C59.3507 48.1116 59.5132 46.6735 58.5522 46.0124C57.4108 45.2283 55.9247 46.3278 55.0673 47.4149C53.9652 48.812 51.5467 54.8906 50.1141 53.8106C48.1493 52.3298 50.4267 48.8565 51.8432 48.0172C53.7527 46.8856 55.6032 46.1906 57.0411 44.2998C58.5201 42.3538 58.9006 39.8109 59.1113 37.3784C59.6204 31.4762 62.4105 15.8084 53.8295 13.8553C47.224 12.353 40.0952 15.3593 35.9315 20.5487C34.1667 22.7495 32.9396 25.1998 30.9944 27.2759C28.0632 30.4034 26.9182 32.6274 28.8884 36.8883H28.8902Z" fill="var(--fill-0, white)"/>
<path id="Vector_2" d="M43.3522 15.6017C37.3844 16.7654 36.9789 24.6652 34.5514 29.0455C34.1388 29.7904 33.5333 30.6208 32.6795 30.5834C31.9078 30.5495 31.3487 29.8029 30.5967 29.6264C29.5268 29.3752 28.5104 30.3339 27.4137 30.2911C25.7989 30.227 25.1184 28.2614 23.9948 27.1031C23.3107 26.3974 22.3676 25.9447 21.8174 25.1303C21.0422 23.988 21.2423 22.4733 21.4709 21.1136C22.3604 15.8476 23.4232 10.2288 27.1779 6.42236C30.4467 3.10596 35.1909 1.76942 39.744 0.776821C44.699 -0.303102 50.715 -0.802077 54.0213 3.03468C55.2627 4.47636 55.9772 6.41523 57.5705 7.45951C58.5797 8.12065 59.8855 8.37548 60.6482 9.30928C61.1787 9.95973 61.3448 10.8294 61.4413 11.6634C61.8092 14.8711 61.5038 17.8524 60.0766 20.7144C60.6642 19.5382 54.9662 15.9741 53.9623 15.8583C52.4333 15.6819 51.2169 16.507 49.7647 16.5319C47.6534 16.5694 45.7118 15.215 43.5683 15.5661C43.4951 15.5785 43.4236 15.591 43.3522 15.6053V15.6017Z" fill="var(--fill-0, #C6CED3)"/>
</g>
</svg>
