<svg preserveAspectRatio="none" width="100%" height="100%" overflow="visible" style="display: block;" viewBox="0 0 104.046 68.492" fill="none" xmlns="http://www.w3.org/2000/svg">
<g id="Group">
<path id="Vector" d="M20.2722 43.3043C15.8495 43.274 12.2377 39.6707 12.2074 35.2583C12.202 34.4475 11.3928 34.1285 10.7284 34.4118C7.7418 35.6896 4.75345 36.9655 1.76688 38.2432C1.34176 38.425 0.916637 38.6068 0.489729 38.7886C0.938071 39.2358 1.38641 39.6831 1.83476 40.1304C3.47808 37.9599 5.12141 35.7894 6.76653 33.6188C7.92579 32.0863 9.08683 30.5555 10.2461 29.0229C10.8409 28.237 11.5322 27.469 12.0555 26.635C12.2359 26.3481 12.2074 26.0237 12.2074 25.703V18.5498C12.2074 15.7039 12.1913 12.8562 12.2074 10.0102C12.2217 7.50287 13.4149 5.04008 15.4351 3.56276C16.9176 2.47927 18.5949 1.96426 20.4061 1.96248C22.1638 1.96069 23.9214 1.96248 25.6791 1.96248H65.1868C66.4514 1.96248 66.4532 0.00222107 65.1868 0.00222107H21.6779C21.2546 0.00222107 20.8295 0.00222107 20.4061 0.00222107C18.9575 0.00222107 17.5571 0.283785 16.2282 0.857605C12.486 2.47214 10.2443 6.23762 10.2443 10.2454V26.1182C10.289 25.9524 10.3336 25.7885 10.3783 25.6228C9.22616 27.1429 8.07404 28.6647 6.92371 30.1848C5.08568 32.6102 3.24945 35.0373 1.41142 37.4627C0.988086 38.0223 0.562965 38.5818 0.13963 39.1414C-0.119372 39.4818 0.0110194 40.0485 0.293243 40.33C0.627267 40.6633 1.0774 40.6579 1.48466 40.4833C4.47123 39.2056 7.45958 37.9296 10.4461 36.6519L11.7233 36.1066C11.2303 35.825 10.7373 35.5417 10.2443 35.2601C10.2622 37.9011 11.3053 40.4637 13.1826 42.3348C15.06 44.2078 17.6268 45.2485 20.274 45.2663C21.5386 45.2752 21.5404 43.315 20.274 43.3061L20.2722 43.3043Z" fill="var(--fill-0, #0F83C6)"/>
<path id="Vector_2" d="M75.7259 1.96029C78.2373 1.97811 80.7077 3.16317 82.1849 5.18045C83.2834 6.67916 83.7889 8.36319 83.7889 10.1934V29.2203C83.7889 31.2322 83.7996 33.246 83.7889 35.2597C83.7746 37.7225 82.6279 40.0962 80.7023 41.6002C79.2287 42.7532 77.4621 43.3021 75.6277 43.3056C73.979 43.3074 72.3321 43.3056 70.6834 43.3056H32.5957C31.3311 43.3056 31.3293 45.2659 32.5957 45.2659H75.3258C76.6065 45.2659 77.8819 45.1269 79.0929 44.6849C81.8491 43.6799 84.0068 41.561 85.0857 38.8434C86.0217 36.484 85.7538 33.7414 85.7538 31.2483V10.7921C85.7538 9.54291 85.6948 8.30617 85.3233 7.09794C84.4909 4.38744 82.4832 2.06008 79.8771 0.90353C78.5642 0.317235 77.1674 0.0107226 75.7259 3.0284e-05C74.4613 -0.00887997 74.4595 1.95138 75.7259 1.96029Z" fill="var(--fill-0, #0F83C6)"/>
<path id="Vector_3" d="M85.627 68.4897C88.1134 68.4719 90.5248 67.4953 92.2878 65.7364C94.0508 63.9775 95.0296 61.5718 95.0475 59.0911C94.6331 59.4066 94.2187 59.722 93.8043 60.0356C96.4336 60.8857 99.0629 61.7339 101.692 62.584C102.064 62.7034 102.437 62.8245 102.809 62.9439C103.219 63.0758 103.705 62.8566 103.918 62.4931C104.155 62.0868 104.038 61.6519 103.764 61.3044C101.135 57.9667 98.5074 54.6271 95.8781 51.2893C95.5048 50.8153 95.1315 50.3413 94.7581 49.8672C94.8546 50.0989 94.9493 50.3288 95.0457 50.5605V36.7139C95.0457 35.9494 95.0689 35.1814 94.9725 34.4222C94.6956 32.2232 93.6757 30.1542 92.0341 28.6466C90.3837 27.1301 88.2438 26.2426 86.0021 26.1428C85.6805 26.1286 85.3554 26.1339 85.0339 26.1339H47.5125C46.305 26.1339 45.0957 26.1161 43.8882 26.1339C43.8347 26.1339 43.7811 26.1339 43.7275 26.1339C42.4628 26.1339 42.461 28.0942 43.7275 28.0942H84.6374C84.9678 28.0942 85.2983 28.0924 85.6287 28.0942C87.9741 28.1084 90.2961 29.2347 91.6519 31.1415C92.67 32.5742 93.0844 34.1264 93.0844 35.855V49.5982C93.0844 49.9065 93.0702 50.2183 93.0844 50.5248C93.1041 50.9418 93.3381 51.2073 93.5774 51.5121C94.3598 52.5047 95.1404 53.4973 95.9228 54.4899C97.943 57.056 99.9632 59.6204 101.982 62.1866C102.114 62.3541 102.246 62.5216 102.378 62.6891C102.696 62.1438 103.016 61.5967 103.334 61.0514C100.704 60.2014 98.0751 59.3531 95.4458 58.5031C95.0743 58.3819 94.701 58.2625 94.3294 58.1431C93.7132 57.9435 93.0898 58.4763 93.0862 59.0876C93.0559 63.1685 89.7192 66.4956 85.6305 66.5259C84.3659 66.5348 84.3641 68.495 85.6305 68.4861L85.627 68.4897Z" fill="var(--fill-0, #E1690D)"/>
<path id="Vector_4" d="M33.7216 26.1374C31.0351 26.157 28.4058 27.3189 26.6892 29.4039C25.2442 31.161 24.485 33.3262 24.4797 35.5983C24.4743 37.8455 24.4797 40.0908 24.4797 42.338V53.3618C24.4797 55.3327 24.4386 57.3072 24.4815 59.2782C24.5404 61.9726 25.7836 64.6154 27.8878 66.3208C29.6133 67.7198 31.7192 68.4789 33.9467 68.4896C35.4328 68.4949 36.9207 68.4896 38.4069 68.4896H74.9066C76.1712 68.4896 76.173 66.5293 74.9066 66.5293H34.6808C34.1306 66.5293 33.5769 66.5418 33.0285 66.4848C30.7511 66.2513 28.6237 64.8257 27.4609 62.8441C26.716 61.5752 26.4427 60.2102 26.4427 58.7436V36.664C26.4427 35.8905 26.4106 35.0298 26.5303 34.3241C26.9304 31.9807 28.304 29.9848 30.4064 28.8889C31.4138 28.3632 32.5677 28.1083 33.7198 28.0994C34.9845 28.0905 34.9862 26.1302 33.7198 26.1392L33.7216 26.1374Z" fill="var(--fill-0, #E1690D)"/>
</g>
</svg>
