<svg preserveAspectRatio="none" width="100%" height="100%" overflow="visible" style="display: block;" viewBox="0 0 99.5832 120.175" fill="none" xmlns="http://www.w3.org/2000/svg">
<g id="Group">
<path id="Vector" d="M33.122 70.0195C33.5024 71.0638 33.9454 72.0849 34.4473 73.0775C34.6188 73.4179 34.8546 73.7939 35.2333 73.842C35.7245 73.9026 36.0674 73.3822 36.2711 72.9314C37.918 69.2906 38.8325 65.3612 40.3455 61.6635C41.8584 57.9657 44.1251 54.3606 47.6297 52.4289C49.4302 51.4345 51.4593 50.9391 53.4653 50.4829C59.885 49.0234 66.4904 47.8633 73.0316 48.6153C79.5727 49.3655 86.1175 52.2578 90.0025 57.5612C92.9533 61.5886 93.775 66.3414 94.945 71.0495C95.9685 75.1732 96.8437 79.3307 97.6404 83.5043C98.3585 87.2697 99.3462 91.2081 99.5588 95.0377C99.8017 99.434 98.2441 104.317 94.3752 106.434C92.4443 107.492 89.9418 107.909 88.8236 109.806C88.2592 110.763 88.1805 111.917 88.1145 113.024C88.0001 114.956 87.8858 116.887 87.7733 118.819C87.7501 119.204 87.7108 119.63 87.4285 119.894C87.1463 120.161 86.7158 120.175 86.3264 120.175C72.0599 120.152 57.7915 119.983 43.5285 119.667C43.4338 113.409 43.3392 107.152 43.2445 100.894C40.5919 102.173 38.4056 104.238 35.8852 105.764C33.3649 107.289 30.1854 108.255 27.4882 107.07C24.7678 105.876 23.3585 102.904 22.3439 100.118C20.3308 94.5815 18.9733 88.8059 18.3034 82.9536C18.0444 80.6958 17.0602 76.6737 17.8497 74.5067C18.4838 72.7674 22.7226 73.343 24.4427 73.0276C25.209 72.8868 33.3667 70.6913 33.122 70.0213V70.0195Z" fill="var(--fill-0, #FFE556)"/>
<path id="Vector_2" d="M54.7546 7.56392C56.2961 7.2681 57.8912 7.73322 59.3077 8.4104C65.6381 11.4363 69.1301 18.2277 71.8595 24.6805C72.4203 26.0064 72.9741 27.3625 73.0937 28.7971C73.2224 30.3367 72.4864 31.9495 72.0774 33.4197C71.5898 35.1679 71.1003 36.9357 71.0217 38.7498C70.8681 42.2462 72.7937 46.7904 76.0214 48.4673C68.078 52.8298 59.8203 56.6184 51.3322 59.7976C52.1342 57.1263 53.6489 54.7277 54.6528 52.1241C55.6548 49.5205 56.0996 46.4714 54.7617 44.0247C52.9755 40.7582 48.5492 39.468 47.1167 36.0304C46.2861 34.0345 46.6451 31.8355 46.2289 29.7611C45.9056 28.1537 44.0104 26.6034 44.7499 24.9674C45.1215 24.1477 45.8502 23.5578 46.5433 22.9822C47.5793 22.1233 48.6207 21.1841 49.128 19.9403C49.4673 19.1098 49.5424 18.1974 49.6156 17.3028C49.9211 13.5124 50.0211 8.47099 54.7564 7.56214L54.7546 7.56392Z" fill="var(--fill-0, white)"/>
<path id="Vector_3" d="M51.2142 5.32751C51.7107 4.19412 52.6825 3.32805 53.7417 2.69007C56.1709 1.22523 59.0771 0.820703 61.894 0.473203C64.9931 0.0918444 68.144 -0.252093 71.2235 0.254009C74.3047 0.760111 77.3538 2.2303 79.1061 4.80715C79.6187 5.56096 80.0206 6.40565 80.6887 7.02759C81.2245 7.52656 81.8979 7.84733 82.4981 8.26433C85.3132 10.2121 86.251 14.195 85.1953 17.4472C84.9917 18.0763 84.7291 18.7891 85.0542 19.3647C85.2435 19.6997 85.5936 19.9065 85.8687 20.1756C86.5796 20.8723 86.7458 21.9683 86.61 22.9538C86.4743 23.9392 86.0831 24.8677 85.8294 25.8282C85.7633 26.0759 85.7097 26.3504 85.8205 26.5802C85.9848 26.9188 86.4153 27.0079 86.7815 27.097C88.198 27.441 89.459 28.3819 90.1896 29.6418C90.7523 30.6112 91.097 32.0226 90.4093 33.0063C89.543 34.2448 87.6996 35.102 86.4796 36.0073C84.7041 37.326 82.7446 38.0299 80.5279 37.4205C78.6917 36.9144 77.1234 35.6438 76.0498 34.0738C75.0746 34.9345 74.0975 35.797 73.1222 36.6577C72.7132 37.0177 72.2863 37.3884 71.7611 37.5363C71.236 37.6824 70.5858 37.5327 70.3286 37.0516C70.1428 36.7041 70.2035 36.2799 70.2982 35.8986C70.7072 34.2555 71.6611 32.7818 72.0219 31.128C72.3845 29.4743 71.8844 27.3964 70.2928 26.8101C69.9838 26.6961 69.6516 26.6462 69.3497 26.5107C69.0014 26.3539 68.7156 26.0902 68.437 25.83C64.8752 22.5118 61.3957 19.1045 58.0018 15.6153C55.778 13.3289 49.6084 8.98784 51.2106 5.32751H51.2142Z" fill="var(--fill-0, #D3C2B0)"/>
<path id="Vector_4" d="M30.2336 62.3513C30.3872 60.4232 30.966 58.8532 30.3069 57.0034C29.6585 55.1839 28.6868 53.4963 28.0598 51.6679C27.1167 48.9165 26.1736 46.1668 25.2304 43.4153C25.025 42.8165 24.5588 42.0787 23.9604 42.2908C23.6371 42.4048 23.4746 42.7595 23.3585 43.082C22.7476 44.7643 22.3689 46.5285 22.2349 48.3123C22.1403 49.5723 22.0902 51.0122 21.1185 51.8212C20.5862 52.2649 19.8753 52.42 19.1912 52.5358C14.4166 53.3502 9.44376 52.9778 4.84602 51.4594C3.26878 50.9391 1.60403 50.2779 0 50.711C0.137539 51.864 0.664466 52.9688 1.47541 53.8011C0.735916 54.5656 0.855597 55.9769 1.71477 56.606C2.01664 56.827 2.38461 56.9571 2.65254 57.2172C3.29558 57.841 3.12231 58.8853 3.25271 59.7709C3.52779 61.6367 5.30686 62.9537 7.12345 63.4705C8.94183 63.9873 10.871 63.916 12.7376 64.21C15.4455 64.6359 17.9676 65.8157 20.4469 66.9811C20.9328 67.2092 21.4365 67.4516 21.7687 67.8721C22.1063 68.3016 22.2224 68.8576 22.3278 69.394L22.8065 71.8301C22.8476 72.0403 22.8976 72.2667 23.0566 72.4128C23.2084 72.5518 23.4281 72.5857 23.6335 72.607C26.086 72.8708 28.6153 72.3772 30.7892 71.2117C31.0071 71.0959 31.2304 70.9604 31.3465 70.743C31.5251 70.4044 31.3822 69.9946 31.2482 69.6364C30.3872 67.3197 30.0389 64.8141 30.2336 62.3513Z" fill="var(--fill-0, white)"/>
<path id="Vector_5" d="M52.6335 81.6866C51.3635 81.0201 49.9184 80.7706 48.4966 80.5799C46.2388 80.2752 43.965 80.0899 41.6857 80.0239C41.316 80.0132 40.8908 80.0311 40.6604 80.3197C40.3103 80.7617 40.7069 81.389 41.0873 81.806C41.8322 82.6186 42.577 83.433 43.3219 84.2456C36.9629 84.7749 30.4057 85.3612 24.7666 88.3372C25.3096 89.2799 26.5618 89.5062 27.6514 89.508C28.741 89.5098 29.9217 89.4136 30.8237 90.023C31.3542 90.383 31.7079 90.9408 32.1169 91.4326C34.23 93.9703 37.7667 94.708 41.0212 95.289C44.0203 95.8236 47.0569 96.3618 50.0935 96.1265C51.4599 93.3127 52.78 90.4757 54.0518 87.6172C54.6001 86.3858 55.4004 85.3255 54.9431 84.0104C54.5948 83.0071 53.5355 82.1624 52.6317 81.6884L52.6335 81.6866Z" fill="var(--fill-0, white)"/>
</g>
</svg>
