<svg preserveAspectRatio="none" width="100%" height="100%" overflow="visible" style="display: block;" viewBox="0 0 147.947 32.0113" fill="none" xmlns="http://www.w3.org/2000/svg">
<g id="logo type">
<path id="Vector" d="M138.547 24.6154H122.541L119.379 32.0113H113.254L127.65 5.82967e-07H133.494L147.947 32.0113H141.736L138.547 24.6154ZM136.571 19.9577L130.53 5.95625L124.545 19.9577H136.571Z" fill="var(--fill-0, #101010)"/>
<path id="Vector_2" d="M87.4241 5.82967e-07H93.3804V26.9866H110.12V32.0113H87.4524V5.82967e-07H87.4241Z" fill="var(--fill-0, #101010)"/>
<path id="Vector_3" d="M57.2761 5.82967e-07H63.2324V26.9866H79.972V32.0113H57.3044V5.82967e-07H57.2761Z" fill="var(--fill-0, #101010)"/>
<path id="Vector_4" d="M39.9434 5.82967e-07H45.8996V32.0113H39.9434V5.82967e-07Z" fill="var(--fill-0, #101010)"/>
<path id="Vector_5" d="M33.7897 0L19.8447 32.0113H14.0014L0 0H6.43613L17.0783 24.7001L27.8334 0H33.7897Z" fill="var(--fill-0, #101010)"/>
</g>
</svg>
