<svg preserveAspectRatio="none" width="100%" height="100%" overflow="visible" style="display: block;" viewBox="0 0 89.1521 135.666" fill="none" xmlns="http://www.w3.org/2000/svg">
<g id="Group">
<path id="Vector" d="M59.9852 22.6792C60.4782 29.1873 61.825 36.3404 58.6295 42.403C57.3416 44.8479 55.2535 47.2395 52.467 47.9416C49.7323 48.6295 47.1637 46.892 44.8434 45.6677C41.8443 44.087 38.872 42.239 36.9572 39.361C36.2606 38.3149 34.5583 39.2951 35.2603 40.35C37.1251 43.1532 39.8848 45.2222 42.8178 46.8153C44.2182 47.5763 45.6239 48.3711 47.0797 49.0251C48.4783 49.6541 49.9734 50.1353 51.5274 50.0515C54.8784 49.8698 57.6953 47.4765 59.4886 44.8034C61.3159 42.0804 62.2073 38.8745 62.5109 35.6383C62.9164 31.3133 62.2787 26.9864 61.9518 22.681C61.9125 22.1535 61.5285 21.7009 60.9694 21.7009C60.4693 21.7009 59.9459 22.15 59.987 22.681L59.9852 22.6792Z" fill="var(--fill-0, #101841)"/>
<path id="Vector_2" d="M59.068 29.2425C60.3326 29.2425 60.3344 27.2822 59.068 27.2822C57.8016 27.2822 57.8016 29.2425 59.068 29.2425Z" fill="var(--fill-0, #101841)"/>
<path id="Vector_3" d="M48.8307 30.6432C50.0953 30.6432 50.0971 28.683 48.8307 28.683C47.5643 28.683 47.5643 30.6432 48.8307 30.6432Z" fill="var(--fill-0, #101841)"/>
<path id="Vector_4" d="M54.839 26.9597C54.0923 27.7331 53.9352 28.8006 54.1995 29.8164C54.4317 30.7092 54.9676 31.4255 55.6035 32.0742C56.0947 32.5768 56.677 33.0739 56.802 33.6193C56.8235 33.7101 56.8163 33.5444 56.8092 33.7101C56.7967 33.9685 56.861 33.6068 56.7824 33.8705C56.7235 34.0683 56.627 34.243 56.5198 34.4176C56.2394 34.8738 55.8911 35.2837 55.5999 35.7328C54.9104 36.7949 56.6109 37.7786 57.2968 36.7218C57.8506 35.8682 58.5954 35.0984 58.7419 34.0487C58.8723 33.1114 58.4382 32.3094 57.8595 31.6073C57.6166 31.3115 57.3415 31.0424 57.0736 30.7698C56.9432 30.6379 56.8128 30.506 56.6895 30.3688C56.6306 30.3046 56.5716 30.2387 56.518 30.171C56.4555 30.0926 56.5484 30.2262 56.4644 30.0944C56.259 29.7789 56.0893 29.4136 56.0465 29.0572C56.009 28.7578 56.0483 28.5351 56.2322 28.3462C57.1093 27.4373 55.7214 26.0491 54.8426 26.9597H54.839Z" fill="var(--fill-0, #101841)"/>
<path id="Vector_5" d="M32.7008 29.3263C31.2789 29.3085 29.7035 29.6061 28.6996 30.7003C27.8601 31.6144 27.5511 32.8619 27.6314 34.079C27.7994 36.6077 29.1497 39.2505 31.0056 40.9684C32.6597 42.4992 35.3194 43.5738 37.3807 42.1624C37.8183 41.863 38.0148 41.3017 37.7326 40.8223C37.4789 40.391 36.8287 40.1701 36.3875 40.4712C35.673 40.9613 34.8335 40.9435 34.0422 40.6352C33.6653 40.4891 33.3099 40.2716 32.974 40.0453C32.883 39.983 32.7954 39.9188 32.7061 39.8546C32.59 39.7709 32.8865 40.0132 32.715 39.8618C32.6257 39.7834 32.5346 39.7103 32.4453 39.6319C32.2596 39.4644 32.0845 39.2862 31.9166 39.1008C31.838 39.0135 31.7612 38.9244 31.6844 38.8353C31.6415 38.7836 31.6004 38.7319 31.5576 38.6821C31.4254 38.5217 31.6487 38.8086 31.5129 38.625C31.1878 38.1866 30.8913 37.7287 30.6287 37.2493C30.4983 37.0123 30.3769 36.7699 30.2643 36.524C30.2411 36.4723 30.2179 36.4206 30.1947 36.369C30.0839 36.1195 30.2393 36.483 30.1786 36.328C30.1214 36.1836 30.0643 36.0393 30.0125 35.8931C29.8357 35.3924 29.7035 34.8809 29.6177 34.3552C29.5927 34.1984 29.6356 34.5976 29.6177 34.3463C29.6142 34.2946 29.607 34.2447 29.6034 34.1931C29.5927 34.0683 29.5856 33.9418 29.5838 33.8171C29.582 33.6941 29.5838 33.5729 29.5892 33.45C29.5927 33.368 29.6481 33.0098 29.5981 33.2842C29.6374 33.0686 29.6874 32.8601 29.7535 32.6516C29.7696 32.5981 29.7928 32.5465 29.8124 32.4948C29.7231 32.7229 29.7678 32.5892 29.7946 32.5465C29.8642 32.4342 29.9232 32.3148 29.9928 32.2025C30.0161 32.1651 30.0446 32.1295 30.0696 32.0938C29.9196 32.3023 30.0429 32.1295 30.0875 32.0867C30.1858 31.9905 30.2822 31.896 30.3876 31.8069C30.2018 31.9637 30.4698 31.7588 30.543 31.716C30.5966 31.6839 30.652 31.6554 30.7073 31.6269C30.7323 31.6144 30.961 31.5111 30.8359 31.5628C30.693 31.6216 30.9431 31.5253 30.9449 31.5253C31.0253 31.4986 31.1057 31.4737 31.186 31.4505C31.345 31.4059 31.5058 31.3739 31.6683 31.3436C31.7112 31.3347 31.913 31.3115 31.7416 31.3311C31.8416 31.3186 31.9434 31.3115 32.0452 31.3044C32.2631 31.2901 32.4828 31.2883 32.7008 31.2901C33.9654 31.3061 33.9654 29.3459 32.7008 29.3299V29.3263Z" fill="var(--fill-0, #101841)"/>
<path id="Vector_6" d="M53.9394 66.4267C54.9164 65.8298 55.9239 65.2167 57.0635 64.9993C58.1298 64.7944 59.0158 65.2452 59.8821 65.8173C61.5862 66.9418 63.4028 68.1411 64.5227 69.8893C65.2015 70.9496 66.9038 69.9677 66.2197 68.9002C64.8675 66.7903 62.7133 65.2791 60.6216 63.9622C59.4124 63.2012 58.1209 62.8395 56.6955 63.0836C55.3415 63.3153 54.1055 64.0299 52.948 64.7356C51.8709 65.3932 52.8569 67.0897 53.9394 66.4285V66.4267Z" fill="var(--fill-0, #101841)"/>
<path id="Vector_7" d="M58.0458 70.2457C60.1911 70.775 62.0345 72.3557 62.79 74.446C62.9704 74.9432 63.4581 75.2782 63.9993 75.1303C64.4816 74.9985 64.8656 74.4246 64.6852 73.9239C63.6992 71.1938 61.4075 69.0553 58.5692 68.355C57.342 68.052 56.8187 69.9428 58.0476 70.2457H58.0458Z" fill="var(--fill-0, #101841)"/>
<path id="Vector_8" d="M57.6936 74.5244C59.3334 75.82 60.4605 77.5735 60.9249 79.6104C61.2053 80.84 63.1005 80.3197 62.8201 79.09C62.2896 76.7645 60.9588 74.6224 59.0833 73.1398C58.6671 72.8119 58.0991 72.7353 57.6936 73.1398C57.3524 73.4801 57.2756 74.1948 57.6936 74.5262V74.5244Z" fill="var(--fill-0, #101841)"/>
<path id="Vector_9" d="M57.3652 80.1736C57.5314 80.3608 57.5153 80.6031 57.4688 80.8419C57.3956 81.2215 57.2331 81.5708 57.0473 81.904C56.6097 82.6881 56.106 83.4508 55.5594 84.1619C54.4876 85.5572 53.1676 86.7262 51.5404 87.4284C51.0527 87.6387 50.9438 88.3515 51.1885 88.7702C51.4832 89.2728 52.0441 89.3334 52.5335 89.1213C54.6002 88.2285 56.2078 86.6104 57.5081 84.8141C58.6995 83.1675 60.4233 80.678 58.7549 78.7872C58.4048 78.3898 57.7243 78.429 57.3652 78.7872C56.9705 79.181 57.0134 79.7745 57.3652 80.1736Z" fill="var(--fill-0, #101841)"/>
<path id="Vector_10" d="M46.3371 68.9341C44.4634 73.9078 42.6164 78.9011 41.1981 84.0281C40.9695 84.8532 41.9019 85.566 42.6414 85.1347C43.1648 84.8318 43.4041 84.3703 43.4559 83.784C43.5024 83.2565 42.9719 82.8038 42.4735 82.8038C41.9037 82.8038 41.5375 83.2547 41.4911 83.784C41.5447 83.6699 41.5965 83.5559 41.6501 83.4436C42.1306 83.8125 42.6128 84.1814 43.0933 84.5502C44.5116 79.4233 46.3586 74.43 48.2323 69.4563C48.4199 68.9609 48.0251 68.3817 47.5464 68.2498C46.9944 68.0983 46.5247 68.4369 46.3371 68.9341Z" fill="var(--fill-0, #101841)"/>
<path id="Vector_11" d="M61.5891 80.9666C61.2319 81.4495 60.8764 81.9342 60.5192 82.4172C60.2137 82.8324 60.437 83.5292 60.871 83.7591C61.3837 84.0299 61.8892 83.8499 62.2161 83.408C62.5733 82.9251 62.9288 82.4403 63.286 81.9574C63.5915 81.5422 63.3682 80.8454 62.9341 80.6155C62.4215 80.3446 61.916 80.5246 61.5891 80.9666Z" fill="var(--fill-0, #101841)"/>
<path id="Vector_12" d="M56.5761 13.067C55.8205 10.8145 53.5377 9.19457 51.1299 9.40307C50.6012 9.4494 50.1475 9.82007 50.1475 10.3832C50.1475 10.8786 50.5976 11.4097 51.1299 11.3633C52.625 11.2332 54.1825 12.1011 54.6827 13.5873C54.8506 14.0899 55.3597 14.4178 55.892 14.2716C56.3832 14.1362 56.7476 13.5695 56.5779 13.0652L56.5761 13.067Z" fill="var(--fill-0, #101841)"/>
<path id="Vector_13" d="M53.1478 15.33C52.4136 15.9341 51.3205 15.9431 50.4238 15.8237C49.1359 15.6544 47.9195 15.1358 46.6441 14.9059C45.2419 14.6528 43.9076 14.7437 42.5948 15.3104C41.4212 15.8165 40.4156 16.6113 39.4189 17.3936C39.0009 17.7215 39.0759 18.4361 39.4189 18.7801C39.8315 19.1917 40.3888 19.108 40.8085 18.7801C41.707 18.0744 42.6644 17.317 43.7612 16.9481C44.9937 16.5311 46.2047 16.7699 47.4265 17.1032C49.8075 17.7536 52.4315 18.4486 54.5375 16.7165C54.9465 16.3797 54.8876 15.6793 54.5375 15.33C54.132 14.9255 53.5586 14.9914 53.1478 15.33Z" fill="var(--fill-0, #101841)"/>
<path id="Vector_14" d="M38.586 20.9863C37.8054 22.6186 37.1731 24.3134 36.7176 26.0651C36.3996 27.2876 38.2948 27.808 38.6127 26.5855C39.0254 24.9995 39.5755 23.4562 40.2829 21.9753C40.5115 21.4977 40.415 20.9168 39.931 20.6334C39.5023 20.384 38.8164 20.5051 38.5877 20.9845L38.586 20.9863Z" fill="var(--fill-0, #101841)"/>
<path id="Vector_15" d="M36.2031 27.7011C35.6136 28.7507 34.9366 29.7397 34.1543 30.6539C33.8095 31.0567 33.7577 31.6447 34.1543 32.0404C34.5079 32.3932 35.1974 32.4449 35.544 32.0404C36.4353 30.9996 37.2302 29.8841 37.9 28.6901C38.518 27.5888 36.8211 26.598 36.2031 27.7011Z" fill="var(--fill-0, #101841)"/>
<path id="Vector_16" d="M56.7274 4.86764C53.4568 1.36591 48.4554 -0.496332 43.6844 0.114911C42.2661 0.296681 40.805 0.717245 39.8369 1.83637C39.4903 2.23733 39.4421 2.82897 39.8369 3.22281C40.1905 3.57565 40.8782 3.62555 41.2266 3.22281C42.0679 2.24981 43.4325 2.05557 44.6525 1.98428C45.9583 1.90766 47.2604 2.01814 48.5322 2.32109C51.1383 2.94303 53.5104 4.29739 55.3377 6.25408C56.2023 7.17896 57.5884 5.79074 56.7274 4.86764Z" fill="var(--fill-0, #101841)"/>
<path id="Vector_17" d="M61.1873 12.6196C61.75 12.9956 61.8196 13.8884 61.7786 14.6404C61.7196 15.7096 61.3659 16.909 60.9605 17.9639C60.7693 18.4576 61.1712 19.0385 61.6464 19.1704C62.2001 19.3219 62.6645 18.9815 62.8556 18.4861C63.7309 16.214 64.6311 12.5697 62.1787 10.9302C61.7375 10.6361 61.0909 10.8446 60.8354 11.2812C60.5532 11.7624 60.7461 12.3273 61.1873 12.6213V12.6196Z" fill="var(--fill-0, #101841)"/>
<path id="Vector_18" d="M57.6549 17.1264C58.2408 18.1243 58.9642 19.0421 59.8037 19.8404C60.7183 20.7118 62.1097 19.3272 61.1934 18.454C60.4682 17.7625 59.8591 16.9998 59.3518 16.1355C58.7123 15.0485 57.0136 16.0322 57.6549 17.1246V17.1264Z" fill="var(--fill-0, #101841)"/>
<path id="Vector_19" d="M27.1307 7.90425C25.9232 9.20515 25.0301 10.7324 24.4871 12.4218C24.1012 13.6264 25.9964 14.1414 26.3823 12.9421C26.8199 11.5806 27.5469 10.3385 28.5204 9.29069C29.3777 8.3658 27.9916 6.97581 27.1307 7.90425Z" fill="var(--fill-0, #101841)"/>
<path id="Vector_20" d="M22.5243 17.6146C22.6011 19.0171 22.7833 21.4728 20.9989 21.9468C19.7789 22.2711 20.2951 24.1619 21.5204 23.8376C22.6672 23.5328 23.5603 22.6579 24.0319 21.5868C24.5856 20.3287 24.5624 18.9601 24.4892 17.6146C24.4606 17.0854 24.0587 16.6345 23.5067 16.6345C22.9977 16.6345 22.4957 17.0836 22.5243 17.6146Z" fill="var(--fill-0, #101841)"/>
<path id="Vector_21" d="M24.4033 26.0865C24.4533 27.1183 24.5337 28.1573 24.9981 29.0982C25.4143 29.9447 26.1663 30.6129 27.079 30.8678C28.299 31.2081 28.8188 29.3174 27.6006 28.977C26.4467 28.6562 26.4146 27.056 26.3663 26.0847C26.3413 25.5555 25.9323 25.1046 25.3839 25.1046C24.8713 25.1046 24.3765 25.5537 24.4015 26.0847L24.4033 26.0865Z" fill="var(--fill-0, #101841)"/>
<path id="Vector_22" d="M36.0375 1.63666C34.1155 1.43886 32.1739 1.86477 30.4841 2.79143C29.3748 3.39911 30.3662 5.09206 31.4754 4.48438C32.8812 3.71453 34.4477 3.43475 36.0375 3.5987C36.5662 3.65395 37.0199 3.10864 37.0199 2.61857C37.0199 2.04297 36.568 1.69369 36.0375 1.63845V1.63666Z" fill="var(--fill-0, #101841)"/>
<path id="Vector_23" d="M17.6992 25.0316C17.7528 25.0387 17.8063 25.0459 17.8599 25.0548C17.9903 25.0958 18.1207 25.1011 18.2511 25.0726C18.3815 25.0672 18.503 25.028 18.6155 24.9568C18.7298 24.8944 18.8227 24.8106 18.8906 24.7037C18.9781 24.6093 19.0353 24.4988 19.0656 24.3705L19.1014 24.1103C19.1014 23.9339 19.0567 23.7681 18.9674 23.6149C18.9156 23.5489 18.8656 23.483 18.8138 23.4171C18.6905 23.2959 18.5458 23.2121 18.3797 23.1658C18.3261 23.1587 18.2726 23.1515 18.219 23.1426C18.0886 23.1016 17.9582 23.0963 17.8278 23.1248C17.6974 23.1302 17.5759 23.1694 17.4634 23.2406C17.3491 23.303 17.2562 23.3868 17.1883 23.4937C17.1008 23.5881 17.0436 23.6986 17.0133 23.8269C17.0008 23.9143 16.99 23.9998 16.9775 24.0871C16.9775 24.2635 17.0222 24.4293 17.1115 24.5825C17.1633 24.6485 17.2133 24.7144 17.2651 24.7803C17.3884 24.9015 17.5331 24.9853 17.6992 25.0316Z" fill="var(--fill-0, #101841)"/>
<path id="Vector_24" d="M29.5234 40.1255C29.2626 41.0682 29.0018 42.0127 28.741 42.9554C28.4052 44.1725 30.3004 44.6929 30.6362 43.4758L31.4186 40.6459C31.7544 39.4287 29.8592 38.9084 29.5234 40.1255Z" fill="var(--fill-0, #101841)"/>
<path id="Vector_25" d="M28.2035 44.0496C32.6423 46.8616 37.0811 49.6737 41.5181 52.4858C42.588 53.1647 43.5758 51.4682 42.5094 50.7928C38.0707 47.9808 33.6319 45.1687 29.1949 42.3566C28.1249 41.6776 27.1372 43.3742 28.2035 44.0496Z" fill="var(--fill-0, #101841)"/>
<path id="Vector_26" d="M27.9208 43.1711C27.1402 45.183 26.2739 47.1575 25.3272 49.0982C25.095 49.574 25.1968 50.1585 25.6791 50.4401C26.1113 50.6913 26.7901 50.5666 27.0223 50.089C28.0423 47.9969 28.9729 45.862 29.8142 43.6932C30.0053 43.1996 29.6034 42.6169 29.1283 42.4868C28.5728 42.3353 28.1119 42.6757 27.919 43.1711H27.9208Z" fill="var(--fill-0, #101841)"/>
<path id="Vector_27" d="M25.5948 50.269C30.3908 53.1524 34.7974 56.6256 38.7218 60.6103C39.6095 61.512 40.9992 60.1256 40.1114 59.2238C36.0764 55.1269 31.5197 51.5414 26.5879 48.5761C25.5019 47.9239 24.5141 49.6168 25.5966 50.269H25.5948Z" fill="var(--fill-0, #101841)"/>
<path id="Vector_28" d="M41.6936 51.6286C40.704 54.4372 39.7127 57.2474 38.7231 60.056C38.5462 60.5549 38.9231 61.1288 39.409 61.2624C39.952 61.4103 40.4414 61.0789 40.6183 60.5781C41.6078 57.7696 42.5992 54.9593 43.5888 52.1508C43.7656 51.6518 43.3887 51.078 42.9029 50.9443C42.3598 50.7964 41.8704 51.1279 41.6936 51.6286Z" fill="var(--fill-0, #101841)"/>
<path id="Vector_29" d="M25.4494 49.7414C19.3388 53.3928 13.2299 57.0425 7.1192 60.6939C6.03496 61.3408 7.02274 63.0373 8.11056 62.3869C14.2212 58.7354 20.3301 55.0858 26.4408 51.4344C27.525 50.7875 26.5372 49.091 25.4494 49.7414Z" fill="var(--fill-0, #101841)"/>
<path id="Vector_30" d="M41.421 84.8764C43.9753 87.6279 47.4298 89.5311 51.1309 90.194C51.6525 90.2867 52.1901 90.0532 52.3402 89.5097C52.4706 89.0357 52.1794 88.3977 51.6543 88.3033C48.2551 87.6938 45.1595 86.0187 42.8107 83.4899C41.9497 82.5615 40.5636 83.9515 41.421 84.8764Z" fill="var(--fill-0, #101841)"/>
<path id="Vector_31" d="M9.39379 65.1009C10.4673 65.8637 11.4229 66.7761 12.2678 67.7829C12.609 68.1892 13.3056 68.134 13.6575 67.7829C14.0612 67.3802 13.9987 66.8046 13.6575 66.3965C12.7001 65.2578 11.598 64.2705 10.3852 63.408C9.95288 63.0997 9.29198 63.3314 9.04012 63.7591C8.75075 64.2509 8.95974 64.7909 9.39201 65.1009H9.39379Z" fill="var(--fill-0, #101841)"/>
<path id="Vector_32" d="M50.9219 40.7582C52.5598 40.6192 54.196 40.482 55.834 40.343C56.3627 40.2985 56.8164 39.9242 56.8164 39.3629C56.8164 38.8675 56.3663 38.3382 55.834 38.3828C54.196 38.5218 52.5598 38.659 50.9219 38.798C50.3932 38.8425 49.9395 39.2168 49.9395 39.7781C49.9395 40.2735 50.3896 40.8028 50.9219 40.7582Z" fill="var(--fill-0, #101841)"/>
<path id="Vector_33" d="M49.5763 39.9581C49.6442 41.1289 49.9782 42.2623 50.7624 43.1605C51.4608 43.9606 52.5915 44.4738 53.6596 44.3776C55.8942 44.178 56.7409 42.0021 57.1088 40.0936C57.2089 39.575 56.9624 39.0368 56.4229 38.8871C55.9424 38.7552 55.3155 39.0493 55.2137 39.5714C55.0976 40.1773 54.9547 40.8688 54.7046 41.3909C54.4599 41.9023 54.1759 42.3069 53.6507 42.4102C52.3146 42.6757 51.6037 41.0648 51.5394 39.9581C51.509 39.4289 51.1089 38.978 50.557 38.978C50.0479 38.978 49.5442 39.4271 49.5745 39.9581H49.5763Z" fill="var(--fill-0, #101841)"/>
<path id="Vector_34" d="M49.8412 66.2201C52.3723 62.2925 53.6262 57.7536 55.4142 53.4785C55.8376 52.468 56.3002 51.4719 56.8164 50.506C57.0772 50.0195 57.3505 49.5383 57.6435 49.0697C57.8846 48.6812 58.14 48.2464 58.5169 47.9666C58.7652 47.783 58.9867 47.7492 59.1492 47.8579C59.469 48.0682 59.6119 48.4994 59.6029 48.8754C59.5887 49.435 59.4011 49.9643 59.2064 50.4846C58.9724 51.1083 58.7259 51.7285 58.4866 52.3504C57.3934 55.1768 56.3002 58.0031 55.207 60.8294C55.0159 61.323 55.4178 61.904 55.893 62.0359C56.4485 62.1873 56.9093 61.847 57.1022 61.3516C58.1633 58.6072 59.2243 55.8646 60.2853 53.1203C60.789 51.8158 61.491 50.4561 61.5642 49.0376C61.6303 47.7634 60.9426 46.4287 59.7012 45.976C58.3633 45.4895 57.179 46.3663 56.4145 47.3856C55.6804 48.3658 55.107 49.4956 54.5729 50.5933C53.4565 52.8957 52.5956 55.3068 51.6935 57.6966C50.7111 60.3019 49.6573 62.8841 48.1443 65.2329C47.4584 66.2968 49.1589 67.2804 49.8412 66.2219V66.2201Z" fill="var(--fill-0, #101841)"/>
<path id="Vector_35" d="M42.3742 52.8886C43.4727 54.4158 44.5712 55.9448 45.6698 57.4721C45.9788 57.9015 46.5254 58.1082 47.013 57.8231C47.4381 57.5754 47.6757 56.9143 47.3649 56.4812C46.2664 54.954 45.1678 53.425 44.0693 51.8978C43.7603 51.4683 43.2137 51.2616 42.7261 51.5467C42.3009 51.7944 42.0634 52.4556 42.3742 52.8886Z" fill="var(--fill-0, #101841)"/>
<path id="Vector_36" d="M47.611 57.8569C48.7685 56.3671 49.851 54.8274 50.837 53.22C51.4996 52.1419 49.8009 51.1546 49.14 52.231C48.2434 53.694 47.2752 55.1161 46.2214 56.4705C45.8963 56.8893 45.8123 57.4488 46.2214 57.8569C46.5607 58.1955 47.2842 58.2775 47.611 57.8569Z" fill="var(--fill-0, #101841)"/>
<path id="Vector_37" d="M49.8703 52.8333C50.1133 54.07 50.3544 55.305 50.5973 56.5418C50.6992 57.0621 51.3225 57.3597 51.8066 57.2261C52.3514 57.0764 52.5943 56.5418 52.4925 56.0196C52.2496 54.7829 52.0085 53.5479 51.7655 52.3112C51.6637 51.7908 51.0403 51.4932 50.5563 51.6269C50.0115 51.7766 49.7685 52.3112 49.8703 52.8333Z" fill="var(--fill-0, #101841)"/>
<path id="Vector_38" d="M50.2134 49.2711C49.8133 50.2084 49.4114 51.1476 49.0112 52.0849C48.804 52.5714 48.8648 53.1345 49.3631 53.425C49.7757 53.6656 50.4974 53.5622 50.7082 53.074L51.9103 50.2601C52.1175 49.7736 52.0567 49.2105 51.5584 48.9182C51.1458 48.6776 50.4241 48.781 50.2134 49.2693V49.2711Z" fill="var(--fill-0, #101841)"/>
<path id="Vector_39" d="M60.7547 58.2008C63.1054 58.9332 65.4186 60.0185 67.1066 61.8575C68.7928 63.6966 69.593 66.1986 70.5022 68.469C72.7492 74.0824 74.9892 79.6977 77.2077 85.3218C79.4083 90.9032 81.5875 96.4935 83.7256 102.1C84.2632 103.508 84.7955 104.917 85.3278 106.327C85.8137 107.613 86.3424 108.888 86.7265 110.21C87.0819 111.432 87.2998 112.699 87.148 113.974C86.989 115.307 86.3835 116.579 85.7905 117.768C84.524 120.305 83.1022 122.786 81.6875 125.243C80.2639 127.715 78.7653 130.146 77.1058 132.468C76.7361 132.985 76.3628 133.498 75.9662 133.995C75.6358 134.408 75.5608 134.977 75.9662 135.381C76.3074 135.722 77.0237 135.798 77.3559 135.381C81.0034 130.798 83.7935 125.584 86.5889 120.46C87.9732 117.923 89.3969 115.23 89.1164 112.25C88.8449 109.374 87.5445 106.657 86.5318 103.982C84.3329 98.1793 82.0876 92.3948 79.8173 86.6209C77.5506 80.8578 75.2571 75.1035 72.9564 69.3528C72.4081 67.9807 71.8722 66.6031 71.3024 65.2399C70.8005 64.0388 70.2628 62.8466 69.5215 61.772C67.9479 59.4928 65.6436 57.9905 63.1054 56.9605C62.5052 56.7163 61.8926 56.5043 61.2745 56.3118C60.0653 55.934 59.5473 57.8265 60.753 58.2026L60.7547 58.2008Z" fill="var(--fill-0, #101841)"/>
<path id="Vector_40" d="M68.5206 84.0691C67.6221 90.6324 66.9505 97.2224 66.4182 103.823C65.8912 110.378 65.4929 116.941 65.1125 123.504C64.8963 127.225 64.6873 130.948 64.4623 134.669C64.4301 135.198 64.9374 135.649 65.4447 135.649C66.0038 135.649 66.395 135.2 66.4271 134.669C66.8219 128.114 67.172 121.558 67.5882 115.006C68.0026 108.483 68.4813 101.963 69.1368 95.4582C69.503 91.8282 69.921 88.2035 70.4158 84.5895C70.4872 84.0655 70.2889 83.5363 69.7298 83.383C69.2708 83.2583 68.5938 83.5398 68.5206 84.0673V84.0691Z" fill="var(--fill-0, #101841)"/>
<path id="Vector_41" d="M40.0937 84.552C39.172 86.1131 38.2503 87.676 37.3304 89.237C36.6874 90.3259 38.3861 91.3149 39.0273 90.2261C39.949 88.665 40.8707 87.1021 41.7906 85.5411C42.4336 84.4522 40.7349 83.4632 40.0937 84.552Z" fill="var(--fill-0, #101841)"/>
<path id="Vector_42" d="M37.7303 90.0816C40.2399 92.9543 44.0142 94.6205 47.8278 94.5884C49.0907 94.5777 49.0943 92.6175 47.8278 92.6282C44.4947 92.6549 41.3063 91.1972 39.1182 88.6952C38.7699 88.296 38.0857 88.3388 37.7285 88.6952C37.332 89.0908 37.3784 89.6807 37.7285 90.0816H37.7303Z" fill="var(--fill-0, #101841)"/>
<path id="Vector_43" d="M51.0248 89.5239C50.3817 90.7108 49.7387 91.8994 49.0939 93.0863C48.4919 94.1965 50.1888 95.1873 50.7908 94.0753C51.4338 92.8884 52.0769 91.6998 52.7217 90.513C53.3236 89.4028 51.6267 88.4119 51.0248 89.5239Z" fill="var(--fill-0, #101841)"/>
<path id="Vector_44" d="M35.3778 89.7556C33.1307 91.8763 30.8837 93.9969 28.6366 96.1175C26.5681 98.0707 24.3621 99.9614 22.7885 102.357C22.0936 103.415 23.7941 104.399 24.4854 103.346C25.9894 101.056 28.1757 99.2486 30.1531 97.3828C32.3573 95.3032 34.5615 93.2235 36.7657 91.1421C37.6856 90.2742 36.2959 88.8896 35.376 89.7556H35.3778Z" fill="var(--fill-0, #101841)"/>
<path id="Vector_45" d="M45.8352 99.801C44.8724 103.504 43.5024 107.077 41.8251 110.515C40.9999 112.206 40.0907 113.851 39.1869 115.503C38.4081 116.925 37.6543 118.363 36.8112 119.748C35.1571 122.465 33.0297 124.937 30.1825 126.459C27.4335 127.929 24.1093 128.344 21.062 127.736C17.9201 127.109 15.1157 125.468 13.2562 122.836C11.261 120.011 10.2232 116.67 9.12827 113.43C6.4918 105.625 4.0411 97.7089 2.74609 89.556C2.13698 85.7193 1.82261 81.8308 2.02445 77.946C2.22094 74.168 2.93543 70.4328 4.16792 66.8545C4.49123 65.9171 4.84847 64.994 5.2343 64.0816C5.42185 63.6379 5.06818 63.0872 4.66628 62.9251C4.2608 62.7629 3.63205 62.8716 3.43914 63.326C1.84047 67.1075 0.777666 71.0405 0.298958 75.1179C-0.167247 79.0794 -0.0600732 83.089 0.42578 87.0451C1.47072 95.5509 3.86426 103.812 6.5561 111.928C7.72787 115.458 8.79067 119.142 10.6483 122.39C11.5022 123.882 12.5578 125.299 13.8618 126.428C15.2032 127.589 16.7644 128.446 18.4309 129.044C21.6961 130.217 25.4204 130.271 28.7178 129.196C32.0634 128.105 34.8303 125.83 36.9398 123.059C37.9472 121.735 38.7957 120.298 39.5995 118.846C40.4676 117.279 41.3339 115.709 42.1788 114.131C44.049 110.627 45.6869 106.988 46.898 103.205C47.2034 102.253 47.4785 101.293 47.7304 100.325C48.0483 99.1025 46.1531 98.5821 45.8352 99.8046V99.801Z" fill="var(--fill-0, #101841)"/>
<path id="Vector_46" d="M48.3062 97.9156C49.5709 97.9156 49.5727 95.9554 48.3062 95.9554C47.0398 95.9554 47.0398 97.9156 48.3062 97.9156Z" fill="var(--fill-0, #101841)"/>
<path id="Vector_47" d="M21.7955 106.731C23.0602 106.731 23.062 104.771 21.7955 104.771C20.5291 104.771 20.5291 106.731 21.7955 106.731Z" fill="var(--fill-0, #101841)"/>
<path id="Vector_48" d="M10.5158 123.631C10.339 127.278 10.1621 130.928 9.98528 134.576C9.96028 135.105 10.4551 135.556 10.9677 135.556C11.5214 135.556 11.9251 135.107 11.9501 134.576C12.127 130.928 12.3038 127.278 12.4806 123.631C12.5056 123.101 12.0109 122.65 11.4982 122.65C10.9445 122.65 10.5408 123.099 10.5158 123.631Z" fill="var(--fill-0, #101841)"/>
</g>
</svg>
