<svg preserveAspectRatio="none" width="100%" height="100%" overflow="visible" style="display: block;" viewBox="0 0 105.134 9.91383" fill="none" xmlns="http://www.w3.org/2000/svg">
<g id="Group">
<path id="Vector" d="M1.0945 1.9709C0.364834 2.84014 0 3.83096 0 4.93821C0 6.17739 0.434206 7.23548 1.30519 8.10989C2.1813 8.98172 3.23727 9.41375 4.47309 9.41375C5.29268 9.41375 6.07888 9.19903 6.82653 8.77476V7.18891C6.61071 7.37259 6.40774 7.52523 6.21761 7.65199C6.02492 7.78134 5.83993 7.88224 5.66522 7.95726C5.3415 8.10731 4.95097 8.18233 4.49107 8.18233C3.6021 8.18233 2.85188 7.8693 2.23783 7.23807C1.62378 6.61201 1.3206 5.84108 1.3206 4.92786C1.3206 4.01464 1.62378 3.22043 2.23783 2.58144C2.84931 1.93986 3.59697 1.61389 4.4885 1.61389C5.29268 1.61389 6.07374 1.93209 6.8291 2.57109V1.0137C6.102 0.58943 5.35434 0.379883 4.57586 0.379883C3.15248 0.379883 1.99118 0.912808 1.09708 1.97348L1.0945 1.9709Z" fill="var(--fill-0, white)"/>
<path id="Vector_2" d="M12.5842 0.38247C11.3356 0.38247 10.2693 0.819675 9.37781 1.70443C8.4837 2.58143 8.03665 3.63435 8.03665 4.85801C8.03665 6.25241 8.52995 7.38294 9.50884 8.24442C10.3952 9.02311 11.3972 9.41375 12.5174 9.41375C13.7815 9.41375 14.858 8.97396 15.747 8.09696C16.6385 7.22513 17.0805 6.16187 17.0805 4.90975C17.0805 3.65764 16.6437 2.59696 15.7599 1.70702C14.8786 0.822262 13.8149 0.379883 12.5868 0.379883L12.5842 0.38247ZM14.8323 7.23807C14.208 7.8693 13.4424 8.18492 12.5354 8.18492C11.6953 8.18492 10.9605 7.87706 10.3207 7.25618C9.67841 6.63529 9.35725 5.84367 9.35725 4.88129C9.35725 3.91892 9.66813 3.19197 10.2873 2.5685C10.9091 1.93468 11.6645 1.61648 12.5663 1.61648C13.4681 1.61648 14.2337 1.93468 14.8401 2.5685C15.4541 3.19715 15.765 3.97325 15.765 4.90716C15.765 5.84108 15.4541 6.60166 14.8323 7.24065V7.23807Z" fill="var(--fill-0, white)"/>
<path id="Vector_3" d="M19.3877 1.9709C18.6529 2.84014 18.2932 3.83096 18.2932 4.93821C18.2932 6.17739 18.7248 7.23548 19.6009 8.10989C20.4693 8.98172 21.5201 9.41375 22.7611 9.41375C23.5884 9.41375 24.3618 9.19903 25.1197 8.77476V7.18891C24.9039 7.37259 24.6958 7.52523 24.5031 7.65199C24.3104 7.78134 24.1228 7.88224 23.9507 7.95726C23.6269 8.10731 23.2364 8.18233 22.7791 8.18233C21.8927 8.18233 21.1348 7.8693 20.5258 7.23807C19.9144 6.61201 19.606 5.84108 19.606 4.92786C19.606 4.01464 19.9144 3.22043 20.5258 2.58144C21.1322 1.93986 21.8773 1.61389 22.7765 1.61389C23.5704 1.61389 24.3566 1.93209 25.1171 2.57109V1.0137C24.3823 0.58943 23.6372 0.379883 22.8562 0.379883C21.4405 0.379883 20.2741 0.912808 19.3851 1.97348L19.3877 1.9709Z" fill="var(--fill-0, white)"/>
<path id="Vector_4" d="M30.8748 0.38247C29.6313 0.38247 28.5599 0.819675 27.6735 1.70443C26.7717 2.58143 26.3349 3.63435 26.3349 4.85801C26.3349 6.25241 26.818 7.38294 27.7968 8.24442C28.6832 9.02311 29.6853 9.41375 30.8054 9.41375C32.0695 9.41375 33.146 8.97396 34.0479 8.09696C34.9343 7.22513 35.3839 6.16187 35.3839 4.90975C35.3839 3.65764 34.9343 2.59696 34.0504 1.70702C33.1692 0.822262 32.1158 0.379883 30.8774 0.379883L30.8748 0.38247ZM33.1229 7.23807C32.5012 7.8693 31.7355 8.18492 30.8286 8.18492C29.9936 8.18492 29.2536 7.87706 28.6113 7.25618C27.969 6.63529 27.653 5.84367 27.653 4.88129C27.653 3.91892 27.9638 3.19197 28.583 2.5685C29.2048 1.93468 29.9653 1.61648 30.8543 1.61648C31.7432 1.61648 32.5217 1.93468 33.1409 2.5685C33.7447 3.19715 34.0556 3.97325 34.0556 4.90716C34.0556 5.84108 33.7447 6.60166 33.1229 7.24065V7.23807Z" fill="var(--fill-0, white)"/>
<path id="Vector_5" d="M43.3871 6.58434L40.9977 0.548828H39.5667L43.3614 9.91383L47.241 0.548828H45.8177L43.3871 6.58434Z" fill="var(--fill-0, white)"/>
<path id="Vector_6" d="M49.6202 0.548828H48.3253V9.25932H49.6202V0.548828Z" fill="var(--fill-0, white)"/>
<path id="Vector_7" d="M53.009 0.548828H51.6987V9.25673H55.55V8.02272H53.009V0.548828Z" fill="var(--fill-0, white)"/>
<path id="Vector_8" d="M58.0936 0.548828H56.791V9.25673H60.6423V8.02272H58.0936V0.548828Z" fill="var(--fill-0, white)"/>
<path id="Vector_9" d="M60.8864 9.25635H62.2943L63.2552 7.14017H66.9601L67.8671 9.25635H69.2956L65.1616 1.76632e-06L60.8838 9.25635H60.8864ZM63.7999 5.90616L65.1462 2.94144L66.4283 5.90616H63.7999Z" fill="var(--fill-0, white)"/>
<path id="Vector_10" d="M78.2315 6.03581L77.5866 5.70985C77.3143 5.56756 77.2372 5.54169 77.1601 5.48995C77.0445 5.41234 76.9803 5.32179 76.9803 5.17692C76.9803 5.0605 77.0316 4.95702 77.0959 4.88976C77.1729 4.81215 77.3014 4.74747 77.4838 4.74747C77.8846 4.74747 78.1287 5.00876 78.2597 5.21573L79.2027 4.59225C79.0074 4.24042 78.7633 4.03346 78.5835 3.91704C78.2726 3.71008 77.9643 3.62988 77.5763 3.62988C76.9057 3.62988 76.4921 3.88859 76.2454 4.14987C75.9603 4.44997 75.7933 4.87683 75.7933 5.31921C75.7933 5.67104 75.896 5.96855 76.1812 6.24277C76.3867 6.44973 76.6848 6.59461 76.9289 6.71102L77.3939 6.93092C77.5994 7.02146 77.7819 7.11201 77.936 7.26982C78.0516 7.39917 78.103 7.53111 78.103 7.68633C78.103 7.84155 78.0259 8.01229 77.9232 8.11577C77.8075 8.23219 77.5994 8.29686 77.4067 8.29686C77.1087 8.29686 76.9289 8.16751 76.8518 8.0899C76.7362 7.98642 76.618 7.751 76.5538 7.56991L75.5209 8.06403C75.6494 8.45467 75.9089 8.83238 76.2172 9.06521C76.6051 9.3653 77.0445 9.41704 77.3913 9.41704C77.9591 9.41704 78.4884 9.27476 78.9149 8.80651C79.2129 8.48054 79.3928 8.0511 79.3928 7.55956C79.3928 7.18186 79.29 6.84555 78.992 6.54545C78.7864 6.32556 78.5141 6.18068 78.2289 6.0384L78.2315 6.03581Z" fill="var(--fill-0, white)"/>
<path id="Vector_11" d="M84.6341 4.41116C84.1176 3.73595 83.4214 3.62988 83.0206 3.62988C81.5869 3.62988 80.3742 4.7216 80.3742 6.50406C80.3742 8.01229 81.33 9.41704 83.0077 9.41704C83.3957 9.41704 84.0791 9.3265 84.6341 8.67716V9.24889H85.9007V3.77476H84.6341V4.41116ZM83.1747 8.27358C82.2575 8.27358 81.664 7.47937 81.664 6.53252C81.664 5.58567 82.2575 4.77852 83.1747 4.77852C83.9763 4.77852 84.7112 5.35025 84.7112 6.54545C84.7112 7.74066 83.9763 8.27358 83.1747 8.27358Z" fill="var(--fill-0, white)"/>
<path id="Vector_12" d="M90.8851 6.90734C90.8851 7.2333 90.8722 7.60842 90.6513 7.89558C90.4843 8.11548 90.1862 8.27329 89.824 8.27329C89.4617 8.27329 89.1662 8.11806 88.9967 7.89558C88.7783 7.60842 88.7629 7.2333 88.7629 6.90734V3.77446H87.4988V6.94614C87.4988 7.64723 87.5759 8.23448 88.0794 8.74154C88.5702 9.24859 89.2408 9.41675 89.7957 9.41675C90.4021 9.41675 91.0752 9.23566 91.5659 8.74154C92.0695 8.23448 92.1466 7.64981 92.1466 6.94614V3.77446H90.8825V6.90734H90.8851Z" fill="var(--fill-0, white)"/>
<path id="Vector_13" d="M96.4784 3.62988C96.1675 3.62988 95.5483 3.66869 95.0062 4.27922V3.77217H93.7421V9.2463H95.0062V6.62047C95.0062 4.85095 95.5868 4.77334 96.1546 4.77334C96.6325 4.77334 97.1489 4.81215 97.1489 6.20397V9.2463H98.4156V5.89094C98.4156 5.04498 98.2871 4.66986 98.079 4.36977C97.912 4.13435 97.4855 3.62988 96.4784 3.62988Z" fill="var(--fill-0, white)"/>
<path id="Vector_14" d="M103.868 3.77476V4.41116C103.351 3.73595 102.655 3.62988 102.254 3.62988C100.82 3.62988 99.6077 4.7216 99.6077 6.50406C99.6077 8.01229 100.563 9.41704 102.241 9.41704C102.629 9.41704 103.313 9.3265 103.868 8.67716V9.24889H105.134V3.77476H103.868ZM102.408 8.27358C101.491 8.27358 100.897 7.47937 100.897 6.53252C100.897 5.58567 101.491 4.77852 102.408 4.77852C103.21 4.77852 103.945 5.35025 103.945 6.54545C103.945 7.74066 103.21 8.27358 102.408 8.27358Z" fill="var(--fill-0, white)"/>
</g>
</svg>
