<svg preserveAspectRatio="none" width="100%" height="100%" overflow="visible" style="display: block;" viewBox="0 0 152.992 138.002" fill="none" xmlns="http://www.w3.org/2000/svg">
<g id="Group">
<g id="Group_2">
<path id="Vector" d="M57.1605 27.5184C57.5354 30.7235 57.8617 33.9348 58.4139 37.1163C59.0429 40.7386 59.9323 44.3594 61.5072 47.6962C62.9048 50.6565 65.0397 53.496 68.1205 54.8294C69.7801 55.548 71.5824 55.8319 73.3863 55.7001C75.6514 55.5354 77.7487 54.6851 79.6749 53.5085C81.8255 52.1939 83.7784 50.5278 85.5055 48.6955C87.1259 46.9761 88.627 45.0669 89.7282 42.9694C89.9761 42.4972 90.1925 42.0125 90.3964 41.5199C90.6145 40.9959 90.1612 40.3637 89.6623 40.2272C89.0584 40.0609 88.5878 40.4343 88.3698 40.9614C88.4671 40.726 88.3274 41.0571 88.307 41.1026C88.2584 41.2092 88.2098 41.3159 88.158 41.4226C88.0529 41.6422 87.9416 41.8587 87.8255 42.0736C87.5792 42.5317 87.311 42.9788 87.0286 43.415C86.7259 43.8825 86.4075 44.339 86.0749 44.7861C85.8177 45.1312 85.4757 45.5595 85.1118 45.9893C84.3369 46.9024 83.5102 47.7715 82.6365 48.5888C82.1894 49.0077 81.7298 49.414 81.2577 49.8046C80.773 50.2062 80.4702 50.44 79.9447 50.8134C79.024 51.4691 78.0577 52.0652 77.0397 52.5578C76.5048 52.8167 76.3197 52.8983 75.7252 53.1022C75.253 53.2638 74.7714 53.3972 74.282 53.4897C74.1785 53.5085 74.075 53.5258 73.9714 53.543C73.7691 53.5776 73.9479 53.5462 73.9871 53.5415C73.9291 53.5478 73.871 53.5556 73.813 53.5603C73.5871 53.5838 73.3597 53.6027 73.1322 53.6152C72.7009 53.6372 72.2663 53.6372 71.835 53.6105C71.6279 53.598 71.424 53.5744 71.2169 53.554C71.0209 53.5352 71.4287 53.5901 71.1573 53.5446C71.046 53.5258 70.9362 53.5085 70.8248 53.4866C70.442 53.4128 70.064 53.3171 69.6938 53.1963C69.5244 53.1414 69.3566 53.0818 69.1903 53.0159C69.0852 52.9751 68.9581 52.9155 69.1464 53.0002C69.0507 52.9563 68.9534 52.9155 68.8577 52.87C68.5205 52.71 68.1926 52.5312 67.8774 52.3319C67.7299 52.2394 67.584 52.1421 67.4413 52.0417C67.3644 51.9884 67.2907 51.9319 67.2154 51.877C67.1683 51.8441 67.0632 51.7531 67.2609 51.9131C67.2154 51.877 67.1699 51.8409 67.1244 51.8033C66.8405 51.5742 66.5691 51.3295 66.3103 51.0738C66.0374 50.8055 65.7785 50.5231 65.5323 50.2298C65.4695 50.156 65.4083 50.0807 65.3472 50.0054C65.3158 49.9678 65.1605 49.767 65.2483 49.8815C65.3425 50.0054 65.1527 49.7529 65.1307 49.723C65.0648 49.6336 65.0005 49.5442 64.9362 49.4532C64.4766 48.8006 64.0687 48.1135 63.7001 47.4044C63.5072 47.0326 63.3237 46.6545 63.1511 46.2733C63.0695 46.0913 62.9895 45.9093 62.9111 45.7242C63.0178 45.9736 62.8829 45.6536 62.8625 45.6034C62.817 45.4905 62.7715 45.3791 62.7276 45.2661C62.4123 44.4629 62.1346 43.6456 61.8821 42.8188C61.366 41.123 60.966 39.3941 60.635 37.6544C60.4735 36.8072 60.3292 35.9569 60.1974 35.1051C60.1331 34.6846 60.0703 34.2626 60.0107 33.8422C59.9841 33.6492 59.9574 33.4547 59.9307 33.2602C59.9103 33.1096 59.9558 33.4594 59.937 33.3088C59.9307 33.257 59.9229 33.2068 59.9166 33.1566C59.9009 33.0421 59.8868 32.9292 59.8727 32.8147C59.686 31.3651 59.5276 29.9108 59.3645 28.4581C59.3299 28.1428 59.2939 27.829 59.2562 27.5137C59.1903 26.9505 58.8201 26.4626 58.2052 26.4626C57.6876 26.4626 57.0884 26.9458 57.1543 27.5137L57.1605 27.5184Z" fill="var(--fill-0, #101841)"/>
<path id="Vector_2" d="M91.3827 30.9401C91.5678 30.9009 91.7545 30.8679 91.9411 30.8381C91.7309 30.8711 91.9803 30.835 92.0572 30.8271C92.156 30.8177 92.2533 30.8099 92.3521 30.8052C92.5105 30.7973 92.6705 30.7942 92.8305 30.7989C92.9058 30.8005 92.9811 30.8052 93.0564 30.8099C93.1756 30.8177 93.3748 30.8601 93.1364 30.8114C93.4219 30.8695 93.6901 30.9338 93.9662 31.0264C94.1419 31.086 93.7843 30.926 93.9411 31.0169C93.9929 31.0468 94.0494 31.0703 94.1011 31.0985C94.2109 31.1581 94.3129 31.2476 94.4243 31.3009C94.4494 31.3134 94.2486 31.1456 94.4148 31.2962C94.4572 31.3338 94.5011 31.3715 94.5419 31.4107C94.6297 31.4954 94.7019 31.6021 94.7929 31.6821C94.8368 31.7213 94.658 31.4844 94.7678 31.6507C94.8054 31.7056 94.8431 31.7606 94.8792 31.817C94.9466 31.9237 95.0062 32.0335 95.0627 32.1449C95.0878 32.1967 95.1082 32.2532 95.138 32.3049C95.1678 32.3583 95.0564 32.0806 95.1223 32.2735C95.1678 32.4085 95.2164 32.5402 95.2541 32.6767C95.287 32.7975 95.3168 32.9183 95.3419 33.0407C95.3544 33.1034 95.367 33.1646 95.3764 33.2274C95.3843 33.2697 95.3874 33.3121 95.3968 33.3544C95.425 33.4894 95.3764 33.1301 95.3858 33.2682C95.425 33.8502 95.4517 34.4181 95.3984 35.0017C95.3905 35.0848 95.3811 35.1664 95.3733 35.2495C95.3513 35.4676 95.3858 35.1884 95.3733 35.2542C95.3466 35.408 95.3262 35.5633 95.298 35.717C95.2415 36.0277 95.1709 36.3367 95.0909 36.6426C95.0094 36.9485 94.9184 37.2529 94.8148 37.5525C94.7678 37.6906 94.7176 37.8271 94.6658 37.962C94.6407 38.0294 94.6141 38.0969 94.5874 38.1643C94.5701 38.2083 94.5497 38.2522 94.5325 38.2977C94.5545 38.2412 94.6109 38.1204 94.5545 38.2444C94.3129 38.7762 94.0541 39.297 93.7388 39.7896C93.6525 39.9245 93.5631 40.0563 93.469 40.1865C93.4423 40.2226 93.298 40.4156 93.4031 40.2791C93.5082 40.1426 93.3623 40.3277 93.3341 40.3622C93.0282 40.7325 92.6831 41.0776 92.3113 41.3819C91.5443 42.0126 90.3427 42.5444 89.3655 42.1161C88.8462 41.8887 88.2376 41.964 87.927 42.4926C87.6666 42.9382 87.7812 43.7006 88.3035 43.9312C90.7976 45.0278 93.3733 43.6833 94.9513 41.6847C95.8533 40.5426 96.4901 39.2186 96.9309 37.8365C97.7152 35.3782 98.0948 31.8343 95.985 29.889C94.5733 28.5853 92.6078 28.543 90.8211 28.9132C90.2659 29.0293 89.9443 29.6835 90.087 30.2059C90.2455 30.7832 90.8227 31.0562 91.3796 30.9401H91.3827Z" fill="var(--fill-0, #101841)"/>
<path id="Vector_3" d="M80.8573 22.1139C82.0133 23.6796 83.0157 25.3487 83.8518 27.1058C84.0965 27.6188 84.829 27.7521 85.2902 27.4823C85.8141 27.1764 85.9129 26.5583 85.6667 26.0437C84.8306 24.2867 83.8282 22.6175 82.6722 21.0518C82.3349 20.5953 81.7608 20.3663 81.2337 20.6753C80.7835 20.9389 80.5169 21.6543 80.8573 22.1139Z" fill="var(--fill-0, #101841)"/>
<path id="Vector_4" d="M85.0958 29.2597C86.0307 30.3688 87.0707 31.3791 88.2064 32.2827C88.6503 32.6357 89.2589 32.7157 89.6934 32.2827C90.0589 31.9172 90.1405 31.1516 89.6934 30.7955C88.5577 29.8919 87.5177 28.8832 86.5813 27.7725C86.2158 27.3379 85.4723 27.3944 85.0942 27.7725C84.6644 28.2023 84.7272 28.8235 85.0942 29.2597H85.0958Z" fill="var(--fill-0, #101841)"/>
<path id="Vector_5" d="M68.4059 30.9084C68.6255 31.1249 68.6726 31.1751 68.7949 31.3633C68.8718 31.481 68.9424 31.6033 69.0051 31.7288C69.0082 31.7367 69.1306 32.0285 69.0679 31.8606C69.1526 32.0881 69.22 32.3234 69.2655 32.5619C69.2796 32.6309 69.2906 32.6999 69.3016 32.7689C69.2859 32.6638 69.2859 32.6748 69.3016 32.8035C69.3063 32.9086 69.3157 33.0152 69.3188 33.1203C69.333 33.7039 69.2953 33.9393 69.1745 34.4397C69.0522 34.9401 68.8953 35.3606 68.7243 35.7041C68.1894 36.7772 67.1275 37.7498 67.7816 39.0362C68.0184 39.5022 68.4137 39.8097 68.8247 40.114C68.8953 40.1658 68.9659 40.2191 69.0381 40.2693C69.2028 40.3854 68.9455 40.1689 69.1353 40.3478C69.2075 40.4152 69.2796 40.4827 69.3471 40.5548C69.1526 40.3493 69.4239 40.7886 69.3251 40.5125C69.518 41.0459 70.0388 41.4051 70.6177 41.2467C71.1322 41.1055 71.5463 40.4905 71.3518 39.954C71.1306 39.3422 70.7478 38.9453 70.2396 38.5609C70.169 38.5076 70.0984 38.4558 70.0263 38.404C69.9886 38.3774 69.6984 38.1436 69.8898 38.3068C69.8051 38.2346 69.7267 38.1593 69.6467 38.084C69.4867 37.935 69.7879 38.2095 69.6279 38.0463C69.6781 38.1828 69.6859 38.1954 69.6514 38.0824C69.678 38.1405 69.6765 38.1954 69.6514 38.2487C69.62 38.1844 69.6969 38.1279 69.7329 38.0652C69.8804 37.8048 70.0765 37.5741 70.2333 37.3184C70.522 36.8494 70.751 36.3442 70.9439 35.8296C71.7502 33.6851 71.5871 31.1013 69.8929 29.4259C68.9298 28.4736 67.4428 29.9592 68.4059 30.9131V30.9084Z" fill="var(--fill-0, #101841)"/>
<path id="Vector_6" d="M78.2489 33.6097C79.601 33.6097 79.6042 31.5075 78.2489 31.5075C76.8936 31.5075 76.8936 33.6097 78.2489 33.6097Z" fill="var(--fill-0, #101841)"/>
<path id="Vector_7" d="M65.7264 33.8957C67.0785 33.8957 67.0816 31.7936 65.7264 31.7936C64.3711 31.7936 64.3711 33.8957 65.7264 33.8957Z" fill="var(--fill-0, #101841)"/>
<path id="Vector_8" d="M69.9396 45.8776C72.12 45.4556 74.3019 45.0321 76.4823 44.6101C77.0392 44.5018 77.3592 43.8335 77.2164 43.3174C77.0564 42.7338 76.4823 42.4749 75.9239 42.5832C73.7435 43.0052 71.5616 43.4288 69.3812 43.8508C68.8243 43.959 68.5043 44.6273 68.6471 45.1434C68.8071 45.727 69.3812 45.9859 69.9396 45.8776Z" fill="var(--fill-0, #101841)"/>
<path id="Vector_9" d="M68.4497 45.4903C68.9893 47.867 71.5508 49.4437 73.9147 48.9275C76.3226 48.402 77.8033 45.7774 77.3124 43.4383C77.1963 42.883 76.5422 42.5598 76.0198 42.7041C75.4441 42.8626 75.1696 43.4399 75.2857 43.9968C75.2888 44.0141 75.3265 44.3278 75.3139 44.1349C75.3218 44.24 75.3265 44.3451 75.3249 44.4502C75.3249 44.5553 75.3187 44.6604 75.3061 44.764C75.3249 44.6118 75.2983 44.7844 75.2841 44.8471C75.2434 45.0354 75.1885 45.2236 75.1163 45.4025C75.1822 45.2377 75.063 45.506 75.0473 45.5358C74.9987 45.6299 74.9453 45.7209 74.8888 45.8103C74.8888 45.8103 74.7053 46.077 74.8073 45.9421C74.743 46.0253 74.6708 46.1053 74.5987 46.1806C74.5375 46.2449 74.4747 46.3061 74.4104 46.3657C74.3712 46.4018 74.332 46.4363 74.2912 46.4708C74.3524 46.4269 74.354 46.4253 74.2959 46.4677C74.139 46.5822 73.9728 46.6763 73.8002 46.7642C73.5477 46.8928 73.9351 46.7406 73.6622 46.8159C73.5602 46.8442 73.4583 46.8724 73.3563 46.8991C73.1493 46.9556 73.4504 46.9116 73.2183 46.9226C73.1304 46.9273 73.0442 46.932 72.9563 46.932C72.8512 46.932 72.7461 46.9258 72.6426 46.9148C72.5344 46.9038 72.7398 46.9461 72.5594 46.8959C72.3555 46.8395 72.1516 46.7955 71.9555 46.7124C72.1187 46.7814 71.8253 46.6402 71.8238 46.6387C71.7297 46.5885 71.6387 46.5351 71.5508 46.4771C71.0159 46.1304 70.6363 45.6095 70.481 44.9303C70.3555 44.3765 69.7171 44.0502 69.1885 44.1961C68.6191 44.3529 68.3289 44.9334 68.4544 45.4887L68.4497 45.4903Z" fill="var(--fill-0, #101841)"/>
</g>
<path id="Vector_10" d="M69.4724 55.6453C70.7712 57.1403 71.3563 59.1076 71.201 61.0843C71.1555 61.6506 71.7155 62.1354 72.252 62.1354C72.8575 62.1354 73.2575 61.6522 73.303 61.0843C73.5022 58.5601 72.6096 56.0594 70.9595 54.1596C70.5877 53.7314 69.8551 53.7784 69.4724 54.1596C69.0473 54.5848 69.0991 55.217 69.4724 55.6468V55.6453Z" fill="var(--fill-0, #101841)"/>
<path id="Vector_11" d="M90.1593 46.0161C86.8009 49.8706 83.2072 53.5196 79.3986 56.9286C78.3209 57.8934 77.2245 58.8394 76.1139 59.7665C75.6198 60.1791 75.7468 61.1424 76.3272 61.4169C77.0739 61.7699 77.5178 62.0868 78.0605 62.639C78.6142 63.2022 78.9515 63.6838 79.3719 64.4149C80.1766 65.8173 80.644 67.1791 81.1601 68.751C81.3829 69.4303 82.3868 69.8711 82.917 69.2153L94.4667 54.919C94.8228 54.4782 94.8981 53.8632 94.4667 53.4318C94.0981 53.0631 93.3389 52.9878 92.9797 53.4318C89.1303 58.1977 85.2793 62.9622 81.4299 67.7281C82.015 67.8834 82.6017 68.0372 83.1868 68.1925C82.1154 64.9247 80.7178 61.1753 77.3892 59.6018C77.4597 60.1525 77.5303 60.7031 77.6025 61.2522C81.5272 57.9765 85.2511 54.4609 88.7413 50.7256C89.7295 49.6682 90.6973 48.5936 91.6479 47.5018C92.0212 47.0735 92.0683 46.4365 91.6479 46.0145C91.2667 45.6333 90.5358 45.5847 90.1609 46.0145L90.1593 46.0161Z" fill="var(--fill-0, #101841)"/>
<path id="Vector_12" d="M90.3255 47.5061C90.9326 49.0216 91.5381 50.537 92.1451 52.0541C92.3553 52.5812 92.8463 52.9514 93.4377 52.7882C93.9381 52.6502 94.3836 52.0258 94.1718 51.4956C93.5647 49.9801 92.9592 48.4647 92.3522 46.9477C92.142 46.4205 91.651 46.0503 91.0596 46.2135C90.5593 46.3515 90.1138 46.9759 90.3255 47.5061Z" fill="var(--fill-0, #101841)"/>
<path id="Vector_13" d="M71.9747 62.7332C73.5951 62.7081 75.2108 62.592 76.817 62.3834C77.3802 62.3097 77.868 61.952 77.868 61.3323C77.868 60.8209 77.3833 60.2075 76.817 60.2812C75.2108 60.4899 73.5951 60.6059 71.9747 60.631C70.6241 60.6514 70.6194 62.7536 71.9747 62.7332Z" fill="var(--fill-0, #101841)"/>
<path id="Vector_14" d="M76.9494 62.433C76.0662 66.3597 74.9509 70.2299 73.6082 74.0232C73.4184 74.5581 73.8231 75.1731 74.3423 75.3159C74.9227 75.4759 75.445 75.1182 75.6349 74.5817C76.9776 70.7883 78.0929 66.9182 78.976 62.9915C79.0999 62.4377 78.8082 61.8541 78.2419 61.6988C77.7133 61.5529 77.0748 61.8761 76.9494 62.433Z" fill="var(--fill-0, #101841)"/>
<path id="Vector_15" d="M69.9917 62.832C69.9023 66.5547 70.0889 70.279 70.5517 73.9735C70.6285 74.5916 70.9752 74.9509 71.6026 75.0246C72.5768 75.1392 73.5524 75.2521 74.5265 75.3666C75.0913 75.4325 75.5775 74.8364 75.5775 74.3155C75.5775 73.6927 75.0928 73.3303 74.5265 73.2645C73.5524 73.1499 72.5768 73.037 71.6026 72.9225C71.9524 73.2723 72.3038 73.6237 72.6536 73.9735C72.1909 70.279 72.0042 66.5547 72.0936 62.832C72.1077 62.2641 71.6011 61.7809 71.0426 61.7809C70.4842 61.7809 70.0058 62.2625 69.9917 62.832Z" fill="var(--fill-0, #101841)"/>
<path id="Vector_16" d="M69.8992 57.6625C69.4804 58.0061 69.0177 58.301 68.5408 58.5599C68.3039 58.6885 68.0561 58.814 67.8114 58.9176C67.5275 59.0368 67.1902 59.0995 66.9235 59.2564C66.5063 59.5011 66.4185 59.9608 66.282 60.3844C66.1832 60.6934 66.0828 61.0009 65.9824 61.3084C65.78 61.9234 65.5698 62.5368 65.3549 63.1486C64.5079 65.5551 63.5667 67.9287 62.5298 70.2599C62.1455 71.1243 62.773 71.9699 63.7173 71.8036C65.5306 71.4851 67.1808 70.6866 68.6255 69.5602C69.0741 69.2104 68.9926 68.4401 68.6255 68.073C68.1832 67.6306 67.5886 67.7232 67.1384 68.073C65.9824 68.9735 64.602 69.5226 63.1573 69.7751C63.5526 70.2897 63.9479 70.8043 64.3447 71.3188C65.9212 67.7734 67.3047 64.1448 68.4671 60.4424C68.2224 60.6872 67.9777 60.9319 67.733 61.1766C69.082 60.7264 70.2867 60.0471 71.3847 59.1482C71.8239 58.7889 71.758 58.0343 71.3847 57.661C70.9502 57.2264 70.3384 57.3001 69.8977 57.661L69.8992 57.6625Z" fill="var(--fill-0, #101841)"/>
<path id="Vector_17" d="M94.7085 53.2058C96.3194 53.8066 97.9837 54.1753 99.6904 54.3667C100.255 54.4294 100.741 53.838 100.741 53.3156C100.741 52.6944 100.257 52.3273 99.6904 52.2645C98.1783 52.0951 96.6912 51.7107 95.2669 51.1789C94.7351 50.9797 94.1155 51.4001 93.9744 51.9131C93.8128 52.5014 94.1751 53.0066 94.7085 53.2058Z" fill="var(--fill-0, #101841)"/>
<path id="Vector_18" d="M70.253 74.8344C68.3126 80.242 66.3723 85.6496 64.4319 91.0572C64.2405 91.5922 64.6483 92.2087 65.166 92.3499C65.7495 92.5099 66.2672 92.1523 66.4585 91.6157C68.3989 86.2081 70.3393 80.8005 72.2797 75.3929C72.471 74.8579 72.0632 74.2414 71.5456 74.1002C70.962 73.9402 70.4444 74.2979 70.253 74.8344Z" fill="var(--fill-0, #101841)"/>
<path id="Vector_19" d="M73.7236 76.157C74.2302 80.6689 74.4702 85.2058 74.4436 89.7459C74.4357 91.0982 76.5377 91.0998 76.5455 89.7459C76.5722 85.2058 76.3306 80.6689 75.8255 76.157C75.7628 75.5923 75.3879 75.106 74.7745 75.106C74.2553 75.106 73.6593 75.5891 73.7236 76.157Z" fill="var(--fill-0, #101841)"/>
<path id="Vector_20" d="M98.6184 54.7036C93.9973 61.0415 89.533 67.4924 85.235 74.0515C80.9354 80.6106 76.8005 87.2779 72.835 94.0441C70.6076 97.8437 68.435 101.675 66.3143 105.534C66.0413 106.031 66.1919 106.681 66.6907 106.973C67.1723 107.253 67.8547 107.095 68.1292 106.596C71.9048 99.7216 75.8499 92.9413 79.9644 86.2629C84.0773 79.5846 88.3581 73.0098 92.8004 66.5464C95.2945 62.9162 97.8404 59.3221 100.435 55.7641C100.769 55.3045 100.513 54.5922 100.058 54.3255C99.5266 54.0149 98.9557 54.2424 98.62 54.7021L98.6184 54.7036Z" fill="var(--fill-0, #101841)"/>
<path id="Vector_21" d="M63.8509 63.7259C61.3991 65.7543 58.9474 67.7812 56.4956 69.8096C56.058 70.172 56.1207 70.9219 56.4956 71.2968C56.9286 71.7298 57.5434 71.6592 57.9827 71.2968C60.4344 69.2684 62.8862 67.2415 65.3379 65.2131C65.7756 64.8507 65.7128 64.1008 65.3379 63.7259C64.905 63.2929 64.2901 63.3635 63.8509 63.7259Z" fill="var(--fill-0, #101841)"/>
<path id="Vector_22" d="M56.4726 72.1139C56.184 73.7784 55.8404 75.4319 55.442 77.0744C55.3087 77.625 55.6177 78.2133 56.1761 78.3671C56.7126 78.5145 57.3353 78.1867 57.4687 77.6329C57.8671 75.9904 58.2106 74.3369 58.4992 72.6724C58.5965 72.1139 58.3502 71.5397 57.7651 71.3797C57.2585 71.2401 56.5698 71.5507 56.4726 72.1139Z" fill="var(--fill-0, #101841)"/>
<path id="Vector_23" d="M59.2795 78.5289C57.5007 80.2938 55.7219 82.0571 53.9431 83.822C52.9815 84.7758 54.467 86.2631 55.4301 85.3092C57.2089 83.5443 58.9877 81.781 60.7666 80.0161C61.7281 79.0623 60.2426 77.5751 59.2795 78.5289Z" fill="var(--fill-0, #101841)"/>
<path id="Vector_24" d="M54.1825 85.2011C55.4687 91.3397 56.7566 97.4784 58.0428 103.617C58.4067 105.357 58.7722 107.095 59.1362 108.835C59.2522 109.39 59.9063 109.713 60.4287 109.569C61.0044 109.411 61.2789 108.833 61.1628 108.276C59.8765 102.138 58.5887 95.999 57.3024 89.8603C56.9385 88.1206 56.573 86.3823 56.2091 84.6426C56.093 84.0872 55.4389 83.764 54.9166 83.9084C54.3409 84.0668 54.0664 84.6441 54.1825 85.2011Z" fill="var(--fill-0, #101841)"/>
<path id="Vector_25" d="M61.5193 81.6493C61.033 86.4953 61.124 91.3711 61.3656 96.2281C61.6056 101.051 61.9271 105.868 62.2158 110.688C62.3805 113.438 62.5452 116.186 62.7099 118.936C62.7444 119.503 63.1679 119.987 63.7608 119.987C64.3036 119.987 64.8463 119.506 64.8118 118.936L63.935 104.306C63.6463 99.4943 63.2997 94.6813 63.2699 89.8588C63.2526 87.1181 63.3467 84.3759 63.6212 81.6478C63.6777 81.0814 63.0973 80.5967 62.5703 80.5967C61.9554 80.5967 61.5758 81.0799 61.5193 81.6478V81.6493Z" fill="var(--fill-0, #101841)"/>
<path id="Vector_26" d="M69.4632 17.1285C70.2507 16.1355 71.2671 15.3527 72.3464 14.9134C73.6044 14.4004 74.7416 14.2577 76.0859 14.4239C76.6506 14.4945 77.1369 13.8906 77.1369 13.3729C77.1369 12.7469 76.6522 12.3924 76.0859 12.3218C73.0726 11.9468 69.8648 13.263 67.9777 15.6429C67.6248 16.0869 67.5432 16.6956 67.9777 17.1301C68.3432 17.4956 69.1087 17.5772 69.4648 17.1301L69.4632 17.1285Z" fill="var(--fill-0, #101841)"/>
<path id="Vector_27" d="M57.4626 22.357C57.2697 23.1116 57.2022 23.8881 57.3042 24.6615C57.3779 25.2247 57.734 25.7126 58.3551 25.7126C58.8649 25.7126 59.4814 25.2279 59.4061 24.6615C59.3277 24.067 59.3402 23.4959 59.4893 22.917C59.6289 22.368 59.3089 21.7765 58.7551 21.6244C58.214 21.4753 57.6038 21.8063 57.4626 22.3586V22.357Z" fill="var(--fill-0, #101841)"/>
<path id="Vector_28" d="M68.5124 4.63141C70.5501 3.10969 72.9987 2.36922 75.4552 2.17312C78.0434 1.96604 80.6457 2.159 83.1006 2.8728C84.4167 3.25558 85.6606 3.84231 86.6582 4.76319C87.0755 5.14754 87.7327 5.17578 88.1453 4.76319C88.5359 4.37256 88.5641 3.66347 88.1453 3.27598C85.9571 1.25381 83.0426 0.525891 80.1594 0.185464C77.3548 -0.14555 74.4293 -0.0733856 71.7062 0.731403C70.1862 1.18008 68.7242 1.86564 67.4521 2.81632C66.9972 3.15518 66.765 3.72622 67.0756 4.2549C67.3376 4.70201 68.056 4.97341 68.514 4.63141H68.5124Z" fill="var(--fill-0, #101841)"/>
<path id="Vector_29" d="M93.111 9.97487H93.2945C93.4388 9.97958 93.5737 9.94977 93.6992 9.88388C93.8294 9.84152 93.9423 9.76936 94.038 9.66582C94.14 9.57012 94.2137 9.45717 94.2561 9.32696C94.322 9.20146 94.3518 9.06654 94.3471 8.92221C94.3345 8.82966 94.322 8.73553 94.3094 8.64297C94.2592 8.46413 94.1698 8.31039 94.0396 8.17861C93.969 8.1237 93.8984 8.06879 93.8263 8.01389C93.6631 7.91819 93.4859 7.87113 93.2961 7.87113H93.1125C92.9682 7.86642 92.8333 7.89623 92.7078 7.96212C92.5776 8.00447 92.4647 8.07664 92.369 8.18018C92.2671 8.27587 92.1933 8.38883 92.151 8.51904C92.0851 8.64454 92.0553 8.77945 92.06 8.92378C92.0726 9.01634 92.0851 9.11047 92.0976 9.20303C92.1478 9.38187 92.2373 9.53561 92.3675 9.66739C92.438 9.7223 92.5086 9.7772 92.5808 9.83211C92.7439 9.92781 92.9212 9.97487 93.111 9.97487Z" fill="var(--fill-0, #101841)"/>
<path id="Vector_30" d="M95.1857 15.5328C96.4249 17.9236 96.8782 20.5953 96.5896 23.2622C96.5284 23.827 97.1167 24.3133 97.6406 24.3133C98.2602 24.3133 98.6304 23.8285 98.6916 23.2622C99.0178 20.2391 98.3967 17.1659 97.0006 14.4723C96.7386 13.9687 96.0343 13.8197 95.5622 14.0958C95.0508 14.3954 94.9222 15.0276 95.1857 15.5344V15.5328Z" fill="var(--fill-0, #101841)"/>
<path id="Vector_31" d="M96.2696 27.0417V27.7743C96.2696 28.3234 96.7527 28.8505 97.3205 28.8254C97.8899 28.8003 98.3715 28.3642 98.3715 27.7743V27.0417C98.3715 26.4926 97.8884 25.9655 97.3205 25.9906C96.7511 26.0157 96.2696 26.4518 96.2696 27.0417Z" fill="var(--fill-0, #101841)"/>
<path id="Vector_32" d="M58.9501 19.45C58.9046 19.232 58.8638 19.0123 58.8308 18.7911C58.8528 18.9355 58.8167 18.6688 58.812 18.628C58.7979 18.4993 58.7869 18.3691 58.7775 18.2405C58.7446 17.7777 58.743 17.3133 58.7681 16.8505C58.7806 16.6278 58.801 16.4066 58.8246 16.1854C58.8434 16.0018 58.8167 16.2058 58.845 16.0238C58.8653 15.8952 58.8857 15.7665 58.9093 15.6394C58.994 15.1829 59.1053 14.7311 59.2418 14.2871C59.7548 12.618 60.6959 11.0178 61.9336 9.76119C62.1155 9.57608 62.3038 9.39724 62.4983 9.22624C62.5955 9.13995 62.6943 9.05524 62.7947 8.97366C62.8371 8.93758 62.881 8.90307 62.9249 8.86855C63.0677 8.75403 62.8292 8.93915 62.9767 8.82776C63.4081 8.50303 63.863 8.21437 64.3367 7.95709C64.8355 7.68569 64.9939 6.99856 64.7132 6.51851C64.4183 6.01493 63.7751 5.86903 63.2747 6.142C59.5148 8.18613 57.0928 12.1865 56.6975 16.4081C56.5846 17.613 56.674 18.8272 56.9218 20.0117C57.0379 20.567 57.692 20.8902 58.2144 20.7458C58.7916 20.5874 59.0646 20.0101 58.9485 19.4532L58.9501 19.45Z" fill="var(--fill-0, #101841)"/>
<path id="Vector_33" d="M64.8633 17.2136C65.3747 15.3122 66.8633 13.7168 68.7049 13.1096C69.2445 12.9324 69.5943 12.3833 69.439 11.817C69.2947 11.2898 68.6876 10.9039 68.1464 11.0828C65.5786 11.9283 63.541 14.0337 62.8367 16.6551C62.6892 17.2026 63.0218 17.7972 63.5708 17.9478C64.1167 18.0984 64.7159 17.7642 64.8633 17.2136Z" fill="var(--fill-0, #101841)"/>
<path id="Vector_34" d="M23.7859 76.1885C28.371 74.9994 33.0423 74.1632 37.7576 73.7114C37.4203 73.4541 37.0815 73.1968 36.7443 72.9395C37.3152 74.7876 37.7701 76.6717 38.2282 78.5495C38.8839 81.2447 39.505 83.9477 40.1137 86.6523C41.4219 92.46 42.6736 98.2802 43.905 104.105C44.3662 106.284 44.8226 108.465 45.276 110.645C45.3921 111.201 46.0462 111.522 46.5685 111.38C47.1458 111.221 47.4187 110.644 47.3026 110.087C46.3458 105.473 45.3701 100.864 44.3772 96.2596C43.1223 90.4425 41.8517 84.6254 40.4619 78.8398C39.9427 76.678 39.4297 74.5068 38.7741 72.3811C38.6486 71.9732 38.2235 71.5653 37.7607 71.6092C32.8588 72.0799 27.9976 72.9254 23.2306 74.1616C22.6816 74.3044 22.3475 74.9131 22.4965 75.4543C22.6486 76.0097 23.2384 76.3313 23.789 76.1885H23.7859Z" fill="var(--fill-0, #101841)"/>
<path id="Vector_35" d="M20.9814 78.6013C21.8301 84.3917 22.6771 90.1837 23.5257 95.9741C24.3696 101.739 25.2136 107.505 26.0575 113.268C26.481 116.164 26.9061 119.059 27.3296 121.955C27.7139 124.575 28.0214 127.232 29.121 129.67C30.1359 131.921 31.9445 133.681 34.0151 134.979C36.1092 136.29 38.539 137.288 40.9688 137.751C43.5978 138.25 46.2911 138.052 48.6613 136.734C50.746 135.575 52.3711 133.747 53.7248 131.813C54.0542 131.342 54.3648 130.862 54.6675 130.374C54.9656 129.891 54.7711 129.218 54.2911 128.936C53.7891 128.643 53.1522 128.829 52.8526 129.312C52.2911 130.221 51.6715 131.142 51.0315 131.918C50.6801 132.345 50.3099 132.756 49.9177 133.145C49.7311 133.33 49.5381 133.51 49.3421 133.686C49.1883 133.823 48.8981 134.064 48.8072 134.133C47.946 134.789 47.0393 135.282 46.0652 135.573C44.8809 135.928 43.6637 135.984 42.4307 135.859C40.1029 135.624 37.8331 134.728 35.8331 133.609C33.9241 132.544 32.2629 131.154 31.2355 129.217C30.0873 127.049 29.8112 124.493 29.4598 122.094C29.0504 119.302 28.6426 116.511 28.2332 113.719C27.4159 108.135 26.5987 102.55 25.7798 96.9671L23.3155 80.1372C23.2136 79.4391 23.1116 78.741 23.0097 78.0428C22.9281 77.4812 22.2159 77.1722 21.7171 77.3087C21.1148 77.4749 20.8999 78.0381 20.983 78.6013H20.9814Z" fill="var(--fill-0, #101841)"/>
<path id="Vector_36" d="M47.5663 116.933C48.9184 116.933 48.9216 114.831 47.5663 114.831C46.211 114.831 46.211 116.933 47.5663 116.933Z" fill="var(--fill-0, #101841)"/>
<path id="Vector_37" d="M103.208 58.0266C108.506 60.4048 113.82 62.7188 119.282 64.697C121.837 65.6226 124.366 66.3192 126.582 67.8848C126.985 68.1688 127.445 68.5704 127.853 69.0175C128.247 69.452 128.564 69.9195 128.86 70.5267C129.513 71.8664 129.705 73.4069 129.95 74.8596C130.509 78.1682 131.144 81.4784 131.202 84.8403C131.211 85.4082 131.677 85.8914 132.253 85.8914C132.829 85.8914 133.313 85.4097 133.304 84.8403C133.249 81.6933 132.698 78.5651 132.174 75.4699C131.914 73.9341 131.726 72.359 131.243 70.8718C130.775 69.4348 130.008 68.1295 128.905 67.0879C126.884 65.1771 124.19 64.217 121.618 63.304C118.8 62.3046 116 61.2598 113.235 60.1256C111.844 59.5546 110.559 59.0023 109.138 58.3795C107.511 57.6657 105.889 56.9378 104.269 56.2099C103.751 55.9777 103.139 56.0609 102.83 56.5864C102.567 57.0351 102.688 57.7912 103.207 58.025L103.208 58.0266Z" fill="var(--fill-0, #101841)"/>
<path id="Vector_38" d="M55.2764 71.1496C53.0003 72.1724 51.0552 73.8259 49.6011 75.8481C47.9211 78.1825 47.1792 81.0596 46.2725 83.7501C45.7188 85.3926 45.1635 87.0351 44.6098 88.6777C44.4278 89.2158 44.8184 89.826 45.3439 89.9703C45.918 90.1288 46.4545 89.7758 46.6364 89.2361C47.5745 86.4547 48.4906 83.6654 49.4537 80.8933C50.2553 78.5856 51.3533 76.62 53.1541 75.0057C54.067 74.1883 55.1588 73.4949 56.3368 72.9662C56.8544 72.7341 56.9784 71.981 56.7133 71.5277C56.4011 70.9943 55.7956 70.9174 55.2748 71.1512L55.2764 71.1496Z" fill="var(--fill-0, #101841)"/>
<path id="Vector_39" d="M18.0405 62.6121C22.1393 62.7455 26.3071 64.1668 29.4663 66.7945C29.9024 67.1569 30.5251 67.2212 30.9534 66.7945C31.3267 66.4211 31.3926 65.6728 30.9534 65.3073C27.3283 62.2921 22.7401 60.6621 18.0421 60.5084C17.4742 60.4895 16.9911 61.0041 16.9911 61.5595C16.9911 62.1446 17.4726 62.5917 18.0421 62.6105L18.0405 62.6121Z" fill="var(--fill-0, #101841)"/>
<path id="Vector_40" d="M14.2899 59.4198C13.4962 59.1609 12.7009 58.9021 11.9166 58.6103C11.2139 58.3499 10.7731 58.1695 10.0923 57.818C8.6335 57.0666 7.60762 56.1394 6.42488 55.0162C5.06489 53.7235 3.02411 52.6144 1.17157 53.6247C0.180207 54.1659 -0.241752 55.2468 0.236677 56.2853C0.578636 57.0274 1.08059 57.7255 1.54491 58.3969C5.2092 63.6947 10.4798 67.3892 15.937 70.6523C17.504 71.5889 19.0868 72.5003 20.6617 73.4228C21.3315 73.815 22.0138 74.1946 22.6648 74.6182C22.737 74.6653 22.806 74.7155 22.8781 74.7625C23.0742 74.8927 22.6789 74.5743 22.8875 74.7735C22.9958 74.8786 23.104 74.9822 23.2091 75.092C24.1503 76.0678 25.6358 74.5805 24.6962 73.6048C24.1346 73.0227 23.4554 72.6258 22.7636 72.218C21.4005 71.4132 20.0279 70.6194 18.6617 69.8193C16.0609 68.2944 13.4727 66.7382 11.0351 64.9607C8.76212 63.3041 6.52841 61.3164 4.67587 59.0762C4.21783 58.5209 3.85548 58.044 3.43195 57.4368C3.21705 57.1293 3.00843 56.8172 2.80764 56.5018C2.58019 56.1473 2.39196 55.7472 2.14255 55.4084C2.05941 55.2939 2.12059 55.2013 2.11588 55.4304C2.11588 55.4884 2.06569 55.5292 2.06569 55.5762C2.06726 55.5009 2.14569 55.4758 2.2351 55.4398C2.35118 55.3911 2.35274 55.3802 2.53784 55.3519C2.62098 55.3394 2.89078 55.3378 3.04137 55.3613C3.68137 55.4633 4.31822 55.9214 4.84057 56.4077C5.52136 57.0415 6.16606 57.6941 6.90331 58.2652C7.54487 58.7609 8.21781 59.2049 8.93467 59.5814C10.4578 60.3799 12.1033 60.9133 13.7331 61.4451C14.2727 61.6208 14.8813 61.2396 15.0256 60.7109C15.1825 60.1414 14.8327 59.5955 14.2915 59.4182L14.2899 59.4198Z" fill="var(--fill-0, #101841)"/>
<path id="Vector_41" d="M2.25078 51.7905C2.1896 51.6195 2.1551 51.4281 2.08764 51.2618C2.06255 51.2022 2.13313 51.0343 2.04686 51.2367C2.07039 51.1865 2.09862 51.1379 2.13157 51.0924C2.05157 51.1943 2.05157 51.2022 2.13157 51.1143C2.02647 51.1865 2.0249 51.1896 2.12372 51.1222C2.17392 51.0908 2.22568 51.0626 2.27902 51.0359C2.07353 51.1441 2.41078 51.0077 2.46254 50.992C2.5849 50.97 2.58647 50.9669 2.46568 50.9841C2.53 50.9778 2.59431 50.9731 2.65862 50.9716C2.70725 50.9716 3.09313 51.0077 2.86097 50.9684C2.98646 50.9888 3.10725 51.0233 3.22803 51.0626C3.00842 50.9904 3.42411 51.1692 3.4743 51.2006C3.61548 51.2869 3.65626 51.3151 3.75195 51.3951C3.96999 51.5756 4.1692 51.7795 4.36685 51.9834C4.87194 52.5058 5.37233 53.0016 5.96057 53.4346C7.10566 54.2786 8.43271 54.8292 9.72682 55.3987C11.2452 56.067 12.7637 56.7306 14.2837 57.3926C14.8044 57.6185 15.4115 57.5464 15.7221 57.0161C15.9825 56.5706 15.868 55.805 15.3456 55.5775C14.0154 54.9987 12.6868 54.4166 11.3582 53.833C10.1582 53.3059 8.92683 52.8102 7.80056 52.1356C7.30174 51.8375 6.86409 51.5175 6.44998 51.1096C6.0437 50.7112 5.67665 50.2735 5.24214 49.9064C4.28685 49.0984 3.15901 48.6796 1.90725 48.9635C1.27196 49.1079 0.680593 49.4812 0.321379 50.0303C-0.141364 50.7363 -0.042541 51.5944 0.230399 52.349C0.423339 52.8824 0.945689 53.2416 1.52294 53.0832C2.03745 52.942 2.45156 52.327 2.25706 51.7905H2.25078Z" fill="var(--fill-0, #101841)"/>
<path id="Vector_42" d="M5.242 49.1159C5.77062 49.188 6.2867 49.3151 6.78709 49.4971C7.13689 49.6241 7.59022 49.8406 8.05453 50.1042C8.95178 50.6125 9.78472 51.2212 10.6239 51.8173C12.431 53.1037 14.2914 54.2411 16.547 54.4639C17.1133 54.5188 17.598 53.9414 17.598 53.4128C17.598 52.7978 17.1149 52.4182 16.547 52.3617C16.4749 52.3554 16.4027 52.3476 16.3306 52.3381C16.4325 52.3507 16.4184 52.3476 16.2914 52.3287C16.1533 52.3005 16.0137 52.2754 15.8757 52.244C15.6372 52.1875 15.4035 52.1185 15.1714 52.0385C15.0725 52.004 14.9753 51.9663 14.878 51.9303C14.762 51.8832 14.7494 51.8785 14.8404 51.9177C14.7761 51.8895 14.7133 51.8612 14.6506 51.833C14.4294 51.731 14.2114 51.6212 13.9965 51.5051C13.0945 51.0141 12.2584 50.4132 11.4224 49.8171C9.71884 48.6029 7.9212 47.3792 5.79886 47.0905C5.23729 47.0137 4.67102 47.2255 4.50632 47.8247C4.37142 48.3142 4.67416 49.0405 5.24043 49.1174L5.242 49.1159Z" fill="var(--fill-0, #101841)"/>
<path id="Vector_43" d="M3.94642 49.4862C3.98407 49.3701 3.98093 49.3685 3.93858 49.4862C3.99505 49.3983 3.99976 49.3858 3.95584 49.4454C3.80525 49.5317 4.15191 49.276 4.02172 49.3795C3.94015 49.4438 4.20054 49.2807 4.23662 49.2619C4.07505 49.3419 4.31348 49.2383 4.35897 49.2242C4.45936 49.1944 4.55975 49.174 4.66171 49.1505C4.88916 49.0987 4.58485 49.1379 4.79975 49.1348C5.04446 49.1301 5.27975 49.1269 5.52289 49.1536C6.08759 49.2179 6.57386 48.6249 6.57386 48.1025C6.57386 47.4813 6.08916 47.1158 5.52289 47.0514C4.09701 46.8899 2.37467 47.4232 1.92134 48.9277C1.7582 49.4705 2.11741 50.0729 2.65545 50.2204C3.21545 50.3741 3.78329 50.0321 3.94799 49.4862H3.94642Z" fill="var(--fill-0, #101841)"/>
<path id="Vector_44" d="M7.00532 47.3464C6.91277 47.0876 6.98179 47.5017 6.98179 47.541C6.98179 47.5049 6.9363 47.6884 6.92532 47.6727C6.90807 47.6476 7.11669 47.5582 7.03983 47.5833C7.34885 47.4845 7.63904 47.461 7.96532 47.4782C8.61786 47.5127 9.28453 47.7653 9.8806 48.0367C11.1386 48.6077 12.348 49.2855 13.5402 49.982C15.9621 51.3986 18.3292 52.9298 20.9002 54.0718C22.359 54.7197 23.8601 55.2563 25.4335 55.5434C25.9919 55.6453 26.566 55.3912 26.726 54.8092C26.8656 54.2993 26.5535 53.6185 25.9919 53.5165C23.0052 52.9721 20.37 51.5712 17.7692 50.0479C16.4484 49.2745 15.1465 48.4697 13.8178 47.7135C12.4453 46.9323 11.0084 46.1118 9.49158 45.6474C8.55198 45.3604 7.43042 45.2239 6.48297 45.5565C5.54023 45.8875 4.59122 46.8193 4.98024 47.9065C5.17161 48.4415 5.69709 48.7991 6.27278 48.6407C6.78885 48.4979 7.19826 47.8845 7.00689 47.348L7.00532 47.3464Z" fill="var(--fill-0, #101841)"/>
<path id="Vector_45" d="M32.8641 52.4889C31.3582 51.3453 29.8539 50.2016 28.3481 49.0595C27.0979 48.1104 25.8587 46.9417 24.3277 46.471C23.3646 46.1745 22.2132 46.264 21.5089 47.0578C20.8469 47.8045 20.7591 48.8948 21.0665 49.8173C21.4853 51.0707 22.4453 52.0606 23.5951 52.6834C24.094 52.9533 24.7402 52.8074 25.0336 52.3069C25.3143 51.8284 25.1575 51.1397 24.6571 50.8683C24.4344 50.7475 24.2195 50.6142 24.0155 50.4652C24.1708 50.5781 23.9669 50.4228 23.9183 50.3789C23.8226 50.2942 23.7316 50.2063 23.6438 50.1153C23.5685 50.0369 23.4995 49.9537 23.4289 49.8722C23.5622 50.029 23.4367 49.8784 23.3849 49.8031C23.2689 49.6306 23.1748 49.4502 23.0869 49.2619C23.1716 49.4423 23.1214 49.3419 23.0853 49.2274C23.0587 49.1442 23.0383 49.0611 23.0179 48.978C22.9536 48.716 22.9771 48.9623 23.01 48.9842C22.9755 48.9623 23.0006 48.7348 22.9991 48.6924C22.9991 48.6658 23.0085 48.6344 23.0038 48.6077C22.9834 48.4854 22.9442 48.8415 22.9865 48.7238C23.0053 48.6705 23.0163 48.5999 23.0273 48.5434C23.0759 48.3097 22.93 48.6579 23.0148 48.5575C23.043 48.5246 23.1748 48.2814 23.0649 48.4571C22.9536 48.636 23.1183 48.432 23.134 48.4038C23.1842 48.3175 23.032 48.5214 23.0179 48.4932C23.0116 48.4806 23.0963 48.454 23.1026 48.4399C23.1026 48.443 23.1842 48.3897 23.1936 48.3928C23.2893 48.4242 22.9206 48.465 23.09 48.4414C23.1214 48.4367 23.1669 48.421 23.1951 48.4116C23.2689 48.3897 23.3693 48.4304 23.2265 48.4022C23.054 48.3677 23.272 48.4069 23.3332 48.4085C23.4587 48.4101 23.6108 48.4571 23.3944 48.4053C23.6046 48.4571 23.8085 48.5073 24.014 48.581C24.1991 48.6469 24.0547 48.5999 24.0187 48.581C24.0783 48.6093 24.1379 48.636 24.1959 48.6658C24.3214 48.7285 24.4453 48.7975 24.5661 48.8681C24.8469 49.0329 25.112 49.2195 25.3724 49.4156C26.0359 49.913 26.6916 50.4181 27.352 50.9185C28.8359 52.0465 30.3214 53.1745 31.8053 54.3024C32.2571 54.646 32.9818 54.373 33.2437 53.9259C33.559 53.3862 33.3206 52.8325 32.8673 52.4873L32.8641 52.4889Z" fill="var(--fill-0, #101841)"/>
<path id="Vector_46" d="M31.6353 54.2537C33.4737 56.0186 34.8635 58.3937 35.1349 60.9634C35.2807 62.3471 35.127 63.7292 35.025 65.1097C34.9152 66.5985 34.9372 68.0779 35.2996 69.5337C35.436 70.0843 36.0556 70.4153 36.5921 70.2679C37.1521 70.1141 37.4643 69.5274 37.3262 68.9752C36.785 66.804 37.2713 64.6046 37.298 62.402C37.3262 60.0645 36.6878 57.7725 35.5003 55.7613C34.8525 54.6616 34.0415 53.6497 33.1207 52.7681C32.1451 51.8315 30.6564 53.3156 31.6337 54.2553L31.6353 54.2537Z" fill="var(--fill-0, #101841)"/>
<path id="Vector_47" d="M121.297 116.905C118.693 114.983 116.089 113.061 113.485 111.141C112.842 110.666 112.181 110.176 111.348 110.137C110.509 110.096 109.767 110.595 109.364 111.313C108.57 112.73 108.995 114.363 109.697 115.717C110.073 116.445 110.544 117.121 110.991 117.808C111.501 118.593 112.012 119.377 112.522 120.161C112.831 120.637 113.453 120.834 113.96 120.538C114.432 120.262 114.649 119.578 114.337 119.099C113.579 117.935 112.807 116.779 112.065 115.606C111.763 115.129 111.45 114.627 111.256 114.098C111.159 113.834 111.068 113.555 111.033 113.276C111.019 113.166 111.027 112.832 111.061 112.708C111.112 112.526 111.196 112.322 111.246 112.267C111.317 112.189 111.272 112.228 111.246 112.25C111.518 112.015 111.323 112.22 111.32 112.22C111.196 112.2 111.355 112.252 111.375 112.261C111.921 112.49 112.442 112.97 112.93 113.331C114.064 114.167 115.198 115.005 116.332 115.841C117.634 116.801 118.936 117.763 120.238 118.723C120.694 119.06 121.411 118.798 121.676 118.346C121.988 117.811 121.758 117.247 121.3 116.908L121.297 116.905Z" fill="var(--fill-0, #101841)"/>
<path id="Vector_48" d="M107.281 123.111C106.611 121.715 105.954 120.314 105.307 118.908C104.973 118.182 104.642 117.454 104.314 116.724C104.09 116.227 103.762 115.632 103.899 115.146C104.073 114.526 104.515 113.921 104.832 113.356C105.201 112.699 105.576 112.045 105.955 111.395C106.702 110.115 107.438 108.811 108.267 107.583C108.437 107.33 108.525 107.219 108.765 106.987C108.846 106.907 108.873 106.882 109.05 106.783C109.15 106.728 109.081 106.759 109.055 106.77C109.047 106.773 109.353 106.667 109.234 106.708C109.105 106.752 109.384 106.725 109.251 106.703C109.13 106.683 109.406 106.744 109.405 106.744C109.212 106.682 109.621 106.891 109.459 106.764C109.508 106.803 109.557 106.852 109.597 106.897C109.491 106.775 109.583 106.91 109.591 106.91C109.552 106.912 109.543 106.745 109.574 106.904C109.554 106.797 109.535 106.708 109.59 106.602C109.329 107.106 109.459 107.743 109.966 108.041C110.437 108.317 111.143 108.17 111.405 107.665C112.3 105.929 110.366 104.241 108.661 104.692C106.997 105.131 106.15 106.977 105.334 108.325C104.385 109.894 103.466 111.48 102.578 113.085C102.115 113.922 101.67 114.749 101.79 115.739C101.907 116.688 102.396 117.56 102.785 118.42C103.657 120.347 104.551 122.264 105.466 124.171C105.71 124.683 106.443 124.818 106.904 124.548C107.428 124.242 107.527 123.624 107.281 123.109V123.111Z" fill="var(--fill-0, #101841)"/>
<path id="Vector_49" d="M104.178 123.048C102.575 121.332 101.877 118.968 101.841 116.674C101.819 115.327 101.994 113.995 102.286 112.68C102.562 111.441 102.871 110.087 103.411 108.956C103.698 108.353 104.012 107.859 104.523 107.442C104.909 107.128 105.453 106.923 105.922 106.918C107.274 106.905 107.278 104.803 105.922 104.816C104.379 104.83 103.053 105.702 102.167 106.924C101.287 108.137 100.881 109.676 100.506 111.107C99.7215 114.097 99.3701 117.313 100.288 120.317C100.768 121.887 101.569 123.334 102.691 124.535C103.078 124.951 103.786 124.928 104.178 124.535C104.592 124.121 104.567 123.466 104.178 123.048Z" fill="var(--fill-0, #101841)"/>
<path id="Vector_50" d="M97.9966 123.608C97.7033 119.135 98.9597 114.727 101.54 111.039C101.866 110.573 101.625 109.87 101.164 109.6C100.64 109.294 100.051 109.511 99.7252 109.977C96.9676 113.919 95.5794 118.804 95.8946 123.608C95.9323 124.174 96.3511 124.659 96.9456 124.659C97.4852 124.659 98.0342 124.178 97.9966 123.608Z" fill="var(--fill-0, #101841)"/>
<path id="Vector_51" d="M94.4167 118.125C94.0497 119.672 93.7956 121.247 93.6528 122.83C93.5854 123.581 93.5273 124.328 93.6434 125.078C93.7548 125.798 94.092 126.438 94.5783 126.976C95.452 127.94 96.7304 128.42 97.8944 128.923C99.2889 129.526 100.691 130.12 102.126 130.619C103.774 131.19 105.454 131.601 107.185 131.81C107.75 131.877 108.236 131.278 108.236 130.759C108.236 130.134 107.752 129.777 107.185 129.708C104.588 129.394 102.083 128.44 99.6889 127.423C98.6065 126.964 97.4504 126.55 96.481 125.875C96.2253 125.696 95.8959 125.329 95.7893 125.047C95.5869 124.509 95.6732 123.865 95.7171 123.279C95.8332 121.729 96.0842 120.198 96.4434 118.685C96.5752 118.133 96.2708 117.546 95.7093 117.393C95.1759 117.247 94.5485 117.571 94.4167 118.127V118.125Z" fill="var(--fill-0, #101841)"/>
<path id="Vector_52" d="M114.815 132.729C116.037 131.697 117.259 130.666 118.481 129.634C119.548 128.734 120.631 127.842 121.587 126.823C123.577 124.699 124.791 122.046 124.995 119.134C125.035 118.568 124.484 118.083 123.944 118.083C123.342 118.083 122.933 118.566 122.893 119.134C122.721 121.591 121.568 123.853 119.816 125.634C118.859 126.605 117.8 127.469 116.759 128.348C115.615 129.312 114.471 130.277 113.33 131.242C112.895 131.609 112.951 132.351 113.33 132.729C113.759 133.159 114.38 133.096 114.817 132.729H114.815Z" fill="var(--fill-0, #101841)"/>
<path id="Vector_53" d="M100.786 128.977C97.4531 129.19 94.1198 129.405 90.7865 129.618C90.3191 129.648 89.8516 129.678 89.3826 129.708C89.6304 130.305 89.8783 130.905 90.1261 131.502C91.392 130.003 92.6563 128.503 93.9222 127.003C94.1026 126.79 94.283 126.575 94.4634 126.361C94.8288 125.928 94.8885 125.301 94.4634 124.874C94.0885 124.499 93.3449 124.438 92.9763 124.874C91.7104 126.374 90.4461 127.874 89.1802 129.373C88.9999 129.587 88.8195 129.802 88.6391 130.015C88.363 130.343 88.2406 130.752 88.421 131.163C88.5795 131.526 88.9622 131.836 89.381 131.81C92.7143 131.596 96.0477 131.381 99.381 131.168C99.8484 131.138 100.316 131.109 100.785 131.079C101.351 131.043 101.836 130.622 101.836 130.028C101.836 129.486 101.354 128.94 100.785 128.977H100.786Z" fill="var(--fill-0, #101841)"/>
<path id="Vector_54" d="M113.718 103.539C115.218 101.698 116.717 99.8599 118.217 98.0197C120.585 95.1143 122.954 92.2089 125.323 89.3019C125.867 88.6336 126.411 87.9669 126.956 87.2986C126.708 87.4005 126.46 87.5041 126.212 87.6061C129.126 87.479 132.041 87.3519 134.955 87.2248C139.564 87.024 144.173 86.8232 148.781 86.6224C149.835 86.5769 150.891 86.5299 151.945 86.4844C151.697 85.8867 151.45 85.2874 151.202 84.6897C150.351 85.711 149.501 86.7338 148.65 87.7551C146.607 90.2102 144.563 92.6638 142.521 95.119C140.039 98.0997 137.559 101.08 135.078 104.061C132.941 106.629 130.803 109.197 128.667 111.764C127.628 113.011 126.579 114.252 125.55 115.509C125.536 115.526 125.52 115.543 125.506 115.562C125.144 115.998 125.079 116.621 125.506 117.049C125.879 117.422 126.628 117.487 126.993 117.049C127.843 116.028 128.694 115.005 129.545 113.984C131.588 111.529 133.632 109.075 135.674 106.62C138.155 103.639 140.635 100.658 143.117 97.6777C145.253 95.1096 147.391 92.5415 149.528 89.9749C150.566 88.7277 151.619 87.4884 152.645 86.2302C152.659 86.213 152.675 86.1957 152.689 86.1769C152.963 85.8474 153.089 85.4427 152.907 85.0285C152.745 84.6614 152.369 84.3634 151.947 84.3822C149.471 84.4904 146.996 84.5987 144.521 84.7054C140.165 84.8952 135.809 85.085 131.451 85.2748C130.002 85.3376 128.551 85.4019 127.101 85.4647C126.817 85.4772 126.534 85.4819 126.25 85.5023C125.746 85.5384 125.533 85.7329 125.265 86.0624C123.061 88.7654 120.857 91.47 118.653 94.173C116.549 96.7537 114.446 99.3343 112.342 101.913C112.306 101.959 112.269 102.003 112.232 102.048C111.875 102.488 111.803 103.104 112.232 103.536C112.603 103.906 113.359 103.978 113.72 103.536L113.718 103.539Z" fill="var(--fill-0, #101841)"/>
<path id="Vector_55" d="M100.159 55.978C101.491 57.2753 102.731 58.6716 103.931 60.0913C105.157 61.5409 106.2 62.8069 107.218 64.4071C107.522 64.8855 108.153 65.0785 108.656 64.7836C109.133 64.5043 109.338 63.8266 109.033 63.345C107.988 61.704 106.747 60.1807 105.495 58.6951C104.272 57.244 103.008 55.8164 101.646 54.4907C100.677 53.5463 99.1879 55.0304 100.159 55.978Z" fill="var(--fill-0, #101841)"/>
<path id="Vector_56" d="M105.127 64.5481C103.832 66.6126 102.355 68.5438 100.7 70.3322C100.314 70.7479 100.287 71.4068 100.7 71.8194C101.09 72.2101 101.8 72.2367 102.187 71.8194C103.961 69.9039 105.556 67.8221 106.943 65.6102C107.244 65.1285 107.045 64.4524 106.567 64.1716C106.063 63.8766 105.431 64.0665 105.128 64.5481H105.127Z" fill="var(--fill-0, #101841)"/>
<path id="Vector_57" d="M90.5362 76.6014C93.1543 77.8925 95.6186 79.4848 97.846 81.372C98.2789 81.7391 98.908 81.7972 99.3331 81.372C99.7095 80.9955 99.7676 80.2535 99.3331 79.8848C96.9676 77.8799 94.3794 76.1574 91.5982 74.7847C91.09 74.5337 90.4609 74.6482 90.1598 75.1612C89.8884 75.6256 90.0264 76.3472 90.5362 76.5998V76.6014Z" fill="var(--fill-0, #101841)"/>
<path id="Vector_58" d="M97.6382 82.6461C94.1935 86.4849 90.6798 90.2594 87.0955 93.9665C83.5284 97.6563 79.8924 101.279 76.1889 104.832C74.0853 106.851 71.9614 108.846 69.8171 110.82C69.3999 111.204 69.4281 111.917 69.8171 112.307C70.2328 112.723 70.8838 112.693 71.3042 112.307C75.0987 108.815 78.8288 105.254 82.4916 101.622C86.1355 98.0093 89.7119 94.3273 93.2194 90.5795C95.2115 88.4506 97.1801 86.3014 99.1268 84.1318C99.5064 83.7098 99.544 83.0618 99.1268 82.6445C98.7409 82.2586 98.0209 82.221 97.6397 82.6445L97.6382 82.6461Z" fill="var(--fill-0, #101841)"/>
<path id="Vector_59" d="M68.2665 117.541C69.6186 117.541 69.6218 115.439 68.2665 115.439C66.9112 115.439 66.9112 117.541 68.2665 117.541Z" fill="var(--fill-0, #101841)"/>
<path id="Vector_60" d="M98.8775 73.9484V73.7084C98.8822 73.5641 98.8524 73.4292 98.7865 73.3037C98.7441 73.1735 98.672 73.0605 98.5684 72.9648C98.4728 72.8628 98.3598 72.7891 98.2296 72.7467C98.1041 72.6809 97.9692 72.651 97.8249 72.6558C97.7324 72.6683 97.6383 72.6809 97.5457 72.6934C97.3669 72.7436 97.2132 72.833 97.0814 72.9632C97.0265 73.0338 96.9716 73.1044 96.9167 73.1766C96.821 73.3413 96.7739 73.517 96.7739 73.7068V73.9469C96.7692 74.0912 96.799 74.2261 96.8649 74.3516C96.9073 74.4818 96.9794 74.5948 97.083 74.6905C97.1787 74.7924 97.2916 74.8662 97.4218 74.9085C97.5473 74.9744 97.6822 75.0042 97.8265 74.9995C97.919 74.987 98.0132 74.9744 98.1057 74.9619C98.283 74.9117 98.4383 74.8223 98.57 74.692C98.6249 74.6214 98.6798 74.5508 98.7347 74.4787C98.8304 74.314 98.8775 74.1383 98.8775 73.9484Z" fill="var(--fill-0, #101841)"/>
</g>
</svg>
