<svg preserveAspectRatio="none" width="100%" height="100%" overflow="visible" style="display: block;" viewBox="0 0 147.638 33.2009" fill="none" xmlns="http://www.w3.org/2000/svg">
<g id="Group">
<path id="Vector" d="M16.8065 17.0991C16.8065 17.0991 16.8065 18.041 16.7771 18.4531C16.3944 27.2242 16.0118 30.5796 15.0405 31.6981C14.3929 32.5222 13.6571 32.7283 12.5975 32.846C11.6556 32.9932 9.97794 32.9932 8.24137 32.9049C8.1825 31.9924 7.85874 30.7857 7.2995 29.9615C8.94777 30.1381 10.5372 30.1381 11.1553 30.1381C11.7439 30.1381 12.0971 30.1087 12.3326 29.7555C12.9507 29.108 13.3039 26.5473 13.5982 20.0719H8.56514C7.741 25.1639 6.09273 29.9321 2.29582 33.1109C1.79545 32.3162 0.824152 31.286 1.61822e-05 30.7562C4.8271 26.871 5.62179 19.8953 5.94556 13.626H2.20752V1.67603H16.571V13.626H9.21267C9.1538 14.7739 9.0655 15.9218 8.91834 17.0697H16.8065V17.0991ZM5.23916 10.6827H13.3039V4.64881H5.23916V10.6827ZM22.9875 24.222H19.7498V4.35447H22.9875V24.222ZM31.6998 0.734165V28.8136C31.6998 30.9034 31.1994 31.8747 29.9338 32.4928C28.6093 32.9932 26.4312 33.1109 23.1641 33.0815C22.9875 32.169 22.4871 30.6385 21.9868 29.6672C24.4297 29.7849 26.6961 29.7261 27.432 29.7261C28.1089 29.6966 28.3738 29.4612 28.3738 28.8136V0.734165H31.7292H31.6998Z" fill="var(--fill-0, #101010)"/>
<path id="Vector_2" d="M45.7988 10.1237H49.1248V33.0229H45.7988V25.3407C43.6796 26.6358 41.531 27.9309 39.6472 29.0494L38.1461 25.8411C40.0887 24.9287 42.9438 23.3981 45.7988 21.897V10.1237ZM41.6781 11.7719C43.3558 13.7146 45.1218 16.4224 45.7694 18.2473L42.7377 19.4835C42.1196 17.6881 40.4714 14.9508 38.8525 12.9198L41.6781 11.7719ZM50.3021 5.8264V9.03464H46.9467V5.8264H39.088V2.79476H46.9467V0.0280153H50.3021V2.79476H59.3676V0.0280153H62.7524V2.79476H70.6995V5.8264H62.7524V9.03464H59.3676V5.8264H50.3021ZM62.517 19.5718V28.6667H70.7878V31.8455H51.3912V28.6667H59.1616V19.5718H50.567V16.393H59.1616V10.1237H62.517V16.393H71.1704V19.5718H62.517Z" fill="var(--fill-0, #101010)"/>
<path id="Vector_3" d="M88.6538 18.4533C87.4176 18.8948 86.1814 19.3069 84.9452 19.719V29.2848C84.9452 31.0214 84.592 31.9044 83.5029 32.4636C82.5022 32.9346 80.9422 33.0523 78.4698 32.9934C78.3521 32.1693 77.9694 30.7859 77.5279 29.9324C79.029 29.9912 80.5007 29.9912 80.9716 29.9618C81.4426 29.9618 81.6192 29.8146 81.6192 29.2848V20.8374C80.0592 21.3378 78.5581 21.8382 77.2336 22.2502L76.2623 18.8065C77.7045 18.4828 79.5883 17.9824 81.6192 17.3937V9.97651H76.7332V6.886H81.6192V0.0280153H84.9452V6.85657H88.7126V9.94707H84.9452V16.4519L88.3006 15.51L88.6538 18.4239V18.4533ZM107.491 16.1281C106.196 20.4842 104.018 23.8691 101.222 26.5475C103.694 28.1664 106.667 29.3437 110.081 30.0501C109.375 30.8154 108.345 32.1693 107.874 33.0817C104.195 32.1693 101.075 30.7271 98.4551 28.7845C95.5706 30.7565 92.2152 32.1987 88.5949 33.1406C88.2417 32.2282 87.447 30.8448 86.8289 30.0795C90.1549 29.4026 93.2454 28.1958 95.8944 26.5181C93.9223 24.4577 92.3035 22.0148 91.0673 19.1597L93.422 18.4533H90.0371V15.3923H104.695L105.313 15.2451L107.521 16.1575L107.491 16.1281ZM95.2174 5.06113C95.2174 8.32824 94.2756 12.3606 90.2432 14.9508C89.8605 14.2738 88.6243 13.0081 88.0062 12.5372C91.5382 10.3297 92.068 7.4158 92.068 4.97283V1.38195H104.224V9.62331C104.224 10.4769 104.312 10.5946 104.842 10.5946H106.402C107.02 10.5946 107.167 10.0942 107.226 6.6211C107.874 7.1509 109.139 7.62183 109.993 7.8573C109.728 12.2134 108.963 13.3613 106.755 13.3613H104.312C101.722 13.3613 100.986 12.5666 100.986 9.65274V4.47246H95.188V5.06113H95.2174ZM94.2167 18.4239C95.2469 20.7197 96.748 22.7506 98.5728 24.4872C100.486 22.8389 102.046 20.808 103.106 18.4239H94.2167Z" fill="var(--fill-0, #101010)"/>
<path id="Vector_4" d="M125.328 9.94851C122.208 10.9787 118.853 11.9794 116.174 12.8035L114.85 9.86021C117.469 9.33041 121.296 8.30024 125.004 7.32893L125.328 9.94851ZM128.654 28.727C125.74 30.493 121.237 32.2296 117.646 33.2009C117.057 32.5534 115.88 31.2877 115.115 30.7285C118.823 30.0221 123.12 28.7565 125.593 27.3437L128.654 28.7565V28.727ZM124.062 5.91613C122.385 5.00369 119.059 3.70862 116.527 2.97279L117.999 0.706416C120.442 1.32452 123.797 2.50185 125.534 3.38486L124.062 5.94556V5.91613ZM130.861 4.94483C130.008 6.03386 128.978 7.0346 127.8 7.9176C127.182 7.32893 126.064 6.62253 125.269 6.29876C127.918 4.50333 129.684 2.08979 130.597 1.36494e-05L133.628 0.470948C133.304 1.14792 132.951 1.82489 132.51 2.53129H144.077L144.577 2.41355L146.814 3.00222C145.872 4.88596 144.548 6.97573 143.312 8.21194L140.692 7.3878C141.31 6.74026 141.928 5.82783 142.488 4.94483H137.513C138.308 7.53497 140.339 9.83077 147.638 10.8021C147.02 11.4496 146.226 12.7152 145.961 13.5394C144.96 13.3628 144.018 13.1567 143.194 12.9213V27.2259H119.706V12.7447H126.947C126.623 12.0383 125.976 11.067 125.475 10.5372C131.274 9.59531 133.334 7.88817 134.158 4.91539H130.891L130.861 4.94483ZM139.839 14.8933H122.944V16.8948H139.839V14.8933ZM139.839 18.9257H122.944V20.986H139.839V18.9257ZM139.839 23.0169H122.944V25.1067H139.839V23.0169ZM142.605 12.7741C139.015 11.6556 137.131 9.97794 136.012 8.06477C134.629 10.2723 132.274 11.7734 127.977 12.7741H142.576H142.605ZM136.513 27.3731C140.368 28.6682 144.695 30.3164 147.285 31.5526L143.43 33.142C141.31 31.9941 137.513 30.3753 133.775 29.0802L136.513 27.4025V27.3731Z" fill="var(--fill-0, #101010)"/>
</g>
</svg>
