<svg preserveAspectRatio="none" width="100%" height="100%" overflow="visible" style="display: block;" viewBox="0 0 101.536 121.354" fill="none" xmlns="http://www.w3.org/2000/svg">
<g id="Group">
<path id="Vector" d="M51.513 9.98627C50.2358 11.5099 49.7392 13.2866 49.6964 15.2504C49.6606 16.9202 49.8893 18.631 49.3766 20.2384C48.8354 21.9349 47.3546 23.2073 45.9292 24.1803C45.1629 24.7042 44.3752 25.3636 44.1805 26.3205C43.993 27.2365 44.3359 28.0937 44.8968 28.8047C45.3505 29.3785 45.9239 29.8312 46.4419 30.3426C46.9974 30.8897 47.2403 31.4101 47.3939 32.2744C47.5654 33.2402 47.5011 34.2418 47.5386 35.2183C47.5708 36.047 47.6922 36.8828 47.9369 37.6776C48.989 41.0973 51.9684 43.3979 55.4766 43.8827C60.0529 44.5135 64.4345 42.204 67.4193 38.8644C68.2588 37.9253 66.8727 36.5335 66.0296 37.478C63.6772 40.1101 60.4084 42.1184 56.7716 42.0347C53.7743 41.9652 50.9753 40.315 49.9643 37.5457C49.3748 35.9329 49.5856 34.3505 49.4106 32.6361C49.3159 31.713 49.1498 30.7133 48.6354 29.9185C48.2442 29.3144 47.7101 28.8368 47.1849 28.3539C46.9438 28.1329 46.7044 27.9084 46.4883 27.6624C46.3454 27.5003 46.1632 27.2062 46.1275 27.0637C46.1114 27.0013 46.0918 26.9354 46.0828 26.8712C46.1043 27.0262 46.09 26.8516 46.0918 26.8284C46.1096 26.6823 46.1132 26.6574 46.1972 26.529C46.3526 26.2903 46.6223 26.0835 46.8741 25.9107C48.4121 24.8486 49.9732 23.5762 50.8235 21.869C51.7005 20.1101 51.6952 18.1962 51.6666 16.2787C51.6398 14.5269 51.722 12.7877 52.9062 11.3745C53.2456 10.9682 53.3046 10.3855 52.9062 9.98805C52.5561 9.63877 51.8595 9.57996 51.5165 9.98805L51.513 9.98627Z" fill="var(--fill-0, #101841)"/>
<path id="Vector_2" d="M67.7302 38.5562C70.1291 38.1303 72.1565 36.4765 73.4372 34.4575C74.7644 32.3618 75.3985 29.188 73.2086 27.4077C72.1136 26.5184 70.7132 26.228 69.4164 26.8517C68.9395 27.0816 68.8109 27.7623 69.0645 28.1936C69.3503 28.6801 69.9291 28.7763 70.4095 28.5446C70.7132 28.3985 71.0419 28.4199 71.4331 28.5803C71.7439 28.7068 72.1082 28.9991 72.3172 29.2984C72.9531 30.2037 72.7138 31.5153 72.2708 32.5026C71.3419 34.5733 69.4789 36.2645 67.2086 36.6672C66.6853 36.7599 66.3905 37.3961 66.5227 37.8737C66.6746 38.4243 67.2068 38.6506 67.732 38.558L67.7302 38.5562Z" fill="var(--fill-0, #101841)"/>
<path id="Vector_3" d="M53.6687 24.2196C54.9333 24.2196 54.9351 22.2593 53.6687 22.2593C52.4023 22.2593 52.4023 24.2196 53.6687 24.2196Z" fill="var(--fill-0, #101841)"/>
<g id="Group_2">
<path id="Vector_4" d="M70.384 36.3763C70.6547 35.3177 70.0155 34.2411 68.9563 33.9716C67.8972 33.702 66.8192 34.3417 66.5485 35.4002C66.2779 36.4588 66.9171 37.5354 67.9762 37.805C69.0353 38.0745 70.1133 37.4349 70.384 36.3763Z" fill="var(--fill-0, #EF5407)"/>
<path id="Vector_5" d="M69.4475 36.1433C69.176 36.7474 68.6794 37.0468 68.0899 36.8169C67.5469 36.6048 67.3415 36.0096 67.5344 35.516C67.7506 34.9654 68.3489 34.7658 68.8366 34.9564C69.4671 35.2041 69.5582 35.8172 69.3474 36.3767C69.1617 36.8721 69.5546 37.4513 70.0333 37.5832C70.5835 37.7347 71.0551 37.3961 71.2426 36.8989C71.8142 35.3752 70.9783 33.6805 69.4778 33.112C68.0078 32.5542 66.3305 33.3312 65.7357 34.7604C65.1373 36.195 65.7875 37.9182 67.2165 38.5651C68.6723 39.2245 70.4799 38.6168 71.1444 37.1323C71.3605 36.6494 71.2855 36.0791 70.7925 35.7904C70.3727 35.5463 69.6654 35.6568 69.4475 36.1415V36.1433Z" fill="var(--fill-0, #101841)"/>
</g>
<path id="Vector_6" d="M54.8929 44.8753C56.0021 46.8035 56.1236 49.1006 55.3162 51.1624C55.1233 51.656 55.5288 52.2388 56.0021 52.3689C56.5594 52.5221 57.0167 52.18 57.2114 51.6846C58.201 49.1576 57.9366 46.2333 56.5898 43.8881C55.9611 42.7939 54.2624 43.7794 54.8929 44.8771V44.8753Z" fill="var(--fill-0, #101841)"/>
<path id="Vector_7" d="M53.0041 11.216C56.7177 15.5535 60.592 19.752 64.6235 23.7955C65.781 24.9574 66.951 26.105 68.1335 27.2402C69.0445 28.1152 70.4359 26.7305 69.5231 25.8537C65.4059 21.8976 61.4369 17.7864 57.6305 13.5309C56.5373 12.3084 55.4584 11.0734 54.3938 9.82954C54.0491 9.4268 53.3596 9.4767 53.0041 9.82954C52.604 10.2287 52.6594 10.8115 53.0041 11.216Z" fill="var(--fill-0, #101841)"/>
<path id="Vector_8" d="M82.1407 6.88736C80.5402 3.1308 76.4998 1.14025 72.6737 0.423867C67.8098 -0.488543 62.5547 0.110224 57.9409 1.85307C55.5706 2.74944 53.2467 4.04321 51.9213 6.28325C51.2783 7.37208 52.9752 8.35934 53.6182 7.27229C54.5953 5.61854 56.3333 4.5903 58.0784 3.89174C60.213 3.03813 62.4886 2.45006 64.7732 2.17919C68.71 1.71229 73.0399 1.88515 76.5891 3.81689C78.3056 4.75068 79.6739 6.06584 80.4455 7.8764C80.6527 8.3629 81.3726 8.47161 81.7906 8.22746C82.2961 7.93164 82.3514 7.37564 82.1424 6.88558L82.1407 6.88736Z" fill="var(--fill-0, #101841)"/>
<path id="Vector_9" d="M82.4703 10.8364C83.7993 11.1803 84.9353 12.0981 85.4962 13.358C86.0892 14.6927 85.9142 16.2663 85.1604 17.4941C84.4995 18.5741 86.1982 19.5595 86.8573 18.4832C87.9648 16.6779 88.1041 14.4183 87.2467 12.4866C86.4715 10.7402 84.8371 9.42144 82.9937 8.94385C81.7684 8.62664 81.2468 10.5174 82.4721 10.8346L82.4703 10.8364Z" fill="var(--fill-0, #101841)"/>
<path id="Vector_10" d="M85.457 22.1435C86.8967 22.4482 87.3469 24.118 86.2019 25.0999C85.8 25.4457 85.8464 26.1317 86.2019 26.4864C86.6002 26.8838 87.1879 26.8321 87.5916 26.4864C88.6204 25.6025 89.0813 24.1073 88.7098 22.7993C88.3507 21.5376 87.2647 20.5236 85.9804 20.2528C85.4624 20.1423 84.9176 20.406 84.7711 20.9371C84.6372 21.4253 84.9355 22.033 85.457 22.1435Z" fill="var(--fill-0, #101841)"/>
<path id="Vector_11" d="M76.3191 34.5055C75.3796 35.8616 74.0149 36.9451 72.4716 37.5368C71.9768 37.7274 71.6356 38.1961 71.7857 38.7432C71.9161 39.2154 72.4966 39.6182 72.995 39.4275C75.0491 38.6381 76.7639 37.3033 78.0178 35.4945C78.3197 35.0597 78.0982 34.4057 77.6659 34.1544C77.1783 33.8693 76.6246 34.0689 76.3209 34.5055H76.3191Z" fill="var(--fill-0, #101841)"/>
<path id="Vector_12" d="M50.6006 37.2945C52.3189 36.5442 53.7568 35.1863 54.6339 33.5326C54.9965 32.8501 54.5392 32.1069 53.7854 32.057C52.4725 31.9715 51.1597 31.8842 49.8468 31.7986C49.3163 31.763 48.8644 32.2745 48.8644 32.7788C48.8644 33.3383 49.3145 33.7233 49.8468 33.7589C51.1597 33.8444 52.4725 33.9318 53.7854 34.0173C53.5032 33.5255 53.2192 33.0336 52.937 32.5418C52.1993 33.9335 51.0525 34.9689 49.6092 35.5998C49.1234 35.8118 49.0108 36.5211 49.2573 36.9416C49.5503 37.4424 50.113 37.5066 50.6024 37.2927L50.6006 37.2945Z" fill="var(--fill-0, #101841)"/>
<path id="Vector_13" d="M86.2078 29.8455C87.5278 29.1862 89.2872 29.3964 90.35 30.4479C91.3396 31.4262 91.6879 33.0799 91.0377 34.3078C90.3697 35.5713 88.8264 36.309 87.4939 35.9366C87.1973 35.8528 86.9116 35.7192 86.6776 35.5178C86.5418 35.402 86.4346 35.2808 86.3542 35.1222C86.3632 35.1382 86.281 34.9582 86.3042 35.0188C86.3025 35.0117 86.2453 34.7373 86.2542 34.8353C86.2274 34.5769 86.2774 34.363 86.4328 34.151C86.3989 34.1973 86.5632 34.0387 86.5239 34.0601C86.4829 34.0815 86.7061 33.9995 86.6061 34.0191C86.6025 34.0191 86.9223 34.0369 86.8062 34.0191C87.5599 34.1492 87.6761 35.0634 87.3796 35.7495C86.9777 36.6797 86.0345 37.2749 85.2271 37.8184C84.7877 38.1142 84.5948 38.6809 84.8753 39.1585C85.1307 39.5933 85.7773 39.8072 86.2203 39.5096C87.3956 38.7201 88.596 37.863 89.1711 36.5211C89.7016 35.2808 89.6302 33.7233 88.5477 32.7877C87.5421 31.9181 85.9934 31.7541 85.0271 32.793C84.1626 33.725 84.0464 35.2238 84.7592 36.2769C86.2828 38.5295 89.5087 38.3584 91.4593 36.8133C93.4509 35.2362 93.8225 32.3992 92.6185 30.2251C91.1753 27.6233 87.7975 26.8677 85.2164 28.1544C84.7413 28.3914 84.6091 29.0596 84.8645 29.4945C85.1468 29.9756 85.7326 30.0843 86.2096 29.8455H86.2078Z" fill="var(--fill-0, #101841)"/>
<path id="Vector_14" d="M78.1519 36.7331C78.1001 37.8933 78.8897 38.9358 79.9203 39.4062C81.1957 39.9907 82.58 39.7199 83.8857 39.3902C85.1111 39.0801 84.5913 37.1894 83.3641 37.4994C82.5961 37.6937 81.6958 37.9717 80.9117 37.7026C80.4222 37.5351 80.0989 37.1608 80.1168 36.7314C80.174 35.4697 78.2091 35.4732 78.1519 36.7314V36.7331Z" fill="var(--fill-0, #101841)"/>
<path id="Vector_15" d="M85.3562 42.9097C86.6208 42.9097 86.6226 40.9495 85.3562 40.9495C84.0897 40.9495 84.0897 42.9097 85.3562 42.9097Z" fill="var(--fill-0, #101841)"/>
<path id="Vector_16" d="M70.3068 38.2123C69.7334 41.2934 70.3461 44.5207 72.1144 47.1261C72.4109 47.5645 72.979 47.7569 73.4595 47.4771C73.8953 47.2241 74.1114 46.5772 73.8113 46.137C72.3466 43.9808 71.7232 41.3077 72.2019 38.7326C72.2984 38.2122 72.0573 37.6759 71.516 37.5262C71.0373 37.3943 70.405 37.6883 70.3068 38.2105V38.2123Z" fill="var(--fill-0, #101841)"/>
<path id="Vector_17" d="M54.6253 53.0906C53.132 55.7886 51.8781 58.6167 50.8724 61.5304C50.6527 62.1684 51.2243 62.735 51.8191 62.7707C53.4606 62.8705 55.0164 62.2717 56.4454 61.5215C57.9387 60.7374 59.382 59.8463 60.8431 59.0016C63.9029 57.2303 66.9645 55.4607 70.0243 53.6894C71.1175 53.0567 70.1297 51.362 69.0329 51.9964C66.075 53.7072 63.1188 55.4179 60.1608 57.1305C58.7336 57.9574 57.3153 58.8074 55.872 59.604C54.6145 60.2972 53.2892 60.9013 51.8209 60.8104C52.137 61.2239 52.4532 61.6373 52.7676 62.0507C53.7196 59.2939 54.9111 56.6333 56.3222 54.0796C56.9331 52.9748 55.2379 51.9839 54.6253 53.0906Z" fill="var(--fill-0, #101841)"/>
<path id="Vector_18" d="M29.8468 54.4253C29.6217 52.8197 29.2448 51.2622 28.7607 49.7154C28.5232 48.9598 28.2802 48.2042 28.057 47.4451C27.8158 46.6217 27.6229 45.7877 27.2746 45.0001C26.9549 44.2819 26.4619 43.6493 25.7938 43.2252C25.308 42.9169 24.831 42.8028 24.297 43.0772C23.9522 43.2537 23.6218 43.5032 23.352 43.7812C22.316 44.854 22.0624 46.4043 22.1231 47.8389C22.1803 49.154 22.4947 50.5155 22.1321 51.7131C21.9856 52.196 21.7141 52.6219 21.2354 52.9017C20.528 53.3133 19.6295 53.3205 18.8347 53.3668C14.9586 53.5878 11.061 53.1797 7.32246 52.1301C6.38826 51.8681 5.47372 51.5545 4.56453 51.2194C3.71607 50.9076 2.71222 50.585 1.81375 50.8755C0.842042 51.1891 0.0721787 52.0998 0.00430214 53.1262C-0.0653606 54.1759 0.722365 55.0972 1.63513 55.5177C2.11741 55.7387 2.69256 55.6532 2.97836 55.1667C3.22664 54.7443 3.11055 54.0493 2.62648 53.8248C2.42464 53.7321 2.20671 53.627 2.06739 53.4452C2.01559 53.3775 1.95664 53.1761 1.95128 53.2724C1.95843 53.128 2.05489 52.9944 2.17099 52.8874C2.31746 52.7538 2.38176 52.736 2.52109 52.7288C2.92835 52.7057 3.38205 52.8785 3.78931 53.0193C4.35019 53.2153 4.90034 53.4345 5.46657 53.6181C8.0691 54.4645 10.7734 54.9902 13.4992 55.238C14.83 55.3591 16.1661 55.4073 17.5022 55.3805C18.7632 55.3556 20.1601 55.377 21.3693 54.9742C22.4482 54.6142 23.3378 53.8818 23.8004 52.834C24.2094 51.9073 24.3148 50.888 24.2684 49.8829C24.2219 48.8511 24.0165 47.8407 24.1076 46.8017C24.1844 45.9107 24.531 45.148 25.4026 44.7185H24.4113C25.1526 45.0411 25.4723 45.6327 25.7099 46.3723C26.0242 47.3488 26.2725 48.345 26.5815 49.3233C27.1656 51.1784 27.6854 53.0175 27.9569 54.9493C28.0302 55.4732 28.7018 55.7619 29.1662 55.6336C29.7324 55.4785 29.9271 54.9546 29.8521 54.4271L29.8468 54.4253Z" fill="var(--fill-0, #101841)"/>
<path id="Vector_19" d="M17.8343 65.6397C16.0284 65.3653 14.2333 65.0267 12.4524 64.6168C10.893 64.2586 9.30506 63.8897 7.8225 63.2749C7.1348 62.9898 6.4489 62.628 5.85587 62.1754C5.62724 62.0008 5.38073 61.7976 5.19853 61.5731C5.18781 61.5606 5.10386 61.4127 5.08779 61.3842C5.12172 61.4465 5.06636 61.3058 5.06993 61.3022C5.08422 61.2897 5.03241 61.5125 5.03063 61.5178C4.92881 61.721 4.60372 61.6871 4.94131 61.7513C5.12708 61.7869 5.31107 61.8457 5.49326 61.8903C5.95947 62.0061 6.42746 62.1148 6.89723 62.2164C7.78499 62.4071 8.6781 62.5728 9.57478 62.7136C11.6343 63.0361 13.7099 63.2375 15.7944 63.307C17.0591 63.3498 17.0573 61.3895 15.7944 61.3467C13.7456 61.279 11.7004 61.0919 9.6766 60.7569C8.66917 60.5894 7.66888 60.3916 6.67396 60.1599C5.72547 59.9389 4.57872 59.4471 3.70704 60.1207C2.93539 60.7177 3.00684 61.7869 3.48734 62.5461C3.94104 63.2624 4.72519 63.8167 5.4361 64.2551C6.95618 65.1906 8.71561 65.711 10.4357 66.1476C12.7025 66.7232 14.9978 67.1794 17.3091 67.5322C17.8325 67.6124 18.3648 67.4004 18.5184 66.8479C18.647 66.3846 18.3594 65.7235 17.8325 65.6415L17.8343 65.6397Z" fill="var(--fill-0, #101841)"/>
<path id="Vector_20" d="M4.78988 59.3884C4.62733 59.3652 4.81131 59.4685 4.88991 59.5577C4.956 59.6325 4.8899 59.743 4.92027 59.5951C4.90777 59.6521 4.91491 59.6913 4.88633 59.7448C4.84703 59.8196 4.72557 59.8125 4.84167 59.7858C4.71307 59.8161 5.33289 59.6165 5.03101 59.7056C5.19177 59.6574 5.3579 59.6574 5.5258 59.6574C6.54038 59.661 7.57461 59.8446 8.58025 59.964C10.7041 60.2152 12.8225 60.5057 14.9374 60.83C15.4608 60.9102 15.9931 60.6982 16.1467 60.1457C16.2753 59.6806 15.9877 59.0213 15.4608 58.9393C12.5939 58.4973 9.71807 58.1178 6.83332 57.8041C5.69549 57.6812 4.229 57.4923 3.39305 58.4777C2.61247 59.3973 2.94292 61.0849 4.2683 61.2773C4.79345 61.354 5.32395 61.1472 5.47757 60.593C5.60439 60.1315 5.32039 59.465 4.79167 59.3866L4.78988 59.3884Z" fill="var(--fill-0, #101841)"/>
<path id="Vector_21" d="M4.25971 57.3372C3.73098 57.2356 3.10759 57.1447 2.66461 56.8097C2.47348 56.6653 2.47348 56.619 2.43061 56.4729C2.46277 56.5834 2.4717 56.341 2.43061 56.4657C2.39489 56.578 2.50743 56.4087 2.43777 56.4426C2.77 56.2804 3.48449 56.4319 3.90604 56.4853C4.65982 56.5816 5.41183 56.6814 6.16383 56.7865C9.19684 57.2106 12.2173 57.7043 15.2271 58.2638C15.7487 58.3601 16.2864 58.1195 16.4364 57.5795C16.5686 57.1019 16.2739 56.4711 15.7505 56.3731C12.8836 55.8402 10.0078 55.3662 7.12124 54.9563C6.36924 54.8494 5.61724 54.7478 4.86345 54.648C4.17933 54.5572 3.4702 54.411 2.77714 54.4253C1.37138 54.4538 0.228201 55.4714 0.524715 56.9398C0.823014 58.4189 2.4324 58.9766 3.73456 59.2261C4.25435 59.3259 4.79379 59.08 4.94383 58.5418C5.07601 58.0625 4.78129 57.437 4.25793 57.3354L4.25971 57.3372Z" fill="var(--fill-0, #101841)"/>
<path id="Vector_22" d="M23.227 63.2999C24.681 62.9542 26.1761 63.2411 27.4264 64.0448C28.4928 64.7291 29.4788 63.0344 28.4178 62.3519C26.728 61.2666 24.6524 60.9459 22.7036 61.4092C21.4747 61.7014 21.9945 63.5922 23.2252 63.2999H23.227Z" fill="var(--fill-0, #101841)"/>
<path id="Vector_23" d="M19.3448 69.2663C20.5416 69.5176 21.758 69.678 22.9798 69.7439C23.5103 69.7724 23.9622 69.2734 23.9622 68.7638C23.9622 68.2096 23.5121 67.8122 22.9798 67.7837C21.9295 67.7284 20.897 67.593 19.8682 67.3756C19.3502 67.2669 18.8054 67.5288 18.6589 68.0599C18.525 68.5464 18.8232 69.1558 19.3448 69.2663Z" fill="var(--fill-0, #101841)"/>
<path id="Vector_24" d="M29.7217 56.5994C30.3076 57.4923 30.6863 58.508 30.747 59.579C30.8185 60.8033 30.4219 61.9563 30.279 63.1592C29.9843 65.6434 31.0114 68.0135 31.0882 70.4745C31.1275 71.7326 33.0923 71.738 33.053 70.4745C32.9744 67.96 31.8295 65.4438 32.285 62.9222C32.5136 61.6533 32.8226 60.4344 32.6708 59.1353C32.5225 57.8754 32.1135 56.6725 31.4169 55.6086C30.7274 54.5572 29.0251 55.5373 29.7199 56.5977L29.7217 56.5994Z" fill="var(--fill-0, #101841)"/>
<path id="Vector_25" d="M21.5358 69.1129C21.6912 70.323 21.8466 71.5347 22.002 72.7448C22.0699 73.2705 22.4057 73.7249 22.9844 73.7249C23.4631 73.7249 24.0347 73.274 23.9668 72.7448C23.8114 71.5347 23.656 70.323 23.5006 69.1129C23.4328 68.5872 23.097 68.1328 22.5182 68.1328C22.0395 68.1328 21.4679 68.5837 21.5358 69.1129Z" fill="var(--fill-0, #101841)"/>
<path id="Vector_26" d="M18.6819 74.6641C19.684 75.482 20.8951 75.6941 22.1651 75.6353C23.5476 75.5712 24.9391 75.368 26.2966 75.1007C29.017 74.5661 31.6499 73.6483 34.1364 72.424C34.6115 72.1888 34.7437 71.517 34.4882 71.0822C34.2042 70.5992 33.6219 70.4959 33.145 70.7311C30.9569 71.8092 28.6401 72.604 26.2537 73.1119C25.0927 73.3596 23.9192 73.5378 22.7349 73.6358C21.9132 73.7036 20.7683 73.8443 20.0734 73.2777C19.6626 72.9426 19.0856 72.8767 18.6837 73.2777C18.3372 73.6234 18.2711 74.3273 18.6837 74.6641H18.6819Z" fill="var(--fill-0, #101841)"/>
<path id="Vector_27" d="M55.6894 83.9753C53.5941 80.9619 49.3536 81.0243 46.0759 80.7017C45.1078 80.6073 44.1236 80.4486 43.1501 80.4308C42.2444 80.4148 41.3103 80.6803 40.8208 81.5001C40.3385 82.3073 40.5315 83.4229 41.0191 84.1838C41.4567 84.8646 42.1158 85.3903 42.8339 85.7538C43.7109 86.1975 44.6416 86.406 45.5936 86.6235C46.4296 86.8141 47.3655 87.003 48.0407 87.5662C48.448 87.9048 49.0321 87.9636 49.4304 87.5662C49.7805 87.2169 49.8395 86.5219 49.4304 86.1797C48.1908 85.1461 46.6814 84.8842 45.1578 84.5153C44.529 84.362 43.9378 84.1642 43.3894 83.8149C42.9589 83.5405 42.6231 83.2037 42.5267 82.7582C42.5177 82.7154 42.4892 82.621 42.5142 82.5123C42.541 82.4 42.566 82.4392 42.5142 82.4855C42.6481 82.3644 42.9536 82.3875 43.2108 82.3964C44.0485 82.4232 44.8916 82.5479 45.7258 82.6299C47.2977 82.7831 48.8999 82.8669 50.4468 83.1663C51.7632 83.4211 53.219 83.8541 53.9924 84.9661C54.2943 85.401 54.8534 85.6006 55.3375 85.3172C55.768 85.0659 55.993 84.4137 55.6894 83.9771V83.9753Z" fill="var(--fill-0, #101841)"/>
<path id="Vector_28" d="M46.4383 85.1959C41.1457 85.3902 35.7977 85.6005 30.6213 86.8194C29.312 87.1277 28.0187 87.5037 26.7541 87.9599C26.1914 88.1631 25.4859 88.3288 25.0357 88.7297C24.4016 89.2911 24.4981 90.1447 24.9607 90.7827C26.4076 92.7786 29.546 92.1923 31.6358 92.0016C34.4384 91.7468 37.5286 91.4117 40.0847 92.857C41.1868 93.4807 42.1781 91.7878 41.076 91.164C38.6057 89.7669 35.712 89.7045 32.9541 89.9255C31.5019 90.0413 30.0443 90.2409 28.585 90.2409C28.0634 90.2409 27.6561 90.2124 27.1756 90.0538C26.8648 89.9522 26.5558 89.7936 26.4987 89.4764V89.9968C26.3022 90.1768 26.2611 90.2427 26.3718 90.1946C26.4719 90.1554 26.5719 90.1162 26.6737 90.077C26.8756 90.0004 27.0774 89.9237 27.2792 89.8507C27.6847 89.7045 28.092 89.5655 28.5028 89.4354C29.3227 89.1753 30.1533 88.9472 30.991 88.7458C32.6397 88.3502 34.3152 88.0561 35.9978 87.8476C39.4631 87.4182 42.9551 87.2827 46.4419 87.1544C47.7029 87.1081 47.7083 85.1478 46.4419 85.1942L46.4383 85.1959Z" fill="var(--fill-0, #101841)"/>
<path id="Vector_29" d="M31.0685 91.852C33.555 93.6643 36.4254 94.942 39.4299 95.6121C40.6624 95.8883 41.1875 93.9976 39.9514 93.7213C37.0935 93.0834 34.4266 91.8823 32.0599 90.1572C31.6312 89.8454 30.9649 90.0842 30.7167 90.5083C30.4255 91.0055 30.6398 91.5365 31.0685 91.8502V91.852Z" fill="var(--fill-0, #101841)"/>
<path id="Vector_30" d="M31.8409 93.6251C32.977 94.5732 34.1291 95.539 35.4402 96.2412C36.8906 97.0164 38.3964 97.2801 40.0147 97.469C43.4067 97.8646 46.8131 98.1337 50.2248 98.2816C51.4894 98.3369 51.4858 96.3766 50.2248 96.3214C46.9899 96.1806 43.7586 95.9329 40.5416 95.5693C39.1662 95.4143 37.8123 95.261 36.5655 94.6195C35.3437 93.9904 34.2809 93.1172 33.2324 92.2405C32.8251 91.9001 32.2411 91.8431 31.8427 92.2405C31.4926 92.5897 31.4337 93.2847 31.8427 93.6269L31.8409 93.6251Z" fill="var(--fill-0, #101841)"/>
<path id="Vector_31" d="M55.3907 50.3195C54.1743 51.28 52.4738 51.4707 51.0145 51.8253C50.1749 52.0285 49.3497 52.2833 48.5709 52.6629C47.7385 53.0674 47.0062 53.6662 46.3614 54.3255C43.8106 56.9327 42.1816 60.2758 40.958 63.6688C40.256 65.6148 39.6845 67.6036 39.1218 69.5906C38.7771 70.8059 40.6722 71.3263 41.017 70.1109C41.969 66.7553 42.93 63.3587 44.5537 60.2526C45.345 58.7379 46.2863 57.2962 47.4456 56.0345C48.019 55.4108 48.6299 54.8388 49.3872 54.4431C50.0588 54.0921 50.8037 53.8925 51.5378 53.7143C53.3991 53.2616 55.2407 52.9195 56.7822 51.7041C57.1984 51.3762 57.1269 50.6616 56.7822 50.3177C56.3714 49.9078 55.8105 49.988 55.3925 50.3177L55.3907 50.3195Z" fill="var(--fill-0, #101841)"/>
<path id="Vector_32" d="M45.3799 63.4121C44.4511 66.0603 42.7988 68.3663 41.6288 70.9021C40.4285 73.5021 39.664 76.4389 40.4928 79.2671C40.8465 80.4753 42.7435 79.9603 42.388 78.7467C41.6503 76.2322 42.4737 73.5966 43.5973 71.3262C44.819 68.8545 46.3588 66.5503 47.2751 63.9343C47.4502 63.4353 47.0751 62.8615 46.5892 62.7278C46.048 62.5799 45.5568 62.9114 45.3799 63.4121Z" fill="var(--fill-0, #101841)"/>
<path id="Vector_33" d="M55.7313 85.3813C54.6471 87.7354 53.5629 90.0895 52.4804 92.4418C51.9392 93.618 51.3962 94.7959 50.8549 95.9721C50.4173 96.9237 49.6546 98.3957 50.9353 99.0889C52.0464 99.6912 53.0395 97.9983 51.9267 97.3959C51.9642 97.4155 52.1964 97.804 52.1768 97.8058C52.1803 97.8058 52.2107 97.6953 52.2393 97.6258C52.3179 97.4298 52.4233 97.2373 52.5126 97.0431C52.7466 96.5352 52.9806 96.0273 53.2146 95.5177C53.6826 94.5019 54.1505 93.4843 54.6185 92.4686C55.5545 90.4352 56.4905 88.4037 57.4265 86.3704C57.648 85.8892 57.564 85.3154 57.0746 85.0285C56.6513 84.7808 55.9528 84.8966 55.7313 85.3796V85.3813Z" fill="var(--fill-0, #101841)"/>
<path id="Vector_34" d="M100.779 101.181C101.995 97.3496 101.51 93.1065 100.956 89.2038C100.343 84.8735 99.5697 80.5502 98.5748 76.2929C98.0211 73.9245 97.4084 71.5687 96.7761 69.2199C96.158 66.9264 95.5864 64.6044 94.838 62.3483C94.1628 60.3115 93.2554 58.3904 91.8711 56.7349C90.7083 55.3449 89.2471 54.2079 87.7038 53.267C84.2439 51.1571 80.3107 50.0094 76.6739 48.2951C76.1952 48.0688 75.6147 48.1614 75.3289 48.6462C75.0788 49.0721 75.2003 49.7599 75.6807 49.9863C78.8549 51.4832 82.2219 52.5435 85.3317 54.1776C86.8536 54.9778 88.3058 55.9116 89.5419 57.1109C90.8726 58.4029 91.8532 59.9657 92.5231 61.6925C93.334 63.7829 93.8574 65.9873 94.4468 68.1471C95.0809 70.4656 95.7008 72.7876 96.2741 75.1221C97.3191 79.3883 98.114 83.6955 98.8052 88.0295C99.1482 90.184 99.434 92.3527 99.5179 94.5357C99.5965 96.594 99.5108 98.6826 98.8838 100.659C98.5016 101.864 100.397 102.38 100.779 101.179V101.181Z" fill="var(--fill-0, #101841)"/>
<path id="Vector_35" d="M100.33 102.407C100.494 102.004 100.644 101.594 100.78 101.181C100.939 100.693 100.594 100.088 100.094 99.9744C99.5547 99.8515 99.0563 100.137 98.8848 100.659C98.7491 101.074 98.599 101.482 98.4347 101.885C98.24 102.361 98.6455 102.983 99.1206 103.091C99.6904 103.221 100.121 102.917 100.33 102.407Z" fill="var(--fill-0, #101841)"/>
<path id="Vector_36" d="M51.3734 100.643C53.8777 102.541 56.5946 104.139 59.4079 105.535C62.3212 106.98 65.3149 108.302 68.3944 109.353C74.2193 111.342 80.5979 112.538 86.7586 111.813C90.1774 111.41 93.4373 110.387 96.1523 108.213C96.5667 107.882 96.4989 107.172 96.1523 106.827C95.7433 106.418 95.1788 106.493 94.7626 106.827C92.6102 108.552 89.9059 109.409 87.2069 109.794C84.2953 110.209 81.2981 110.114 78.3883 109.735C72.3509 108.945 66.5957 106.839 61.1405 104.203C58.0629 102.717 55.0906 101.015 52.3648 98.9499C51.9415 98.6291 51.2663 98.884 51.0198 99.301C50.725 99.8035 50.9483 100.32 51.3717 100.641L51.3734 100.643Z" fill="var(--fill-0, #101841)"/>
<path id="Vector_37" d="M98.4811 107.14C99.7457 107.14 99.7475 105.18 98.4811 105.18C97.2146 105.18 97.2146 107.14 98.4811 107.14Z" fill="var(--fill-0, #101841)"/>
<path id="Vector_38" d="M58.7519 87.2757C64.1302 89.4426 69.5121 91.6114 75.0172 93.438C76.5766 93.9548 78.1467 94.4448 79.7275 94.8993C80.9439 95.2503 81.4637 93.3596 80.2491 93.0085C74.6743 91.4029 69.2406 89.3607 63.8533 87.2222C62.3243 86.6145 60.7989 86.0015 59.2734 85.3867C58.7804 85.1889 58.1946 85.6023 58.0642 86.071C57.9105 86.6306 58.2571 87.0779 58.7501 87.2774L58.7519 87.2757Z" fill="var(--fill-0, #101841)"/>
<path id="Vector_39" d="M84.1176 97.011H84.3659C84.5017 97.0164 84.6267 96.9878 84.7446 96.9272C84.8661 96.888 84.9714 96.8203 85.0607 96.7241C85.1572 96.635 85.2251 96.5299 85.2644 96.4087C85.3251 96.2911 85.3537 96.1663 85.3483 96.0309C85.3358 95.9436 85.3251 95.858 85.3126 95.7707C85.2662 95.605 85.1822 95.4606 85.0607 95.3377C84.8678 95.1612 84.6321 95.0508 84.3659 95.0508H84.1176C83.9819 95.0454 83.8568 95.0739 83.739 95.1345C83.6175 95.1737 83.5121 95.2414 83.4228 95.3377C83.3263 95.4268 83.2585 95.5319 83.2192 95.6531C83.1584 95.7707 83.1299 95.8954 83.1352 96.0309C83.1477 96.1182 83.1584 96.2037 83.1709 96.2911C83.2174 96.4568 83.3013 96.6011 83.4228 96.7241C83.6157 96.9005 83.8515 97.011 84.1176 97.011Z" fill="var(--fill-0, #101841)"/>
<path id="Vector_40" d="M80.3662 67.869C80.4323 71.2995 80.9646 74.7175 81.9577 78.0036C82.3221 79.2082 84.2191 78.695 83.8529 77.4832C82.908 74.3575 82.3954 71.1355 82.3328 67.8708C82.3096 66.6109 80.3448 66.6074 80.368 67.8708L80.3662 67.869Z" fill="var(--fill-0, #101841)"/>
<path id="Vector_41" d="M34.4345 71.5651C34.84 75.024 35.2454 78.4848 35.6509 81.9437C35.7116 82.4695 36.0582 82.9239 36.6333 82.9239C37.1174 82.9239 37.6783 82.473 37.6157 81.9437C37.2103 78.4848 36.8048 75.024 36.3993 71.5651C36.3386 71.0394 35.9921 70.585 35.4169 70.585C34.9328 70.585 34.372 71.0358 34.4345 71.5651Z" fill="var(--fill-0, #101841)"/>
<path id="Vector_42" d="M18.4986 78.483C19.7633 78.483 19.765 76.5228 18.4986 76.5228C17.2322 76.5228 17.2322 78.483 18.4986 78.483Z" fill="var(--fill-0, #101841)"/>
<path id="Vector_43" d="M17.8405 83.9218C18.7908 90.2374 19.7107 96.6688 21.9078 102.697C22.8295 105.226 24.1155 107.739 26.4037 109.293C28.8062 110.925 31.9999 110.993 34.6846 110.075C37.8445 108.995 40.3541 106.671 42.5422 104.234C43.3835 103.296 41.9974 101.904 41.1525 102.847C39.3645 104.841 37.405 106.746 34.94 107.878C32.7394 108.888 29.9404 109.109 27.7934 107.851C25.7696 106.664 24.6353 104.428 23.8494 102.304C22.8116 99.5005 22.0846 96.5779 21.4755 93.6572C20.7681 90.2606 20.2519 86.8283 19.7357 83.3997C19.6571 82.8758 18.9944 82.5871 18.5264 82.7154C17.9638 82.8686 17.7619 83.3961 17.8405 83.9218Z" fill="var(--fill-0, #101841)"/>
<path id="Vector_44" d="M43.4894 101.22C43.6394 107.149 43.5554 113.083 43.2375 119.005C43.2089 119.534 43.7091 119.985 44.2199 119.985C44.7754 119.985 45.1738 119.536 45.2023 119.005C45.5203 113.083 45.6042 107.149 45.4542 101.22C45.422 99.9603 43.4572 99.9567 43.4894 101.22Z" fill="var(--fill-0, #101841)"/>
<path id="Vector_45" d="M87.8645 112.584C87.643 115.186 87.5448 117.797 87.5716 120.408C87.5841 121.667 89.5489 121.671 89.5364 120.408C89.5096 117.797 89.6079 115.186 89.8294 112.584C89.874 112.057 89.3453 111.604 88.8469 111.604C88.2771 111.604 87.9092 112.055 87.8645 112.584Z" fill="var(--fill-0, #101841)"/>
</g>
</svg>
