<svg preserveAspectRatio="none" width="100%" height="100%" overflow="visible" style="display: block;" viewBox="0 0 146.221 28.0055" fill="none" xmlns="http://www.w3.org/2000/svg">
<g id="&#227;&#130;&#176;&#227;&#131;&#171;&#227;&#131;&#188;&#227;&#131;&#151; 57671">
<path id="&#227;&#131;&#145;&#227;&#130;&#185; 400" d="M27.8376 27.554L14.8707 0.182796C14.8535 0.145053 14.829 0.11111 14.7986 0.0829513C14.7682 0.054793 14.7324 0.0329857 14.6935 0.0188054C14.6545 0.00462516 14.6131 -0.00164335 14.5717 0.000366689C14.5303 0.00237673 14.4897 0.012625 14.4523 0.0305117C14.4149 0.0483985 14.3815 0.0735646 14.3539 0.104537C14.3264 0.13551 14.3053 0.171668 14.2918 0.210895C14.2784 0.250122 14.273 0.29163 14.2758 0.33299C14.2786 0.374351 14.2897 0.414734 14.3083 0.451775L27.0586 27.3732H21.3288V20.599C21.3246 18.8004 20.6668 17.0647 19.4779 15.7151C18.289 14.3655 16.65 13.4941 14.8663 13.2632L16.1117 8.9185C16.1324 8.82394 16.1148 8.72502 16.0628 8.6434C16.0325 8.60481 15.994 8.57353 15.95 8.55191C15.906 8.53028 15.8576 8.51887 15.8086 8.51852H5.70532C5.63682 8.51757 5.56993 8.53933 5.51511 8.58041C5.46028 8.62149 5.42061 8.67957 5.40228 8.74558L0.0139729 27.6003C0.0130841 27.6134 0.0130841 27.6265 0.0139729 27.6396C0.0139729 27.6562 0 27.6719 0 27.6885C0 27.7051 0.0104797 27.706 0.0104797 27.7199C0.0119995 27.737 0.0149203 27.754 0.0192128 27.7706C0.0269505 27.7977 0.0377934 27.8237 0.0515252 27.8483C0.0593849 27.8562 0.0602583 27.8658 0.0637515 27.8789C0.0672447 27.892 0.0777244 27.8789 0.079471 27.8937C0.101186 27.9146 0.124877 27.9333 0.150209 27.9496C0.158942 27.9619 0.172042 27.9662 0.182521 27.9776C0.224995 27.9959 0.270751 28.0054 0.317011 28.0055H27.552C27.6058 28.0049 27.6586 27.9909 27.7056 27.9646C27.7526 27.9384 27.7922 27.9008 27.821 27.8553C27.8484 27.8105 27.8643 27.7596 27.8672 27.7072C27.8701 27.6548 27.8599 27.6015 27.8376 27.554ZM5.94461 9.1473H15.3955L14.234 13.2117C14.1345 13.2117 14.0271 13.196 13.9284 13.196C11.9656 13.1987 10.084 13.9797 8.6961 15.3676C7.3082 16.7555 6.52726 18.6371 6.52448 20.5999V27.3732H0.732705L5.94461 9.1473ZM7.14628 27.3732V20.599C7.14859 18.8023 7.86365 17.0799 9.13451 15.8099C10.4054 14.5398 12.1282 13.8259 13.9249 13.8247C13.9712 13.8247 14.007 13.8247 14.0541 13.8309L10.1836 27.3732H7.14628ZM10.8386 27.3732L14.6952 13.8736C16.3464 14.0642 17.8702 14.8542 18.9777 16.0936C20.0852 17.3331 20.6993 18.9359 20.7035 20.5981V27.3732H10.8386Z" fill="var(--fill-0, white)"/>
<path id="&#227;&#131;&#145;&#227;&#130;&#185; 401" d="M44.2959 14.4904V15.9803C43.679 15.4148 42.8792 15.0903 42.0428 15.0659C41.637 15.0589 41.2343 15.1377 40.8611 15.297C40.4879 15.4564 40.1525 15.6928 39.877 15.9908C39.5879 16.2872 39.3609 16.6383 39.2093 17.0235C39.0577 17.4088 38.9845 17.8204 38.994 18.2343C38.9841 18.6432 39.0572 19.0498 39.209 19.4295C39.3608 19.8093 39.588 20.1544 39.877 20.4438C40.156 20.7364 40.4929 20.9678 40.8662 21.1231C41.2395 21.2784 41.6411 21.3543 42.0454 21.3459C42.4335 21.3572 42.8194 21.2839 43.1763 21.1311C43.3626 21.0506 43.5409 20.953 43.709 20.8394C43.9133 20.7032 44.1092 20.5551 44.2959 20.3957V21.9118C43.6072 22.3101 42.8261 22.5209 42.0305 22.5231C41.4643 22.5325 40.902 22.4268 40.3778 22.2125C39.8536 21.9981 39.3784 21.6795 38.9809 21.276C38.5758 20.8829 38.2555 20.411 38.0396 19.8894C37.8238 19.3678 37.7171 18.8075 37.726 18.243C37.7192 17.2005 38.0941 16.1916 38.7801 15.4065C39.1857 14.9148 39.698 14.5221 40.2782 14.2581C40.8584 13.9942 41.4912 13.8661 42.1283 13.8835C42.8922 13.8868 43.6411 14.0971 44.2959 14.4904Z" fill="var(--fill-0, white)"/>
<path id="&#227;&#131;&#145;&#227;&#130;&#185; 402" d="M45.4626 18.1677C45.4562 17.6028 45.5678 17.0428 45.7902 16.5236C46.0126 16.0043 46.341 15.5372 46.7542 15.1521C47.1564 14.7436 47.6373 14.4211 48.1678 14.204C48.6983 13.9869 49.2674 13.8799 49.8405 13.8893C50.9877 13.8921 52.087 14.3493 52.8979 15.1608C53.7087 15.9723 54.165 17.072 54.1669 18.2192C54.1771 18.7885 54.0681 19.3536 53.847 19.8783C53.6259 20.4031 53.2976 20.8758 52.8831 21.2661C52.0873 22.0476 51.0239 22.497 49.9088 22.5229C48.7937 22.5489 47.7105 22.1495 46.8791 21.4059C46.4167 21.0057 46.0495 20.5073 45.8045 19.947C45.5594 19.3868 45.4426 18.7788 45.4626 18.1677ZM46.7324 18.186C46.7189 18.6085 46.7945 19.029 46.9545 19.4203C47.1144 19.8115 47.3551 20.1646 47.6607 20.4566C48.2396 21.0288 49.0215 21.3484 49.8355 21.3455C50.6494 21.3425 51.429 21.0173 52.0037 20.4409C52.5797 19.8406 52.9019 19.0413 52.9034 18.2094C52.9049 17.3775 52.5854 16.5771 52.0116 15.9748C51.7301 15.6789 51.3898 15.4451 51.0126 15.2886C50.6354 15.132 50.2296 15.0561 49.8213 15.0657C49.4129 15.0578 49.0072 15.1345 48.6298 15.291C48.2524 15.4474 47.9115 15.6802 47.6284 15.9748C47.3361 16.2629 47.1058 16.6077 46.9517 16.9882C46.7976 17.3686 46.723 17.7757 46.7324 18.186Z" fill="var(--fill-0, white)"/>
<path id="&#227;&#131;&#145;&#227;&#130;&#185; 403" d="M61.907 14.4904V15.9802C61.2889 15.4168 60.4899 15.0925 59.6539 15.0659C59.2477 15.0577 58.8444 15.1359 58.4707 15.2954C58.097 15.4548 57.7615 15.6918 57.4863 15.9907C57.1972 16.2871 56.9699 16.6382 56.8179 17.0234C56.6658 17.4086 56.592 17.8202 56.6008 18.2342C56.5917 18.6432 56.6654 19.0498 56.8176 19.4295C56.9698 19.8092 57.1973 20.1542 57.4863 20.4437C57.7654 20.7365 58.1025 20.9679 58.476 21.1232C58.8495 21.2785 59.2512 21.3543 59.6556 21.3458C60.0426 21.3568 60.4273 21.2835 60.7831 21.131C60.9683 21.0496 61.146 20.952 61.314 20.8393C61.5203 20.7033 61.7183 20.5552 61.907 20.3957V21.9117C61.2163 22.3099 60.4336 22.5206 59.6364 22.523C59.0727 22.5258 58.514 22.4172 57.9924 22.2033C57.4708 21.9895 56.9966 21.6748 56.597 21.2771C56.1974 20.8795 55.8803 20.4068 55.664 19.8863C55.4476 19.3657 55.3362 18.8076 55.3362 18.2438C55.3275 17.2012 55.7023 16.1916 56.3894 15.4073C56.7938 14.916 57.3049 14.5233 57.8839 14.2594C58.463 13.9955 59.0946 13.8672 59.7307 13.8843C60.4973 13.8877 61.249 14.097 61.907 14.4904Z" fill="var(--fill-0, white)"/>
<path id="&#227;&#131;&#145;&#227;&#130;&#185; 404" d="M63.0782 18.1677C63.07 17.6025 63.1807 17.0419 63.403 16.5223C63.6254 16.0027 63.9544 15.5356 64.3689 15.1513C64.7702 14.7429 65.2503 14.4203 65.7801 14.2032C66.3099 13.9861 66.8783 13.879 67.4508 13.8885C68.5985 13.8933 69.6979 14.3507 70.5103 15.1614C71.3226 15.9722 71.7823 17.0707 71.7894 18.2183C71.7979 18.7875 71.6879 19.3523 71.4666 19.8768C71.2454 20.4013 70.9175 20.8741 70.5039 21.2653C69.7056 22.0466 68.6405 22.4956 67.5238 22.5216C66.4071 22.5475 65.3222 22.1484 64.4886 21.405C64.0274 21.0044 63.6617 20.5056 63.4183 19.9453C63.1748 19.385 63.0598 18.7773 63.0817 18.1668M64.3471 18.1851C64.3324 18.8009 64.5024 19.407 64.8353 19.9253C65.1682 20.4436 65.6487 20.8503 66.2148 21.093C66.781 21.3358 67.4068 21.4033 68.0117 21.2871C68.6167 21.1709 69.1729 20.8761 69.6088 20.4409C70.1822 19.8399 70.5037 19.0421 70.5071 18.2115C70.5105 17.3808 70.1956 16.5804 69.6271 15.9748C69.339 15.6867 68.997 15.4581 68.6206 15.3021C68.2442 15.1462 67.8408 15.0659 67.4334 15.0659C67.0259 15.0659 66.6225 15.1462 66.2461 15.3021C65.8697 15.4581 65.5277 15.6867 65.2396 15.9748C64.9473 16.2629 64.7169 16.6078 64.5629 16.9882C64.4088 17.3686 64.3342 17.7765 64.3436 18.1869" fill="var(--fill-0, white)"/>
<path id="&#227;&#131;&#145;&#227;&#130;&#185; 405" d="M77.19 14.0448L79.4894 19.8156L81.829 14.0448H83.1984L79.4641 22.998L75.8119 14.0448H77.19Z" fill="var(--fill-0, white)"/>
<path id="&#233;&#149;&#183;&#230;&#150;&#185;&#229;&#189;&#162; 1760" d="M85.4899 14.0448H84.2428V22.3709H85.4899V14.0448Z" fill="var(--fill-0, white)"/>
<path id="&#227;&#131;&#145;&#227;&#130;&#185; 406" d="M88.7543 14.0448V21.1902H91.1996V22.3701H87.4933V14.0448H88.7543Z" fill="var(--fill-0, white)"/>
<path id="&#227;&#131;&#145;&#227;&#130;&#185; 407" d="M93.644 14.0448V21.1902H96.0953V22.3701H92.3881V14.0448H93.644Z" fill="var(--fill-0, white)"/>
<path id="&#227;&#131;&#145;&#227;&#130;&#185; 408" d="M102.181 20.3461H98.614L97.69 22.3696H96.3347L100.452 13.5195L104.434 22.3713H103.058L102.181 20.3461ZM101.67 19.1671L100.435 16.3341L99.1388 19.1671H101.67Z" fill="var(--fill-0, white)"/>
<path id="&#227;&#131;&#145;&#227;&#130;&#185; 409" d="M117.138 18.1821C117.14 19.0379 116.888 19.8752 116.415 20.588C115.941 21.3008 115.266 21.857 114.476 22.1862C113.686 22.5154 112.817 22.6028 111.977 22.4373C111.137 22.2718 110.365 21.8609 109.759 21.2566C109.153 20.6523 108.74 19.8817 108.572 19.0425C108.405 18.2033 108.489 17.3331 108.816 16.5422C109.143 15.7512 109.698 15.0751 110.409 14.5994C111.121 14.1236 111.957 13.8697 112.813 13.8697C113.384 13.855 113.952 13.9564 114.482 14.1677C115.013 14.3791 115.495 14.696 115.899 15.0992C116.304 15.5025 116.622 15.9837 116.835 16.5136C117.048 17.0435 117.151 17.6111 117.138 18.1821ZM115.866 18.1821C115.849 17.5816 115.655 16.9994 115.309 16.5084C114.963 16.0173 114.48 15.6392 113.92 15.4212C113.36 15.2032 112.748 15.155 112.161 15.2826C111.574 15.4102 111.038 15.708 110.619 16.1387C110.2 16.5695 109.918 17.1141 109.807 17.7045C109.696 18.2949 109.761 18.9049 109.995 19.4584C110.229 20.0118 110.62 20.4841 111.121 20.8163C111.621 21.1485 112.209 21.3257 112.809 21.326C113.222 21.3379 113.632 21.264 114.014 21.1091C114.396 20.9542 114.742 20.7215 115.029 20.4259C115.316 20.1303 115.539 19.7782 115.683 19.3919C115.827 19.0057 115.89 18.5937 115.866 18.1821Z" fill="var(--fill-0, white)"/>
<path id="&#227;&#131;&#145;&#227;&#130;&#185; 410" d="M119.364 17.0846L120.723 20.0879L122.193 16.6357L123.664 20.0879L125.023 17.0846H126.394L123.664 22.7061L122.193 19.3535L120.724 22.7061L117.994 17.0846H119.364Z" fill="var(--fill-0, white)"/>
<path id="&#227;&#131;&#145;&#227;&#130;&#185; 411" d="M127.051 17.0845H128.274V17.571C128.45 17.368 128.668 17.2068 128.914 17.0989C129.16 16.991 129.427 16.9393 129.695 16.9474C129.992 16.9249 130.289 16.9782 130.56 17.1024C130.83 17.2267 131.064 17.4176 131.241 17.6574C131.505 18.0952 131.619 18.6074 131.565 19.1158V22.3296H130.342V19.4128C130.342 18.0792 129.843 18.0417 129.381 18.0417C128.833 18.0417 128.272 18.1168 128.272 19.8119V22.3296H127.05L127.051 17.0845Z" fill="var(--fill-0, white)"/>
<path id="&#227;&#131;&#145;&#227;&#130;&#185; 412" d="M137.63 21.1354C137.417 21.5221 137.113 21.8516 136.745 22.096C136.278 22.3717 135.742 22.5101 135.199 22.4951C134.874 22.5134 134.548 22.4628 134.243 22.3468C133.938 22.2308 133.661 22.0519 133.429 21.8218C132.916 21.281 132.638 20.5586 132.656 19.8132C132.644 19.0132 132.943 18.2398 133.491 17.657C133.72 17.425 133.994 17.2423 134.297 17.1202C134.599 16.9981 134.923 16.9392 135.249 16.947C135.562 16.9385 135.873 16.9951 136.163 17.1131C136.452 17.2311 136.714 17.408 136.932 17.6325C137.452 18.2504 137.716 19.0444 137.667 19.8508V20.0001H133.903C133.928 20.394 134.086 20.7677 134.352 21.0594C134.477 21.1766 134.624 21.267 134.785 21.3249C134.945 21.3829 135.116 21.4073 135.287 21.3965C135.587 21.4094 135.883 21.3167 136.122 21.1345C136.32 20.9776 136.486 20.7825 136.608 20.5607L137.63 21.1354ZM136.421 19.0036C136.377 18.7327 136.246 18.4836 136.047 18.2936C135.81 18.094 135.509 17.9878 135.199 17.9947C134.889 18.0016 134.592 18.1212 134.365 18.3312C134.178 18.5154 134.049 18.749 133.991 19.0045L136.421 19.0036Z" fill="var(--fill-0, white)"/>
<path id="&#227;&#131;&#145;&#227;&#130;&#185; 413" d="M138.761 17.0848H139.983V17.5581C140.129 17.3863 140.302 17.2389 140.494 17.1215C140.723 16.9953 140.981 16.9348 141.242 16.9468C141.579 16.9388 141.912 17.025 142.202 17.1957L141.704 18.3048C141.519 18.1814 141.302 18.1163 141.08 18.1179C140.94 18.1066 140.799 18.1263 140.668 18.1759C140.536 18.2254 140.417 18.3034 140.32 18.4044C140.057 18.7492 139.936 19.1819 139.983 19.613V22.3299H138.761V17.0848Z" fill="var(--fill-0, white)"/>
<path id="&#227;&#131;&#145;&#227;&#130;&#185; 414" d="M145.122 18.4687C145.047 18.3352 144.939 18.2235 144.807 18.1447C144.676 18.066 144.527 18.0229 144.373 18.0198C144.305 18.0169 144.237 18.0275 144.173 18.051C144.109 18.0745 144.05 18.1105 144 18.1569C143.928 18.2304 143.888 18.3287 143.888 18.4311C143.887 18.4921 143.903 18.5521 143.934 18.6047C143.965 18.6574 144.009 18.7006 144.063 18.7298C144.137 18.7796 144.212 18.8049 144.474 18.9412L145.097 19.2529C145.369 19.3705 145.618 19.5352 145.833 19.7393C145.961 19.8655 146.062 20.0171 146.129 20.1845C146.195 20.3519 146.226 20.5313 146.22 20.7113C146.224 21.1543 146.059 21.5821 145.759 21.9078C145.571 22.1069 145.342 22.2625 145.088 22.3638C144.834 22.465 144.561 22.5094 144.288 22.4938C143.882 22.5124 143.483 22.3939 143.153 22.1575C142.839 21.9098 142.605 21.5759 142.479 21.1969L143.477 20.7236C143.536 20.9081 143.634 21.078 143.763 21.2222C143.908 21.3571 144.101 21.4287 144.299 21.4213C144.481 21.4269 144.659 21.3647 144.798 21.2467C144.905 21.136 144.967 20.9894 144.973 20.8354C144.973 20.6861 144.915 20.5426 144.81 20.4363C144.658 20.2956 144.48 20.1856 144.286 20.1123L143.837 19.9C143.573 19.7914 143.329 19.6397 143.114 19.4512C142.991 19.3396 142.895 19.2027 142.83 19.0499C142.766 18.8972 142.735 18.7322 142.74 18.5665C142.738 18.1509 142.895 17.75 143.177 17.4452C143.344 17.2766 143.545 17.145 143.766 17.0591C143.987 16.9732 144.224 16.9348 144.461 16.9465C144.806 16.9335 145.146 17.0295 145.433 17.2207C145.683 17.3838 145.889 17.6065 146.032 17.8687L145.122 18.4687Z" fill="var(--fill-0, white)"/>
</g>
</svg>
