<svg preserveAspectRatio="none" width="100%" height="100%" overflow="visible" style="display: block;" viewBox="0 0 88.6623 20.7607" fill="none" xmlns="http://www.w3.org/2000/svg">
<g id="logo type">
<path id="Vector" d="M75.3895 16.1655C72.9363 17.026 70.3366 17.8864 68.3228 18.5455L67.8285 16.4218C68.6341 16.2022 69.6227 15.9275 70.7028 15.598V9.90443H68.2862V7.98216H70.7028V3.51517H68.0482V1.59289H75.1881V3.51517H72.6983V7.98216H74.8402V9.90443H72.6983V14.9756C73.4672 14.7376 74.2727 14.4813 75.0416 14.2067L75.4078 16.1838L75.3895 16.1655ZM88.644 18.1244V20.0284H74.3093V18.1244H80.8267V15.4516H75.957V13.5659H80.8267V11.2592H76.1584V1.15352H87.6554V11.2592H82.9687V13.5659H87.9483V15.4516H82.9687V18.1244H88.6623H88.644ZM78.0623 5.3459H80.9915V2.92933H78.0623V5.3459ZM78.0623 9.48336H80.9915V7.03017H78.0623V9.48336ZM85.6416 2.92933H82.7673V5.3459H85.6416V2.92933ZM85.6416 7.03017H82.7673V9.48336H85.6416V7.03017Z" fill="var(--fill-0, #101010)"/>
<path id="Vector_2" d="M64.2219 3.46009H59.8648C60.2859 4.04592 60.7069 4.65006 60.9449 5.14436L58.986 5.7302C58.7663 5.12605 58.1622 4.229 57.5764 3.46009H55.9836C55.6541 3.91777 55.288 4.32053 54.9035 4.68668H54.9401V6.31603H63.5812V10.5999H61.5491V7.94539H46.5737V10.5999H44.6148V6.31603H52.9446V4.68668H53.0545C52.7799 4.55853 52.5419 4.41207 52.3405 4.32053C52.7066 4.06423 53.0545 3.753 53.4023 3.44178H50.0154C50.345 4.04592 50.6745 4.65006 50.821 5.10775L48.9536 5.67528C48.7705 5.08944 48.3312 4.21069 47.8918 3.46009H47.1961C46.6103 4.33884 45.9512 5.12605 45.3288 5.7302C44.926 5.40066 44.1205 4.85144 43.6262 4.59514C44.9443 3.47839 46.1892 1.7392 46.8849 0.0183073L48.8438 0.530913C48.6607 0.933674 48.4593 1.35474 48.2396 1.7575H53.6952V3.16717C54.574 2.2518 55.288 1.15336 55.7273 0L57.7411 0.494298C57.5581 0.915367 57.3384 1.35474 57.1187 1.7575H64.2036V3.46009H64.2219ZM49.9239 15.1402H61.7688V20.7239H59.6817V20.0648H49.9239V20.7605H47.9467V9.13536H60.2309V13.822H49.9239V15.1219V15.1402ZM49.9239 10.6915V12.2842H58.1439V10.6915H49.9239ZM49.9239 16.6963V18.4721H59.6817V16.6963H49.9239Z" fill="var(--fill-0, #101010)"/>
<path id="Vector_3" d="M28.889 8.11046C30.7197 6.99371 32.5687 6.09666 33.7221 5.4559C34.4727 5.03483 35.0219 4.68699 35.5345 4.26592L36.6513 6.33465C36.0654 6.7008 35.443 7.01202 34.729 7.39648C33.2461 8.12877 30.9211 9.22721 28.7791 10.6186C26.8019 11.9184 25.557 13.3097 25.557 14.9574C25.557 16.7332 27.2413 17.7584 30.5732 17.7584C32.9532 17.7584 35.9556 17.4289 37.8229 16.9712V19.5159C36.0105 19.8272 33.5207 20.0835 30.6648 20.0835C26.3259 20.0835 23.1405 18.8203 23.1405 15.232C23.1405 12.8521 24.66 11.0213 26.9484 9.37367C25.9232 7.48801 24.7698 4.97991 23.7446 2.58165L25.9598 1.62966C26.8385 4.04623 27.937 6.33465 28.8707 8.11046H28.889ZM38.7932 4.44899L37.3287 5.10806C36.871 4.19269 36.1387 2.83795 35.5345 1.9592L36.9991 1.35505C37.5666 2.17888 38.3722 3.57024 38.7932 4.44899ZM41.3929 3.4604L39.9283 4.11946C39.4523 3.14917 38.72 1.84935 38.0976 1.02552L39.5621 0.42138C40.148 1.24521 40.9901 2.67318 41.3929 3.47871V3.4604Z" fill="var(--fill-0, #101010)"/>
<path id="Vector_4" d="M5.14436 4.17429C5.52882 4.88827 5.93158 5.6938 6.35265 6.55424C9.04382 5.36426 11.9364 4.2109 14.2797 4.2109C17.5384 4.2109 19.5339 6.13317 19.5339 8.65958C19.5339 11.4972 17.6483 13.4561 14.1882 13.4561C12.925 13.4561 11.6252 13.1449 10.783 12.8337L10.8563 10.5819C11.7716 11.0029 12.9067 11.3508 14.0051 11.3508C16.1288 11.3508 17.2455 10.1791 17.2455 8.56805C17.2455 7.30484 16.2203 6.22471 14.2431 6.22471C12.3758 6.22471 9.75781 7.23161 7.2314 8.38497C7.50601 8.9525 7.744 9.50172 8.00031 10.0509C9.15367 12.7055 10.6915 17.1176 11.4604 19.6257L9.02552 20.2481C8.32984 17.502 7.2314 13.8223 5.9865 11.0029C5.74851 10.4354 5.4922 9.88618 5.2542 9.31865C3.56993 10.1425 2.06873 10.9297 1.08013 11.3874L0 9.11727C0.768908 8.91589 1.62935 8.62297 2.01381 8.4399C2.76441 8.14698 3.53332 7.81745 4.39376 7.43299C3.991 6.60916 3.60654 5.84025 3.2587 5.2178C2.96579 4.72351 2.45318 3.9546 2.06873 3.4603L4.35715 2.54493C4.54022 2.92939 4.96129 3.75322 5.18098 4.15598L5.14436 4.17429ZM7.744 1.75772L9.39166 0.586048C10.1606 1.19019 11.8448 2.63647 12.6504 3.4603L11.0027 4.72351C10.1789 3.86306 8.69599 2.4534 7.744 1.75772Z" fill="var(--fill-0, #101010)"/>
</g>
</svg>
