<svg preserveAspectRatio="none" width="100%" height="100%" overflow="visible" style="display: block;" viewBox="0 0 44.5661 43.4506" fill="none" xmlns="http://www.w3.org/2000/svg">
<g id="logo mark">
<path id="Vector" d="M20.3897 16.3012C19.0108 15.5351 18.0303 14.003 17.8158 12.2564C17.4787 9.43736 19.5011 6.83279 22.3201 6.49573C23.362 6.37316 23.9442 6.49573 25.2005 6.95536C26.5487 7.50692 27.8357 8.5181 28.9388 9.89699L33.9641 5.82161C32.1562 3.5541 29.9193 1.8688 27.5599 0.918895H27.468C25.5069 0.183488 23.8829 -0.184215 21.5234 0.0915625C15.1499 0.857611 10.6149 6.67958 11.381 13.0531C11.4729 13.7272 11.6261 14.3707 11.8099 14.9836C11.9938 14.9836 12.147 14.9223 12.3309 14.8916C15.0886 14.5546 17.8771 15.0448 20.3591 16.3012H20.3897Z" fill="var(--fill-0, #E1690D)"/>
<path id="Vector_2" d="M37.9475 28.1296C39.357 23.901 39.4796 19.0903 38.2539 14.4633L32.0029 16.118C32.7383 18.8758 32.8303 21.7255 32.2787 24.2994L20.7573 16.5163L20.4203 16.3018H20.3896C17.9076 15.0455 15.1192 14.5552 12.3614 14.8923C12.1776 14.8923 11.9937 14.9536 11.8405 14.9842C4.42516 16.1793 -0.81461 23.0431 0.104649 30.5503C0.656204 34.9934 3.32205 38.9462 7.21358 41.1218C10.2471 42.6846 13.5258 43.4506 16.7739 43.4506C23.7296 43.4506 30.5934 40.0187 34.9445 33.9516L40.9504 37.9963L44.5661 32.634L37.9475 28.1603V28.1296ZM10.1859 35.3611C8.16348 34.1661 6.81524 32.0824 6.53946 29.7537C6.01855 25.617 8.99082 21.8174 13.1275 21.3271C14.5677 21.1433 16.0078 21.3884 17.3254 22.0012L29.6128 30.3052C25.0472 36.5255 16.8352 38.8237 10.2165 35.3611H10.1859Z" fill="var(--fill-0, #0F83C6)"/>
</g>
</svg>
