<svg preserveAspectRatio="none" width="100%" height="100%" overflow="visible" style="display: block;" viewBox="0 0 146.855 34.2281" fill="none" xmlns="http://www.w3.org/2000/svg">
<g id="_&#227;&#131;&#172;&#227;&#130;&#164;&#227;&#131;&#164;&#227;&#131;&#188;_1" clip-path="url(#clip0_858_5234)">
<path id="Vector" d="M8.58226 6.84542C9.20178 8.02249 9.88324 9.38542 10.5957 10.7793C15.0562 8.79688 19.8574 6.90737 23.6984 6.90737C29.0881 6.90737 32.4025 10.0979 32.4025 14.2796C32.4025 18.9569 29.274 22.2403 23.5745 22.2403C21.4991 22.2403 19.3308 21.7137 17.9369 21.1871L18.0608 17.4701C19.5786 18.1825 21.4371 18.7401 23.2647 18.7401C26.7959 18.7401 28.6235 16.8196 28.6235 14.1247C28.6235 12.0493 26.9198 10.2527 23.6364 10.2527C20.5388 10.2527 16.2023 11.9254 12.0515 13.8149C12.4852 14.7442 12.9188 15.6735 13.3215 16.5718C15.211 20.9703 17.782 28.2805 19.052 32.4313L14.9942 33.4844C13.8481 28.962 12.0206 22.8598 9.97617 18.1825L8.73714 15.3947C5.94934 16.7576 3.47129 18.0586 1.82958 18.802L0.0329939 15.054C1.30299 14.7132 2.75885 14.2486 3.37836 13.9388C4.61738 13.4432 5.91836 12.8857 7.31226 12.2662C6.6308 10.9032 6.01129 9.63322 5.42275 8.58005C4.92714 7.77469 4.0908 6.50469 3.44031 5.66835L7.21934 4.15054C7.52909 4.77005 8.21056 6.16396 8.58226 6.81444V6.84542ZM12.8879 2.81859L15.6137 0.898101C16.8837 1.88932 19.6715 4.27444 21.0035 5.66835L18.2776 7.74371C16.9147 6.31883 14.4367 3.99566 12.8879 2.84956V2.81859Z" fill="var(--fill-0, #101010)"/>
<path id="Vector_2" d="M47.9477 13.3503C50.9833 11.4918 54.0499 10.005 55.9394 8.9518C57.1785 8.23936 58.1077 7.6818 58.9441 7.00034L60.8026 10.4077C59.8424 10.9962 58.7892 11.5228 57.6121 12.1423C55.165 13.3813 51.2931 15.1779 47.7619 17.5011C44.4785 19.6694 42.4031 21.9616 42.4031 24.6564C42.4031 27.5991 45.1909 29.3028 50.7355 29.3028C54.6694 29.3028 59.6565 28.7452 62.7231 28.0018V32.2145C59.7185 32.7411 55.5987 33.1438 50.8594 33.1438C43.7041 33.1438 38.4072 31.0684 38.4072 25.1211C38.4072 21.1872 40.9472 18.1516 44.7263 15.4257C43.0226 12.2972 41.1331 8.14644 39.4294 4.18156L43.1155 2.63278C44.5714 6.65961 46.368 10.4386 47.9477 13.3813V13.3503ZM64.3338 7.27912L61.9177 8.36327C61.1743 6.84546 59.9353 4.61522 58.9441 3.15936L61.3602 2.16814C62.2894 3.53107 63.6214 5.85424 64.3338 7.31009V7.27912ZM68.6394 5.63741L66.2233 6.72156C65.4489 5.11083 64.2099 2.97351 63.1877 1.57961L65.6038 0.588387C66.5641 1.95131 67.9889 4.30546 68.6394 5.63741Z" fill="var(--fill-0, #101010)"/>
<path id="Vector_3" d="M90.9753 -7.05458e-05C94.9092 5.82334 101.197 11.1821 107.052 13.9699C106.184 14.8682 105.348 16.0143 104.759 17.0675C98.9979 13.7531 92.648 8.27042 89.3645 3.4692C86.3909 8.11554 80.5675 13.5672 74.3723 17.2224C73.9387 16.417 72.9165 15.178 72.1731 14.4346C78.554 10.9343 84.6562 4.95603 87.444 0.0309051H90.9753V-7.05458e-05ZM91.6258 30.0772H105.286V33.2058H73.9387V30.0772H78.3372V16.7577H81.7136V30.0772H88.0016V10.2219H91.6258V18.5543H101.91V21.6829H91.6258V30.1082V30.0772Z" fill="var(--fill-0, #101010)"/>
<path id="Vector_4" d="M146.852 2.47729V5.66778H132.077V9.29193H139.232V25.8949H121.576V9.32291H128.608V5.69876H114.08V2.47729H146.852ZM142.392 8.8273H145.768V34.1344H142.392V31.9661H118.603V34.1963H115.226V8.8273H118.603V28.7136H142.392V8.8273ZM124.488 16.2305H128.824V12.1727H124.488V16.2305ZM124.488 23.0761H128.824V18.9873H124.488V23.0761ZM136.228 12.1727H131.829V16.2305H136.228V12.1727ZM136.228 18.9873H131.829V23.0761H136.228V18.9873Z" fill="var(--fill-0, #101010)"/>
</g>
<defs>
<clipPath id="clip0_858_5234">
<rect width="146.855" height="34.2281" fill="white"/>
</clipPath>
</defs>
</svg>
