<svg preserveAspectRatio="none" width="100%" height="100%" overflow="visible" style="display: block;" viewBox="0 0 44.5661 43.4505" fill="none" xmlns="http://www.w3.org/2000/svg">
<g id="logo mark">
<path id="Vector" d="M20.39 16.3012C19.0111 15.5351 18.0306 14.003 17.8161 12.2564C17.479 9.43736 19.5014 6.83279 22.3204 6.49573C23.3623 6.37316 23.9445 6.49573 25.2008 6.95536C26.549 7.50692 27.836 8.5181 28.9391 9.89699L33.9644 5.82161C32.1565 3.5541 29.9196 1.8688 27.5602 0.918895H27.4683C25.5072 0.183488 23.8832 -0.184215 21.5237 0.0915625C15.1502 0.857611 10.6152 6.67958 11.3813 13.0531C11.4732 13.7272 11.6264 14.3707 11.8102 14.9836C11.9941 14.9836 12.1473 14.9223 12.3312 14.8916C15.0889 14.5546 17.8773 15.0448 20.3593 16.3012H20.39Z" fill="var(--fill-0, #E1690D)"/>
<path id="Vector_2" d="M37.9475 28.1295C39.357 23.9009 39.4796 19.0902 38.2539 14.4632L32.0029 16.1179C32.7383 18.8757 32.8303 21.7254 32.2787 24.2993L20.7573 16.5162L20.4203 16.3017H20.3896C17.9076 15.0454 15.1192 14.5551 12.3614 14.8922C12.1776 14.8922 11.9937 14.9535 11.8405 14.9841C4.42516 16.1792 -0.81461 23.043 0.104649 30.5502C0.656204 34.9933 3.32205 38.9461 7.21358 41.1217C10.2471 42.6845 13.5258 43.4505 16.7739 43.4505C23.7296 43.4505 30.5934 40.0186 34.9445 33.9515L40.9504 37.9962L44.5661 32.6339L37.9475 28.1602V28.1295ZM10.1859 35.361C8.16348 34.166 6.81524 32.0823 6.53946 29.7536C6.01855 25.6169 8.99082 21.8173 13.1275 21.327C14.5677 21.1432 16.0078 21.3883 17.3254 22.0011L29.6128 30.3051C25.0472 36.5254 16.8352 38.8236 10.2165 35.361H10.1859Z" fill="var(--fill-0, #0F83C6)"/>
</g>
</svg>
