<svg preserveAspectRatio="none" width="100%" height="100%" overflow="visible" style="display: block;" viewBox="0 0 327.446 104" fill="none" xmlns="http://www.w3.org/2000/svg">
<g id="_&#227;&#131;&#172;&#227;&#130;&#164;&#227;&#131;&#164;&#227;&#131;&#188;_1" clip-path="url(#clip0_858_5354)">
<path id="Vector" fill-rule="evenodd" clip-rule="evenodd" d="M36.9523 0.0801914C43.1887 -0.40129 49.723 1.31064 54.9123 4.5358C56.7542 5.68219 59.4826 7.82211 60.9194 9.45761C62.0046 10.6957 62.937 11.8344 63.8924 14.3336C62.2798 16.0226 58.9782 19.5076 58.8865 19.4847C57.0828 13.7986 46.6813 6.32416 38.4503 9.62575C30.2727 12.9121 24.8618 24.674 27.5291 33.0731C28.7442 36.8868 31.6484 39.8903 35.2098 41.6252C37.388 42.6875 39.7801 43.2454 42.2028 43.4059C45.3056 43.6046 47.8659 43.1078 47.8583 43.1995C47.6213 45.1178 47.1246 49.3747 47.0711 50.3988C32.9171 53.4406 20.3068 43.0314 16.4244 34.0055C14.5826 29.7333 14.2616 22.6563 15.9276 17.895C17.6396 12.9961 20.2686 8.2883 24.3268 4.94086C27.9341 1.9679 32.3668 0.439392 36.9523 0.0801914Z" fill="var(--fill-0, #E1690D)"/>
<path id="Vector_2" fill-rule="evenodd" clip-rule="evenodd" d="M101.624 31.1528C100.417 33.9118 98.6206 38.2986 97.4055 41.0576C95.6859 39.4526 93.9663 37.8477 92.2467 36.2504C89.3425 33.5449 86.2932 30.7554 82.6095 29.3797C82.2273 29.2422 81.8452 29.1122 81.4554 29.0053C77.2367 27.8283 71.9404 29.2575 70.2056 33.2774C68.7076 36.7472 70.2744 40.7595 72.2156 44.0076C77.3514 52.6131 85.3455 59.9806 87.1109 69.8547C88.0739 75.2428 86.9581 80.967 84.138 85.6596C78.5589 94.9376 68.0962 99.9282 57.8323 97.7501C49.1121 95.9006 38.7794 87.4403 36.8076 79.0564C36.7617 78.9494 36.7464 78.9188 36.7235 78.873C36.6777 78.873 36.5707 78.9494 36.5248 78.9876C36.3032 79.1328 34.4537 80.7913 34.1327 81.0511C33.1392 81.8536 32.3443 82.572 31.2056 83.1452C29.188 84.1693 27.0251 84.7654 24.7782 84.9794C18.8246 85.5526 13.4519 83.3209 8.7976 79.7672C5.39666 77.1763 2.60712 73.7754 1.02511 69.358C-2.54396 59.4074 4.01335 50.2516 8.22441 44.9859C9.37843 43.5414 10.586 42.2116 12.2138 40.7824C14.155 42.2575 19.5201 45.6355 19.4666 45.6813C17.7929 47.0876 16.4937 48.2645 16.4937 48.2645C12.68 51.589 8.59125 56.8165 10.4407 62.1969C11.9998 66.7213 16.6236 70.6496 20.9722 72.3462C24.1974 73.5996 27.8199 73.6684 30.8235 71.7883C34.339 69.5873 36.3337 65.3915 37.6635 61.0276C37.8088 60.2939 38.0151 59.4914 38.3132 57.8559L45.2908 62.3803C44.5419 63.5267 44.2744 65.5367 44.1521 66.1557C43.556 69.1975 44.0986 72.736 45.0081 74.9906C47.2168 80.4703 52.1156 84.5667 57.6947 86.676C64.2597 89.1599 69.556 86.5155 71.8105 81.8994C72.7429 79.9888 73.1862 77.6884 72.7735 75.5714C72.3761 73.5308 70.8552 71.4215 69.7929 69.6331C64.9475 61.4403 57.0298 54.5696 55.0045 44.9324C53.6976 38.7266 55.3255 31.9629 59.3073 27.0258C63.2967 22.0887 69.5636 19.0776 75.9069 19.0546C85.0704 19.0164 93.1485 24.7025 100.501 30.1746L101.632 31.1528H101.624Z" fill="var(--fill-0, #0F83C6)"/>
<path id="Vector_3" fill-rule="evenodd" clip-rule="evenodd" d="M137.918 58.1211C137.918 58.1211 137.956 61.3233 137.949 62.9359C137.949 62.9894 137.933 63.0582 137.864 63.0887C137.345 63.3027 135.961 63.6619 135.64 63.7536C134.662 64.0288 133.676 64.2657 132.683 64.4567C130.726 64.8312 128.739 65.0299 126.745 64.9764C123.802 64.9 120.852 64.258 118.215 62.9359C113.821 60.7272 111.093 55.9735 110.489 51.1969C110.221 49.0799 110.397 47.0088 110.68 44.9147C110.955 42.8512 111.566 40.8183 112.598 39.007C115.235 34.345 120.569 32.1593 125.698 31.7619C125.766 31.7619 125.843 31.7542 125.912 31.7466C127.944 31.6014 129.985 31.6167 132.018 31.8077C133.065 31.8994 134.112 32.0446 135.151 32.2281C135.151 32.2281 137.299 32.6713 137.803 33.084C137.773 34.5743 137.712 35.8277 137.658 38.0746H137.589C136.856 37.8148 136.114 37.5549 135.381 37.2874C133.684 36.6837 131.758 36.3703 129.97 36.1793C127.417 35.9041 124.551 36.0264 122.365 37.5244C120.814 38.5943 119.675 40.1687 118.911 41.8653C117.237 45.5643 117.077 50.104 118.536 53.9024C118.949 54.9647 119.499 55.9811 120.195 56.883C121.723 58.8548 124.307 59.7871 126.691 60.1463C129.679 60.5973 132.476 60.0699 135.289 59.0305C135.969 58.7783 137.918 58.1211 137.918 58.1211Z" fill="var(--fill-0, #E1690D)"/>
<path id="Vector_4" fill-rule="evenodd" clip-rule="evenodd" d="M315.555 31.658C318.161 31.4211 320.943 31.6886 323.389 32.2465C323.717 32.3229 324.038 32.4146 324.359 32.5293C324.512 32.5827 325.078 32.7356 325.108 32.9343C325.192 33.7444 325.192 36.7403 325.078 37.6498C325.024 38.0701 324.153 37.5657 323.947 37.4893C323.649 37.3823 323.358 37.2753 323.06 37.1759C322.388 36.9466 321.707 36.7479 321.02 36.5722C319.598 36.2206 318.108 35.976 316.64 36.0983C315.593 36.1824 314.508 36.4881 313.736 37.2294C312.46 38.4599 312.192 40.3247 313.354 41.7156C314.088 42.6021 315.104 43.183 316.113 43.7103C320.034 45.7662 324.955 47.8144 326.774 52.1936C327.829 54.7385 327.691 57.8414 326.079 60.1189C324.688 62.0754 322.487 63.3058 320.248 64.0166C318.146 64.6815 315.914 64.9414 313.713 64.8649C311.336 64.7809 308.86 64.6433 306.155 63.795C306.178 61.9913 306.201 60.18 306.224 58.3764C306.246 58.3764 306.277 58.3687 306.292 58.3764C306.659 58.5675 307.133 58.6515 307.523 58.8044C308.012 59.0031 308.532 59.1483 309.036 59.3164C310.091 59.6603 311.153 59.9813 312.231 60.2335C314.149 60.6768 316.121 60.7914 317.932 59.9049C319.415 59.1789 320.553 57.7344 320.431 56.0225C320.301 54.1348 318.834 53.1947 317.405 52.2471C312.964 49.297 307.156 47.7609 306.147 41.3411C305.925 39.9655 306.17 38.3147 306.644 37.1377C307.76 34.3787 310.312 32.6745 313.163 32.0248C313.935 31.8491 314.73 31.7268 315.547 31.6504L315.555 31.658Z" fill="var(--fill-0, #0F83C6)"/>
<path id="Vector_5" fill-rule="evenodd" clip-rule="evenodd" d="M268.782 32.5906C268.965 32.9422 268.957 33.5536 268.957 33.9663C268.957 37.673 267.482 38.8346 265.946 40.9898C262.882 45.476 253.466 58.3079 253.328 59.5918C253.397 59.6377 253.474 59.6835 253.542 59.737L268.797 59.8058C268.797 60.4936 268.797 62.6336 268.652 64.0856H245.342C245.342 62.6565 245.342 61.0898 245.342 59.6682C249.049 54.2726 261.086 37.5507 260.597 36.7864C257.249 36.8093 255.522 36.8093 246.343 36.7864V32.583H268.774L268.782 32.5906Z" fill="var(--fill-0, #E1690D)"/>
<path id="Vector_6" fill-rule="evenodd" clip-rule="evenodd" d="M168.648 35.2714C166.776 33.72 164.499 32.7341 162.129 32.2373C160.203 31.8323 158.155 31.6718 156.122 31.817C152.798 32.0539 149.542 33.0933 146.997 35.2179C144.498 37.3043 142.801 40.369 141.999 43.4948C141.563 45.1915 141.38 46.9416 141.418 48.6918C141.533 53.5754 143.497 58.3443 147.28 61.5236C150.918 64.5883 155.748 65.6124 160.387 64.8023C162.863 64.3667 165.324 63.6024 167.426 62.1962C171.912 59.2003 173.975 53.4225 173.983 48.2026C173.983 43.4948 172.355 38.3514 168.641 35.2714H168.648ZM166.31 52.8952C165.232 56.8922 162.458 60.1632 158.132 60.6524C150.345 61.5313 147.807 50.8852 148.923 45.0539C149.657 41.2021 151.628 37.3043 155.74 36.3185C156.313 36.1809 156.894 36.1121 157.475 36.1045C160.035 36.0815 162.58 37.2967 164.193 39.2991C167.181 43.021 167.51 48.4319 166.31 52.8875V52.8952Z" fill="var(--fill-0, #E1690D)"/>
<path id="Vector_7" fill-rule="evenodd" clip-rule="evenodd" d="M236.79 35.2714C234.918 33.72 232.64 32.7341 230.271 32.2373C228.345 31.8323 226.297 31.6718 224.264 31.817C220.939 32.0539 217.684 33.0933 215.139 35.2179C212.64 37.3043 210.943 40.369 210.14 43.4948C209.705 45.1915 209.521 46.9416 209.56 48.6918C209.674 53.5448 211.677 58.3978 215.444 61.5465C220.985 66.1856 229.667 66.1321 235.567 62.1962C240.053 59.2003 242.117 53.4225 242.125 48.2026C242.125 43.4948 240.497 38.3514 236.782 35.2714H236.79ZM234.451 52.8952C233.374 56.8922 230.6 60.1632 226.274 60.6524C218.486 61.5313 215.949 50.8852 217.065 45.0539C217.798 41.2021 219.77 37.3043 223.882 36.3185C224.455 36.1809 225.036 36.1121 225.617 36.1045C228.177 36.0815 230.722 37.2967 232.334 39.299C235.323 43.021 235.651 48.4319 234.451 52.8875V52.8952Z" fill="var(--fill-0, #E1690D)"/>
<path id="Vector_8" fill-rule="evenodd" clip-rule="evenodd" d="M303.25 63.893C303.219 63.8013 303.181 63.7172 303.15 63.6332C303.081 63.465 291.327 33.3686 290.968 32.5127C288.904 32.4897 286.902 32.5127 284.762 32.5127C284.732 32.5738 284.701 32.5662 284.67 32.6273C284.495 32.9941 272.45 63.0906 272.244 63.572C272.198 63.679 272.167 63.786 272.198 63.9007C272.198 63.9312 272.267 64.0841 272.297 64.0841C273.772 64.107 275.24 64.0841 276.715 64.107L280.352 55.7461H293.253C294.323 58.4286 295.508 61.4092 296.578 64.0994L303.089 64.1605C303.211 64.0764 303.311 64.0535 303.257 63.9007L303.25 63.893ZM291.465 51.3974C288.354 51.4204 285.244 51.4433 282.126 51.4662C281.912 51.2522 282.08 51.0688 282.171 50.8242C282.263 50.5797 285.794 41.3398 286.612 39.2075C286.894 39.6585 291.381 50.8395 291.427 50.9465C291.449 51 291.488 51.0612 291.503 51.107C291.511 51.1376 291.518 51.3898 291.457 51.3898L291.465 51.3974Z" fill="var(--fill-0, #E1690D)"/>
<g id="Group">
<path id="Vector_9" fill-rule="evenodd" clip-rule="evenodd" d="M158.301 93.3693H162.458V85.5433H171.644C171.644 85.5433 172.416 92.9643 167.563 95.8837C167.563 95.8837 165.095 97.7409 162.045 98.5204V102.602C162.045 102.602 173.043 100.951 174.938 92.093C174.938 92.093 176.054 87.8896 175.68 81.5845H158.461L158.293 93.3693H158.301Z" fill="var(--fill-0, #949494)"/>
<path id="Vector_10" fill-rule="evenodd" clip-rule="evenodd" d="M188.497 80.1626C188.497 80.1626 187.84 85.1073 183.935 88.5083V93.346C183.935 93.346 184.156 93.6211 184.485 93.2925C184.485 93.2925 189.315 89.5553 190.194 86.9721H196.965C196.965 86.9721 197.622 90.9845 194.206 94.3854C194.206 94.3854 190.523 98.4512 185.799 99.5518V103.564C185.799 103.564 194.214 102.196 199.036 94.607C199.036 94.607 201.62 90.6558 201.436 83.1814H191.615C191.615 83.1814 192.326 81.6453 192.494 80.1626H188.482H188.497Z" fill="var(--fill-0, #949494)"/>
<path id="Vector_11" fill-rule="evenodd" clip-rule="evenodd" d="M209.591 97.9041L212.396 95.512C212.396 95.512 215.705 99.0199 217.424 101.695L214.543 104.003L209.598 97.9041H209.591Z" fill="var(--fill-0, #949494)"/>
<path id="Vector_12" fill-rule="evenodd" clip-rule="evenodd" d="M238.609 80.1096L241.971 81.3171L240.749 84.2289H244.279V79.6128H247.795V84.4735H255.568V87.6069H247.795V91.9708H254.498V94.9361H247.795V100.125H256.89V103.335H235.299V100.125H244.279V95.0966H238.677V91.9632H244.279V87.7598H239.319L237.768 90.9696L234.887 89.6475C234.887 89.6475 238.227 82.838 238.609 80.0866V80.1096Z" fill="var(--fill-0, #949494)"/>
<path id="Vector_13" fill-rule="evenodd" clip-rule="evenodd" d="M264.494 82.7463V86.43C264.494 86.43 269.27 86.2619 271.082 86.323L271.792 89.2884L263.775 89.3419V92.6893H272.671L273.657 96.0367C273.657 96.0367 275.66 95.968 277.501 95.8686L276.454 92.5747H281.781V89.0591H275.3L274.59 86.0938L280.069 86.0403L279.916 82.4177L273.818 82.4712L273.382 80.3848L269.698 80.4383L270.195 82.6928L264.486 82.7463H264.494Z" fill="var(--fill-0, #949494)"/>
<path id="Vector_14" fill-rule="evenodd" clip-rule="evenodd" d="M277.601 99.6984C276.753 99.8436 275.897 99.8284 275.011 99.9048C273.849 100.004 272.672 99.9124 271.541 99.6373C270.586 99.408 269.737 99.003 269.332 98.04C269.011 97.2757 269.088 96.3434 269.569 95.6708C269.745 95.4262 270.28 94.448 270.631 94.448H266.474C264.028 96.6643 264.64 100.554 267.475 102.083C269.882 103.382 272.886 103.497 275.561 103.436C277.021 103.397 278.488 103.306 279.932 103.076C279.971 100.883 279.986 99.3851 279.986 99.3851C279.183 99.5532 278.396 99.5685 277.601 99.6984Z" fill="var(--fill-0, #949494)"/>
<path id="Vector_15" fill-rule="evenodd" clip-rule="evenodd" d="M299.199 94.9817C297.617 94.2404 295.805 94.2098 294.292 95.0123C293.581 95.3867 292.917 95.8759 292.588 96.6248C292.267 97.3432 292.221 98.1686 292.336 98.9405C292.427 99.5596 292.634 100.179 292.993 100.706C294.743 103.304 298.282 103.908 301.14 103.09C304.335 102.173 306.872 99.2997 307.162 95.9446C307.162 95.8759 307.17 95.8071 307.178 95.7383C307.254 94.3703 306.971 92.987 306.398 91.7412C305.435 89.6625 303.792 88.7148 300.949 88.5237L300.513 88.6078C300.513 88.6078 304.342 85.4361 304.816 85.4132V81.3779H291.801V85.3903H298.656L289.875 91.8712C289.875 91.8712 289.982 95.6313 289.974 96.5637C289.974 96.5637 292.626 93.6289 295.867 92.4749C298.335 91.596 303.517 90.8165 304.014 94.6225C304.143 95.6389 303.769 97.4808 302.462 97.8553C302.462 97.8553 301.759 96.1816 299.206 94.9893L299.199 94.9817ZM299.115 99.6284C298.763 100.125 297.915 99.9494 297.426 99.8347C296.906 99.7124 296.394 99.4449 296.088 99.0017C295.538 98.2145 295.905 96.9993 296.975 97.0681C296.99 97.0681 297.005 97.0681 297.013 97.0681C297.93 97.1445 299.917 98.5125 299.122 99.6284H299.115Z" fill="var(--fill-0, #949494)"/>
<path id="Vector_16" fill-rule="evenodd" clip-rule="evenodd" d="M137.414 80.1625C137.414 80.1625 136.757 85.1072 132.852 88.5082V93.3459C132.852 93.3459 133.073 93.621 133.402 93.2924C133.402 93.2924 138.24 89.5552 139.119 86.972H145.89C145.89 86.972 146.547 90.9844 143.131 94.3853C143.131 94.3853 139.447 98.4511 134.724 99.5517V103.564C134.724 103.564 143.139 102.196 147.961 94.6069C147.961 94.6069 150.544 90.6557 150.361 83.1813H140.54C140.54 83.1813 141.251 81.6451 141.419 80.1625H137.407H137.414Z" fill="var(--fill-0, #949494)"/>
<path id="Vector_17" fill-rule="evenodd" clip-rule="evenodd" d="M107.211 93.3692H111.368V85.5432H120.555C120.555 85.5432 121.326 92.9641 116.473 95.8836C116.473 95.8836 114.005 97.7408 110.956 98.5203V102.601C110.956 102.601 121.953 100.951 123.849 92.0929C123.849 92.0929 124.964 87.8895 124.59 81.5844H107.371L107.203 93.3692H107.211Z" fill="var(--fill-0, #949494)"/>
</g>
<path id="Vector_18" fill-rule="evenodd" clip-rule="evenodd" d="M205.975 58.1211C205.975 58.1211 206.014 61.3233 206.006 62.9359C206.006 62.9894 205.991 63.0582 205.922 63.0887C205.402 63.3027 204.019 63.6619 203.698 63.7536C202.72 64.0288 201.734 64.2657 200.74 64.4567C198.784 64.8312 196.797 65.0299 194.802 64.9764C191.86 64.9 188.91 64.258 186.273 62.9359C181.878 60.7272 179.15 55.9735 178.546 51.1969C178.279 49.0799 178.455 47.0088 178.737 44.9147C179.012 42.8512 179.624 40.8183 180.656 39.007C183.292 34.345 188.627 32.1593 193.755 31.7619C193.824 31.7619 193.9 31.7542 193.969 31.7466C196.002 31.6014 198.042 31.6167 200.075 31.8077C201.122 31.8994 202.169 32.0446 203.209 32.2281C203.209 32.2281 205.356 32.6713 205.861 33.084C205.83 34.5743 205.769 35.8277 205.716 38.0746H205.647C204.913 37.8148 204.172 37.5549 203.438 37.2874C201.741 36.6837 199.815 36.3703 198.027 36.1793C195.475 35.9041 192.609 36.0264 190.423 37.5244C188.871 38.5943 187.733 40.1687 186.968 41.8653C185.295 45.5643 185.134 50.104 186.594 53.9024C187.007 54.9647 187.557 55.9811 188.252 56.883C189.781 58.8548 192.364 59.7871 194.748 60.1463C197.737 60.5973 200.534 60.0699 203.346 59.0305C204.027 58.7783 205.975 58.1211 205.975 58.1211Z" fill="var(--fill-0, #0F83C6)"/>
</g>
<defs>
<clipPath id="clip0_858_5354">
<rect width="327.446" height="104" fill="white"/>
</clipPath>
</defs>
</svg>
