<svg preserveAspectRatio="none" width="100%" height="100%" overflow="visible" style="display: block;" viewBox="0 0 10 10" fill="none" xmlns="http://www.w3.org/2000/svg">
<g id="open_in_new">
<mask id="mask0_750_4816" style="mask-type:alpha" maskUnits="userSpaceOnUse" x="0" y="0" width="10" height="10">
<rect id="Bounding box" width="10" height="10" fill="var(--fill-0, #D9D9D9)"/>
</mask>
<g mask="url(#mask0_750_4816)">
<path id="open_in_new_2" d="M2.25 8.5C2.04375 8.5 1.86719 8.42656 1.72031 8.27969C1.57344 8.13281 1.5 7.95625 1.5 7.75V2.25C1.5 2.04375 1.57344 1.86719 1.72031 1.72031C1.86719 1.57344 2.04375 1.5 2.25 1.5H5V2.25H2.25V7.75H7.75V5H8.5V7.75C8.5 7.95625 8.42656 8.13281 8.27969 8.27969C8.13281 8.42656 7.95625 8.5 7.75 8.5H2.25ZM4.03125 6.5L3.5 5.96875L7.21875 2.25H6V1.5H8.5V4H7.75V2.78125L4.03125 6.5Z" fill="var(--fill-0, #1C1B1F)"/>
</g>
</g>
</svg>
