<svg preserveAspectRatio="none" width="100%" height="100%" overflow="visible" style="display: block;" viewBox="0 0 30.7922 30.021" fill="none" xmlns="http://www.w3.org/2000/svg">
<g id="logo mark">
<path id="Vector" d="M14.0877 11.263C13.1349 10.7337 12.4574 9.67512 12.3092 8.46834C12.0764 6.52057 13.4737 4.72099 15.4215 4.4881C16.1413 4.40342 16.5435 4.4881 17.4116 4.80568C18.3431 5.18676 19.2323 5.88542 19.9945 6.83814L23.4666 4.02233C22.2175 2.45564 20.672 1.29121 19.0418 0.634894H18.9783C17.6233 0.126778 16.5012 -0.12728 14.871 0.0632634C10.4673 0.592551 7.33395 4.61513 7.86323 9.0188C7.92675 9.48458 8.0326 9.92918 8.15963 10.3526C8.28666 10.3526 8.39252 10.3103 8.51955 10.2891C10.425 10.0562 12.3516 10.3949 14.0665 11.263H14.0877Z" fill="var(--fill-0, #E1690D)"/>
<path id="Vector_2" d="M26.2191 19.4353C27.193 16.5136 27.2777 13.1897 26.4309 9.9928L22.1119 11.1361C22.62 13.0415 22.6835 15.0104 22.3024 16.7888L14.3419 11.4113L14.109 11.2631H14.0879C12.373 10.3951 10.4464 10.0563 8.54094 10.2892C8.41391 10.2892 8.28689 10.3315 8.18103 10.3527C3.05753 11.1784 -0.562798 15.9208 0.0723467 21.1078C0.453434 24.1777 2.29535 26.9088 4.98413 28.412C7.08011 29.4917 9.34546 30.021 11.5896 30.021C16.3956 30.021 21.138 27.6498 24.1443 23.4579L28.2939 26.2525L30.7922 22.5475L26.2191 19.4565V19.4353ZM7.03777 24.4318C5.64045 23.6061 4.7089 22.1664 4.51836 20.5574C4.15844 17.6992 6.21208 15.074 9.07023 14.7352C10.0653 14.6082 11.0604 14.7776 11.9707 15.201L20.4605 20.9385C17.3059 25.2363 11.632 26.8241 7.05894 24.4318H7.03777Z" fill="var(--fill-0, #0F83C6)"/>
</g>
</svg>
