<svg preserveAspectRatio="none" width="100%" height="100%" overflow="visible" style="display: block;" viewBox="0 0 41.0562 40.0279" fill="none" xmlns="http://www.w3.org/2000/svg">
<g id="logo mark">
<path id="Vector" d="M18.7836 15.0173C17.5133 14.3116 16.61 12.9002 16.4124 11.2911C16.1019 8.69409 17.965 6.29465 20.562 5.98414C21.5218 5.87122 22.0581 5.98414 23.2155 6.40757C24.4576 6.91569 25.6432 7.84723 26.6594 9.11752L31.2889 5.36311C29.6234 3.27419 27.5627 1.72161 25.3891 0.846525H25.3044C23.4978 0.169037 22.0017 -0.169707 19.8281 0.0843512C13.9565 0.790068 9.77865 6.15351 10.4844 12.0251C10.5691 12.6461 10.7102 13.2389 10.8796 13.8035C11.0489 13.8035 11.1901 13.747 11.3595 13.7188C13.9 13.4083 16.4688 13.8599 18.7554 15.0173H18.7836Z" fill="var(--fill-0, #E1690D)"/>
<path id="Vector_2" d="M34.9588 25.9136C36.2574 22.018 36.3703 17.5861 35.2411 13.3236L29.4825 14.8479C30.16 17.3885 30.2447 20.0138 29.7365 22.385L19.1226 15.2149L18.8121 15.0173H18.7838C16.4973 13.8599 13.9285 13.4083 11.3879 13.7188C11.2185 13.7188 11.0492 13.7753 10.908 13.8035C4.0767 14.9044 -0.750403 21.2276 0.0964568 28.1436C0.604573 32.2368 3.06047 35.8783 6.6455 37.8825C9.44014 39.3222 12.4606 40.0279 15.4528 40.0279C21.8607 40.0279 28.184 36.8663 32.1924 31.277L37.7252 35.0032L41.0562 30.0632L34.9588 25.9418V25.9136ZM9.38368 32.5755C7.52059 31.4746 6.27853 29.5551 6.02447 27.4097C5.54459 23.5988 8.28277 20.0985 12.0936 19.6468C13.4204 19.4774 14.7471 19.7033 15.961 20.2678L27.2806 27.9178C23.0746 33.6482 15.5093 35.7654 9.41191 32.5755H9.38368Z" fill="var(--fill-0, #0F83C6)"/>
</g>
</svg>
